<svg width="322" height="117" viewBox="0 0 322 117" fill="none" xmlns="http://www.w3.org/2000/svg">
<rect width="322" height="117" fill="white"/>
<path fill-rule="evenodd" clip-rule="evenodd" d="M260.62 19.4296L229.068 19.4408L220.741 52.5769C220.725 51.5756 220.63 50.5789 220.378 49.1073C220.127 47.6342 219.718 45.6852 219.282 44.0616C218.846 42.4391 218.382 41.142 217.738 39.7343C217.096 38.3281 216.273 36.8124 215.079 35.0958C213.885 33.3791 212.318 31.4615 210.992 30.0239C209.667 28.5859 208.579 27.6292 207.045 26.5091C205.508 25.3876 203.524 24.1032 201.518 23.1147C199.511 22.1277 197.483 21.4361 195.871 20.9598C194.26 20.4842 193.064 20.2227 191.692 20.0004C190.319 19.7785 188.768 19.5951 187.822 19.4998C186.877 19.4027 186.536 19.4128 186.194 19.4139L161.668 19.4557L161.678 58.9698C161.19 57.8053 160.627 56.6736 159.993 55.5817C158.954 53.8979 157.692 52.3482 156.314 51.0448C154.933 49.7413 153.436 48.6829 151.328 47.6454C149.22 46.6095 146.504 45.5937 143.753 44.8439C141 44.0956 138.209 43.6723 135.408 43.4L131.211 42.9927C130.487 42.974 129.776 42.7985 129.127 42.4783C128.457 42.1495 127.823 41.662 127.423 41.21C127.021 40.7568 126.854 40.341 126.759 39.9114C126.536 38.9624 126.721 37.9201 127.297 37.1625C127.608 36.7482 128.023 36.4258 128.47 36.1818C128.915 35.9382 129.389 35.7727 130.457 35.6255C131.525 35.4776 133.185 35.3483 134.88 35.3973C136.574 35.4447 138.3 35.6722 140.224 36.0727C142.148 36.4732 144.269 37.0485 145.932 37.5708C147.595 38.092 148.8 38.559 149.968 39.1078L158.011 24.206C157.055 23.6194 156.043 23.1263 154.258 22.4366C152.473 21.7473 149.914 20.8597 147.065 20.2093C144.213 19.5574 141.069 19.1445 137.852 19.0709C134.636 19 131.348 19.2697 128.888 19.5529C126.427 19.8368 124.797 20.1319 122.578 20.8866C120.36 21.6398 117.553 22.8528 115.332 24.2642C113.112 25.6757 111.478 27.2866 110.441 28.4006C109.404 29.5158 108.964 30.1334 108.397 31.0815C107.832 32.0297 107.142 33.3093 106.591 34.6176C106.055 35.8899 105.64 37.2101 105.353 38.5605C104.801 41.1536 104.8 43.6764 105.341 46.503C105.612 47.9133 106.022 49.3812 106.67 50.7739C107.318 52.1693 108.205 53.4888 109.095 54.5696C109.985 55.6511 110.879 56.4925 111.819 57.28C112.759 58.0672 113.745 58.8031 115.583 59.6841C117.422 60.5657 120.112 61.5961 122.137 62.2559C124.161 62.9167 125.518 63.2096 126.88 63.467C128.242 63.723 129.609 63.9426 130.506 64.079C131.402 64.2153 131.827 64.268 132.367 64.3271C132.909 64.3876 133.567 64.4533 134.207 64.6681C134.848 64.8826 135.472 65.248 135.913 65.6694C136.354 66.0926 136.613 66.5735 136.794 67.0636C136.977 67.5534 137.082 68.0499 137.048 68.6966C137.017 69.3433 136.845 70.1394 136.593 70.7719C136.342 71.4032 136.009 71.8687 135.486 72.3185C134.962 72.7676 134.249 73.2025 133.62 73.4468C132.992 73.6911 132.448 73.7449 131.442 73.6549C130.438 73.5637 128.972 73.3284 127.974 73.1262C126.976 72.9234 126.446 72.7534 125.94 72.5233C123.806 71.6838 121.673 70.8429 119.598 69.8771C117.523 68.9099 115.507 67.8186 113.491 66.724L107.814 76.0302L91.1512 19.5118L59.841 19.4942L41.1001 90.6522L62.8917 90.6148L66.4977 76.1359L86.8073 76.1307L90.8587 90.6496L111.902 90.5916L110.443 85.6333C110.977 85.9434 111.531 86.2173 112.825 86.7829C114.119 87.3485 116.151 88.2063 118.724 88.9546C121.297 89.7029 124.41 90.3406 127.25 90.6264C130.091 90.9103 132.66 90.8397 134.802 90.6376C136.944 90.4359 138.657 90.1041 140.347 89.6812C143.669 88.8275 146.863 87.7408 150.204 85.9199C151.845 85.0173 153.53 83.9115 155.011 82.6898C156.493 81.4697 157.772 80.13 158.654 79.1138C159.535 78.098 160.018 77.405 160.473 76.694C160.928 75.9848 161.351 75.2559 161.741 74.5093L161.786 90.7329C170.853 90.6828 179.92 90.7202 188.987 90.7138C189.479 90.7474 189.972 90.725 191.033 90.5763C192.599 90.3572 194.149 90.0337 195.672 89.608C197.62 89.064 199.886 88.2537 201.931 87.3231C203.829 86.4584 205.65 85.435 207.375 84.2638C208.948 83.1915 210.273 82.0999 211.595 80.8461C212.967 79.5417 214.255 78.1523 215.452 76.6862L212.094 90.5685L232.822 90.5916L236.774 76.1183L256.539 76.1452L261.167 90.5816L281.9 90.5931L260.62 19.4296ZM70.3737 60.8545L75.716 38.5526L82.2018 60.8881L70.3737 60.8545ZM199.582 55.4307C199.55 57.2251 199.289 59.4352 198.671 61.4605C198.052 63.488 197.078 65.3331 196.219 66.582C195.362 67.8291 194.622 68.4799 193.637 69.0881C192.651 69.6974 191.421 70.2608 190.425 70.572C189.424 70.8832 188.66 70.9396 187.781 70.9643C185.996 71.0028 183.891 70.9564 181.928 70.9344L181.923 38.6015C182.553 38.5676 183.185 38.5575 184.088 38.5463C184.991 38.535 186.169 38.5238 187.621 38.8085C189.074 39.0924 190.803 39.6726 191.973 40.1871C193.143 40.7015 193.755 41.1506 194.663 42.2556C195.57 43.3592 196.774 45.1174 197.582 46.6633C198.389 48.2088 198.802 49.5425 199.108 50.8987C199.414 52.2563 199.613 53.6364 199.582 55.4307ZM240.137 60.9061L245.724 38.3187L251.804 60.9061H240.137Z" fill="#78BE20"/>
</svg>
