<svg width="205" height="117" viewBox="0 0 205 117" fill="none" xmlns="http://www.w3.org/2000/svg">
<rect width="205" height="117" fill="white"/>
<g clip-path="url(#clip0_23_2)">
<path d="M169.035 52.5421C168.948 48.919 167.141 45.4535 164.048 43.8307C165.241 42.0054 166.406 40.1622 167.544 38.3017C168.712 40.6563 170.439 43.2008 170.439 46.5477C170.44 48.6747 169.942 50.7618 169.035 52.5421ZM166.044 56.157C164.735 57.11 163.18 57.6693 161.437 57.6693C159.109 57.6693 157.128 56.7163 155.897 55.0704C158.233 52.2353 160.545 49.0522 162.723 45.8234C165.264 47.2488 166.297 50.5407 166.297 53.5182C166.297 54.4399 166.218 55.3228 166.044 56.157ZM154.76 52.5815C154.634 52.0222 154.571 51.4236 154.571 50.8012C154.571 47.643 156.82 45.0986 159.795 45.0986C159.993 45.0986 160.19 45.1055 160.371 45.1211C158.476 47.7994 156.583 50.3438 154.76 52.5803M120.065 66.86C119.047 66.86 118.582 66.0333 118.582 64.5217C118.582 59.6301 122.937 49.3747 129.928 43.3496C130.701 44.6256 131.049 46.2484 131.056 47.9418C131.085 56.0227 123.671 66.86 120.065 66.86ZM92.3454 72.862C91.3589 72.862 90.8618 72.0115 90.8618 70.5618C90.8618 64.2455 101.609 43.5858 107.014 43.5858C108.032 43.5858 108.498 44.4363 108.498 45.9166C108.498 52.2972 97.8137 72.862 92.3454 72.862ZM76.675 51.2806C75.3572 49.8552 73.9212 48.6973 72.4375 47.7994C76.1147 40.2539 80.1944 33.1254 85.2996 27.6914C87.0355 29.4791 87.9746 31.9211 87.9746 34.8431C87.974 42.1048 83.1768 48.4767 76.675 51.2806ZM56.3327 86.3619C54.9122 86.3619 53.6183 86.1731 52.4583 85.8339C58.8261 78.6833 63.5682 67.2306 68.7522 55.7315C70.9301 55.8021 73.021 55.5347 74.8753 55.2041C75.9088 57.3861 76.548 60.0551 76.548 63.2306C76.5486 73.6187 68.8943 86.3619 56.3327 86.3619ZM47.8502 83.2749C45.8068 81.3604 44.7965 78.8877 44.8202 76.8318C44.8376 75.8071 45.112 74.8634 45.5539 74.0436C46.2088 75.4777 47.8026 76.5644 49.7357 76.5644C50.4617 76.562 51.1801 76.4177 51.8504 76.1394C50.5408 78.8084 49.223 81.2197 47.8502 83.2749ZM61.5718 49.1234C61.5718 47.7293 63.2608 47.485 65.0593 47.698C64.412 48.9011 63.7834 50.1142 63.1738 51.3367C62.1559 50.7063 61.5718 49.9264 61.5718 49.1234ZM71.1905 50.415C71.9062 51.0088 72.5592 51.674 73.1393 52.4003C72.1369 52.6135 71.1179 52.7398 70.0937 52.7777C70.4568 51.9904 70.8199 51.1949 71.1905 50.415ZM168.822 36.4109C170.038 35.0243 170.795 33.2915 170.795 32.0155C170.795 31.1494 170.289 30.5983 169.477 30.5983C168.128 30.5983 166.502 32.2598 166.502 34.7644C166.502 35.1187 166.548 35.4655 166.613 35.8123C165.066 38.2305 163.456 40.68 161.822 43.0427C161.243 42.928 160.654 42.87 160.063 42.8696C156.141 42.8696 152.101 45.8072 152.101 51.1161C152.101 52.5571 152.354 53.8256 152.788 54.9198C149.427 58.7403 146.475 61.213 144.479 61.213C143.691 61.213 143.217 60.788 143.217 59.8982C143.217 58.9453 143.682 57.433 144.606 55.3303L156.134 29.8346L168.585 28.3699L169.998 25.4242L157.949 25.8179L160.04 21.2019L155.369 21.7849L153.246 25.9678L136.392 26.5109L133.361 32.5128L150.989 30.4414L147.446 37.4588C145.631 36.6477 143.438 36.1834 140.882 36.1834C137.023 36.1834 133.441 37.1363 130.213 38.751C128.753 38.0418 127.104 37.6956 125.423 37.6956C121.351 37.6956 116.744 39.6489 112.996 43.0751C112.238 40.7443 110.652 39.3421 108.3 39.3421C105.562 39.3421 102.651 40.7756 99.8651 43.0989C98.2 41.736 95.7854 41.3424 93.2531 42.3034C94.6185 39.7589 95.3678 37.05 95.3678 34.3556C95.3678 29.654 93.1586 26.1959 89.1264 24.1088C90.5074 22.9903 91.9592 21.9905 93.4979 21.1313C92.9301 20.6826 92.5751 20.407 92.1013 20.1471C90.1309 20.9458 88.2283 21.9018 86.412 23.0059C83.8716 22.1948 80.8417 21.7855 77.3774 21.7855C61.2882 21.7855 46.0672 31.0556 46.0672 42.5078C46.0672 47.5643 48.9313 49.3683 51.764 49.3683C54.4076 49.3683 56.9956 47.8874 57.8163 46.092C55.512 45.6196 54.1472 43.6269 54.1472 41.0986C54.1472 32.1823 64.9735 24.3769 76.0834 24.3769C78.5687 24.3769 80.7228 24.8418 82.4907 25.6917C75.7441 30.8744 70.5676 37.9318 66.2913 45.4772C65.6959 45.3852 65.0945 45.3378 64.4921 45.3354C61.2963 45.3354 58.9925 46.7057 58.9925 49.3521C58.9925 51.148 60.1682 52.692 61.9592 53.81C59.3237 59.3001 57.0043 64.7978 54.787 69.7994C54.0138 68.2796 52.2616 67.2867 50.2258 67.2867C45.3335 67.2867 41.6569 71.5871 41.6569 76.9036C41.6569 80.3773 43.0692 83.6929 45.4994 86.348C43.2032 88.9069 40.6941 90.4278 37.7587 90.4979C36.805 90.5267 35.8621 90.2893 35.0362 89.8124C37.3324 89.5611 39.218 87.8596 39.1629 85.6469C39.1055 83.433 37.2617 81.8658 34.7282 81.9208C31.627 81.992 29.9461 84.5828 30.0018 86.8511C30.0969 91.0577 33.6709 93.2624 38.3347 93.1529C42.3668 93.058 45.8306 91.6239 48.9162 89.2068C51.8435 91.0815 55.505 92.2237 59.6004 92.2237C71.9729 92.2237 82.475 81.7008 82.475 67.5791C82.475 61.9627 81.0233 57.5205 78.861 54.1186C82.8775 52.7083 86.4045 50.4561 89.1502 47.738C93.0008 43.9262 95.8655 44.2805 97.4906 45.3128C91.1071 51.929 85.9231 62.6007 85.9231 69.7762C85.9231 74.219 87.6985 77.1091 91.1228 77.1091C101.396 77.1091 113.659 57.3393 113.508 46.4782C116.807 42.8308 121.218 40.6569 124.8 40.6569C125.479 40.6569 126.094 40.7362 126.654 40.8861C118.629 46.5488 113.627 56.2369 113.627 63.688C113.627 67.6422 115.568 70.6342 119.355 70.6342C126.425 70.6342 135.634 59.6464 135.634 48.6828C135.634 45.3197 134.679 42.7839 133.157 41.0037C135.626 39.5384 138.341 38.6485 141.252 38.6485C142.941 38.6485 144.708 39.0428 146.294 39.7358L139.216 53.7475C137.567 57.1656 136.928 59.7019 136.928 61.5372C136.928 64.3729 138.585 65.8226 141.228 65.8226C145.063 65.8226 149.593 62.262 154.106 57.1737C156.055 59.5844 159.093 60.663 161.61 60.663C162.407 60.663 163.227 60.5837 164.056 60.4343C162.154 62.8283 158.99 64.6317 154.35 65.7896L92.9063 81.1247C83.5718 83.4486 77.8663 88.0484 80.6202 96.8547C82.7505 95.1057 86.5855 93.3967 96.4965 90.3798L152.275 73.4062C160.434 70.9173 165.61 65.0815 167.82 59.189C171.624 57.3543 175.001 53.8337 175.001 48.9422C175 43.547 170.471 40.3251 168.822 36.4109Z" fill="#1E1C59"/>
</g>
<defs>
<clipPath id="clip0_23_2">
<rect width="145" height="77" fill="white" transform="translate(30 20)"/>
</clipPath>
</defs>
</svg>
