<svg width="322" height="117" viewBox="0 0 322 117" fill="none" xmlns="http://www.w3.org/2000/svg">
<rect width="322" height="117" fill="white"/>
<g clip-path="url(#clip0_23_2)">
<path d="M228.035 52.5421C227.948 48.919 226.141 45.4535 223.048 43.8307C224.241 42.0054 225.406 40.1622 226.544 38.3017C227.712 40.6563 229.439 43.2008 229.439 46.5477C229.44 48.6747 228.942 50.7618 228.035 52.5421ZM225.044 56.157C223.735 57.11 222.18 57.6693 220.437 57.6693C218.109 57.6693 216.128 56.7163 214.897 55.0704C217.233 52.2353 219.545 49.0522 221.723 45.8234C224.264 47.2488 225.297 50.5407 225.297 53.5182C225.297 54.4399 225.218 55.3228 225.044 56.157ZM213.76 52.5815C213.634 52.0222 213.571 51.4236 213.571 50.8012C213.571 47.643 215.82 45.0986 218.795 45.0986C218.993 45.0986 219.19 45.1055 219.371 45.1211C217.476 47.7994 215.583 50.3438 213.76 52.5803M179.065 66.86C178.047 66.86 177.582 66.0333 177.582 64.5217C177.582 59.6301 181.937 49.3747 188.928 43.3496C189.701 44.6256 190.049 46.2484 190.056 47.9418C190.085 56.0227 182.671 66.86 179.065 66.86ZM151.345 72.862C150.359 72.862 149.862 72.0115 149.862 70.5618C149.862 64.2455 160.609 43.5858 166.014 43.5858C167.032 43.5858 167.498 44.4363 167.498 45.9166C167.498 52.2972 156.814 72.862 151.345 72.862ZM135.675 51.2806C134.357 49.8552 132.921 48.6973 131.438 47.7994C135.115 40.2539 139.194 33.1254 144.3 27.6914C146.036 29.4791 146.975 31.9211 146.975 34.8431C146.974 42.1048 142.177 48.4767 135.675 51.2806ZM115.333 86.3619C113.912 86.3619 112.618 86.1731 111.458 85.8339C117.826 78.6833 122.568 67.2306 127.752 55.7315C129.93 55.8021 132.021 55.5347 133.875 55.2041C134.909 57.3861 135.548 60.0551 135.548 63.2306C135.549 73.6187 127.894 86.3619 115.333 86.3619ZM106.85 83.2749C104.807 81.3604 103.796 78.8877 103.82 76.8318C103.838 75.8071 104.112 74.8634 104.554 74.0436C105.209 75.4777 106.803 76.5644 108.736 76.5644C109.462 76.562 110.18 76.4177 110.85 76.1394C109.541 78.8084 108.223 81.2197 106.85 83.2749ZM120.572 49.1234C120.572 47.7293 122.261 47.485 124.059 47.698C123.412 48.9011 122.783 50.1142 122.174 51.3367C121.156 50.7063 120.572 49.9264 120.572 49.1234ZM130.191 50.415C130.906 51.0088 131.559 51.674 132.139 52.4003C131.137 52.6135 130.118 52.7398 129.094 52.7777C129.457 51.9904 129.82 51.1949 130.191 50.415ZM227.822 36.4109C229.038 35.0243 229.794 33.2915 229.794 32.0155C229.794 31.1494 229.289 30.5983 228.477 30.5983C227.128 30.5983 225.502 32.2598 225.502 34.7644C225.502 35.1187 225.548 35.4655 225.613 35.8123C224.066 38.2305 222.456 40.68 220.822 43.0427C220.243 42.928 219.654 42.87 219.063 42.8696C215.141 42.8696 211.101 45.8072 211.101 51.1161C211.101 52.5571 211.354 53.8256 211.788 54.9198C208.427 58.7403 205.475 61.213 203.479 61.213C202.691 61.213 202.217 60.788 202.217 59.8982C202.217 58.9453 202.682 57.433 203.606 55.3303L215.134 29.8346L227.585 28.3699L228.998 25.4242L216.949 25.8179L219.04 21.2019L214.369 21.7849L212.246 25.9678L195.392 26.5109L192.361 32.5128L209.989 30.4414L206.446 37.4588C204.631 36.6477 202.438 36.1834 199.882 36.1834C196.023 36.1834 192.441 37.1363 189.213 38.751C187.753 38.0418 186.104 37.6956 184.423 37.6956C180.351 37.6956 175.744 39.6489 171.996 43.0751C171.238 40.7443 169.652 39.3421 167.3 39.3421C164.562 39.3421 161.651 40.7756 158.865 43.0989C157.2 41.736 154.785 41.3424 152.253 42.3034C153.618 39.7589 154.368 37.05 154.368 34.3556C154.368 29.654 152.159 26.1959 148.126 24.1088C149.507 22.9903 150.959 21.9905 152.498 21.1313C151.93 20.6826 151.575 20.407 151.101 20.1471C149.131 20.9458 147.228 21.9018 145.412 23.0059C142.872 22.1948 139.842 21.7855 136.377 21.7855C120.288 21.7855 105.067 31.0556 105.067 42.5078C105.067 47.5643 107.931 49.3683 110.764 49.3683C113.408 49.3683 115.996 47.8874 116.816 46.092C114.512 45.6196 113.147 43.6269 113.147 41.0986C113.147 32.1823 123.974 24.3769 135.083 24.3769C137.569 24.3769 139.723 24.8418 141.491 25.6917C134.744 30.8744 129.568 37.9318 125.291 45.4772C124.696 45.3852 124.095 45.3378 123.492 45.3354C120.296 45.3354 117.993 46.7057 117.993 49.3521C117.993 51.148 119.168 52.692 120.959 53.81C118.324 59.3001 116.004 64.7978 113.787 69.7994C113.014 68.2796 111.262 67.2867 109.226 67.2867C104.334 67.2867 100.657 71.5872 100.657 76.9036C100.657 80.3773 102.069 83.6929 104.499 86.348C102.203 88.9069 99.6941 90.4278 96.7587 90.4979C95.805 90.5267 94.8621 90.2893 94.0362 89.8124C96.3324 89.5611 98.218 87.8596 98.1629 85.6469C98.1055 83.433 96.2617 81.8658 93.7282 81.9208C90.627 81.992 88.9461 84.5828 89.0018 86.8511C89.0969 91.0577 92.6709 93.2624 97.3347 93.1529C101.367 93.058 104.831 91.6239 107.916 89.2068C110.843 91.0815 114.505 92.2237 118.6 92.2237C130.973 92.2237 141.475 81.7008 141.475 67.5791C141.475 61.9627 140.023 57.5205 137.861 54.1186C141.878 52.7083 145.405 50.4561 148.15 47.738C152.001 43.9262 154.865 44.2805 156.491 45.3128C150.107 51.929 144.923 62.6007 144.923 69.7762C144.923 74.219 146.698 77.1091 150.123 77.1091C160.396 77.1091 172.659 57.3393 172.508 46.4782C175.807 42.8308 180.218 40.6569 183.8 40.6569C184.479 40.6569 185.094 40.7362 185.654 40.8861C177.629 46.5488 172.627 56.2369 172.627 63.688C172.627 67.6422 174.568 70.6342 178.355 70.6342C185.425 70.6342 194.634 59.6464 194.634 48.6828C194.634 45.3197 193.679 42.7839 192.157 41.0037C194.626 39.5384 197.341 38.6485 200.252 38.6485C201.941 38.6485 203.708 39.0428 205.294 39.7358L198.216 53.7475C196.567 57.1656 195.928 59.7019 195.928 61.5372C195.928 64.3729 197.585 65.8226 200.228 65.8226C204.063 65.8226 208.593 62.262 213.106 57.1737C215.055 59.5844 218.093 60.663 220.61 60.663C221.407 60.663 222.227 60.5837 223.056 60.4343C221.154 62.8283 217.99 64.6317 213.35 65.7896L151.906 81.1247C142.572 83.4486 136.866 88.0484 139.62 96.8547C141.751 95.1057 145.585 93.3967 155.497 90.3798L211.275 73.4062C219.434 70.9173 224.61 65.0815 226.82 59.189C230.624 57.3543 234.001 53.8337 234.001 48.9422C234 43.547 229.471 40.3251 227.822 36.4109Z" fill="#1E1C59"/>
</g>
<defs>
<clipPath id="clip0_23_2">
<rect width="145" height="77" fill="white" transform="translate(89 20)"/>
</clipPath>
</defs>
</svg>
