<svg width="322" height="117" viewBox="0 0 322 117" fill="none" xmlns="http://www.w3.org/2000/svg">
<rect width="322" height="117" fill="white"/>
<path d="M56.9688 34.8125C58.4271 34.8125 59.7396 35.0625 60.9062 35.5625C62.1146 36.0208 63.2188 36.5417 64.2188 37.125C65.2604 37.7083 66.2396 38.25 67.1562 38.75C68.0729 39.2083 69.0104 39.4375 69.9688 39.4375C70.7188 39.3958 71.5729 39.2917 72.5312 39.125C73.3646 38.9583 74.3229 38.7083 75.4062 38.375C76.5312 38 77.7812 37.4583 79.1562 36.75C77.7812 38.0833 76.6562 39.2083 75.7812 40.125C74.9479 41 74.3021 41.7292 73.8438 42.3125C73.3021 42.9792 72.9062 43.5 72.6562 43.875C72.4062 44.3333 72.0312 45.0208 71.5312 45.9375C71.0729 46.7708 70.4479 47.8958 69.6562 49.3125C68.8646 50.6875 67.8646 52.5 66.6562 54.75C66.6562 51.875 66.3646 49.6458 65.7812 48.0625C65.2396 46.4792 64.6354 45.2708 63.9688 44.4375C63.1771 43.4792 62.2812 42.875 61.2812 42.625C60.3646 42.5 59.4479 42.6667 58.5312 43.125C57.6146 43.5417 56.6979 44.1667 55.7812 45C54.9062 45.8333 54.0521 46.8333 53.2188 48C52.4271 49.125 51.6979 50.3125 51.0312 51.5625C50.4062 52.8125 49.8854 54.0833 49.4688 55.375C49.0521 56.625 48.7812 57.7917 48.6562 58.875C48.5312 59.8333 48.5104 60.9583 48.5938 62.25C48.6771 63.5 48.8646 64.7917 49.1562 66.125C49.4479 67.4167 49.8229 68.6875 50.2812 69.9375C50.7396 71.1875 51.3021 72.3125 51.9688 73.3125C52.6771 74.2708 53.4688 75.0625 54.3438 75.6875C55.2188 76.2708 56.2188 76.5417 57.3438 76.5C58.5938 76.4167 59.8229 76.0417 61.0312 75.375C62.0729 74.8333 63.1354 74 64.2188 72.875C65.3021 71.7083 66.2396 70.0625 67.0312 67.9375L76.2812 69.625C73.6146 72.875 71.0104 75.3125 68.4688 76.9375C65.9688 78.5625 63.7188 79.7083 61.7188 80.375C59.3854 81.125 57.1771 81.4792 55.0938 81.4375C52.4688 81.1458 50.0104 80.3542 47.7188 79.0625C45.4271 77.7708 43.4479 76.2083 41.7812 74.375C40.1562 72.5 38.8854 70.4583 37.9688 68.25C37.0521 66.0417 36.6562 63.875 36.7812 61.75C36.8646 60.3333 37.1562 58.6875 37.6562 56.8125C38.1562 54.8958 38.8229 52.9375 39.6562 50.9375C40.5312 48.9375 41.5729 46.9792 42.7812 45.0625C43.9896 43.1458 45.3229 41.4375 46.7812 39.9375C48.2396 38.3958 49.8229 37.1667 51.5312 36.25C53.2812 35.2917 55.0938 34.8125 56.9688 34.8125ZM76.5938 33.625C77.5521 33.7917 78.4271 33.9167 79.2188 34C80.0104 34.0417 80.6771 34.0833 81.2188 34.125C81.8438 34.1667 82.3854 34.1875 82.8438 34.1875C83.4688 34.1458 84.1979 34.0833 85.0312 34C85.7396 33.9167 86.5938 33.8125 87.5938 33.6875C88.6354 33.5625 89.8229 33.3958 91.1562 33.1875C90.5312 33.5208 90.0104 33.8542 89.5938 34.1875C89.1771 34.4792 88.8438 34.7917 88.5938 35.125C88.3021 35.5 88.0729 35.8542 87.9062 36.1875C87.6979 36.7292 87.4688 37.8542 87.2188 39.5625C86.9688 41.0208 86.6562 43.1875 86.2812 46.0625C85.9479 48.9375 85.5104 52.8333 84.9688 57.75C86.4688 56.25 87.8854 55.125 89.2188 54.375C90.5938 53.5833 91.8021 53.0208 92.8438 52.6875C94.0521 52.3125 95.1771 52.125 96.2188 52.125C97.5104 52.25 98.8229 52.6667 100.156 53.375C101.531 54.0417 102.802 54.8333 103.969 55.75C105.177 56.6667 106.219 57.6458 107.094 58.6875C108.01 59.7292 108.656 60.6458 109.031 61.4375C109.281 61.9792 109.406 62.6875 109.406 63.5625C109.406 64.3958 109.323 65.3125 109.156 66.3125C108.99 67.3125 108.76 68.3333 108.469 69.375C108.177 70.4167 107.885 71.3958 107.594 72.3125C107.344 73.2292 107.115 74.0417 106.906 74.75C106.698 75.4167 106.573 75.8958 106.531 76.1875C106.448 76.8125 106.49 77.4167 106.656 78C106.781 78.5 107.031 79.0417 107.406 79.625C107.781 80.1667 108.344 80.625 109.094 81C108.51 80.9167 107.885 80.8542 107.219 80.8125C106.594 80.7292 105.99 80.6667 105.406 80.625C104.74 80.5833 104.073 80.5625 103.406 80.5625H101.156C100.448 80.5625 99.6354 80.5833 98.7188 80.625C97.8021 80.625 96.8021 80.6458 95.7188 80.6875C96.3021 80.4792 96.8021 80.2083 97.2188 79.875C97.6354 79.5 97.9896 79.1458 98.2812 78.8125C98.6146 78.4375 98.9062 78.0417 99.1562 77.625C99.3229 77.2917 99.5312 76.6667 99.7812 75.75C100.031 74.7917 100.26 73.7083 100.469 72.5C100.677 71.25 100.823 69.9375 100.906 68.5625C101.031 67.1875 101.052 65.875 100.969 64.625C100.927 63.3333 100.74 62.1875 100.406 61.1875C100.115 60.1875 99.6562 59.4583 99.0312 59C97.1562 57.5833 95.4479 56.8958 93.9062 56.9375C92.4062 56.9375 90.9688 57.5417 89.5938 58.75C89.0938 59.2083 88.6146 59.6667 88.1562 60.125C87.7396 60.5417 87.2812 61.0417 86.7812 61.625C86.2812 62.1667 85.8229 62.7292 85.4062 63.3125C85.4062 63.9375 85.4271 64.625 85.4688 65.375C85.5104 66.125 85.5521 66.8542 85.5938 67.5625C85.6354 68.3542 85.6979 69.1458 85.7812 69.9375C85.8646 71.1458 85.9896 72.3333 86.1562 73.5C86.2812 74.5 86.4479 75.6042 86.6562 76.8125C86.8646 77.9792 87.1354 79.0417 87.4688 80C86.9271 79.9167 86.3646 79.8958 85.7812 79.9375C85.1979 79.9375 84.6354 79.9375 84.0938 79.9375C83.4688 79.9792 82.8646 80 82.2812 80C81.7396 80.0417 81.1771 80.1042 80.5938 80.1875C80.0938 80.2708 79.5521 80.3542 78.9688 80.4375C78.3854 80.4792 77.8229 80.5625 77.2812 80.6875C77.7812 79.7292 78.1979 78.7917 78.5312 77.875C78.8646 76.9167 79.1354 76.0833 79.3438 75.375C79.5938 74.5417 79.8021 73.7292 79.9688 72.9375C80.0938 72.3125 80.1771 71.125 80.2188 69.375C80.3021 67.5833 80.3646 65.5417 80.4062 63.25C80.4479 60.9167 80.4688 58.4583 80.4688 55.875C80.4688 53.2917 80.4479 50.8333 80.4062 48.5C80.3646 46.1667 80.2812 44.125 80.1562 42.375C80.0729 40.625 79.9688 39.4167 79.8438 38.75C79.6771 38.0833 79.4479 37.4167 79.1562 36.75C78.9062 36.1667 78.5729 35.6042 78.1562 35.0625C77.7396 34.4792 77.2188 34 76.5938 33.625ZM128.781 70.9375C129.948 70.9375 131.031 70.8125 132.031 70.5625C132.865 70.3542 133.656 70.0208 134.406 69.5625C135.198 69.0625 135.719 68.3333 135.969 67.375C136.802 67.5417 137.51 67.6875 138.094 67.8125C138.677 67.8958 139.177 67.9792 139.594 68.0625C140.052 68.1875 140.448 68.2708 140.781 68.3125C141.115 68.3958 141.51 68.4792 141.969 68.5625C142.385 68.6458 142.885 68.75 143.469 68.875C144.094 68.9583 144.823 69.0833 145.656 69.25C145.031 69.1667 144.385 69.2292 143.719 69.4375C143.094 69.6458 142.49 69.875 141.906 70.125C141.24 70.4167 140.615 70.7708 140.031 71.1875C139.656 71.4375 139.219 71.8125 138.719 72.3125C138.26 72.8125 137.594 73.2917 136.719 73.75C135.844 74.2083 134.677 74.6042 133.219 74.9375C131.802 75.2292 129.969 75.3333 127.719 75.25C125.01 75.1667 122.74 74.6875 120.906 73.8125C119.073 72.8958 117.594 71.7917 116.469 70.5C115.344 69.1667 114.531 67.7292 114.031 66.1875C113.531 64.6458 113.26 63.2083 113.219 61.875C113.177 60.5417 113.573 59.1458 114.406 57.6875C115.24 56.2292 116.406 54.8958 117.906 53.6875C119.448 52.4792 121.302 51.5 123.469 50.75C125.635 49.9583 128.01 49.5625 130.594 49.5625C132.094 49.5625 133.469 49.75 134.719 50.125C136.01 50.4583 137.177 50.9167 138.219 51.5C139.302 52.0833 140.24 52.75 141.031 53.5C141.823 54.2083 142.49 54.9375 143.031 55.6875C143.573 56.4792 144.031 57.3125 144.406 58.1875C144.74 58.9375 145.01 59.7917 145.219 60.75C145.427 61.7083 145.49 62.6875 145.406 63.6875C142.24 63.7708 139.677 63.8333 137.719 63.875C135.802 63.9167 134.302 63.9375 133.219 63.9375H130.406H128.281C127.531 63.9375 126.552 63.9583 125.344 64C124.135 64.0417 122.656 64.1042 120.906 64.1875C121.115 65.8542 121.635 67.1458 122.469 68.0625C123.344 68.9375 124.26 69.6042 125.219 70.0625C126.302 70.5625 127.49 70.8542 128.781 70.9375ZM123.156 59.6875C124.49 59.7708 125.594 59.8333 126.469 59.875C127.385 59.9167 128.135 59.9583 128.719 60C129.344 60.0417 129.844 60.0625 130.219 60.0625H131.781C132.823 60.0625 134.76 60 137.594 59.875C137.469 58.0417 137.073 56.6458 136.406 55.6875C135.781 54.7292 135.115 54.0208 134.406 53.5625C133.573 53.0625 132.656 52.7708 131.656 52.6875C128.948 52.7292 126.927 53.2917 125.594 54.375C124.302 55.4583 123.49 57.2292 123.156 59.6875ZM147.594 51.375C148.552 51.2917 149.365 51.2083 150.031 51.125C150.74 51.0417 151.323 50.9583 151.781 50.875C152.323 50.7917 152.781 50.7083 153.156 50.625C153.531 50.5833 153.948 50.5 154.406 50.375C154.823 50.2917 155.281 50.1875 155.781 50.0625C156.323 49.8958 156.906 49.7083 157.531 49.5L157.156 57.4375C158.073 55.9792 159.135 54.875 160.344 54.125C161.552 53.3333 162.698 52.75 163.781 52.375C165.073 51.9167 166.365 51.6458 167.656 51.5625C168.99 51.6042 170.219 51.8125 171.344 52.1875C172.302 52.5208 173.26 53.0417 174.219 53.75C175.219 54.4583 175.99 55.5 176.531 56.875C177.948 55.4167 179.344 54.2917 180.719 53.5C182.135 52.6667 183.385 52.0417 184.469 51.625C185.76 51.1667 186.969 50.8958 188.094 50.8125C189.594 50.7708 190.969 51.0208 192.219 51.5625C193.51 52.1042 194.635 52.7917 195.594 53.625C196.552 54.4167 197.323 55.2708 197.906 56.1875C198.49 57.0625 198.823 57.8333 198.906 58.5C199.031 59.4167 198.969 60.6042 198.719 62.0625C198.469 63.4792 198.177 64.9375 197.844 66.4375C197.51 67.8958 197.198 69.25 196.906 70.5C196.656 71.7083 196.552 72.5625 196.594 73.0625C196.719 73.4792 197.01 73.9792 197.469 74.5625C197.885 75.0625 198.49 75.6875 199.281 76.4375C200.115 77.1458 201.302 77.9792 202.844 78.9375C201.51 78.8958 200.323 78.8542 199.281 78.8125C198.281 78.7708 197.427 78.7083 196.719 78.625C195.885 78.5417 195.156 78.4792 194.531 78.4375C194.031 78.4375 193.427 78.3958 192.719 78.3125C192.135 78.2708 191.365 78.2083 190.406 78.125C189.49 78.0417 188.427 77.9583 187.219 77.875C187.677 77.75 188.052 77.5208 188.344 77.1875C188.635 76.8125 188.885 76.4583 189.094 76.125C189.302 75.7083 189.469 75.25 189.594 74.75C189.677 74.3333 189.76 73.6667 189.844 72.75C189.927 71.8333 189.99 70.7917 190.031 69.625C190.115 68.4583 190.156 67.2292 190.156 65.9375C190.198 64.6458 190.198 63.4167 190.156 62.25C190.115 61.0833 190.031 60.0208 189.906 59.0625C189.781 58.1042 189.615 57.375 189.406 56.875C189.24 56.5 188.948 56.2083 188.531 56C188.115 55.75 187.635 55.6042 187.094 55.5625C186.552 55.4792 186.01 55.5 185.469 55.625C184.927 55.7083 184.448 55.875 184.031 56.125C183.656 56.4167 183.156 56.8125 182.531 57.3125C181.99 57.7708 181.281 58.3958 180.406 59.1875C179.531 59.9792 178.427 60.9792 177.094 62.1875C176.969 64.8125 176.865 66.9375 176.781 68.5625C176.74 70.1458 176.698 71.3542 176.656 72.1875C176.615 73.1875 176.594 73.875 176.594 74.25C176.552 74.5833 176.573 74.8958 176.656 75.1875C176.74 75.8125 176.99 76.3958 177.406 76.9375C176.906 76.8125 176.365 76.7292 175.781 76.6875C175.24 76.6458 174.74 76.6042 174.281 76.5625C173.74 76.5208 173.198 76.5 172.656 76.5C172.198 76.5 171.698 76.5208 171.156 76.5625C170.698 76.6042 170.135 76.6667 169.469 76.75C168.802 76.7917 168.073 76.8542 167.281 76.9375C167.615 76.7292 167.885 76.4792 168.094 76.1875C168.302 75.8958 168.469 75.625 168.594 75.375C168.76 75.0833 168.885 74.8125 168.969 74.5625C169.01 74.3125 169.094 73.7083 169.219 72.75C169.344 71.75 169.427 70.5833 169.469 69.25C169.51 67.9167 169.51 66.5208 169.469 65.0625C169.427 63.5625 169.281 62.2083 169.031 61C168.781 59.75 168.385 58.7292 167.844 57.9375C167.344 57.1458 166.677 56.7917 165.844 56.875C164.844 56.9583 163.823 57.2083 162.781 57.625C161.906 57.9583 160.969 58.4583 159.969 59.125C158.969 59.7917 158.031 60.6875 157.156 61.8125C156.99 64.9375 156.885 67.4167 156.844 69.25C156.844 71.0833 156.865 72.4792 156.906 73.4375C156.948 74.5625 156.99 75.3333 157.031 75.75C157.073 76.0417 157.177 76.3333 157.344 76.625C157.469 76.875 157.615 77.1667 157.781 77.5C157.99 77.8333 158.219 78.1458 158.469 78.4375L148.531 77.9375C148.865 77.7708 149.156 77.5625 149.406 77.3125C149.656 77.0208 149.865 76.7292 150.031 76.4375C150.198 76.1042 150.365 75.7708 150.531 75.4375C150.656 75.1458 150.76 74.4583 150.844 73.375C150.969 72.2917 151.073 71.0208 151.156 69.5625C151.24 68.0625 151.302 66.5 151.344 64.875C151.427 63.2083 151.469 61.6667 151.469 60.25C151.51 58.7917 151.531 57.5625 151.531 56.5625C151.531 55.5208 151.51 54.8958 151.469 54.6875C151.344 54.2708 151.115 53.8333 150.781 53.375C150.49 53.0417 150.094 52.6875 149.594 52.3125C149.094 51.8958 148.427 51.5833 147.594 51.375ZM203.156 53.0625L214.656 53.1875C213.99 55.7292 213.49 57.8958 213.156 59.6875C212.865 61.4792 212.677 62.9792 212.594 64.1875C212.427 65.5625 212.385 66.7292 212.469 67.6875C212.594 68.5625 212.802 69.5 213.094 70.5C213.344 71.3333 213.719 72.2917 214.219 73.375C214.719 74.4583 215.385 75.5417 216.219 76.625C215.719 76.4583 215.177 76.3333 214.594 76.25C214.01 76.1667 213.469 76.1042 212.969 76.0625C212.385 76.0208 211.802 76.0208 211.219 76.0625C210.635 76.1042 209.99 76.1667 209.281 76.25C208.698 76.3333 207.99 76.4375 207.156 76.5625C206.323 76.6875 205.448 76.8542 204.531 77.0625C205.156 75.1875 205.635 73.5625 205.969 72.1875C206.344 70.8125 206.615 69.6667 206.781 68.75C206.948 67.6667 207.052 66.7917 207.094 66.125C207.094 65.2917 207.094 64.3542 207.094 63.3125C207.094 62.2292 207.094 61.1875 207.094 60.1875C207.094 59.1875 207.073 58.3125 207.031 57.5625C206.99 56.7708 206.906 56.2708 206.781 56.0625L206.156 55.4375C205.906 55.2292 205.531 54.9375 205.031 54.5625C204.573 54.1458 203.948 53.6458 203.156 53.0625ZM207.594 43.4375C208.469 42.9792 209.344 42.8542 210.219 43.0625C211.135 43.2708 211.844 43.6667 212.344 44.25C212.844 44.8333 213.01 45.5208 212.844 46.3125C212.719 47.1042 212.052 47.875 210.844 48.625C209.635 49.3333 208.573 49.5833 207.656 49.375C206.74 49.1667 206.094 48.7292 205.719 48.0625C205.344 47.3958 205.281 46.625 205.531 45.75C205.781 44.8333 206.469 44.0625 207.594 43.4375ZM246.031 45.3125C245.656 46.2292 245.323 47.0625 245.031 47.8125C244.781 48.5625 244.552 49.2292 244.344 49.8125C244.135 50.4792 243.948 51.0625 243.781 51.5625C243.615 52.1458 243.427 52.8125 243.219 53.5625C243.01 54.2292 242.74 55.0625 242.406 56.0625C242.115 57.0208 241.76 58.1667 241.344 59.5C241.01 57.5 240.406 55.9167 239.531 54.75C238.656 53.5417 237.76 52.6042 236.844 51.9375C235.76 51.1875 234.594 50.6458 233.344 50.3125C231.094 49.9375 229.469 49.9792 228.469 50.4375C227.469 50.8958 226.802 51.4792 226.469 52.1875C226.302 52.4792 226.115 52.8542 225.906 53.3125C225.74 53.7292 225.594 54.1667 225.469 54.625C225.385 55.0833 225.365 55.5417 225.406 56C225.448 56.4583 225.635 56.8333 225.969 57.125C226.177 57.3333 226.719 57.625 227.594 58C228.469 58.3333 229.51 58.7292 230.719 59.1875C231.969 59.6042 233.281 60.0625 234.656 60.5625C236.073 61.0625 237.406 61.5625 238.656 62.0625C239.906 62.5625 240.99 63.0625 241.906 63.5625C242.823 64.0625 243.427 64.5208 243.719 64.9375C243.969 65.3542 244.24 65.9167 244.531 66.625C244.865 67.2917 245.094 68.0417 245.219 68.875C245.385 69.6667 245.427 70.5 245.344 71.375C245.302 72.2083 245.073 73.0417 244.656 73.875C244.24 74.7083 243.573 75.4792 242.656 76.1875C241.781 76.8958 240.594 77.4792 239.094 77.9375C237.344 78.4792 235.656 78.625 234.031 78.375C232.406 78.125 230.906 77.75 229.531 77.25C228.198 76.75 227.031 76.2708 226.031 75.8125C225.031 75.3125 224.323 75.1042 223.906 75.1875C223.448 75.2708 222.927 75.5 222.344 75.875C221.76 76.25 221.198 76.6458 220.656 77.0625C220.156 77.4375 219.719 77.7917 219.344 78.125C218.969 78.4167 218.781 78.5208 218.781 78.4375C218.781 78.3542 218.844 78.1042 218.969 77.6875C219.135 77.2708 219.302 76.7708 219.469 76.1875C219.677 75.5625 219.865 74.8958 220.031 74.1875C220.24 73.4375 220.385 72.7292 220.469 72.0625C220.552 71.5208 220.656 70.8542 220.781 70.0625C220.865 69.3542 220.969 68.5 221.094 67.5C221.26 66.4583 221.448 65.2083 221.656 63.75C221.865 64.8333 222.156 65.7708 222.531 66.5625C222.948 67.3542 223.344 68.0417 223.719 68.625C224.177 69.2917 224.615 69.8542 225.031 70.3125C225.656 70.8958 226.385 71.4375 227.219 71.9375C228.094 72.4375 228.969 72.875 229.844 73.25C230.719 73.5833 231.552 73.7917 232.344 73.875C233.135 73.9583 233.802 73.875 234.344 73.625C234.885 73.375 235.344 72.9167 235.719 72.25C236.135 71.5833 236.427 70.8542 236.594 70.0625C236.76 69.2708 236.823 68.5208 236.781 67.8125C236.74 67.0625 236.552 66.4583 236.219 66C235.969 65.7083 235.385 65.3333 234.469 64.875C233.594 64.4167 232.531 63.9167 231.281 63.375C230.073 62.8333 228.781 62.2708 227.406 61.6875C226.073 61.1042 224.802 60.5208 223.594 59.9375C222.427 59.3125 221.448 58.7292 220.656 58.1875C219.906 57.6042 219.49 57.0833 219.406 56.625C219.323 55.9583 219.26 55.2292 219.219 54.4375C219.177 53.6042 219.219 52.7917 219.344 52C219.51 51.1667 219.802 50.375 220.219 49.625C220.677 48.875 221.344 48.25 222.219 47.75C222.802 47.4167 223.573 47.1667 224.531 47C225.49 46.8333 226.552 46.75 227.719 46.75C228.885 46.7083 230.094 46.75 231.344 46.875C232.594 46.9583 233.781 47.0833 234.906 47.25C236.073 47.375 237.115 47.5417 238.031 47.75C238.99 47.9583 239.719 48.1458 240.219 48.3125C240.802 48.5208 241.427 48.5417 242.094 48.375C242.677 48.25 243.302 47.9792 243.969 47.5625C244.635 47.1458 245.323 46.3958 246.031 45.3125ZM247.531 41.625C248.781 41.75 249.823 41.8542 250.656 41.9375C251.531 42.0208 252.24 42.0833 252.781 42.125C253.406 42.1667 253.906 42.1875 254.281 42.1875C254.656 42.2292 255.156 42.2292 255.781 42.1875C256.323 42.1458 257.031 42.1042 257.906 42.0625C258.781 41.9792 259.885 41.8542 261.219 41.6875C260.927 42.1042 260.698 42.4792 260.531 42.8125C260.365 43.1042 260.219 43.375 260.094 43.625L259.719 44.375C259.635 44.625 259.552 44.875 259.469 45.125C259.385 45.3333 259.302 45.5833 259.219 45.875C259.177 46.1667 259.135 46.4792 259.094 46.8125H268.719L267.844 51.875L259.031 51.375C258.823 53.5 258.677 55.1458 258.594 56.3125C258.51 57.4792 258.427 58.3333 258.344 58.875L258.219 60C258.094 61.5833 257.969 63.3125 257.844 65.1875C257.719 67.0208 257.677 68.7292 257.719 70.3125C257.76 71.8958 257.906 73.2292 258.156 74.3125C258.406 75.3542 258.844 75.875 259.469 75.875C260.094 75.875 260.677 75.7083 261.219 75.375C261.76 75.0417 262.219 74.6458 262.594 74.1875C263.01 73.7292 263.323 73.2708 263.531 72.8125C263.74 72.3125 263.844 71.9375 263.844 71.6875C263.844 71.4375 263.781 71.1458 263.656 70.8125C263.448 70.1875 263.073 69.3958 262.531 68.4375C263.74 68.7292 264.802 69.0208 265.719 69.3125C266.177 69.4792 266.594 69.6458 266.969 69.8125C267.385 69.9792 267.865 70.1667 268.406 70.375C268.865 70.5833 269.448 70.8333 270.156 71.125C270.865 71.4167 271.698 71.7708 272.656 72.1875C271.74 72.3542 271.073 72.625 270.656 73C270.406 73.1667 270.219 73.3542 270.094 73.5625C269.802 74.0208 269.469 74.6458 269.094 75.4375C268.719 76.1875 268.156 76.9375 267.406 77.6875C266.656 78.4375 265.635 79.1042 264.344 79.6875C263.094 80.2708 261.406 80.6042 259.281 80.6875C257.073 80.7708 255.385 80.3958 254.219 79.5625C253.094 78.7292 252.26 77.7708 251.719 76.6875C251.219 75.5625 250.927 74.4583 250.844 73.375C250.76 72.2917 250.698 71.5625 250.656 71.1875C250.615 70.8125 250.615 69.875 250.656 68.375C250.698 66.875 250.76 65.2292 250.844 63.4375C250.927 61.6042 251.01 59.8542 251.094 58.1875C251.177 56.4792 251.219 55.2292 251.219 54.4375C251.219 54.0208 251.24 53.5833 251.281 53.125C251.281 52.75 251.281 52.3542 251.281 51.9375C251.323 51.4792 251.344 51.0417 251.344 50.625L242.281 50.5625L241.906 47L251.031 47.25C250.948 46.7917 250.844 46.375 250.719 46C250.635 45.5833 250.552 45.25 250.469 45C250.344 44.7083 250.219 44.4583 250.094 44.25C249.927 44.0417 249.74 43.8125 249.531 43.5625C249.323 43.3542 249.052 43.0833 248.719 42.75C248.385 42.4167 247.99 42.0417 247.531 41.625ZM297.656 45.3125C297.281 46.2292 296.948 47.0625 296.656 47.8125C296.406 48.5625 296.177 49.2292 295.969 49.8125C295.76 50.4792 295.573 51.0625 295.406 51.5625C295.24 52.1458 295.052 52.8125 294.844 53.5625C294.635 54.2292 294.365 55.0625 294.031 56.0625C293.74 57.0208 293.385 58.1667 292.969 59.5C292.635 57.5 292.031 55.9167 291.156 54.75C290.281 53.5417 289.385 52.6042 288.469 51.9375C287.385 51.1875 286.219 50.6458 284.969 50.3125C282.719 49.9375 281.094 49.9792 280.094 50.4375C279.094 50.8958 278.427 51.4792 278.094 52.1875C277.927 52.4792 277.74 52.8542 277.531 53.3125C277.365 53.7292 277.219 54.1667 277.094 54.625C277.01 55.0833 276.99 55.5417 277.031 56C277.073 56.4583 277.26 56.8333 277.594 57.125C277.802 57.3333 278.344 57.625 279.219 58C280.094 58.3333 281.135 58.7292 282.344 59.1875C283.594 59.6042 284.906 60.0625 286.281 60.5625C287.698 61.0625 289.031 61.5625 290.281 62.0625C291.531 62.5625 292.615 63.0625 293.531 63.5625C294.448 64.0625 295.052 64.5208 295.344 64.9375C295.594 65.3542 295.865 65.9167 296.156 66.625C296.49 67.2917 296.719 68.0417 296.844 68.875C297.01 69.6667 297.052 70.5 296.969 71.375C296.927 72.2083 296.698 73.0417 296.281 73.875C295.865 74.7083 295.198 75.4792 294.281 76.1875C293.406 76.8958 292.219 77.4792 290.719 77.9375C288.969 78.4792 287.281 78.625 285.656 78.375C284.031 78.125 282.531 77.75 281.156 77.25C279.823 76.75 278.656 76.2708 277.656 75.8125C276.656 75.3125 275.948 75.1042 275.531 75.1875C275.073 75.2708 274.552 75.5 273.969 75.875C273.385 76.25 272.823 76.6458 272.281 77.0625C271.781 77.4375 271.344 77.7917 270.969 78.125C270.594 78.4167 270.406 78.5208 270.406 78.4375C270.406 78.3542 270.469 78.1042 270.594 77.6875C270.76 77.2708 270.927 76.7708 271.094 76.1875C271.302 75.5625 271.49 74.8958 271.656 74.1875C271.865 73.4375 272.01 72.7292 272.094 72.0625C272.177 71.5208 272.281 70.8542 272.406 70.0625C272.49 69.3542 272.594 68.5 272.719 67.5C272.885 66.4583 273.073 65.2083 273.281 63.75C273.49 64.8333 273.781 65.7708 274.156 66.5625C274.573 67.3542 274.969 68.0417 275.344 68.625C275.802 69.2917 276.24 69.8542 276.656 70.3125C277.281 70.8958 278.01 71.4375 278.844 71.9375C279.719 72.4375 280.594 72.875 281.469 73.25C282.344 73.5833 283.177 73.7917 283.969 73.875C284.76 73.9583 285.427 73.875 285.969 73.625C286.51 73.375 286.969 72.9167 287.344 72.25C287.76 71.5833 288.052 70.8542 288.219 70.0625C288.385 69.2708 288.448 68.5208 288.406 67.8125C288.365 67.0625 288.177 66.4583 287.844 66C287.594 65.7083 287.01 65.3333 286.094 64.875C285.219 64.4167 284.156 63.9167 282.906 63.375C281.698 62.8333 280.406 62.2708 279.031 61.6875C277.698 61.1042 276.427 60.5208 275.219 59.9375C274.052 59.3125 273.073 58.7292 272.281 58.1875C271.531 57.6042 271.115 57.0833 271.031 56.625C270.948 55.9583 270.885 55.2292 270.844 54.4375C270.802 53.6042 270.844 52.7917 270.969 52C271.135 51.1667 271.427 50.375 271.844 49.625C272.302 48.875 272.969 48.25 273.844 47.75C274.427 47.4167 275.198 47.1667 276.156 47C277.115 46.8333 278.177 46.75 279.344 46.75C280.51 46.7083 281.719 46.75 282.969 46.875C284.219 46.9583 285.406 47.0833 286.531 47.25C287.698 47.375 288.74 47.5417 289.656 47.75C290.615 47.9583 291.344 48.1458 291.844 48.3125C292.427 48.5208 293.052 48.5417 293.719 48.375C294.302 48.25 294.927 47.9792 295.594 47.5625C296.26 47.1458 296.948 46.3958 297.656 45.3125Z" fill="#0B85A7"/>
</svg>
