<svg width="322" height="117" viewBox="0 0 322 117" fill="none" xmlns="http://www.w3.org/2000/svg">
<rect width="322" height="117" fill="white"/>
<path d="M56.8906 41.3594C57.9844 41.3594 58.9688 41.5469 59.8438 41.9219C60.75 42.2656 61.5781 42.6562 62.3281 43.0938C63.1094 43.5312 63.8438 43.9375 64.5312 44.3125C65.2188 44.6562 65.9219 44.8281 66.6406 44.8281C67.2031 44.7969 67.8438 44.7188 68.5625 44.5938C69.1875 44.4688 69.9062 44.2812 70.7188 44.0312C71.5625 43.75 72.5 43.3438 73.5312 42.8125C72.5 43.8125 71.6562 44.6562 71 45.3438C70.375 46 69.8906 46.5469 69.5469 46.9844C69.1406 47.4844 68.8438 47.875 68.6562 48.1562C68.4688 48.5 68.1875 49.0156 67.8125 49.7031C67.4688 50.3281 67 51.1719 66.4062 52.2344C65.8125 53.2656 65.0625 54.625 64.1562 56.3125C64.1562 54.1562 63.9375 52.4844 63.5 51.2969C63.0938 50.1094 62.6406 49.2031 62.1406 48.5781C61.5469 47.8594 60.875 47.4062 60.125 47.2188C59.4375 47.125 58.75 47.25 58.0625 47.5938C57.375 47.9062 56.6875 48.375 56 49C55.3438 49.625 54.7031 50.375 54.0781 51.25C53.4844 52.0938 52.9375 52.9844 52.4375 53.9219C51.9688 54.8594 51.5781 55.8125 51.2656 56.7812C50.9531 57.7188 50.75 58.5938 50.6562 59.4062C50.5625 60.125 50.5469 60.9688 50.6094 61.9375C50.6719 62.875 50.8125 63.8438 51.0312 64.8438C51.25 65.8125 51.5312 66.7656 51.875 67.7031C52.2188 68.6406 52.6406 69.4844 53.1406 70.2344C53.6719 70.9531 54.2656 71.5469 54.9219 72.0156C55.5781 72.4531 56.3281 72.6562 57.1719 72.625C58.1094 72.5625 59.0312 72.2812 59.9375 71.7812C60.7188 71.375 61.5156 70.75 62.3281 69.9062C63.1406 69.0312 63.8438 67.7969 64.4375 66.2031L71.375 67.4688C69.375 69.9062 67.4219 71.7344 65.5156 72.9531C63.6406 74.1719 61.9531 75.0312 60.4531 75.5312C58.7031 76.0938 57.0469 76.3594 55.4844 76.3281C53.5156 76.1094 51.6719 75.5156 49.9531 74.5469C48.2344 73.5781 46.75 72.4062 45.5 71.0312C44.2812 69.625 43.3281 68.0938 42.6406 66.4375C41.9531 64.7812 41.6562 63.1562 41.75 61.5625C41.8125 60.5 42.0312 59.2656 42.4062 57.8594C42.7812 56.4219 43.2812 54.9531 43.9062 53.4531C44.5625 51.9531 45.3438 50.4844 46.25 49.0469C47.1562 47.6094 48.1562 46.3281 49.25 45.2031C50.3438 44.0469 51.5312 43.125 52.8125 42.4375C54.125 41.7188 55.4844 41.3594 56.8906 41.3594ZM83.4688 55C84.2812 55 85.125 55.1562 86 55.4688C86.875 55.75 87.7188 56.125 88.5312 56.5938C89.3438 57.0312 90.0781 57.5156 90.7344 58.0469C91.4219 58.5469 91.9844 59.0312 92.4219 59.5C93.2031 60.3438 93.7344 61.4844 94.0156 62.9219C94.3281 64.3281 94.3906 65.7812 94.2031 67.2812C94.0156 68.75 93.5781 70.1406 92.8906 71.4531C92.2031 72.7656 91.25 73.7344 90.0312 74.3594C89.1562 74.7969 88.2969 75.1406 87.4531 75.3906C86.6094 75.6406 85.7969 75.8281 85.0156 75.9531C84.2344 76.0781 83.5 76.1406 82.8125 76.1406C82.125 76.1406 81.5312 76.125 81.0312 76.0938C80.0938 76.0312 79.1094 75.7031 78.0781 75.1094C77.0781 74.5156 76.125 73.7812 75.2188 72.9062C74.3438 72.0312 73.5938 71.0781 72.9688 70.0469C72.3438 68.9844 71.9688 67.9844 71.8438 67.0469C71.6562 65.7656 71.625 64.4219 71.75 63.0156C71.875 61.6094 72.3281 60.3125 73.1094 59.125C73.9219 57.9375 75.1406 56.9531 76.7656 56.1719C78.4219 55.3906 80.6562 55 83.4688 55ZM81.9219 73.1875C82.2656 73.25 82.7344 73.1719 83.3281 72.9531C83.9219 72.7031 84.5 72.3125 85.0625 71.7812C85.6562 71.25 86.1719 70.5781 86.6094 69.7656C87.0781 68.9219 87.3594 67.9062 87.4531 66.7188C87.5469 65.5625 87.5469 64.5 87.4531 63.5312C87.3906 62.5625 87.25 61.7188 87.0312 61C86.8125 60.25 86.5625 59.6406 86.2812 59.1719C86 58.7031 85.7031 58.375 85.3906 58.1875C84.8594 57.9062 84.2188 57.6875 83.4688 57.5312C82.7188 57.3438 82.0781 57.375 81.5469 57.625C81.2969 57.75 80.9844 58.0156 80.6094 58.4219C80.2344 58.8281 79.8594 59.3438 79.4844 59.9688C79.1094 60.5625 78.7656 61.25 78.4531 62.0312C78.1719 62.8125 77.9688 63.625 77.8438 64.4688C77.7188 65.3125 77.6875 66.2188 77.75 67.1875C77.8438 68.1562 78.0469 69.0781 78.3594 69.9531C78.6719 70.7969 79.1094 71.5312 79.6719 72.1562C80.2656 72.75 81.0156 73.0938 81.9219 73.1875ZM97.9062 70.8438C98.125 69.8125 98.2812 68.9062 98.375 68.125C98.5 67.3125 98.5938 66.6406 98.6562 66.1094C98.7188 65.4844 98.75 64.9531 98.75 64.5156C98.7188 63.9844 98.6875 63.3594 98.6562 62.6406C98.6562 61.8906 98.625 61.1562 98.5625 60.4375C98.5312 59.6875 98.4844 59.0312 98.4219 58.4688C98.3594 57.875 98.2812 57.4531 98.1875 57.2031C98.0625 56.9531 97.8906 56.6875 97.6719 56.4062C97.2344 55.875 96.5938 55.3594 95.75 54.8594C96.4688 54.7031 97.0781 54.5781 97.5781 54.4844C98.1094 54.3594 98.5469 54.25 98.8906 54.1562C99.2656 54.0312 99.5938 53.9219 99.875 53.8281C100.125 53.7344 100.422 53.6406 100.766 53.5469C101.047 53.4844 101.391 53.4062 101.797 53.3125C102.203 53.2188 102.672 53.1094 103.203 52.9844L103.062 57.25C104.062 56.0625 105.078 55.1719 106.109 54.5781C107.141 53.9844 108.109 53.5625 109.016 53.3125C110.047 53 111.062 52.8438 112.062 52.8438C113.312 52.9062 114.469 53.1094 115.531 53.4531C116.625 53.7969 117.562 54.2031 118.344 54.6719C119.156 55.1094 119.812 55.5781 120.312 56.0781C120.812 56.5781 121.109 57.0156 121.203 57.3906C121.578 58.6094 121.672 59.7344 121.484 60.7656C121.297 61.7656 121.047 62.75 120.734 63.7188C120.453 64.6562 120.203 65.5938 119.984 66.5312C119.797 67.4688 119.875 68.4844 120.219 69.5781C120.344 69.8594 120.469 70.1406 120.594 70.4219C120.719 70.6719 120.875 70.9219 121.062 71.1719C121.25 71.4219 121.469 71.625 121.719 71.7812C121.375 71.75 121.031 71.7344 120.688 71.7344C120.344 71.7031 120.031 71.6719 119.75 71.6406C119.406 71.6094 119.094 71.5781 118.812 71.5469C118.5 71.5156 118.078 71.5 117.547 71.5C116.641 71.5 115.234 71.5469 113.328 71.6406C113.609 70.9844 113.828 70.4375 113.984 70C114.172 69.5312 114.328 69.1562 114.453 68.875C114.578 68.5312 114.672 68.2656 114.734 68.0781C115.109 67.1719 115.328 66.1406 115.391 64.9844C115.484 63.8281 115.406 62.6562 115.156 61.4688C115.062 61.0625 114.906 60.5781 114.688 60.0156C114.469 59.4531 114.172 58.9062 113.797 58.375C113.453 57.8438 113.031 57.3906 112.531 57.0156C112.062 56.6406 111.516 56.4219 110.891 56.3594C110.266 56.2969 109.562 56.4531 108.781 56.8281C108.031 57.2031 107.219 57.8906 106.344 58.8906C105.688 59.7344 105.172 60.7656 104.797 61.9844C104.453 63.0156 104.219 64.3125 104.094 65.875C103.969 67.4062 104.156 69.2031 104.656 71.2656C104.219 71.2031 103.812 71.1719 103.438 71.1719C103.062 71.1406 102.75 71.1094 102.5 71.0781C102.188 71.0469 101.906 71.0156 101.656 70.9844C101.375 70.9844 101.062 70.9688 100.719 70.9375C100.406 70.9375 100.016 70.9375 99.5469 70.9375C99.0781 70.9062 98.5312 70.875 97.9062 70.8438ZM147.125 40.0938C147.719 40.125 148.359 40.1406 149.047 40.1406C149.641 40.1406 150.312 40.1562 151.062 40.1875C151.844 40.1875 152.656 40.1562 153.5 40.0938C152.75 40.4375 152.094 40.9375 151.531 41.5938C150.969 42.25 150.516 42.9062 150.172 43.5625C149.734 44.3438 149.375 45.1562 149.094 46C148.938 46.5 148.812 47.3906 148.719 48.6719C148.625 49.9219 148.547 51.3906 148.484 53.0781C148.453 54.7656 148.438 56.5469 148.438 58.4219C148.438 60.2969 148.453 62.0938 148.484 63.8125C148.516 65.5 148.562 67 148.625 68.3125C148.688 69.625 148.766 70.5469 148.859 71.0781C148.984 71.7031 149.141 72.2969 149.328 72.8594C149.484 73.3594 149.688 73.875 149.938 74.4062C150.188 74.9062 150.5 75.3125 150.875 75.625L146.094 77.7812C145.844 77.4375 145.641 77.0781 145.484 76.7031C145.328 76.3594 145.203 76.0469 145.109 75.7656C144.984 75.4219 144.906 75.1094 144.875 74.8281C144.812 74.4531 144.75 74.0469 144.688 73.6094C144.625 73.1406 144.547 72.7031 144.453 72.2969C144.391 71.8594 144.344 71.5 144.312 71.2188C144.281 70.9375 144.281 70.7656 144.312 70.7031C144.344 70.6406 144.156 70.9219 143.75 71.5469C143.344 72.1406 142.734 72.8438 141.922 73.6562C141.141 74.4375 140.172 75.2031 139.016 75.9531C137.859 76.6719 136.562 77.125 135.125 77.3125C133.656 77.5 132.297 77.2188 131.047 76.4688C129.828 75.7188 128.781 74.6719 127.906 73.3281C127.031 71.9531 126.359 70.375 125.891 68.5938C125.453 66.7812 125.281 64.9375 125.375 63.0625C125.438 61.8125 125.719 60.7031 126.219 59.7344C126.719 58.7344 127.344 57.875 128.094 57.1562C128.875 56.4062 129.719 55.7812 130.625 55.2812C131.562 54.75 132.469 54.3125 133.344 53.9688C134.25 53.625 135.094 53.375 135.875 53.2188C136.656 53.0625 137.281 52.9531 137.75 52.8906C138.312 52.8594 138.953 52.9531 139.672 53.1719C140.297 53.3594 141.016 53.6719 141.828 54.1094C142.672 54.5469 143.609 55.2031 144.641 56.0781C144.453 52.9531 144.281 50.4531 144.125 48.5781C143.969 46.6719 143.812 45.2188 143.656 44.2188C143.5 43.0312 143.359 42.2188 143.234 41.7812C143.078 41.4688 142.875 41.1562 142.625 40.8438C142.406 40.5938 142.125 40.3438 141.781 40.0938C141.469 39.8125 141.094 39.5938 140.656 39.4375C141.469 39.5938 142.25 39.7031 143 39.7656C143.75 39.8281 144.438 39.8906 145.062 39.9531C145.781 40.0156 146.469 40.0625 147.125 40.0938ZM135.359 57.5781C134.766 57.7969 134.281 58.1719 133.906 58.7031C133.562 59.2344 133.281 59.875 133.062 60.625C132.844 61.3438 132.688 62.125 132.594 62.9688C132.531 63.7812 132.484 64.5781 132.453 65.3594C132.453 66.1094 132.453 66.7969 132.453 67.4219C132.453 68.0469 132.453 68.5156 132.453 68.8281C132.453 69.0156 132.484 69.3594 132.547 69.8594C132.641 70.3281 132.828 70.8281 133.109 71.3594C133.391 71.8594 133.781 72.3125 134.281 72.7188C134.812 73.125 135.516 73.3281 136.391 73.3281C137.109 73.2656 137.875 73.0156 138.688 72.5781C139.406 72.2031 140.219 71.6094 141.125 70.7969C142.062 69.9531 143.062 68.75 144.125 67.1875C144.062 66.1875 144.016 65.3594 143.984 64.7031C143.984 64.0469 143.969 63.5156 143.938 63.1094C143.906 62.6406 143.891 62.2656 143.891 61.9844V61.2812C143.891 61.0938 143.891 60.8906 143.891 60.6719C143.891 60.4531 143.906 60.25 143.938 60.0625C143.062 59.4375 142.281 58.9062 141.594 58.4688C140.938 58 140.281 57.6562 139.625 57.4375C139 57.1875 138.344 57.0781 137.656 57.1094C137 57.1094 136.234 57.2656 135.359 57.5781ZM152.516 55.0469L161.141 55.1406C160.641 57.0469 160.266 58.6719 160.016 60.0156C159.797 61.3594 159.656 62.4844 159.594 63.3906C159.469 64.4219 159.438 65.2969 159.5 66.0156C159.594 66.6719 159.75 67.375 159.969 68.125C160.156 68.75 160.438 69.4688 160.812 70.2812C161.188 71.0938 161.688 71.9062 162.312 72.7188C161.938 72.5938 161.531 72.5 161.094 72.4375C160.656 72.375 160.25 72.3281 159.875 72.2969C159.438 72.2656 159 72.2656 158.562 72.2969C158.125 72.3281 157.641 72.375 157.109 72.4375C156.672 72.5 156.141 72.5781 155.516 72.6719C154.891 72.7656 154.234 72.8906 153.547 73.0469C154.016 71.6406 154.375 70.4219 154.625 69.3906C154.906 68.3594 155.109 67.5 155.234 66.8125C155.359 66 155.438 65.3438 155.469 64.8438C155.469 64.2188 155.469 63.5156 155.469 62.7344C155.469 61.9219 155.469 61.1406 155.469 60.3906C155.469 59.6406 155.453 58.9844 155.422 58.4219C155.391 57.8281 155.328 57.4531 155.234 57.2969L154.766 56.8281C154.578 56.6719 154.297 56.4531 153.922 56.1719C153.578 55.8594 153.109 55.4844 152.516 55.0469ZM155.844 47.8281C156.5 47.4844 157.156 47.3906 157.812 47.5469C158.5 47.7031 159.031 48 159.406 48.4375C159.781 48.875 159.906 49.3906 159.781 49.9844C159.688 50.5781 159.188 51.1562 158.281 51.7188C157.375 52.25 156.578 52.4375 155.891 52.2812C155.203 52.125 154.719 51.7969 154.438 51.2969C154.156 50.7969 154.109 50.2188 154.297 49.5625C154.484 48.875 155 48.2969 155.844 47.8281ZM163.438 46.4688C164.375 46.5625 165.156 46.6406 165.781 46.7031C166.438 46.7656 166.969 46.8125 167.375 46.8438C167.844 46.875 168.219 46.8906 168.5 46.8906C168.781 46.9219 169.156 46.9219 169.625 46.8906C170.031 46.8594 170.562 46.8281 171.219 46.7969C171.875 46.7344 172.703 46.6406 173.703 46.5156C173.484 46.8281 173.312 47.1094 173.188 47.3594C173.062 47.5781 172.953 47.7812 172.859 47.9688L172.578 48.5312C172.516 48.7188 172.453 48.9062 172.391 49.0938C172.328 49.25 172.266 49.4375 172.203 49.6562C172.172 49.875 172.141 50.1094 172.109 50.3594H179.328L178.672 54.1562L172.062 53.7812C171.906 55.375 171.797 56.6094 171.734 57.4844C171.672 58.3594 171.609 59 171.547 59.4062L171.453 60.25C171.359 61.4375 171.266 62.7344 171.172 64.1406C171.078 65.5156 171.047 66.7969 171.078 67.9844C171.109 69.1719 171.219 70.1719 171.406 70.9844C171.594 71.7656 171.922 72.1562 172.391 72.1562C172.859 72.1562 173.297 72.0312 173.703 71.7812C174.109 71.5312 174.453 71.2344 174.734 70.8906C175.047 70.5469 175.281 70.2031 175.438 69.8594C175.594 69.4844 175.672 69.2031 175.672 69.0156C175.672 68.8281 175.625 68.6094 175.531 68.3594C175.375 67.8906 175.094 67.2969 174.688 66.5781C175.594 66.7969 176.391 67.0156 177.078 67.2344C177.422 67.3594 177.734 67.4844 178.016 67.6094C178.328 67.7344 178.688 67.875 179.094 68.0312C179.438 68.1875 179.875 68.375 180.406 68.5938C180.938 68.8125 181.562 69.0781 182.281 69.3906C181.594 69.5156 181.094 69.7188 180.781 70C180.594 70.125 180.453 70.2656 180.359 70.4219C180.141 70.7656 179.891 71.2344 179.609 71.8281C179.328 72.3906 178.906 72.9531 178.344 73.5156C177.781 74.0781 177.016 74.5781 176.047 75.0156C175.109 75.4531 173.844 75.7031 172.25 75.7656C170.594 75.8281 169.328 75.5469 168.453 74.9219C167.609 74.2969 166.984 73.5781 166.578 72.7656C166.203 71.9219 165.984 71.0938 165.922 70.2812C165.859 69.4688 165.812 68.9219 165.781 68.6406C165.75 68.3594 165.75 67.6562 165.781 66.5312C165.812 65.4062 165.859 64.1719 165.922 62.8281C165.984 61.4531 166.047 60.1406 166.109 58.8906C166.172 57.6094 166.203 56.6719 166.203 56.0781C166.203 55.7656 166.219 55.4375 166.25 55.0938C166.25 54.8125 166.25 54.5156 166.25 54.2031C166.281 53.8594 166.297 53.5312 166.297 53.2188L159.5 53.1719L159.219 50.5L166.062 50.6875C166 50.3438 165.922 50.0312 165.828 49.75C165.766 49.4375 165.703 49.1875 165.641 49C165.547 48.7812 165.453 48.5938 165.359 48.4375C165.234 48.2812 165.094 48.1094 164.938 47.9219C164.781 47.7656 164.578 47.5625 164.328 47.3125C164.078 47.0625 163.781 46.7812 163.438 46.4688ZM180.359 55.0469L188.984 55.1406C188.484 57.0469 188.109 58.6719 187.859 60.0156C187.641 61.3594 187.5 62.4844 187.438 63.3906C187.312 64.4219 187.281 65.2969 187.344 66.0156C187.438 66.6719 187.594 67.375 187.812 68.125C188 68.75 188.281 69.4688 188.656 70.2812C189.031 71.0938 189.531 71.9062 190.156 72.7188C189.781 72.5938 189.375 72.5 188.938 72.4375C188.5 72.375 188.094 72.3281 187.719 72.2969C187.281 72.2656 186.844 72.2656 186.406 72.2969C185.969 72.3281 185.484 72.375 184.953 72.4375C184.516 72.5 183.984 72.5781 183.359 72.6719C182.734 72.7656 182.078 72.8906 181.391 73.0469C181.859 71.6406 182.219 70.4219 182.469 69.3906C182.75 68.3594 182.953 67.5 183.078 66.8125C183.203 66 183.281 65.3438 183.312 64.8438C183.312 64.2188 183.312 63.5156 183.312 62.7344C183.312 61.9219 183.312 61.1406 183.312 60.3906C183.312 59.6406 183.297 58.9844 183.266 58.4219C183.234 57.8281 183.172 57.4531 183.078 57.2969L182.609 56.8281C182.422 56.6719 182.141 56.4531 181.766 56.1719C181.422 55.8594 180.953 55.4844 180.359 55.0469ZM183.688 47.8281C184.344 47.4844 185 47.3906 185.656 47.5469C186.344 47.7031 186.875 48 187.25 48.4375C187.625 48.875 187.75 49.3906 187.625 49.9844C187.531 50.5781 187.031 51.1562 186.125 51.7188C185.219 52.25 184.422 52.4375 183.734 52.2812C183.047 52.125 182.562 51.7969 182.281 51.2969C182 50.7969 181.953 50.2188 182.141 49.5625C182.328 48.875 182.844 48.2969 183.688 47.8281ZM204.406 55C205.219 55 206.062 55.1562 206.938 55.4688C207.812 55.75 208.656 56.125 209.469 56.5938C210.281 57.0312 211.016 57.5156 211.672 58.0469C212.359 58.5469 212.922 59.0312 213.359 59.5C214.141 60.3438 214.672 61.4844 214.953 62.9219C215.266 64.3281 215.328 65.7812 215.141 67.2812C214.953 68.75 214.516 70.1406 213.828 71.4531C213.141 72.7656 212.188 73.7344 210.969 74.3594C210.094 74.7969 209.234 75.1406 208.391 75.3906C207.547 75.6406 206.734 75.8281 205.953 75.9531C205.172 76.0781 204.438 76.1406 203.75 76.1406C203.062 76.1406 202.469 76.125 201.969 76.0938C201.031 76.0312 200.047 75.7031 199.016 75.1094C198.016 74.5156 197.062 73.7812 196.156 72.9062C195.281 72.0312 194.531 71.0781 193.906 70.0469C193.281 68.9844 192.906 67.9844 192.781 67.0469C192.594 65.7656 192.562 64.4219 192.688 63.0156C192.812 61.6094 193.266 60.3125 194.047 59.125C194.859 57.9375 196.078 56.9531 197.703 56.1719C199.359 55.3906 201.594 55 204.406 55ZM202.859 73.1875C203.203 73.25 203.672 73.1719 204.266 72.9531C204.859 72.7031 205.438 72.3125 206 71.7812C206.594 71.25 207.109 70.5781 207.547 69.7656C208.016 68.9219 208.297 67.9062 208.391 66.7188C208.484 65.5625 208.484 64.5 208.391 63.5312C208.328 62.5625 208.188 61.7188 207.969 61C207.75 60.25 207.5 59.6406 207.219 59.1719C206.938 58.7031 206.641 58.375 206.328 58.1875C205.797 57.9062 205.156 57.6875 204.406 57.5312C203.656 57.3438 203.016 57.375 202.484 57.625C202.234 57.75 201.922 58.0156 201.547 58.4219C201.172 58.8281 200.797 59.3438 200.422 59.9688C200.047 60.5625 199.703 61.25 199.391 62.0312C199.109 62.8125 198.906 63.625 198.781 64.4688C198.656 65.3125 198.625 66.2188 198.688 67.1875C198.781 68.1562 198.984 69.0781 199.297 69.9531C199.609 70.7969 200.047 71.5312 200.609 72.1562C201.203 72.75 201.953 73.0938 202.859 73.1875ZM218.844 70.8438C219.062 69.8125 219.219 68.9062 219.312 68.125C219.438 67.3125 219.531 66.6406 219.594 66.1094C219.656 65.4844 219.688 64.9531 219.688 64.5156C219.656 63.9844 219.625 63.3594 219.594 62.6406C219.594 61.8906 219.562 61.1562 219.5 60.4375C219.469 59.6875 219.422 59.0312 219.359 58.4688C219.297 57.875 219.219 57.4531 219.125 57.2031C219 56.9531 218.828 56.6875 218.609 56.4062C218.172 55.875 217.531 55.3594 216.688 54.8594C217.406 54.7031 218.016 54.5781 218.516 54.4844C219.047 54.3594 219.484 54.25 219.828 54.1562C220.203 54.0312 220.531 53.9219 220.812 53.8281C221.062 53.7344 221.359 53.6406 221.703 53.5469C221.984 53.4844 222.328 53.4062 222.734 53.3125C223.141 53.2188 223.609 53.1094 224.141 52.9844L224 57.25C225 56.0625 226.016 55.1719 227.047 54.5781C228.078 53.9844 229.047 53.5625 229.953 53.3125C230.984 53 232 52.8438 233 52.8438C234.25 52.9062 235.406 53.1094 236.469 53.4531C237.562 53.7969 238.5 54.2031 239.281 54.6719C240.094 55.1094 240.75 55.5781 241.25 56.0781C241.75 56.5781 242.047 57.0156 242.141 57.3906C242.516 58.6094 242.609 59.7344 242.422 60.7656C242.234 61.7656 241.984 62.75 241.672 63.7188C241.391 64.6562 241.141 65.5938 240.922 66.5312C240.734 67.4688 240.812 68.4844 241.156 69.5781C241.281 69.8594 241.406 70.1406 241.531 70.4219C241.656 70.6719 241.812 70.9219 242 71.1719C242.188 71.4219 242.406 71.625 242.656 71.7812C242.312 71.75 241.969 71.7344 241.625 71.7344C241.281 71.7031 240.969 71.6719 240.688 71.6406C240.344 71.6094 240.031 71.5781 239.75 71.5469C239.438 71.5156 239.016 71.5 238.484 71.5C237.578 71.5 236.172 71.5469 234.266 71.6406C234.547 70.9844 234.766 70.4375 234.922 70C235.109 69.5312 235.266 69.1562 235.391 68.875C235.516 68.5312 235.609 68.2656 235.672 68.0781C236.047 67.1719 236.266 66.1406 236.328 64.9844C236.422 63.8281 236.344 62.6562 236.094 61.4688C236 61.0625 235.844 60.5781 235.625 60.0156C235.406 59.4531 235.109 58.9062 234.734 58.375C234.391 57.8438 233.969 57.3906 233.469 57.0156C233 56.6406 232.453 56.4219 231.828 56.3594C231.203 56.2969 230.5 56.4531 229.719 56.8281C228.969 57.2031 228.156 57.8906 227.281 58.8906C226.625 59.7344 226.109 60.7656 225.734 61.9844C225.391 63.0156 225.156 64.3125 225.031 65.875C224.906 67.4062 225.094 69.2031 225.594 71.2656C225.156 71.2031 224.75 71.1719 224.375 71.1719C224 71.1406 223.688 71.1094 223.438 71.0781C223.125 71.0469 222.844 71.0156 222.594 70.9844C222.312 70.9844 222 70.9688 221.656 70.9375C221.344 70.9375 220.953 70.9375 220.484 70.9375C220.016 70.9062 219.469 70.875 218.844 70.8438ZM257.703 68.4531C258.578 68.4531 259.391 68.3594 260.141 68.1719C260.766 68.0156 261.359 67.7656 261.922 67.4219C262.516 67.0469 262.906 66.5 263.094 65.7812C263.719 65.9062 264.25 66.0156 264.688 66.1094C265.125 66.1719 265.5 66.2344 265.812 66.2969C266.156 66.3906 266.453 66.4531 266.703 66.4844C266.953 66.5469 267.25 66.6094 267.594 66.6719C267.906 66.7344 268.281 66.8125 268.719 66.9062C269.188 66.9688 269.734 67.0625 270.359 67.1875C269.891 67.125 269.406 67.1719 268.906 67.3281C268.438 67.4844 267.984 67.6562 267.547 67.8438C267.047 68.0625 266.578 68.3281 266.141 68.6406C265.859 68.8281 265.531 69.1094 265.156 69.4844C264.812 69.8594 264.312 70.2188 263.656 70.5625C263 70.9062 262.125 71.2031 261.031 71.4531C259.969 71.6719 258.594 71.75 256.906 71.6875C254.875 71.625 253.172 71.2656 251.797 70.6094C250.422 69.9219 249.312 69.0938 248.469 68.125C247.625 67.125 247.016 66.0469 246.641 64.8906C246.266 63.7344 246.062 62.6562 246.031 61.6562C246 60.6562 246.297 59.6094 246.922 58.5156C247.547 57.4219 248.422 56.4219 249.547 55.5156C250.703 54.6094 252.094 53.875 253.719 53.3125C255.344 52.7188 257.125 52.4219 259.062 52.4219C260.188 52.4219 261.219 52.5625 262.156 52.8438C263.125 53.0938 264 53.4375 264.781 53.875C265.594 54.3125 266.297 54.8125 266.891 55.375C267.484 55.9062 267.984 56.4531 268.391 57.0156C268.797 57.6094 269.141 58.2344 269.422 58.8906C269.672 59.4531 269.875 60.0938 270.031 60.8125C270.188 61.5312 270.234 62.2656 270.172 63.0156C267.797 63.0781 265.875 63.125 264.406 63.1562C262.969 63.1875 261.844 63.2031 261.031 63.2031H258.922H257.328C256.766 63.2031 256.031 63.2188 255.125 63.25C254.219 63.2812 253.109 63.3281 251.797 63.3906C251.953 64.6406 252.344 65.6094 252.969 66.2969C253.625 66.9531 254.312 67.4531 255.031 67.7969C255.844 68.1719 256.734 68.3906 257.703 68.4531ZM253.484 60.0156C254.484 60.0781 255.312 60.125 255.969 60.1562C256.656 60.1875 257.219 60.2188 257.656 60.25C258.125 60.2812 258.5 60.2969 258.781 60.2969H259.953C260.734 60.2969 262.188 60.25 264.312 60.1562C264.219 58.7812 263.922 57.7344 263.422 57.0156C262.953 56.2969 262.453 55.7656 261.922 55.4219C261.297 55.0469 260.609 54.8281 259.859 54.7656C257.828 54.7969 256.312 55.2188 255.312 56.0312C254.344 56.8438 253.734 58.1719 253.484 60.0156ZM271.578 53.5469C272.172 53.5781 272.703 53.5938 273.172 53.5938C273.672 53.5625 274.094 53.5312 274.438 53.5C274.844 53.4688 275.203 53.4375 275.516 53.4062C275.984 53.3438 276.469 53.2656 276.969 53.1719C277.406 53.1094 277.859 53.0312 278.328 52.9375C278.828 52.8125 279.312 52.6719 279.781 52.5156C279.594 52.9844 279.438 53.3906 279.312 53.7344C279.188 54.0781 279.094 54.375 279.031 54.625C278.938 54.9062 278.891 55.1406 278.891 55.3281C278.859 55.5469 278.844 55.8125 278.844 56.125C278.812 56.6562 278.812 57.5156 278.844 58.7031C280.469 57.2969 281.828 56.2031 282.922 55.4219C284.047 54.6406 284.938 54.0312 285.594 53.5938C286.375 53.0938 286.984 52.7656 287.422 52.6094C288.578 52.4219 289.594 52.6875 290.469 53.4062C290.844 53.7188 291.203 54.1406 291.547 54.6719C291.891 55.1719 292.188 55.8438 292.438 56.6875C292.688 57.5312 292.875 58.5469 293 59.7344C293.125 60.8906 293.141 62.2812 293.047 63.9062C292.391 63.9688 291.797 64.0312 291.266 64.0938C290.766 64.1562 290.344 64.2031 290 64.2344C289.594 64.2969 289.219 64.3281 288.875 64.3281L287.609 64.4688C287.172 64.5312 286.625 64.5938 285.969 64.6562C285.344 64.6875 284.578 64.75 283.672 64.8438C284.984 63.7812 285.828 62.8594 286.203 62.0781C286.609 61.2656 286.781 60.5938 286.719 60.0625C286.656 59.4688 286.375 58.9531 285.875 58.5156C285.281 58.1719 284.641 58.0469 283.953 58.1406C283.359 58.2031 282.672 58.4688 281.891 58.9375C281.109 59.4062 280.281 60.2812 279.406 61.5625C279.469 63.5625 279.531 65.2188 279.594 66.5312C279.688 67.8438 279.766 68.9062 279.828 69.7188C279.922 70.6562 280 71.3906 280.062 71.9219C280.156 72.3906 280.344 72.8906 280.625 73.4219C280.844 73.8594 281.156 74.3438 281.562 74.875C281.969 75.4062 282.5 75.9375 283.156 76.4688C281.781 76.4062 280.656 76.4062 279.781 76.4688C279.25 76.5 278.781 76.5312 278.375 76.5625C277.938 76.625 277.469 76.6875 276.969 76.75C276.531 76.8125 276.016 76.875 275.422 76.9375C274.859 77.0312 274.234 77.125 273.547 77.2188C273.797 76.875 274 76.4688 274.156 76C274.312 75.5625 274.438 75.1406 274.531 74.7344C274.656 74.2656 274.75 73.7812 274.812 73.2812C274.844 72.8438 274.859 72.1875 274.859 71.3125C274.891 70.4375 274.875 69.4531 274.812 68.3594C274.781 67.2344 274.734 66.0781 274.672 64.8906C274.609 63.6719 274.531 62.5312 274.438 61.4688C274.344 60.4062 274.234 59.4844 274.109 58.7031C274.016 57.8906 273.906 57.3281 273.781 57.0156C273.625 56.6406 273.438 56.2656 273.219 55.8906C273.031 55.5469 272.797 55.1875 272.516 54.8125C272.234 54.4062 271.922 53.9844 271.578 53.5469Z" fill="#F2CF0D"/>
</svg>
