<svg width="322" height="117" viewBox="0 0 322 117" fill="none" xmlns="http://www.w3.org/2000/svg">
<g clip-path="url(#clip0_277_8)">
<rect width="322" height="117" fill="white"/>
<path d="M183.248 0.457529C182.816 0.682687 177.569 4.66049 171.706 9.31377L160.966 17.7197L153.374 18.2451C145.103 18.7704 137.326 20.7218 134.672 22.8233C133.068 24.0992 133.006 24.1742 133.314 31.2292L133.623 38.3592L132.327 36.3328C129.92 32.6552 126.895 32.0548 118.069 33.3307C111.897 34.1563 111.958 34.1563 113.502 37.3085C115.353 41.0611 119.18 45.5643 121.587 46.7651L123.501 47.7408L121.34 48.6415C120.168 49.0918 118.378 50.5928 117.328 51.9438C115.353 54.4205 112.205 60.8751 112.205 62.3761C112.205 62.8264 111.773 63.8772 111.156 64.6277C110.601 65.3782 110.292 66.1288 110.477 66.3539C111.526 67.6298 120.6 67.1045 123.501 65.6034C124.303 65.2281 124.55 65.4533 124.55 66.6541C124.55 68.6806 125.044 68.6806 130.29 65.9036C136.462 62.7514 138.129 60.6499 138.129 56.0717C138.129 51.4935 139.116 51.3434 141.338 55.6214C141.956 56.6721 143.067 57.873 143.807 58.1732C144.61 58.3983 145.412 58.9988 145.597 59.4491C146.214 60.5749 153.93 62.151 158.806 62.151C163.867 62.226 170.163 60.5749 171.15 58.9988C171.706 58.0231 171.953 58.0231 173.064 59.1489C173.804 59.8243 174.73 61.4004 175.224 62.6013C175.718 63.8772 177.137 65.4533 178.434 66.2038C180.47 67.4797 181.335 67.5548 185.593 66.8042C189.667 66.1288 194.913 63.7271 194.913 62.5262C194.913 62.3761 193.741 60.725 192.321 58.8486C190.84 57.0474 189.05 54.7207 188.371 53.67L187.013 51.8687L189.914 50.9681C192.136 50.2926 193.494 49.1668 196.024 45.9396C197.753 43.6129 199.234 41.2863 199.234 40.7609C199.234 40.3106 199.666 39.485 200.16 38.9596C200.715 38.4343 200.962 37.8338 200.777 37.6087C200.592 37.3835 201.147 36.2577 202.073 35.1319L203.616 33.1806L201.888 32.5801C198.246 31.4544 191.766 31.4544 189.544 32.5801L187.322 33.7059L187.754 31.4544C188.062 29.2778 188.001 29.2028 186.396 29.6531C185.47 29.8782 184.359 30.1785 183.989 30.4036C183.433 30.5537 183.186 29.8032 183.186 28.0019C183.186 25.3751 181.458 22.373 179.421 21.5474C178.927 21.3222 178.68 21.022 178.866 20.7969C179.051 20.6467 181.581 18.2451 184.482 15.4681C191.148 9.23871 192.136 6.16155 188.803 2.10869C187.075 0.0822646 185.223 -0.518158 183.248 0.457529ZM187.692 3.83491C188.618 5.33596 188.741 6.08649 188.186 7.13723C187.815 7.96281 187.507 8.11292 187.507 7.58755C187.507 7.13723 187.198 6.68692 186.828 6.68692C186.457 6.68692 186.334 7.36239 186.581 8.33808C186.89 9.76408 186.766 9.68903 185.655 7.81271C184.297 5.56112 184.235 6.2366 185.346 10.0643C185.717 11.4903 185.717 11.4903 184.791 10.1393C184.297 9.38882 183.742 8.33808 183.618 7.88776C183.495 7.43744 183.124 7.28734 182.878 7.6626C182.569 7.96281 182.692 8.63829 183.063 9.08861C183.495 9.61398 183.803 10.6647 183.803 11.4903C183.803 12.9914 183.803 12.9914 182.878 11.4903C181.952 10.1393 181.89 10.1393 182.075 11.8656C182.26 13.4417 181.211 14.6425 174.977 20.0463C169.607 24.6996 167.447 26.1256 166.953 25.5252C165.904 24.2493 165.348 24.5495 165.719 26.3508C166.027 28.077 165.966 28.077 164.669 26.2007C163.373 24.3994 163.373 24.3994 163.744 25.9755C164.114 27.5516 163.929 27.7017 161.645 27.7017C159.979 27.7017 158.374 27.0262 156.831 25.7503L154.485 23.799L156.522 24.0992C157.571 24.3243 158.497 24.1742 158.497 23.799C158.497 23.4988 158.25 23.1985 157.88 23.1985C157.571 23.1985 157.263 22.8233 157.263 22.373C157.263 21.7725 157.942 21.6975 159.176 21.9977C160.966 22.373 161.028 22.2979 160.287 21.1721C159.485 20.0463 159.546 19.9713 160.843 20.4216C161.892 20.7218 162.201 20.5717 161.954 19.8212C161.583 18.5453 180.409 3.6848 182.446 3.6848C183.248 3.6848 183.742 3.38459 183.495 3.00933C183.186 2.33385 184.791 1.50827 185.902 1.73343C186.272 1.80848 187.013 2.78417 187.692 3.83491ZM153.251 20.2715C143.807 21.3973 138.746 23.2736 138.746 25.8254C138.746 29.578 153.806 32.355 165.595 30.7789C172.94 29.7281 176.026 28.7525 177.446 26.8011C178.495 25.3751 178.495 25.3 177.446 24.3243C175.162 22.2979 177.137 21.6975 180.1 23.5738C182.384 24.9998 182.446 27.0262 180.285 28.6023C178.063 30.1785 169.978 32.2049 165.78 32.2799C163.99 32.2799 161.398 32.5801 160.04 32.9554C158.25 33.4808 159.361 33.5558 164.361 33.3307C170.286 33.1055 176.397 31.6795 181.026 29.6531C182.075 29.1277 182.075 29.2778 180.841 30.6288C179.051 32.5051 176.397 33.4808 169.484 34.6066C166.521 35.0569 164.237 35.6573 164.361 35.9575C164.793 36.7831 173.496 35.3571 177.631 33.781C179.791 32.9554 181.643 32.355 181.767 32.5051C182.013 32.8053 180.162 41.1362 179.421 42.7873C179.112 43.6129 178.619 44.0632 178.31 43.9131C178.063 43.688 175.656 44.0632 172.94 44.5886C168.62 45.5643 168.496 45.6393 171.768 45.2641C173.743 45.114 176.026 44.7387 176.829 44.5136C177.631 44.2133 178.248 44.3634 178.248 44.7387C178.248 45.9396 175.101 49.467 174.422 49.0167C174.051 48.7165 173.928 48.7916 174.113 49.2419C174.36 49.6922 173.866 50.5928 173.064 51.2683C171.768 52.244 171.521 52.244 171.212 51.3434C170.965 50.5928 171.274 50.2176 172.2 50.2176C172.94 50.2176 173.372 50.0675 173.187 49.8423C173.002 49.6171 170.657 49.9174 168.002 50.5928L163.126 51.7186L167.138 51.3434C172.323 50.818 170.965 52.0188 164.978 53.2947C162.139 53.8952 158.744 53.9702 155.102 53.5949C152.078 53.2947 148.807 52.9945 147.881 52.9195C147.017 52.8444 146.4 52.5442 146.646 52.1689C146.832 51.7937 146.523 51.7186 145.906 51.9438C144.548 52.6193 140.536 49.5421 138.499 46.2398C136.894 43.688 135.475 40.0104 134.796 36.5579L134.425 34.6066L137.388 35.9575C140.659 37.4586 146.091 38.7345 145.35 37.7588C145.103 37.4586 142.943 36.5579 140.536 35.8074C136.524 34.6066 134.055 33.1806 134.611 32.43C134.734 32.2799 135.907 32.7303 137.141 33.3307C138.437 34.0062 139.795 34.3814 140.166 34.2313C140.598 34.0062 140.104 33.4808 139.055 33.0305C134.857 31.0791 134.425 30.5537 134.425 27.6267C134.425 25.4501 134.796 24.4744 135.845 23.6489C138.684 21.3973 147.079 19.6711 154.794 19.6711C158.497 19.6711 158.435 19.6711 153.251 20.2715ZM149.856 24.7747C148.313 25.0749 146.276 25.6002 145.289 25.8254C144.301 26.0506 143.622 25.9755 143.869 25.7503C144.424 25.0749 148.436 24.0992 150.782 24.0992C152.078 24.0992 151.831 24.3243 149.856 24.7747ZM156.09 26.2007C156.707 26.651 157.263 27.3264 157.263 27.7017C157.263 28.9026 155.843 28.5273 154.177 26.9512C152.88 25.7503 152.819 25.4501 153.745 25.4501C154.362 25.4501 155.411 25.8254 156.09 26.2007ZM186.519 34.6066C186.334 36.7831 185.593 40.0854 184.976 41.8867C183.433 46.1647 183.495 46.1647 185.655 43.9131C187.198 42.337 187.815 42.1119 189.112 42.7123C191.025 43.6129 195.963 43.688 196.395 42.8624C196.518 42.5622 195.716 42.4121 194.543 42.5622C193.37 42.7123 191.704 42.6372 190.778 42.337C189.112 41.8867 189.112 41.8116 190.284 40.7609C191.148 40.0104 192.259 39.7852 193.802 40.0854C195.037 40.3856 196.58 40.2355 197.197 39.7852C198.061 39.1848 197.753 39.1097 196.024 39.485C192.815 40.0854 193.062 38.7345 196.333 37.1584C197.753 36.4829 199.172 35.9575 199.419 35.9575C200.222 35.9575 199.851 38.7345 198.925 39.7102C198.432 40.2355 198 41.0611 198 41.5114C198 42.0368 196.827 43.9131 195.346 45.7895C192.198 49.7673 189.112 51.1182 184.544 50.4427C181.211 49.9924 180.717 49.467 182.137 48.1161C182.754 47.5157 183.803 47.5907 186.149 48.4914C188.186 49.3169 189.605 49.467 189.914 49.0167C190.284 48.6415 189.729 48.2662 188.433 48.1911C187.322 48.1161 185.717 47.6658 184.914 47.1404C184.112 46.615 183.248 46.2398 183.001 46.3148C182.692 46.3899 182.631 45.8645 182.878 45.0389C183.063 44.2133 182.878 42.7123 182.446 41.8116C181.396 39.485 181.705 38.2842 183.989 35.207C185.779 32.8804 185.779 32.8053 184.235 34.4565L182.446 36.3328L182.692 34.0812C182.878 32.0548 183.865 31.1541 186.457 30.7789C186.704 30.7038 186.766 32.5051 186.519 34.6066ZM201.641 33.3307C202.32 33.6309 202.258 33.9311 201.333 34.7567C200.715 35.3571 199.913 35.6573 199.543 35.4322C199.172 35.2821 197.506 35.8074 195.839 36.7081C194.234 37.5336 192.753 38.1341 192.63 37.9089C192.506 37.7588 193.247 36.7831 194.296 35.6573C195.346 34.6066 195.901 33.7059 195.531 33.7059C194.913 33.7059 194.111 34.6066 191.087 38.9596C189.914 40.5358 188.741 40.9861 188.741 39.7852C188.741 39.41 189.667 37.984 190.716 36.633C192.198 34.8317 192.383 34.4565 191.334 35.1319C190.593 35.5823 189.235 37.3835 188.309 39.1097C186.334 42.6372 185.964 42.1119 187.075 37.5336C187.692 34.7567 188.186 34.0812 189.976 33.3307C192.012 32.5051 199.728 32.5051 201.641 33.3307ZM129.735 35.2821C131.957 36.5579 132.512 38.2091 130.784 38.2091C129.488 38.2091 129.488 38.2842 130.475 40.0854C131.031 41.1362 131.339 42.1869 131.154 42.4121C131.031 42.6372 130.29 41.6615 129.611 40.3106C128.87 38.9596 127.574 36.9332 126.648 35.9575C125.352 34.5315 125.476 34.9068 127.266 37.7588C128.5 39.7852 129.426 41.5865 129.241 41.7366C128.747 42.4121 126.463 40.4607 125.167 38.2091C124.426 36.9332 123.254 35.5823 122.513 35.1319C121.525 34.4565 121.649 34.9068 123.192 36.8582C124.241 38.2842 125.167 39.6351 125.167 39.8603C125.167 40.3106 122.698 41.5865 120.538 42.262C119.859 42.4871 121.155 42.4871 123.439 42.262C128.006 41.8867 131.957 43.2377 131.957 45.2641C131.957 47.0653 125.105 48.9417 124.303 47.2905C124.118 46.9152 123.192 46.3899 122.266 46.1647C120.723 45.7144 114.057 38.059 114.057 36.7831C114.119 35.3571 115.415 34.6066 119.303 34.0062C123.994 33.2556 126.957 33.6309 129.735 35.2821ZM134.117 39.7102C134.302 40.0854 134.24 40.4607 133.87 40.4607C133.561 40.4607 133.068 40.0854 132.882 39.7102C132.697 39.2599 132.759 38.9596 133.129 38.9596C133.438 38.9596 133.932 39.2599 134.117 39.7102ZM135.29 43.688C136.709 46.0897 136.277 48.4163 134.487 47.2905C133.561 46.615 131.339 41.5865 131.339 40.0104C131.339 39.1848 134.055 41.7366 135.29 43.688ZM181.952 44.4385C181.89 48.1911 177.816 52.9945 176.273 51.1182C175.656 50.3677 177.878 47.966 179.298 47.966C179.668 47.966 180.223 47.5907 180.47 47.0653C180.779 46.4649 180.594 46.3899 179.853 46.6901C179.236 46.9903 178.866 46.9903 178.989 46.6901C179.174 46.3148 179.668 45.0389 180.1 43.688C181.149 40.836 181.952 41.1362 181.952 44.4385ZM139.672 49.8423L141.524 51.6436L139.857 51.7186C138.808 51.7186 137.944 51.1933 137.512 50.2926C136.277 47.3656 137.018 47.2155 139.672 49.8423ZM135.968 49.467C135.783 49.8423 134.734 50.2926 133.623 50.5928C132.574 50.893 130.722 51.7186 129.673 52.5442C127.266 54.1954 127.08 53.67 128.994 51.0432C130.29 49.2419 130.228 49.2419 128.5 51.1933C126.772 53.0696 126.278 53.2197 122.945 52.9195L119.303 52.5442L122.945 53.4448C126.155 54.1954 126.463 54.4956 125.599 55.3212C124.858 56.0717 123.686 56.2218 121.525 55.8465C119.303 55.4713 118.007 55.6964 116.711 56.522C114.674 57.873 115.106 58.0981 117.513 56.9723C118.439 56.522 119.982 56.3719 120.97 56.6721C122.636 57.0474 122.698 57.1975 121.649 58.1732C121.032 58.6985 119.365 59.2239 117.946 59.2239C116.526 59.2239 115.23 59.5241 115.045 59.8243C114.921 60.1245 115.662 60.2747 116.835 60.1245C119.489 59.7493 120.106 61.1002 118.316 63.5019C116.835 65.4533 116.835 65.4533 118.192 64.5527C118.995 64.1023 119.797 62.8264 119.982 61.7757C120.291 60.1996 121.834 58.4734 123.007 58.4734C123.624 58.4734 121.525 62.8264 120.723 63.2017C120.044 63.5019 120.044 63.652 120.723 63.652C121.155 63.7271 122.328 62.151 123.315 60.1996L125.167 56.6721V58.9988C125.167 62.3011 124.612 63.652 122.76 64.7778C120.291 66.3539 110.539 66.7292 111.28 65.2281C111.465 64.7778 112.082 64.4776 112.637 64.4776C113.748 64.4776 119.118 61.3254 118.748 60.9501C118.624 60.725 117.39 61.3254 115.97 62.151C112.699 64.1774 112.637 64.1774 113.687 61.1753C114.18 59.7493 114.427 58.4734 114.304 58.2482C114.18 58.0981 114.613 57.3476 115.291 56.5971C115.97 55.8465 116.526 54.8708 116.526 54.3455C116.526 53.2197 118.131 51.4184 120.538 49.9174C121.896 49.0918 124.179 48.7916 129.302 48.7916C133.129 48.8666 136.154 49.1668 135.968 49.467ZM137.512 55.5463C137.512 58.3233 137.203 59.299 135.845 60.8751C134.117 62.8264 129.858 65.6034 127.019 66.7292L125.476 67.2546L125.846 61.9258C126.031 58.9988 126.525 55.9216 126.895 55.096C127.266 54.2704 127.636 53.8952 127.636 54.2704C127.636 54.5706 128.377 54.2704 129.302 53.5949C131.586 51.7186 135.043 50.818 135.043 52.0939C135.043 52.6193 133.993 53.2197 132.697 53.4448C131.401 53.7451 129.488 54.9459 128.253 56.2218L126.093 58.5484L128.562 56.6721C131.401 54.5706 133.808 53.5949 133.808 54.4956C133.808 54.8708 132.389 56.8222 130.66 58.8486C128.932 60.9501 127.266 63.2768 126.895 64.1023C126.587 64.9279 127.019 64.5527 127.883 63.2768C128.747 62.0009 130.167 60.3497 131.092 59.5992L132.759 58.3233L132.389 60.8C132.08 62.6013 132.142 63.0516 132.574 62.226C132.882 61.6256 133.191 60.0495 133.191 58.7736C133.191 57.4977 133.685 55.9216 134.302 55.1711C135.413 53.9702 135.475 54.0453 135.043 57.1975C134.857 58.9237 134.425 60.8751 134.179 61.4755C133.808 62.3011 133.932 62.226 134.734 61.4004C135.475 60.4998 135.907 58.5484 136.092 55.096C136.462 49.5421 137.512 49.8423 137.512 55.5463ZM186.272 52.8444C189.358 55.2461 189.42 56.2218 186.457 56.2218C185.161 56.2218 183.371 56.7472 182.446 57.2725C181.273 58.0231 180.594 58.0981 180.347 57.5727C179.668 56.2218 182.013 54.7207 184.668 54.7207C186.519 54.6457 186.951 54.4956 186.211 53.9702C185.655 53.5949 184.235 53.5949 182.569 54.1203C180.223 54.8708 179.791 54.7958 179.112 53.5949C178.434 52.4692 178.434 52.0939 179.051 51.5685C180.532 50.4427 183.865 50.9681 186.272 52.8444ZM177.569 52.9945C178.31 53.7451 179.174 55.5463 179.483 56.9723L180.1 59.5992L177.878 56.3719C176.644 54.6457 175.286 53.2197 174.792 53.2197C174.298 53.2197 173.928 52.8444 173.928 52.4692C173.928 51.2683 176.15 51.5685 177.569 52.9945ZM144.363 53.9702C145.659 54.8708 145.968 57.7229 144.795 57.7229C143.931 57.7229 141.215 54.7207 141.215 53.8201C141.215 52.9945 142.881 53.0696 144.363 53.9702ZM149.054 53.67C148.868 53.8952 148.313 53.9702 147.881 53.7451C147.387 53.5199 147.572 53.2947 148.251 53.2947C148.93 53.2197 149.301 53.4448 149.054 53.67ZM168.805 53.67C168.62 53.8952 168.064 53.9702 167.632 53.7451C167.138 53.5199 167.324 53.2947 168.002 53.2947C168.681 53.2197 169.052 53.4448 168.805 53.67ZM177.014 56.7472C178.001 58.0981 178.866 59.5241 178.866 59.8994C178.866 60.9501 172.57 58.0981 171.953 56.6721C171.15 54.9459 172.323 53.2197 173.928 53.7451C174.607 53.9702 175.965 55.3212 177.014 56.7472ZM151.893 54.4956C151.461 54.6457 150.72 54.6457 150.35 54.4956C149.918 54.2704 150.226 54.1203 151.09 54.1203C151.955 54.1203 152.263 54.2704 151.893 54.4956ZM166.089 54.4956C165.657 54.6457 164.916 54.6457 164.546 54.4956C164.114 54.2704 164.423 54.1203 165.287 54.1203C166.151 54.1203 166.459 54.2704 166.089 54.4956ZM160.843 55.2461C159.546 55.3962 157.448 55.3962 156.213 55.2461C154.917 55.096 155.967 54.9459 158.497 54.9459C161.028 54.9459 162.077 55.096 160.843 55.2461ZM190.223 61.3254C187.692 61.6256 186.766 61.0252 188.124 59.9744C188.679 59.5241 188.741 59.2239 188.309 59.2239C187.939 59.2239 187.383 59.5241 187.198 59.9744C186.704 60.9501 185.532 60.9501 183.433 59.9744C181.149 58.8486 182.322 57.5727 186.149 56.9723C188.865 56.522 189.173 56.6721 190.778 58.7736L192.506 61.1002L190.223 61.3254ZM159.732 58.3233C159.732 59.299 158.991 59.9744 158.374 59.5241C157.757 59.0738 158.312 57.7229 159.176 57.7229C159.485 57.7229 159.732 58.0231 159.732 58.3233ZM182.569 61.5505C183.31 63.1267 187.322 65.6785 187.939 64.9279C188.124 64.7028 187.568 64.3275 186.704 64.1023C185.84 63.8021 184.606 62.9015 183.989 62.0759C182.878 60.5749 182.878 60.4998 184.421 61.1002C185.285 61.4004 186.519 62.151 187.198 62.6763C187.877 63.2768 188.988 63.7271 189.667 63.652C190.901 63.652 190.901 63.652 189.667 63.0516C188.679 62.6013 189.05 62.3761 191.21 62.0759C194.296 61.7007 195.099 61.9258 193.309 62.6763C192.691 62.9766 191.704 63.652 191.148 64.1774C190.037 65.3782 181.643 66.9544 179.853 66.2789C178.187 65.6785 175.779 62.9766 175.779 61.7007C175.779 60.4998 176.705 60.4248 178.434 61.5505C179.483 62.3011 179.853 62.226 180.409 61.1753C181.211 59.5992 181.767 59.6742 182.569 61.5505Z" fill="black"/>
<path d="M163.126 21.6973C163.312 22.0726 163.62 22.4479 163.805 22.4479C163.929 22.4479 164.052 22.0726 164.052 21.6973C164.052 21.247 163.744 20.9468 163.373 20.9468C163.065 20.9468 162.941 21.247 163.126 21.6973Z" fill="black"/>
<path d="M159.732 25.3753C159.732 25.7506 160.04 26.351 160.349 26.5761C160.719 26.8013 160.966 26.7263 160.966 26.2759C160.966 25.9007 160.719 25.3002 160.349 25.0751C160.04 24.8499 159.732 24.925 159.732 25.3753Z" fill="black"/>
<path d="M158.065 38.7343C158.621 38.8845 159.485 38.8845 159.917 38.7343C160.287 38.5092 159.855 38.3591 158.806 38.3591C157.818 38.3591 157.448 38.5092 158.065 38.7343Z" fill="black"/>
<path d="M155.905 40.2354C157.324 40.3855 159.67 40.3855 161.151 40.2354C162.571 40.0853 161.398 39.9352 158.497 39.9352C155.596 39.9352 154.423 40.0853 155.905 40.2354Z" fill="black"/>
<path d="M153.436 41.7365C154.547 41.8866 156.213 41.8866 157.139 41.7365C158.065 41.5864 157.139 41.4363 155.102 41.4363C153.066 41.4363 152.325 41.5864 153.436 41.7365Z" fill="black"/>
<path d="M161.151 41.7365C162.077 41.8866 163.558 41.8866 164.546 41.7365C165.472 41.5864 164.669 41.4363 162.818 41.4363C160.966 41.4363 160.164 41.5864 161.151 41.7365Z" fill="black"/>
<path d="M171.644 41.7365C172.2 41.8866 173.187 41.8866 173.804 41.7365C174.36 41.5114 173.866 41.3613 172.693 41.3613C171.521 41.3613 171.027 41.5114 171.644 41.7365Z" fill="black"/>
<path d="M142.141 42.7124C143.19 43.0127 144.671 43.3129 145.535 43.3129C146.893 43.3129 146.893 43.2378 145.227 42.7124C144.239 42.4122 142.696 42.112 141.832 42.112C140.474 42.112 140.474 42.1871 142.141 42.7124Z" fill="black"/>
<path d="M151.09 43.1628C151.09 43.8383 153.559 44.889 153.806 44.2886C153.991 43.9133 153.498 43.463 152.634 43.3129C151.769 43.0877 151.09 43.0127 151.09 43.1628Z" fill="black"/>
<path d="M164.237 43.2379C164.793 43.388 165.657 43.388 166.089 43.2379C166.459 43.0127 166.027 42.8626 164.978 42.8626C163.99 42.8626 163.62 43.0127 164.237 43.2379Z" fill="black"/>
<path d="M167.509 44.063C167.385 44.3632 168.311 44.5133 169.669 44.3632C170.965 44.2131 172.076 43.9129 172.076 43.7628C172.076 43.2374 167.817 43.4626 167.509 44.063Z" fill="black"/>
<path d="M140.783 44.739C141.338 44.8891 142.202 44.8891 142.634 44.739C143.005 44.5138 142.573 44.3637 141.523 44.3637C140.536 44.3637 140.166 44.5138 140.783 44.739Z" fill="black"/>
<path d="M158.497 44.8887L153.868 45.264L158.189 45.7894L162.509 46.2397L157.139 46.1646C154.238 46.0896 152.14 46.3148 152.51 46.615C153.436 47.3655 161.954 47.2154 164.361 46.4649L166.212 45.8644L164.361 45.7143L162.509 45.5642L164.361 44.9638C166.521 44.2883 165.904 44.2883 158.497 44.8887Z" fill="black"/>
<path d="M144.795 45.4893C145.535 45.6395 146.646 45.6395 147.264 45.4893C147.819 45.2642 147.202 45.1141 145.844 45.1891C144.486 45.1891 143.992 45.3392 144.795 45.4893Z" fill="black"/>
<path d="M141.091 46.2396C141.832 46.3897 142.326 46.9151 142.079 47.2903C141.832 47.8157 142.573 47.8908 144.116 47.6656C145.968 47.2903 146.214 47.3654 145.227 47.9658C144.239 48.6413 144.363 48.6413 146.091 48.3411C147.202 48.1159 148.745 47.9658 149.486 47.8908C150.165 47.8157 148.683 47.3654 146.153 46.84C143.622 46.2396 141.091 45.8643 140.598 45.8643C140.104 45.8643 140.289 46.0895 141.091 46.2396Z" fill="black"/>
<path d="M169.916 46.9154C169.546 47.0655 166.768 47.5158 163.744 47.8911L158.189 48.6416L163.744 48.3414C168.62 48.0412 175.224 46.6152 171.768 46.6152C171.089 46.6152 170.224 46.6902 169.916 46.9154Z" fill="black"/>
<path d="M149.239 48.7166C147.14 49.242 147.14 49.242 148.93 49.317C149.979 49.317 151.646 49.0168 152.634 48.7166C154.3 48.1912 154.3 48.1162 152.942 48.1162C152.078 48.1912 150.412 48.4164 149.239 48.7166Z" fill="black"/>
<path d="M143.684 50.1424C144.795 50.968 152.757 52.4691 155.226 52.394C156.152 52.319 154.547 51.8686 151.584 51.3433C148.683 50.8179 145.474 50.2175 144.486 49.9173C143.313 49.6171 143.067 49.6921 143.684 50.1424Z" fill="black"/>
<path d="M154.053 49.9924C155.473 50.1425 157.818 50.1425 159.3 49.9924C160.719 49.8423 159.546 49.6922 156.646 49.6922C153.745 49.6922 152.572 49.8423 154.053 49.9924Z" fill="black"/>
<path d="M158.991 52.244C159.732 52.3941 160.966 52.3941 161.768 52.244C162.509 52.0939 161.892 51.9438 160.349 51.9438C158.806 51.9438 158.189 52.0939 158.991 52.244Z" fill="black"/>
<path d="M119.612 36.3326C120.846 38.1339 119.982 38.4341 117.452 37.0832C114.304 35.5071 113.995 36.1075 117.081 37.8337C118.439 38.5092 119.859 38.8844 120.353 38.5842C120.785 38.284 120.476 38.8094 119.612 39.71L118.069 41.2861L119.612 40.7608C120.476 40.4606 121.834 40.2354 122.698 40.3104C124.241 40.3855 124.241 40.3855 122.883 39.5599C122.081 39.1096 121.34 38.1339 121.155 37.3834C120.97 36.7079 120.353 35.8823 119.797 35.6572C118.995 35.2819 118.933 35.357 119.612 36.3326Z" fill="black"/>
<path d="M313.112 60.3496C312.063 61.5505 311.569 62.9014 311.631 64.6276C311.692 66.0536 311.816 66.504 312.001 65.6033C312.124 64.7777 312.371 63.3517 312.556 62.4511C312.68 61.5505 313.606 60.2746 314.532 59.6741C315.457 58.9987 315.828 58.5484 315.396 58.4733C314.964 58.4733 313.914 59.2989 313.112 60.3496Z" fill="black"/>
<path d="M320.457 60.5748C320.766 61.1002 321.259 62.8264 321.506 64.3275C321.938 67.1044 321.938 67.1044 322 64.7778C322 63.4268 321.568 61.7757 321.012 60.9501C320.395 60.1996 320.148 59.9744 320.457 60.5748Z" fill="black"/>
<path d="M314.532 61.5505C315.581 62.9015 315.457 66.0537 314.346 68.0051C313.667 69.2059 313.606 69.8063 314.1 70.1816C314.593 70.4818 314.655 70.4067 314.408 69.8814C314.1 69.281 314.408 68.9807 315.272 68.9807C316.322 68.9807 316.445 68.6805 316.136 67.0294C315.828 65.5283 315.951 65.153 316.568 65.3782C317.062 65.6034 317.494 66.4289 317.618 67.3296C317.926 69.8063 319.593 69.4311 319.593 66.8793C319.593 65.3032 319.469 65.078 318.976 65.9786C318.544 66.8042 318.42 66.2788 318.544 64.1023C318.667 61.1002 318.667 61.1002 316.198 60.875C314.223 60.6499 313.853 60.8 314.532 61.5505ZM317.433 63.727C317.124 64.3275 316.754 64.3275 316.383 63.8771C316.013 63.4268 315.951 62.6763 316.198 62.226C316.507 61.6256 316.877 61.6256 317.247 62.0759C317.618 62.5262 317.679 63.2767 317.433 63.727Z" fill="black"/>
<path d="M12.8322 71.1573C7.21542 73.2587 2.89484 78.8126 1.04317 86.468C-1.91951 98.1012 1.59867 109.885 9.43743 114.988C11.2891 116.189 13.0173 116.564 16.3503 116.639C20.7326 116.639 20.8561 116.564 23.325 113.637C26.658 109.659 29.1886 99.7524 26.7814 99.7524C26.2259 99.7524 25.8556 101.028 25.6704 103.805C25.3618 108.684 23.325 112.737 20.424 114.388C17.5231 116.039 15.98 115.739 13.758 113.037C11.1039 109.809 10.0546 102.679 10.6102 91.4966C11.2891 77.837 12.9556 72.7334 16.7824 72.7334C20.0537 72.7334 22.4609 76.486 24.8063 85.2672C25.4235 87.4437 26.1642 89.245 26.4728 89.245C26.7814 89.245 27.0283 85.1921 27.0283 80.2387C27.0283 71.6076 26.5963 69.6562 25.3001 72.4332C24.8063 73.559 24.436 73.559 21.2264 72.0579C17.5848 70.4067 15.4862 70.1816 12.8322 71.1573Z" fill="black"/>
<path d="M152.14 71.5326C149.054 72.8835 146.893 75.3602 145.474 79.1129C144.054 82.7905 143.931 89.245 145.227 92.2471C146.461 95.0991 150.473 97.8761 156.707 100.203C159.546 101.329 162.386 102.905 163.188 103.88C167.57 109.209 161.46 117.315 154.856 114.838C151.708 113.712 148.436 109.134 146.77 103.58C144.424 95.8497 144.363 95.8497 144.363 106.507C144.363 115.964 144.424 116.489 145.35 114.988C146.523 112.887 147.079 112.887 150.412 114.838C153.806 116.789 158.374 117.465 161.213 116.264C166.521 114.163 170.41 107.333 170.41 100.128C170.41 92.9977 167.262 88.7197 160.164 86.2429C152.325 83.466 151.708 83.1657 150.782 81.5146C149.424 79.1879 149.609 77.0114 151.399 74.6848C153.251 72.208 157.201 71.9829 160.164 74.1594C162.201 75.7355 164.916 80.689 165.595 84.2165C166.583 88.7947 167.138 86.6932 167.138 78.5875L167.077 70.1065L165.842 72.133L164.608 74.2345L162.139 72.7334C158.868 70.707 155.041 70.2567 152.14 71.5326Z" fill="black"/>
<path d="M316.075 71.0072C316.63 71.1573 317.494 71.1573 317.926 71.0072C318.297 70.782 317.865 70.6319 316.815 70.6319C315.828 70.6319 315.457 70.782 316.075 71.0072Z" fill="black"/>
<path d="M31.102 71.9078C30.6699 72.7334 32.1513 73.4839 34.1881 73.4839C36.1632 73.4839 36.225 74.0844 36.4101 92.9977C36.5953 111.311 36.7805 111.986 41.3479 114.838C47.5202 118.666 55.9144 117.24 58.6302 111.911C59.9264 109.359 60.0498 108.083 60.4202 94.4987C60.7905 78.6626 61.2225 76.2609 64.3704 73.7841C65.2345 73.1087 65.9135 72.2831 65.9135 71.9078C65.9135 71.0072 53.1369 71.0072 52.6431 71.9078C52.458 72.3581 53.0752 73.1087 53.9393 73.634C54.8651 74.1594 56.223 75.5854 56.902 76.7112C58.0747 78.6626 58.1981 80.0135 58.3833 93.2979C58.6302 109.434 58.2599 111.461 54.8034 113.637C52.0876 115.363 49.9891 115.063 47.9522 112.586L46.1623 110.41V92.7725C46.1623 74.0844 46.1623 73.8592 49.1867 73.3338C50.0508 73.2588 50.7915 72.6584 50.9766 72.133C51.1618 71.4575 48.9398 71.2324 41.2862 71.2324C35.8546 71.2324 31.2872 71.5326 31.102 71.9078Z" fill="black"/>
<path d="M69.3699 71.9077C68.9379 72.6582 70.3575 73.4838 72.0857 73.4838C74.3694 73.4838 74.6163 75.8104 74.4312 94.5736C74.246 111.461 74.1843 112.736 73.0733 113.712C72.3943 114.313 71.2216 114.763 70.4192 114.763C69.6168 114.763 68.9996 115.063 68.9996 115.513C68.9996 115.964 72.8264 116.264 79.1838 116.264C85.5412 116.264 89.368 115.964 89.368 115.513C89.368 115.063 88.689 114.763 87.8249 114.763C86.9608 114.763 85.7264 114.087 85.0474 113.262C83.9364 111.911 83.813 110.785 83.813 102.754V93.7481H85.2943C87.578 93.7481 89.7383 94.9489 90.2938 96.525C90.5407 97.2755 90.9728 101.178 91.1579 105.231C91.5283 111.836 91.7752 112.736 93.1948 114.538C94.4292 116.039 95.602 116.564 98.1326 116.864C103.688 117.39 106.28 115.063 107.082 109.059C107.514 105.306 106.527 106.357 105.724 110.41C105.045 113.862 103.441 115.663 102.268 114.237C101.836 113.712 101.342 110.56 101.095 107.107C100.848 103.655 100.231 99.8273 99.6756 98.5514C98.6881 96.1497 95.1082 93.8231 92.2689 93.673C91.5283 93.673 92.4541 92.9975 94.3058 92.3221C101.157 89.6952 103.626 85.9426 102.268 80.0884C101.342 75.8855 98.7498 73.0335 94.8613 72.0578C91.1579 71.0821 69.802 70.932 69.3699 71.9077ZM88.5656 73.4838C89.6149 73.9341 90.7259 75.135 91.1579 76.1857C91.8986 78.1371 92.0838 86.7681 91.4666 88.8696C90.9111 90.5208 87.9484 92.247 85.6646 92.247H83.813V83.766C83.813 75.21 84.0599 74.0092 85.6646 73.2586C86.1584 73.0335 86.5905 72.8083 86.6522 72.8083C86.7139 72.7333 87.578 73.1085 88.5656 73.4838Z" fill="black"/>
<path d="M109.119 71.983C109.119 72.8086 109.551 73.0337 112.39 73.7843L114.057 74.2346V93.7483C114.057 112.211 113.995 113.262 112.884 114.013C112.205 114.388 111.094 114.763 110.415 114.763C109.675 114.763 109.119 115.063 109.119 115.514C109.119 115.964 114.489 116.264 123.933 116.264H138.746V106.507C138.746 96.3752 138.129 94.1986 136.833 99.9026C134.672 109.66 129.549 116.039 125.167 114.388C123.994 113.938 123.933 113.337 123.933 94.8741C123.933 84.4418 124.118 75.3604 124.303 74.6849C124.488 74.0094 125.352 73.484 126.093 73.484C128.068 73.484 129.549 72.7335 129.117 71.9079C128.624 70.9322 109.119 71.0073 109.119 71.983Z" fill="black"/>
<path d="M172.817 72.133C173.002 72.6583 173.99 73.3338 175.162 73.559C176.273 73.8592 177.446 74.5346 177.755 75.1351C178.063 75.6604 178.187 82.7905 178.063 91.4966C177.816 108.909 177.137 112.361 173.866 114.012C170.656 115.664 171.953 116.264 178.866 116.264C185.778 116.264 187.075 115.664 183.803 114.012C180.594 112.361 180.038 108.984 180.223 92.2471L180.409 77.6118L184.112 96.9754L187.815 116.264H189.729C192.012 116.264 191.395 118.441 196.58 89.9955L198.925 76.8613L199.111 94.4237C199.172 106.207 199.049 112.286 198.555 112.962C198.246 113.487 197.074 114.163 196.086 114.388C191.827 115.513 194.913 116.264 204.172 116.264C213.924 116.264 216.208 115.664 211.764 114.313L209.418 113.637L209.233 93.9733L209.11 74.2344L210.776 73.7841C213.615 73.0336 214.047 72.8084 214.047 71.9828C214.047 71.5325 211.208 71.2323 206.332 71.2323C198.864 71.2323 198.617 71.3074 198.308 72.8835C198.123 73.8592 197.074 79.8634 195.963 86.2429L193.864 97.8761L191.272 84.5167L188.618 71.2323H180.594C174.545 71.2323 172.632 71.4575 172.817 72.133Z" fill="black"/>
<path d="M217.566 71.6828C216.887 72.5834 217.751 73.484 219.294 73.484C222.565 73.484 222.689 74.3847 222.689 93.7483C222.689 103.58 222.503 112.211 222.318 112.812C222.071 113.487 220.899 114.238 219.541 114.463C214.294 115.514 217.627 116.264 227.318 116.264C237.255 116.264 239.847 115.589 235.218 114.238L232.873 113.562V93.7483V73.8593L234.663 73.484C235.65 73.2589 236.576 72.6585 236.761 72.1331C236.946 71.4576 234.786 71.2325 227.503 71.2325C222.256 71.2325 217.751 71.4576 217.566 71.6828Z" fill="black"/>
<path d="M241.205 80.7642C241.205 90.446 241.637 91.4967 242.995 85.4925C244.477 79.2631 247.933 72.7335 249.846 72.7335C250.278 72.7335 250.464 79.2631 250.464 92.5475C250.464 113.712 250.525 113.412 247.192 114.388C243.304 115.589 246.143 116.264 255.401 116.264C261.265 116.264 265.277 115.964 265.277 115.514C265.277 115.138 264.289 114.613 263.055 114.313C261.882 114.013 260.71 113.412 260.586 112.962C260.463 112.512 260.401 103.205 260.463 92.3223L260.648 72.5834L262.438 74.3096C264.228 76.0358 267.252 83.1659 268.055 87.5189C268.919 92.6225 269.598 89.6955 269.598 80.6141V71.2325H255.401H241.205V80.7642Z" fill="black"/>
<path d="M273.424 72.1331C273.61 72.6585 274.412 73.1838 275.338 73.3339C276.202 73.484 277.19 74.0094 277.56 74.5348C278.054 75.2103 278.177 81.6648 278.115 94.5739L277.93 113.637L275.646 114.313C271.202 115.664 273.363 116.264 282.559 116.264C288.3 116.264 291.818 115.964 291.818 115.514C291.818 115.063 291.324 114.763 290.707 114.763C288.423 114.763 288.114 113.262 288.114 102.98V92.9978H292.435H296.756V102.68C296.756 113.037 296.323 114.763 293.608 114.763C292.99 114.763 292.435 115.063 292.435 115.514C292.435 115.964 295.953 116.264 301.693 116.264C310.458 116.264 313.359 115.514 309.1 114.388C308.051 114.088 306.94 113.262 306.631 112.512C305.952 111.01 305.767 78.8128 306.384 75.8857C306.631 74.835 307.434 74.0094 308.668 73.6341C309.717 73.3339 310.643 72.6585 310.828 72.1331C311.013 71.4576 308.791 71.2325 302.125 71.2325C297.249 71.2325 293.052 71.4576 292.805 71.7578C292.558 72.058 293.299 72.8086 294.41 73.484L296.447 74.6098L296.632 83.0908L296.817 91.4967H292.435H288.114V82.9407V74.3847L289.966 73.5591C293.978 71.9079 291.879 71.2325 282.498 71.2325C275.338 71.2325 273.239 71.4576 273.424 72.1331Z" fill="black"/>
</g>
<defs>
<clipPath id="clip0_277_8">
<rect width="322" height="117" fill="white"/>
</clipPath>
</defs>
</svg>
