<?xml version="1.0" standalone="no"?>
<!DOCTYPE svg PUBLIC "-//W3C//DTD SVG 20010904//EN"
 "http://www.w3.org/TR/2001/REC-SVG-20010904/DTD/svg10.dtd">
<svg version="1.0" xmlns="http://www.w3.org/2000/svg"
 width="1201.000000pt" height="344.000000pt" viewBox="0 0 1201.000000 344.000000"
 preserveAspectRatio="xMidYMid meet">

<g transform="translate(0.000000,344.000000) scale(0.100000,-0.100000)"
fill="#000000" stroke="none">
<path d="M765 2848 c-3 -7 -4 -521 -3 -1143 l3 -1130 1140 0 1140 0 0 1140 0
1140 -1138 3 c-905 2 -1139 0 -1142 -10z m2125 -1133 l0 -985 -985 0 -985 0 0
985 0 985 985 0 985 0 0 -985z"/>
<path d="M1270 1725 l0 -625 630 0 630 0 0 75 0 75 -550 0 -550 0 0 550 0 550
-80 0 -80 0 0 -625z"/>
<path d="M1740 2270 l0 -80 395 0 395 0 0 80 0 80 -395 0 -395 0 0 -80z"/>
<path d="M1740 1730 l0 -80 255 0 255 0 0 80 0 80 -255 0 -255 0 0 -80z"/>
<path d="M4020 2170 l0 -530 415 0 415 0 0 80 0 80 -325 0 -325 0 0 150 0 150
290 0 290 0 0 75 0 75 -290 0 -290 0 0 145 0 145 315 0 315 0 0 80 0 80 -405
0 -405 0 0 -530z"/>
<path d="M5167 2688 c10 -13 77 -115 312 -473 l131 -200 0 -187 0 -188 85 0
85 0 0 186 0 186 225 339 c124 187 225 342 225 344 0 3 -46 5 -102 5 l-103 0
-84 -128 c-46 -70 -118 -180 -160 -244 -42 -64 -79 -116 -83 -115 -4 1 -80
111 -167 245 l-160 242 -107 0 c-83 0 -104 -3 -97 -12z"/>
<path d="M6630 2170 l0 -530 370 0 370 0 0 80 0 80 -285 0 -285 0 0 450 0 450
-85 0 -85 0 0 -530z"/>
<path d="M7714 2685 c-3 -8 -4 -167 -2 -352 4 -314 6 -343 27 -405 60 -185
199 -289 401 -301 212 -14 376 68 456 225 48 95 54 147 54 511 l0 337 -85 0
-85 0 0 -262 c-1 -408 -11 -480 -77 -558 -112 -131 -358 -123 -450 14 -59 88
-63 115 -63 478 l0 328 -85 0 c-66 0 -87 -3 -91 -15z"/>
<path d="M9150 2171 l0 -531 85 0 85 0 0 185 0 185 163 0 c148 0 165 -2 173
-18 5 -10 60 -93 123 -185 l113 -167 104 0 103 0 -135 196 c-74 108 -134 197
-132 198 2 1 29 15 60 30 117 56 164 150 156 315 -9 172 -69 250 -233 296 -48
14 -120 18 -362 22 l-303 5 0 -531z m627 338 c73 -37 88 -65 88 -164 0 -92
-14 -124 -72 -158 -43 -25 -168 -38 -328 -35 l-140 3 -3 180 c-1 98 0 186 3
194 5 12 38 13 205 9 184 -5 203 -7 247 -29z"/>
<path d="M10490 2170 l0 -530 415 0 415 0 0 80 0 80 -325 0 -325 0 0 150 0
150 295 0 295 0 0 75 0 75 -295 0 -295 0 0 145 0 145 315 0 315 0 0 80 0 80
-405 0 -405 0 0 -530z"/>
<path d="M5452 1145 c-117 -36 -168 -109 -160 -230 5 -83 39 -135 111 -172 45
-23 64 -27 142 -27 74 0 98 4 138 23 115 56 156 185 96 303 -48 94 -201 143
-327 103z m140 -95 c9 0 33 -15 52 -34 31 -29 36 -39 36 -81 0 -40 -5 -52 -33
-80 -106 -106 -289 5 -222 135 21 41 87 74 130 65 11 -3 28 -5 37 -5z"/>
<path d="M9675 1143 c-64 -19 -110 -54 -134 -102 -60 -117 -19 -246 96 -302
40 -19 64 -23 138 -23 78 0 97 4 142 27 75 38 106 89 111 178 3 55 0 76 -17
111 -53 105 -199 153 -336 111z m177 -109 c57 -29 74 -108 36 -164 -48 -70
-153 -77 -215 -15 -28 28 -33 40 -33 79 0 101 109 152 212 100z"/>
<path d="M4027 1142 c16 -10 20 -405 4 -410 -6 -2 -9 -8 -6 -12 3 -5 103 -9
222 -10 119 0 220 -3 224 -6 5 -3 9 28 8 68 0 40 -3 67 -6 61 -3 -10 -44 -13
-154 -13 l-149 0 0 159 c0 118 3 161 13 164 6 3 -28 6 -78 6 -49 0 -85 -3 -78
-7z"/>
<path d="M6718 1143 c16 -6 18 -413 1 -413 -5 0 -7 -5 -4 -10 4 -6 35 -10 71
-9 62 2 86 11 64 24 -12 7 -14 256 -2 254 15 -2 227 -243 227 -258 0 -13 14
-16 67 -18 37 -1 70 3 73 8 4 5 1 9 -4 9 -17 0 -15 407 2 413 6 3 -24 6 -67 6
-62 1 -77 -2 -68 -11 14 -14 17 -218 3 -218 -8 0 -153 155 -180 193 -12 16
-12 20 0 28 9 5 -27 8 -91 8 -58 0 -99 -3 -92 -6z"/>
<path d="M8158 1143 c16 -6 18 -413 1 -413 -5 0 -7 -5 -4 -10 4 -7 63 -10 168
-7 172 4 208 13 264 66 102 96 73 296 -51 352 -35 16 -66 18 -216 18 -96 0
-169 -3 -162 -6z m333 -122 c25 -25 29 -37 29 -83 0 -91 -46 -128 -160 -128
l-60 0 0 120 0 120 81 0 c76 0 82 -2 110 -29z"/>
<path d="M10808 1141 c17 -10 19 -404 2 -409 -5 -2 -8 -8 -4 -13 7 -12 154
-12 154 1 0 6 -4 10 -10 10 -6 0 -10 51 -10 133 l0 132 78 -85 c42 -46 96
-105 119 -130 23 -25 38 -46 33 -48 -26 -9 -4 -19 45 -21 64 -2 98 6 89 21
-12 20 -4 402 9 410 7 4 -26 7 -73 7 -47 0 -79 -3 -72 -6 8 -3 12 -36 12 -114
0 -60 -2 -109 -4 -109 -6 0 -102 101 -155 164 -32 37 -39 51 -29 57 7 5 -32 9
-92 9 -60 0 -99 -4 -92 -9z"/>
</g>
</svg>
