<svg width="239" height="81" viewBox="0 0 239 81" fill="none" xmlns="http://www.w3.org/2000/svg">
<path d="M226.204 34.0145C226.164 33.9834 232.47 41.0454 234.707 39.4052C236.986 37.7408 233.841 26.1088 233.8 24.5626C235.495 22.1719 239 17.9279 239 14.9304C239 11.9607 236.099 11.3559 230.499 11.5078C229.591 8.60283 227.032 0 225.035 0C222.898 0 221.29 9.35675 220.945 11.719C215.785 12.1713 211.838 12.8071 211.838 16.2945C211.838 19.323 215.925 24.0476 218.325 25.957C217.923 29.3796 216.634 37.9514 218.104 39.7063C219.978 41.9201 224.329 36.1939 226.204 34.0145M225.177 6.51321C225.802 9.14279 227.414 14.4127 228.583 15.5966C229.631 16.6569 233.276 16.4437 235.354 16.3222C234.023 18.2012 231.12 20.6249 230.579 23.7749C230.136 26.3512 231.524 31.5907 232.188 34.0138C230.8 32.4088 227.555 29.2001 226.307 29.2001C224.674 29.2001 221.854 33.1958 220.686 34.7711C220.987 32.892 222.259 26.9249 221.691 24.4107C221.128 21.8992 218.668 19.8683 216.071 17.1719C218.668 16.719 222.156 16.9607 223.121 15.5966C224.029 14.3257 224.694 9.05302 225.177 6.51321M26.3103 40.3684C26.3103 33.7674 19.9491 33.1296 16.8493 33.1296C13.2059 33.1296 9.30566 34.2514 6.08286 36.1196C3.47329 37.6038 0 40.3394 0 45.2644C0 51.6811 6.68891 53.9847 12.4216 56.1526C16.7501 57.7927 20.2463 59.1257 20.2463 61.7607C20.2463 65.1861 14.2757 64.8628 12.9047 64.8628C7.2725 64.8628 3.75028 63.1275 3.25108 63.1275C2.18265 63.1275 1.5582 67.4944 2.66748 67.9729C5.92395 69.4153 9.16335 70.0146 12.2798 70.0146C19.8499 70.0146 24.0509 67.6388 24.0509 61.6365C24.0509 56.0008 19.5918 53.3179 13.6508 51.1304C9.2253 49.4936 3.82929 47.7813 3.82929 45.2023C3.82929 42.9615 5.90554 41.5806 7.47452 40.6694C10.1927 39.0603 13.5691 38.2396 16.6087 38.2707C17.5155 38.2707 22.6054 38.2396 22.6054 40.7902C22.6054 41.4287 22.2651 42.0976 21.4965 42.7503C20.4694 43.5966 21.7807 47.5964 23.0489 46.7803C24.8984 45.5965 26.3103 43.1411 26.3103 40.3684ZM198.139 63.7943C196.063 63.035 193.888 61.8512 193.888 56.7304C193.888 50.0707 197.434 47.8407 204.373 47.8407C207.439 47.8407 210.175 48.6418 212.299 51.0068C214.837 53.8025 215.138 59.1878 215.06 63.5217C216.305 63.4258 218.379 63.5217 219.406 63.5217C220.497 63.5217 220.639 64.6778 220.639 65.668C220.639 66.7978 220.577 68.336 219.567 68.336C218.037 68.336 214.936 68.249 214.614 68.2773C213.486 75.5357 210.074 81 205.596 81C202.798 81 200.157 78.6066 200.157 74.0535C200.157 67.6388 205.561 64.0083 211.286 63.6735C211.382 61.4266 211.324 58.8531 210.744 56.8512C209.573 52.9277 206.704 52.6524 203.683 52.6524C198.384 52.6524 197.496 53.8922 197.496 57.003C197.496 61.4854 202.677 60.1274 202.677 63.5217C202.677 66.5791 198.201 68.5189 194.768 68.5189C189.635 68.5189 186.065 65.1024 184.939 57.6415C183.304 64.2222 180.743 68.4292 177.977 68.4292C173.005 68.4292 171.063 57.8238 170.274 50.1605C170.154 48.8869 170.478 48.0823 172.578 47.9021C173.301 47.8407 173.849 48.0236 173.929 48.8869C174.413 54.5787 175.829 63.6087 178.203 63.6087C180.684 63.6087 182.982 54.0785 183.927 48.7964C184.23 47.3824 187.434 47.5957 187.492 49.6738C187.492 61.4577 190.677 65.4905 198.139 63.9799V63.7943ZM166.162 47.5957C161.67 47.5957 159.191 53.0432 157.414 58.519C156.335 61.8201 156.01 63.5217 155.686 63.5217C154.76 63.5217 155.34 49.1879 151.653 49.1879C147.744 49.1879 145.22 63.5217 142.138 63.5217C141.19 63.5217 140.765 62.003 140.765 57.734V38.7262C140.765 37.514 140.423 36.8783 138.848 36.8783C137.456 36.8783 137.172 37.8772 137.172 38.5744V50.0086C135.963 48.6142 132.542 47.8407 129.695 47.8407C123.13 47.8407 121.149 52.1063 121.149 58.0971C121.149 61.0331 121.71 64.0333 122.982 65.7321C124.739 68.0971 127.421 68.336 129.553 68.3732C131.571 68.3732 134.633 68.1254 135.477 67.3715C135.984 66.9159 136.004 66.2835 136.004 65.7658C136.004 64.4382 135.64 62.8184 134.796 62.8805C134.252 62.9169 132.561 63.5217 129.332 63.5217C125.99 63.5217 124.959 61.7614 124.959 57.4249C124.959 54.1683 125.629 52.6524 130.301 52.6524C132.258 52.6524 135.743 52.8042 136.65 54.9694C137.033 55.9427 137.052 56.947 137.19 59.4889C137.538 65.6363 139.151 68.336 141.528 68.336C146.451 68.336 148.307 59.3964 150.946 54.7899C151.552 58.7579 151.471 68.3732 155.381 68.3732C160.158 68.3732 159.812 52.8663 166.039 52.8663C166.937 52.8663 167.352 52.9871 167.674 52.9871C168.722 52.9871 168.969 51.5495 168.969 49.9499C168.969 47.9588 168.643 47.5957 166.163 47.5957M205.681 76.2079C208.361 76.2079 210.621 72.3776 210.942 68.336C207.88 68.5189 203.825 70.1645 203.825 73.8368C203.825 75.018 204.472 76.2079 205.681 76.2079ZM104.026 49.2216C100.846 49.2216 100.246 57.6415 95.0512 61.8512C93.0966 63.4089 90.461 63.9799 87.0828 63.9799C81.6662 63.9799 80.4034 63.2463 80.4034 57.8548C80.4034 56.7304 80.4429 55.4844 80.8788 54.5476C81.7856 52.6524 84.8459 52.5592 86.4359 52.5592C90.1786 52.5592 90.6221 53.1052 90.6221 54.9694C90.6221 56.7918 90.2589 56.9099 87.9097 56.9693H86.5387C86.0148 56.9693 85.3904 56.8849 85.3904 58.4312C85.3904 59.8263 85.3509 60.5182 85.9345 60.7011C86.2353 60.8226 87.2049 60.915 87.8065 60.915C92.7729 60.915 94.4056 58.4312 94.4056 54.7278C94.4056 49.9492 92.8344 47.8123 86.1141 47.8123C82.6125 47.8123 77.8239 48.5548 76.9395 54.393C76.7177 55.7743 76.6071 57.1905 76.61 58.6114C76.61 67.6699 81.8062 68.5196 87.4667 68.5196C95.8969 68.5196 100.487 62.4897 103.321 54.8183C103.925 58.7917 103.845 68.4008 107.75 68.4008C112.52 68.4008 112.054 52.8913 118.286 52.8913C118.569 52.8913 118.951 52.9277 119.13 52.9277C120.12 52.9277 120.299 51.5866 120.299 49.9782C120.299 47.9925 119.999 47.6294 118.406 47.6294C113.9 47.6294 111.551 53.0742 109.778 58.5527C108.719 61.8512 108.398 63.55 108.072 63.55C107.125 63.55 107.709 49.2216 104.026 49.2216ZM27.218 50.1301C27.9982 57.7941 29.9079 68.4015 34.8833 68.4015C37.6554 68.4015 39.9579 64.827 41.8227 58.7586C42.5096 64.3039 44.3555 68.4015 47.4419 68.4298C52.1501 68.4636 53.1301 57.1833 57.5201 54.0448C59.5142 52.6193 61.5456 52.6841 63.6815 52.6841C69.1696 52.6841 70.0768 53.6513 70.0768 57.9824C70.0768 59.4308 70.0396 61.486 69.1925 62.4903C68.2273 63.6094 65.7282 63.5783 64.3666 63.5783C63.0755 63.5783 59.8976 63.1849 59.5946 60.9157C59.5138 60.2799 59.5331 60.0686 59.5331 59.1548C59.5331 57.9176 58.6873 57.518 57.7598 57.518C56.4894 57.518 55.9956 58.4319 55.9956 59.4895V76.8383C55.9956 77.5389 56.2182 78.5459 57.5987 78.5459C59.1923 78.5459 59.5142 77.7528 59.5142 76.5433V66.6433C60.6347 67.8528 62.1889 68.336 65.7093 68.3732C72.3946 68.4292 73.8796 64.7926 73.8796 58.1586C73.8796 53.7714 73.0509 51.6204 72.2541 50.5857C70.8458 48.7971 69.3343 47.8407 63.5002 47.8407C59.2502 47.8407 57.0564 49.0077 55.249 50.7065C51.1234 54.5787 49.651 63.7667 47.5222 63.7667C44.8175 63.7667 44.4529 54.1372 44.3744 49.6435C44.3142 47.568 41.1381 47.3568 40.8369 48.766C39.8982 54.0441 37.5957 63.5777 35.1042 63.5777C32.7267 63.5777 31.3256 54.5476 30.8377 48.8558C30.7551 47.9919 30.211 47.8123 29.4869 47.8744C27.3787 48.0513 27.0964 48.8565 27.218 50.1301Z" fill="#ED018C"/>
</svg>
