<svg width="322" height="117" viewBox="0 0 322 117" fill="none" xmlns="http://www.w3.org/2000/svg">
<rect width="322" height="117" fill="white"/>
<path d="M53.9688 37.9375C55.3854 38.1042 56.5729 38.2292 57.5312 38.3125C58.5312 38.3542 59.3438 38.4167 59.9688 38.5C60.7188 38.5833 61.3021 38.625 61.7188 38.625C62.1771 38.6667 62.8646 38.6458 63.7812 38.5625C64.5729 38.4792 65.6354 38.375 66.9688 38.25C68.3438 38.125 70.0938 37.9375 72.2188 37.6875C71.2604 38.5208 70.4896 39.3333 69.9062 40.125C69.3646 40.875 68.9479 41.5417 68.6562 42.125C68.2812 42.8333 68.0521 43.5 67.9688 44.125C67.8021 45.125 67.6562 46.5 67.5312 48.25C67.4479 49.9583 67.3646 51.8333 67.2812 53.875C67.1979 55.9167 67.1562 58.0208 67.1562 60.1875C67.1562 62.3542 67.1771 64.4167 67.2188 66.375C67.3021 68.2917 67.4271 70 67.5938 71.5C67.8021 73 68.0521 74.0833 68.3438 74.75C68.7604 75.5 69.1979 76.25 69.6562 77C70.0729 77.625 70.5729 78.2708 71.1562 78.9375C71.7396 79.6042 72.4062 80.1458 73.1562 80.5625C70.6979 80.4375 68.7396 80.375 67.2812 80.375H65.0312C64.3646 80.375 63.5104 80.4167 62.4688 80.5C61.5938 80.5833 60.4896 80.6667 59.1562 80.75C57.8229 80.8333 56.2188 80.9583 54.3438 81.125C55.3021 80.0833 56.0521 79.0833 56.5938 78.125C57.1354 77.1667 57.5729 76.3333 57.9062 75.625C58.2812 74.7917 58.5312 74 58.6562 73.25C58.8229 72.1667 58.9479 70.8333 59.0312 69.25C59.1562 67.625 59.2396 65.8958 59.2812 64.0625C59.3229 62.1875 59.3229 60.2917 59.2812 58.375C59.2812 56.4167 59.2396 54.5417 59.1562 52.75C59.0729 50.9583 58.9479 49.3333 58.7812 47.875C58.6562 46.4167 58.4896 45.25 58.2812 44.375C58.1562 43.8333 57.9062 43.2292 57.5312 42.5625C57.1979 41.9792 56.7396 41.3125 56.1562 40.5625C55.6146 39.7708 54.8854 38.8958 53.9688 37.9375ZM74.0938 51.375C75.0521 51.2917 75.8646 51.2083 76.5312 51.125C77.2396 51.0417 77.8229 50.9583 78.2812 50.875C78.8229 50.7917 79.2812 50.7083 79.6562 50.625C80.0312 50.5833 80.4479 50.5 80.9062 50.375C81.3229 50.2917 81.7812 50.1875 82.2812 50.0625C82.8229 49.8958 83.4062 49.7083 84.0312 49.5L83.6562 57.4375C84.5729 55.9792 85.6354 54.875 86.8438 54.125C88.0521 53.3333 89.1979 52.75 90.2812 52.375C91.5729 51.9167 92.8646 51.6458 94.1562 51.5625C95.4896 51.6042 96.7188 51.8125 97.8438 52.1875C98.8021 52.5208 99.7604 53.0417 100.719 53.75C101.719 54.4583 102.49 55.5 103.031 56.875C104.448 55.4167 105.844 54.2917 107.219 53.5C108.635 52.6667 109.885 52.0417 110.969 51.625C112.26 51.1667 113.469 50.8958 114.594 50.8125C116.094 50.7708 117.469 51.0208 118.719 51.5625C120.01 52.1042 121.135 52.7917 122.094 53.625C123.052 54.4167 123.823 55.2708 124.406 56.1875C124.99 57.0625 125.323 57.8333 125.406 58.5C125.531 59.4167 125.469 60.6042 125.219 62.0625C124.969 63.4792 124.677 64.9375 124.344 66.4375C124.01 67.8958 123.698 69.25 123.406 70.5C123.156 71.7083 123.052 72.5625 123.094 73.0625C123.219 73.4792 123.51 73.9792 123.969 74.5625C124.385 75.0625 124.99 75.6875 125.781 76.4375C126.615 77.1458 127.802 77.9792 129.344 78.9375C128.01 78.8958 126.823 78.8542 125.781 78.8125C124.781 78.7708 123.927 78.7083 123.219 78.625C122.385 78.5417 121.656 78.4792 121.031 78.4375C120.531 78.4375 119.927 78.3958 119.219 78.3125C118.635 78.2708 117.865 78.2083 116.906 78.125C115.99 78.0417 114.927 77.9583 113.719 77.875C114.177 77.75 114.552 77.5208 114.844 77.1875C115.135 76.8125 115.385 76.4583 115.594 76.125C115.802 75.7083 115.969 75.25 116.094 74.75C116.177 74.3333 116.26 73.6667 116.344 72.75C116.427 71.8333 116.49 70.7917 116.531 69.625C116.615 68.4583 116.656 67.2292 116.656 65.9375C116.698 64.6458 116.698 63.4167 116.656 62.25C116.615 61.0833 116.531 60.0208 116.406 59.0625C116.281 58.1042 116.115 57.375 115.906 56.875C115.74 56.5 115.448 56.2083 115.031 56C114.615 55.75 114.135 55.6042 113.594 55.5625C113.052 55.4792 112.51 55.5 111.969 55.625C111.427 55.7083 110.948 55.875 110.531 56.125C110.156 56.4167 109.656 56.8125 109.031 57.3125C108.49 57.7708 107.781 58.3958 106.906 59.1875C106.031 59.9792 104.927 60.9792 103.594 62.1875C103.469 64.8125 103.365 66.9375 103.281 68.5625C103.24 70.1458 103.198 71.3542 103.156 72.1875C103.115 73.1875 103.094 73.875 103.094 74.25C103.052 74.5833 103.073 74.8958 103.156 75.1875C103.24 75.8125 103.49 76.3958 103.906 76.9375C103.406 76.8125 102.865 76.7292 102.281 76.6875C101.74 76.6458 101.24 76.6042 100.781 76.5625C100.24 76.5208 99.6979 76.5 99.1562 76.5C98.6979 76.5 98.1979 76.5208 97.6562 76.5625C97.1979 76.6042 96.6354 76.6667 95.9688 76.75C95.3021 76.7917 94.5729 76.8542 93.7812 76.9375C94.1146 76.7292 94.3854 76.4792 94.5938 76.1875C94.8021 75.8958 94.9688 75.625 95.0938 75.375C95.2604 75.0833 95.3854 74.8125 95.4688 74.5625C95.5104 74.3125 95.5938 73.7083 95.7188 72.75C95.8438 71.75 95.9271 70.5833 95.9688 69.25C96.0104 67.9167 96.0104 66.5208 95.9688 65.0625C95.9271 63.5625 95.7812 62.2083 95.5312 61C95.2812 59.75 94.8854 58.7292 94.3438 57.9375C93.8438 57.1458 93.1771 56.7917 92.3438 56.875C91.3438 56.9583 90.3229 57.2083 89.2812 57.625C88.4062 57.9583 87.4688 58.4583 86.4688 59.125C85.4688 59.7917 84.5312 60.6875 83.6562 61.8125C83.4896 64.9375 83.3854 67.4167 83.3438 69.25C83.3438 71.0833 83.3646 72.4792 83.4062 73.4375C83.4479 74.5625 83.4896 75.3333 83.5312 75.75C83.5729 76.0417 83.6771 76.3333 83.8438 76.625C83.9688 76.875 84.1146 77.1667 84.2812 77.5C84.4896 77.8333 84.7188 78.1458 84.9688 78.4375L75.0312 77.9375C75.3646 77.7708 75.6562 77.5625 75.9062 77.3125C76.1562 77.0208 76.3646 76.7292 76.5312 76.4375C76.6979 76.1042 76.8646 75.7708 77.0312 75.4375C77.1562 75.1458 77.2604 74.4583 77.3438 73.375C77.4688 72.2917 77.5729 71.0208 77.6562 69.5625C77.7396 68.0625 77.8021 66.5 77.8438 64.875C77.9271 63.2083 77.9688 61.6667 77.9688 60.25C78.0104 58.7917 78.0312 57.5625 78.0312 56.5625C78.0312 55.5208 78.0104 54.8958 77.9688 54.6875C77.8438 54.2708 77.6146 53.8333 77.2812 53.375C76.9896 53.0417 76.5938 52.6875 76.0938 52.3125C75.5938 51.8958 74.9271 51.5833 74.0938 51.375ZM127.781 51.875C129.115 51.6667 130.198 51.5 131.031 51.375C131.906 51.2083 132.615 51.0833 133.156 51C133.781 50.875 134.26 50.7708 134.594 50.6875C134.927 50.6042 135.406 50.4792 136.031 50.3125C136.573 50.1458 137.281 49.9583 138.156 49.75C139.031 49.5 140.135 49.1667 141.469 48.75C141.135 49.1667 140.865 49.5417 140.656 49.875C140.49 50.1667 140.323 50.4167 140.156 50.625C139.99 50.875 139.844 51.1042 139.719 51.3125C139.594 51.5208 139.469 51.8333 139.344 52.25C139.26 52.5833 139.156 53.0625 139.031 53.6875C138.906 54.2708 138.802 55.0417 138.719 56C140.969 54.5833 143.031 53.5208 144.906 52.8125C146.823 52.1042 148.49 51.6042 149.906 51.3125C151.573 50.9792 153.073 50.8542 154.406 50.9375C156.073 51.0625 157.615 51.4375 159.031 52.0625C160.49 52.6458 161.802 53.3542 162.969 54.1875C164.135 55.0208 165.156 55.9375 166.031 56.9375C166.906 57.9375 167.594 58.9375 168.094 59.9375C168.427 60.6042 168.635 61.5625 168.719 62.8125C168.844 64.0625 168.719 65.3958 168.344 66.8125C167.969 68.2292 167.302 69.625 166.344 71C165.427 72.3333 164.115 73.3958 162.406 74.1875C159.448 75.5208 156.51 76.2708 153.594 76.4375C152.344 76.5208 151.052 76.4792 149.719 76.3125C148.427 76.1458 147.115 75.7917 145.781 75.25C144.49 74.7083 143.24 73.9375 142.031 72.9375C140.823 71.8958 139.719 70.5625 138.719 68.9375C138.385 71.0625 138.135 72.9167 137.969 74.5C137.844 76.0417 137.76 77.3333 137.719 78.375C137.677 79.5833 137.677 80.6042 137.719 81.4375C137.802 82.2708 137.969 83.1667 138.219 84.125C138.427 84.9583 138.719 85.9167 139.094 87C139.51 88.125 140.031 89.2917 140.656 90.5C140.406 90.4167 140.052 90.3542 139.594 90.3125C139.177 90.3125 138.74 90.3542 138.281 90.4375C137.781 90.5208 137.219 90.6042 136.594 90.6875C136.01 90.8125 135.365 90.9583 134.656 91.125C134.073 91.25 133.385 91.3958 132.594 91.5625C131.844 91.7708 131.073 92 130.281 92.25C130.74 91.7083 131.094 91.0833 131.344 90.375C131.635 89.7083 131.865 89.0833 132.031 88.5C132.198 87.7917 132.344 87.0833 132.469 86.375C132.51 85.75 132.573 84.5625 132.656 82.8125C132.781 81.1042 132.885 79.125 132.969 76.875C133.052 74.5833 133.115 72.1875 133.156 69.6875C133.24 67.1875 133.281 64.875 133.281 62.75C133.323 60.5833 133.323 58.75 133.281 57.25C133.24 55.75 133.156 54.875 133.031 54.625C132.865 54.3333 132.552 54.0208 132.094 53.6875C131.719 53.3958 131.177 53.1042 130.469 52.8125C129.802 52.5208 128.906 52.2083 127.781 51.875ZM142.656 63.25C142.365 64.2083 142.302 65.1458 142.469 66.0625C142.635 66.9792 143.052 67.8333 143.719 68.625C144.427 69.4167 145.406 70.125 146.656 70.75C147.948 71.3333 149.552 71.7708 151.469 72.0625C153.385 72.3542 154.844 72.3125 155.844 71.9375C156.844 71.5625 157.573 70.9792 158.031 70.1875C158.531 69.3542 158.865 68.3958 159.031 67.3125C159.198 66.1875 159.406 65.0208 159.656 63.8125C159.906 62.6458 159.865 61.4583 159.531 60.25C159.198 59 158.719 57.875 158.094 56.875C157.51 55.875 156.844 55.0625 156.094 54.4375C155.385 53.7708 154.76 53.4375 154.219 53.4375C152.927 53.4375 151.656 53.7708 150.406 54.4375C149.156 55.1042 148.01 55.9375 146.969 56.9375C145.927 57.9375 145.01 59.0208 144.219 60.1875C143.469 61.3125 142.948 62.3333 142.656 63.25ZM171.594 52.25C172.677 52.4583 173.615 52.625 174.406 52.75C175.24 52.8333 175.948 52.9167 176.531 53C177.198 53.0833 177.781 53.1458 178.281 53.1875C178.781 53.2292 179.365 53.2708 180.031 53.3125C181.156 53.3542 182.74 53.3542 184.781 53.3125C183.573 53.2292 182.615 53.5417 181.906 54.25C181.24 54.9167 180.74 55.6875 180.406 56.5625C179.99 57.6042 179.76 58.8125 179.719 60.1875C179.635 62.0208 179.677 63.6875 179.844 65.1875C180.052 66.6458 180.406 67.8958 180.906 68.9375C181.448 69.9375 182.156 70.6875 183.031 71.1875C183.906 71.6458 185.031 71.7708 186.406 71.5625C187.781 71.3542 188.823 70.875 189.531 70.125C190.281 69.3333 190.823 68.375 191.156 67.25C191.49 66.0833 191.677 64.7708 191.719 63.3125C191.802 61.8542 191.865 60.3333 191.906 58.75C191.906 57.1667 191.885 56.0417 191.844 55.375C191.844 54.6667 191.823 54.2083 191.781 54C191.74 53.7917 191.677 53.7083 191.594 53.75C191.51 53.75 191.406 53.6458 191.281 53.4375C191.198 53.2708 191.073 53.1042 190.906 52.9375C190.781 52.7708 190.615 52.5833 190.406 52.375C190.198 52.125 189.969 51.875 189.719 51.625C190.802 51.6667 191.76 51.7083 192.594 51.75C193.469 51.75 194.198 51.7708 194.781 51.8125C195.448 51.8542 196.031 51.8958 196.531 51.9375C196.99 51.9792 197.594 52.0417 198.344 52.125C198.969 52.2083 199.781 52.2917 200.781 52.375C201.781 52.4583 202.969 52.5833 204.344 52.75C203.385 52.9583 202.615 53.2708 202.031 53.6875C201.448 54.1042 200.99 54.5208 200.656 54.9375C200.281 55.3958 200.01 55.8958 199.844 56.4375C199.719 57.1458 199.719 58.2292 199.844 59.6875C199.927 60.9792 200.135 62.75 200.469 65C200.802 67.25 201.323 70.2083 202.031 73.875L197.094 76.8125L196.094 68.5C194.885 70.5417 193.594 72.125 192.219 73.25C190.885 74.3333 189.635 75.125 188.469 75.625C187.094 76.2083 185.76 76.5417 184.469 76.625C182.76 76.625 181.281 76.5208 180.031 76.3125C178.823 76.0625 177.781 75.75 176.906 75.375C176.031 75 175.323 74.5833 174.781 74.125C174.281 73.625 173.906 73.125 173.656 72.625C173.073 71.5833 172.76 70.25 172.719 68.625C172.677 66.9583 172.74 65.3125 172.906 63.6875C173.073 62.0208 173.26 60.5 173.469 59.125C173.677 57.75 173.74 56.8125 173.656 56.3125C173.573 55.9375 173.448 55.5208 173.281 55.0625C173.115 54.6875 172.906 54.2708 172.656 53.8125C172.406 53.3125 172.052 52.7917 171.594 52.25ZM206.719 82.75C207.135 82.125 207.469 81.5417 207.719 81C207.969 80.4583 208.177 80 208.344 79.625C208.51 79.1667 208.635 78.75 208.719 78.375C208.76 78.125 208.781 77.3958 208.781 76.1875C208.781 74.9792 208.74 73.4583 208.656 71.625C208.615 69.7917 208.552 67.7292 208.469 65.4375C208.427 63.1458 208.344 60.8125 208.219 58.4375C208.135 56.0625 208.031 53.75 207.906 51.5C207.823 49.25 207.74 47.2292 207.656 45.4375C207.573 43.6042 207.49 42.1042 207.406 40.9375C207.323 39.7708 207.26 39.1042 207.219 38.9375C207.135 38.6875 206.99 38.4375 206.781 38.1875C206.365 37.6875 205.656 37.2083 204.656 36.75C206.781 36.2083 208.406 35.7708 209.531 35.4375C210.198 35.2708 210.781 35.1042 211.281 34.9375C211.74 34.7708 212.198 34.6042 212.656 34.4375C213.031 34.2708 213.448 34.0833 213.906 33.875C214.365 33.625 214.781 33.3542 215.156 33.0625C214.948 34.2708 214.781 35.4375 214.656 36.5625C214.531 37.6875 214.427 38.7292 214.344 39.6875C214.26 40.7708 214.219 41.8125 214.219 42.8125C214.01 44.8542 213.885 47.0833 213.844 49.5C213.844 51.875 213.865 54.2917 213.906 56.75C213.948 59.2083 214.031 61.6042 214.156 63.9375C214.281 66.2708 214.406 68.3958 214.531 70.3125C214.698 72.1875 214.844 73.7917 214.969 75.125C215.135 76.4167 215.26 77.25 215.344 77.625C215.51 78.25 215.677 78.8542 215.844 79.4375C216.01 79.9375 216.198 80.4583 216.406 81C216.615 81.5833 216.865 82.0417 217.156 82.375H211.094C210.552 82.375 210.031 82.3958 209.531 82.4375C209.073 82.4792 208.594 82.5208 208.094 82.5625C207.594 82.6042 207.135 82.6667 206.719 82.75ZM246.969 45.3125C246.594 46.2292 246.26 47.0625 245.969 47.8125C245.719 48.5625 245.49 49.2292 245.281 49.8125C245.073 50.4792 244.885 51.0625 244.719 51.5625C244.552 52.1458 244.365 52.8125 244.156 53.5625C243.948 54.2292 243.677 55.0625 243.344 56.0625C243.052 57.0208 242.698 58.1667 242.281 59.5C241.948 57.5 241.344 55.9167 240.469 54.75C239.594 53.5417 238.698 52.6042 237.781 51.9375C236.698 51.1875 235.531 50.6458 234.281 50.3125C232.031 49.9375 230.406 49.9792 229.406 50.4375C228.406 50.8958 227.74 51.4792 227.406 52.1875C227.24 52.4792 227.052 52.8542 226.844 53.3125C226.677 53.7292 226.531 54.1667 226.406 54.625C226.323 55.0833 226.302 55.5417 226.344 56C226.385 56.4583 226.573 56.8333 226.906 57.125C227.115 57.3333 227.656 57.625 228.531 58C229.406 58.3333 230.448 58.7292 231.656 59.1875C232.906 59.6042 234.219 60.0625 235.594 60.5625C237.01 61.0625 238.344 61.5625 239.594 62.0625C240.844 62.5625 241.927 63.0625 242.844 63.5625C243.76 64.0625 244.365 64.5208 244.656 64.9375C244.906 65.3542 245.177 65.9167 245.469 66.625C245.802 67.2917 246.031 68.0417 246.156 68.875C246.323 69.6667 246.365 70.5 246.281 71.375C246.24 72.2083 246.01 73.0417 245.594 73.875C245.177 74.7083 244.51 75.4792 243.594 76.1875C242.719 76.8958 241.531 77.4792 240.031 77.9375C238.281 78.4792 236.594 78.625 234.969 78.375C233.344 78.125 231.844 77.75 230.469 77.25C229.135 76.75 227.969 76.2708 226.969 75.8125C225.969 75.3125 225.26 75.1042 224.844 75.1875C224.385 75.2708 223.865 75.5 223.281 75.875C222.698 76.25 222.135 76.6458 221.594 77.0625C221.094 77.4375 220.656 77.7917 220.281 78.125C219.906 78.4167 219.719 78.5208 219.719 78.4375C219.719 78.3542 219.781 78.1042 219.906 77.6875C220.073 77.2708 220.24 76.7708 220.406 76.1875C220.615 75.5625 220.802 74.8958 220.969 74.1875C221.177 73.4375 221.323 72.7292 221.406 72.0625C221.49 71.5208 221.594 70.8542 221.719 70.0625C221.802 69.3542 221.906 68.5 222.031 67.5C222.198 66.4583 222.385 65.2083 222.594 63.75C222.802 64.8333 223.094 65.7708 223.469 66.5625C223.885 67.3542 224.281 68.0417 224.656 68.625C225.115 69.2917 225.552 69.8542 225.969 70.3125C226.594 70.8958 227.323 71.4375 228.156 71.9375C229.031 72.4375 229.906 72.875 230.781 73.25C231.656 73.5833 232.49 73.7917 233.281 73.875C234.073 73.9583 234.74 73.875 235.281 73.625C235.823 73.375 236.281 72.9167 236.656 72.25C237.073 71.5833 237.365 70.8542 237.531 70.0625C237.698 69.2708 237.76 68.5208 237.719 67.8125C237.677 67.0625 237.49 66.4583 237.156 66C236.906 65.7083 236.323 65.3333 235.406 64.875C234.531 64.4167 233.469 63.9167 232.219 63.375C231.01 62.8333 229.719 62.2708 228.344 61.6875C227.01 61.1042 225.74 60.5208 224.531 59.9375C223.365 59.3125 222.385 58.7292 221.594 58.1875C220.844 57.6042 220.427 57.0833 220.344 56.625C220.26 55.9583 220.198 55.2292 220.156 54.4375C220.115 53.6042 220.156 52.7917 220.281 52C220.448 51.1667 220.74 50.375 221.156 49.625C221.615 48.875 222.281 48.25 223.156 47.75C223.74 47.4167 224.51 47.1667 225.469 47C226.427 46.8333 227.49 46.75 228.656 46.75C229.823 46.7083 231.031 46.75 232.281 46.875C233.531 46.9583 234.719 47.0833 235.844 47.25C237.01 47.375 238.052 47.5417 238.969 47.75C239.927 47.9583 240.656 48.1458 241.156 48.3125C241.74 48.5208 242.365 48.5417 243.031 48.375C243.615 48.25 244.24 47.9792 244.906 47.5625C245.573 47.1458 246.26 46.3958 246.969 45.3125ZM265.469 70.9375C266.635 70.9375 267.719 70.8125 268.719 70.5625C269.552 70.3542 270.344 70.0208 271.094 69.5625C271.885 69.0625 272.406 68.3333 272.656 67.375C273.49 67.5417 274.198 67.6875 274.781 67.8125C275.365 67.8958 275.865 67.9792 276.281 68.0625C276.74 68.1875 277.135 68.2708 277.469 68.3125C277.802 68.3958 278.198 68.4792 278.656 68.5625C279.073 68.6458 279.573 68.75 280.156 68.875C280.781 68.9583 281.51 69.0833 282.344 69.25C281.719 69.1667 281.073 69.2292 280.406 69.4375C279.781 69.6458 279.177 69.875 278.594 70.125C277.927 70.4167 277.302 70.7708 276.719 71.1875C276.344 71.4375 275.906 71.8125 275.406 72.3125C274.948 72.8125 274.281 73.2917 273.406 73.75C272.531 74.2083 271.365 74.6042 269.906 74.9375C268.49 75.2292 266.656 75.3333 264.406 75.25C261.698 75.1667 259.427 74.6875 257.594 73.8125C255.76 72.8958 254.281 71.7917 253.156 70.5C252.031 69.1667 251.219 67.7292 250.719 66.1875C250.219 64.6458 249.948 63.2083 249.906 61.875C249.865 60.5417 250.26 59.1458 251.094 57.6875C251.927 56.2292 253.094 54.8958 254.594 53.6875C256.135 52.4792 257.99 51.5 260.156 50.75C262.323 49.9583 264.698 49.5625 267.281 49.5625C268.781 49.5625 270.156 49.75 271.406 50.125C272.698 50.4583 273.865 50.9167 274.906 51.5C275.99 52.0833 276.927 52.75 277.719 53.5C278.51 54.2083 279.177 54.9375 279.719 55.6875C280.26 56.4792 280.719 57.3125 281.094 58.1875C281.427 58.9375 281.698 59.7917 281.906 60.75C282.115 61.7083 282.177 62.6875 282.094 63.6875C278.927 63.7708 276.365 63.8333 274.406 63.875C272.49 63.9167 270.99 63.9375 269.906 63.9375H267.094H264.969C264.219 63.9375 263.24 63.9583 262.031 64C260.823 64.0417 259.344 64.1042 257.594 64.1875C257.802 65.8542 258.323 67.1458 259.156 68.0625C260.031 68.9375 260.948 69.6042 261.906 70.0625C262.99 70.5625 264.177 70.8542 265.469 70.9375ZM259.844 59.6875C261.177 59.7708 262.281 59.8333 263.156 59.875C264.073 59.9167 264.823 59.9583 265.406 60C266.031 60.0417 266.531 60.0625 266.906 60.0625H268.469C269.51 60.0625 271.448 60 274.281 59.875C274.156 58.0417 273.76 56.6458 273.094 55.6875C272.469 54.7292 271.802 54.0208 271.094 53.5625C270.26 53.0625 269.344 52.7708 268.344 52.6875C265.635 52.7292 263.615 53.2917 262.281 54.375C260.99 55.4583 260.177 57.2292 259.844 59.6875Z" fill="#A70B73"/>
</svg>
