<?xml version="1.0" encoding="UTF-8"?>
<svg version="1.1" xmlns="http://www.w3.org/2000/svg" width="324" height="90">
<path d="M0 0 C106.92 0 213.84 0 324 0 C324 29.7 324 59.4 324 90 C217.08 90 110.16 90 0 90 C0 60.3 0 30.6 0 0 Z " fill="#FDFCFC" transform="translate(0,0)"/>
<path d="M0 0 C0.70253906 -0.02900391 1.40507813 -0.05800781 2.12890625 -0.08789062 C5.63593026 -0.1309826 7.51786398 0.04464798 10.359375 2.17578125 C11.875 4.3125 11.875 4.3125 12 6.8125 C10.6756555 9.75548779 9.26410617 10.30861707 6.5625 11.88671875 C3.51855227 14.45857273 2.04149844 18.04882955 0.26953125 21.55859375 C-1.125 24.3125 -1.125 24.3125 -2.8515625 26.98046875 C-4.48407666 29.32336853 -4.48407666 29.32336853 -3.3125 32.1875 C-2.7246875 33.734375 -2.7246875 33.734375 -2.125 35.3125 C-1.8267475 38.77222897 -1.68717388 41.29090571 -3.0625 44.5 C-6.29666055 47.34214109 -10.14885164 48.74538073 -14.125 50.3125 C-13.67796014 54.79133696 -13.67796014 54.79133696 -11.125 58.3125 C-10.60829617 62.18777869 -10.74764752 63.78907559 -13.0625 67 C-13.743125 67.763125 -14.42375 68.52625 -15.125 69.3125 C-15.455 70.3025 -15.785 71.2925 -16.125 72.3125 C-17.61 71.8175 -17.61 71.8175 -19.125 71.3125 C-18.06624926 67.90937262 -17.11597846 65.29896769 -15.125 62.3125 C-15.44493268 58.90896087 -16.93910921 57.0500813 -19.1875 54.5625 C-19.73535156 53.94890625 -20.28320312 53.3353125 -20.84765625 52.703125 C-21.26917969 52.24421875 -21.69070312 51.7853125 -22.125 51.3125 C-22.455 53.6225 -22.785 55.9325 -23.125 58.3125 C-24.61 58.8075 -24.61 58.8075 -26.125 59.3125 C-27.25016085 61.14534443 -27.25016085 61.14534443 -28.125 63.3125 C-28.79166667 64.64583333 -29.45833333 65.97916667 -30.125 67.3125 C-30.92453138 64.02553767 -31.22158936 62.60226808 -30.125 59.3125 C-30.125 58.3225 -30.125 57.3325 -30.125 56.3125 C-29.485625 55.838125 -28.84625 55.36375 -28.1875 54.875 C-25.75868346 53.03498747 -25.56982321 52.24833318 -25.125 49.3125 C-24.125 45.3125 -24.125 45.3125 -23.125 41.3125 C-22.465 41.3125 -21.805 41.3125 -21.125 41.3125 C-21.145625 40.508125 -21.16625 39.70375 -21.1875 38.875 C-21.125 36.3125 -21.125 36.3125 -20.125 35.3125 C-18.45882885 35.27186168 -16.79111905 35.269779 -15.125 35.3125 C-14.795 33.6625 -14.465 32.0125 -14.125 30.3125 C-12.805 29.9825 -11.485 29.6525 -10.125 29.3125 C-10.125 28.6525 -10.125 27.9925 -10.125 27.3125 C-14.54389613 28.66271826 -16.46845343 30.57365668 -19.125 34.3125 C-20.0840625 34.0340625 -20.0840625 34.0340625 -21.0625 33.75 C-21.743125 33.605625 -22.42375 33.46125 -23.125 33.3125 C-24.77727926 34.96477926 -24.4446182 37.04484304 -24.625 39.3125 C-25.01388889 44.20138889 -25.01388889 44.20138889 -26.125 45.3125 C-28.12458364 45.35330783 -30.12545254 45.35504356 -32.125 45.3125 C-31.898125 46.075625 -31.67125 46.83875 -31.4375 47.625 C-31.2828125 48.9553125 -31.2828125 48.9553125 -31.125 50.3125 C-32.5625 51.875 -32.5625 51.875 -34.125 53.3125 C-34.125 54.6325 -34.125 55.9525 -34.125 57.3125 C-35.115 56.9825 -36.105 56.6525 -37.125 56.3125 C-36.63 53.3425 -36.63 53.3425 -36.125 50.3125 C-35.465 50.3125 -34.805 50.3125 -34.125 50.3125 C-34.455 49.755625 -34.785 49.19875 -35.125 48.625 C-36.2559601 46.00965478 -36.28162974 44.1318354 -36.125 41.3125 C-37.445 40.9825 -38.765 40.6525 -40.125 40.3125 C-39.135 40.3125 -38.145 40.3125 -37.125 40.3125 C-36.9703125 39.136875 -36.9703125 39.136875 -36.8125 37.9375 C-36.125 35.3125 -36.125 35.3125 -33.125 33.3125 C-32.96 32.3225 -32.795 31.3325 -32.625 30.3125 C-32.3775 28.8275 -32.3775 28.8275 -32.125 27.3125 C-31.135 26.6525 -30.145 25.9925 -29.125 25.3125 C-30.445 24.6525 -31.765 23.9925 -33.125 23.3125 C-33.125 22.6525 -33.125 21.9925 -33.125 21.3125 C-30.815 21.6425 -28.505 21.9725 -26.125 22.3125 C-26.125 20.3325 -26.125 18.3525 -26.125 16.3125 C-25.51011719 16.06757813 -24.89523438 15.82265625 -24.26171875 15.5703125 C-19.11631635 13.20855706 -19.11631635 13.20855706 -15.859375 8.75390625 C-15.14330508 6.27925286 -14.55397336 3.85182507 -14.125 1.3125 C-9.41223671 0.40392651 -4.78887951 0.06663561 0 0 Z " fill="#F5F4F4" transform="translate(42.125,-0.3125)"/>
<path d="M0 0 C3.63 0 7.26 0 11 0 C11.391875 1.299375 11.78375 2.59875 12.1875 3.9375 C12.9523682 6.14569124 12.9523682 6.14569124 14 8 C16.38901957 8.76129575 16.38901957 8.76129575 19 9 C21.75 11.5 21.75 11.5 24 14 C24.33 14.33 24.66 14.66 25 15 C25.04063832 16.66617115 25.042721 18.33388095 25 20 C26.98 20 28.96 20 31 20 C30.34 20.99 29.68 21.98 29 23 C25.375 23.1875 25.375 23.1875 22 23 C21.505 20.525 21.505 20.525 21 18 C20.34 18 19.68 18 19 18 C19 18.66 19 19.32 19 20 C18.34 20 17.68 20 17 20 C17.50256112 22.01432266 17.50256112 22.01432266 19 24 C21.31029085 24.74259349 23.645752 25.411438 26 26 C26.66 26.66 27.32 27.32 28 28 C27.95875 28.94875 27.9175 29.8975 27.875 30.875 C27.65085061 34.11716818 27.65085061 34.11716818 30.0625 36.0625 C30.701875 36.701875 31.34125 37.34125 32 38 C31.75 40.75 31.75 40.75 31 43 C30.34 42.01 29.68 41.02 29 40 C26.90315774 37.61722471 24.8927726 36.29676013 22 35 C22 35.99 22 36.98 22 38 C23.32 38.33 24.64 38.66 26 39 C26.66 42.3 27.32 45.6 28 49 C27.34 49 26.68 49 26 49 C26 48.01 26 47.02 26 46 C24.515 45.505 24.515 45.505 23 45 C23 44.01 23 43.02 23 42 C21.68 42 20.36 42 19 42 C18.896875 40.88625 18.79375 39.7725 18.6875 38.625 C18.460625 37.42875 18.23375 36.2325 18 35 C17.01 34.34 16.02 33.68 15 33 C12.77123226 34.29898394 12.77123226 34.29898394 11 37 C10.78641738 39.85346385 10.87650198 42.58656426 11.0546875 45.44140625 C11 48 11 48 9 51 C8.34 51 7.68 51 7 51 C7.226875 49.9275 7.45375 48.855 7.6875 47.75 C8.0453562 43.45572554 7.52301999 43.15377498 5 40 C5.2565444 36.49389321 6.0185934 34.9721099 8 32 C6.72125 31.7525 5.4425 31.505 4.125 31.25 C0.20826011 30.29503515 0.20826011 30.29503515 -1.5 27.875 C-2 26 -2 26 -0.4375 23.0625 C2 20 2 20 5.75 19.125 C6.8225 19.08375 7.895 19.0425 9 19 C9 17.35 9 15.7 9 14 C6.69 14.33 4.38 14.66 2 15 C2 13.68 2 12.36 2 11 C1.06716704 8.79932579 1.06716704 8.79932579 0 7 C0.66 6.67 1.32 6.34 2 6 C1.34 5.01 0.68 4.02 0 3 C0 2.01 0 1.02 0 0 Z " fill="#DBBDC2" transform="translate(54,1)"/>
<path d="M0 0 C6 0 6 0 7.72265625 1.35546875 C8.16480469 1.96003906 8.60695313 2.56460937 9.0625 3.1875 C9.80113281 4.14269531 9.80113281 4.14269531 10.5546875 5.1171875 C11.03164062 5.73851562 11.50859375 6.35984375 12 7 C14.60294952 9.72401694 16.86502861 11.91001907 20 14 C23.06688716 13.35803549 23.06688716 13.35803549 23.953125 11.234375 C24.29859375 10.49703125 24.6440625 9.7596875 25 9 C26.1948157 7.37462008 27.44966273 5.79226049 28.75 4.25 C29.40484375 3.45078125 30.0596875 2.6515625 30.734375 1.828125 C33 0 33 0 39 0 C39 12.54 39 25.08 39 38 C37.02 38 35.04 38 33 38 C32.67 29.09 32.34 20.18 32 11 C24.5421152 18.08076118 24.5421152 18.08076118 21 23 C17.26334338 22.44976705 15.81553383 21.05497256 13.4375 18.1875 C12.56931641 17.15689453 12.56931641 17.15689453 11.68359375 16.10546875 C10.0817073 14.10218152 8.53899706 12.05199609 7 10 C6.67 19.24 6.34 28.48 6 38 C4.02 38 2.04 38 0 38 C0 25.46 0 12.92 0 0 Z " fill="#E7217A" transform="translate(92,21)"/>
<path d="M0 0 C11.22 0 22.44 0 34 0 C34 0.33 34 0.66 34 1 C32.02 1 30.04 1 28 1 C27.96003906 1.66386719 27.92007812 2.32773438 27.87890625 3.01171875 C27.53630809 5.90899945 27.1091892 8.29374514 26 11 C23.76039492 12.66929672 21.54448368 13.70216595 19 14.83984375 C16.61618024 15.92397808 16.61618024 15.92397808 15.9375 19.3125 C15.958125 20.199375 15.97875 21.08625 16 22 C13.69 21.67 11.38 21.34 9 21 C9.89335797 23.35785318 9.89335797 23.35785318 13.0625 24.125 C14.5165625 24.558125 14.5165625 24.558125 16 25 C12.25 27 12.25 27 10 27 C10.12375 28.3921875 10.12375 28.3921875 10.25 29.8125 C10.1675 30.864375 10.085 31.91625 10 33 C8.0625 34.625 8.0625 34.625 6 36 C5.20376178 38.09415804 5.20376178 38.09415804 5 40 C3.0625 40.5625 3.0625 40.5625 1 41 C0 40 0 40 -0.11352539 36.21459961 C-0.11336622 34.52717271 -0.10766917 32.83974095 -0.09765625 31.15234375 C-0.0962413 30.2659169 -0.09482635 29.37949005 -0.09336853 28.46620178 C-0.08775215 25.62326746 -0.07519691 22.78041069 -0.0625 19.9375 C-0.05748711 18.01497509 -0.05292384 16.09244896 -0.04882812 14.16992188 C-0.03862648 9.44656036 -0.01905437 4.72336742 0 0 Z " fill="#FBFBFB" transform="translate(0,0)"/>
<path d="M0 0 C8.58 0 17.16 0 26 0 C26 1.98 26 3.96 26 6 C19.73 6 13.46 6 7 6 C7 9.3 7 12.6 7 16 C12.94 16 18.88 16 25 16 C25 17.65 25 19.3 25 21 C19.06 21 13.12 21 7 21 C7 24.63 7 28.26 7 32 C13.27 32 19.54 32 26 32 C26 33.98 26 35.96 26 38 C17.42 38 8.84 38 0 38 C0 25.46 0 12.92 0 0 Z " fill="#EA3687" transform="translate(259,21)"/>
<path d="M0 0 C0.70253906 -0.02900391 1.40507813 -0.05800781 2.12890625 -0.08789062 C4.1953125 -0.11328125 4.1953125 -0.11328125 7.875 0.3125 C9.195 1.6325 10.515 2.9525 11.875 4.3125 C5.605 4.3125 -0.665 4.3125 -7.125 4.3125 C-7.681875 5.67375 -8.23875 7.035 -8.8125 8.4375 C-10.74005573 12.77108274 -12.81500045 15.91762866 -16.125 19.3125 C-17.115 19.6425 -18.105 19.9725 -19.125 20.3125 C-19.455 22.6225 -19.785 24.9325 -20.125 27.3125 C-19.76728516 26.36890625 -19.76728516 26.36890625 -19.40234375 25.40625 C-17.76885691 22.72873029 -16.67823747 22.55895664 -13.6875 21.8125 C-9.75228574 20.82707567 -8.24977926 19.79377676 -6.125 16.3125 C-5.18519527 14.41700652 -4.29034094 12.49867943 -3.4375 10.5625 C-3.00050781 9.57765625 -2.56351563 8.5928125 -2.11328125 7.578125 C-1.78714844 6.83046875 -1.46101563 6.0828125 -1.125 5.3125 C-0.135 5.3125 0.855 5.3125 1.875 5.3125 C0.59798127 8.10503506 -0.71732526 10.8654956 -2.0625 13.625 C-2.41634766 14.41068359 -2.77019531 15.19636719 -3.13476562 16.00585938 C-6.00708805 21.77505398 -6.00708805 21.77505398 -9.37719727 23.39526367 C-11.8125 24.125 -11.8125 24.125 -14.1328125 24.6015625 C-16.24976459 25.14565704 -16.24976459 25.14565704 -17.3671875 27.0234375 C-18.31030671 29.1867506 -18.31030671 29.1867506 -19.125 32.3125 C-19.785 32.3125 -20.445 32.3125 -21.125 32.3125 C-21.455 32.9725 -21.785 33.6325 -22.125 34.3125 C-22.785 34.3125 -23.445 34.3125 -24.125 34.3125 C-24.18558594 35.02277344 -24.24617188 35.73304687 -24.30859375 36.46484375 C-24.39238281 37.38394531 -24.47617187 38.30304687 -24.5625 39.25 C-24.68431641 40.62478516 -24.68431641 40.62478516 -24.80859375 42.02734375 C-25.125 44.3125 -25.125 44.3125 -26.125 45.3125 C-28.12458364 45.35330783 -30.12545254 45.35504356 -32.125 45.3125 C-31.898125 46.075625 -31.67125 46.83875 -31.4375 47.625 C-31.2828125 48.9553125 -31.2828125 48.9553125 -31.125 50.3125 C-32.5625 51.875 -32.5625 51.875 -34.125 53.3125 C-34.125 54.6325 -34.125 55.9525 -34.125 57.3125 C-35.115 56.9825 -36.105 56.6525 -37.125 56.3125 C-36.63 53.3425 -36.63 53.3425 -36.125 50.3125 C-35.465 50.3125 -34.805 50.3125 -34.125 50.3125 C-34.455 49.755625 -34.785 49.19875 -35.125 48.625 C-36.2559601 46.00965478 -36.28162974 44.1318354 -36.125 41.3125 C-37.445 40.9825 -38.765 40.6525 -40.125 40.3125 C-39.135 40.3125 -38.145 40.3125 -37.125 40.3125 C-36.9703125 39.136875 -36.9703125 39.136875 -36.8125 37.9375 C-36.125 35.3125 -36.125 35.3125 -33.125 33.3125 C-32.96 32.3225 -32.795 31.3325 -32.625 30.3125 C-32.3775 28.8275 -32.3775 28.8275 -32.125 27.3125 C-31.135 26.6525 -30.145 25.9925 -29.125 25.3125 C-30.445 24.6525 -31.765 23.9925 -33.125 23.3125 C-33.125 22.6525 -33.125 21.9925 -33.125 21.3125 C-30.815 21.6425 -28.505 21.9725 -26.125 22.3125 C-26.125 20.3325 -26.125 18.3525 -26.125 16.3125 C-25.51011719 16.06757813 -24.89523438 15.82265625 -24.26171875 15.5703125 C-19.11631635 13.20855706 -19.11631635 13.20855706 -15.859375 8.75390625 C-15.14330508 6.27925286 -14.55397336 3.85182507 -14.125 1.3125 C-9.41223671 0.40392651 -4.78887951 0.06663561 0 0 Z " fill="#D8D4D5" transform="translate(42.125,-0.3125)"/>
<path d="M0 0 C7.92 0 15.84 0 24 0 C24 1.98 24 3.96 24 6 C18.06 6 12.12 6 6 6 C6 9.63 6 13.26 6 17 C11.61 17 17.22 17 23 17 C23 18.32 23 19.64 23 21 C17.39 21 11.78 21 6 21 C6 24.96 6 28.92 6 33 C12.27 33 18.54 33 25 33 C25 34.65 25 36.3 25 38 C16.75 38 8.5 38 0 38 C0 25.46 0 12.92 0 0 Z " fill="#E9287F" transform="translate(161,21)"/>
<path d="M0 0 C1.24523438 0.05607422 1.24523438 0.05607422 2.515625 0.11328125 C3.39476563 0.14808594 4.27390625 0.18289063 5.1796875 0.21875 C8.41523852 0.47778958 11.56764964 0.86961162 14.765625 1.42578125 C15.095625 3.07578125 15.425625 4.72578125 15.765625 6.42578125 C14.46625 7.07546875 14.46625 7.07546875 13.140625 7.73828125 C8.9883892 10.44754149 7.29811941 14.52647441 5.16015625 18.8671875 C3.85333578 21.26485531 2.96727189 22.83130316 0.765625 24.42578125 C-1.5390625 24.7265625 -1.5390625 24.7265625 -4.109375 24.73828125 C-7.83566944 24.94055862 -7.83566944 24.94055862 -10.9296875 26.81640625 C-12.09277653 28.30683171 -13.17039575 29.86306173 -14.234375 31.42578125 C-14.894375 31.42578125 -15.554375 31.42578125 -16.234375 31.42578125 C-16.234375 30.76578125 -16.234375 30.10578125 -16.234375 29.42578125 C-15.574375 29.42578125 -14.914375 29.42578125 -14.234375 29.42578125 C-13.96625 28.31203125 -13.698125 27.19828125 -13.421875 26.05078125 C-12.234375 22.42578125 -12.234375 22.42578125 -9.234375 20.42578125 C-8.10902344 20.22210937 -6.98367187 20.0184375 -5.82421875 19.80859375 C-1.43250185 18.11689867 -0.71308535 16.65934028 1.22460938 12.5625 C1.54751953 11.81613281 1.87042969 11.06976563 2.203125 10.30078125 C2.55310547 9.54667969 2.90308594 8.79257813 3.26367188 8.015625 C4.11988434 6.16245281 4.94582663 4.2953474 5.765625 2.42578125 C2.16585127 4.22566811 1.54587461 8.82712019 0.1796875 12.4453125 C-1.28864721 15.54017267 -2.56801392 17.29667203 -5.234375 19.42578125 C-7.3046875 20.078125 -7.3046875 20.078125 -9.359375 20.36328125 C-11.43237464 20.73066004 -11.43237464 20.73066004 -13.234375 21.42578125 C-14.83126139 23.90891189 -14.83126139 23.90891189 -15.234375 26.42578125 C-15.564375 26.42578125 -15.894375 26.42578125 -16.234375 26.42578125 C-16.484375 19.80078125 -16.484375 19.80078125 -14.234375 16.42578125 C-13.450625 16.05453125 -12.666875 15.68328125 -11.859375 15.30078125 C-8.48858097 12.89307123 -7.67814627 10.47564328 -6.2265625 6.6796875 C-3.58700996 0.68353861 -3.58700996 0.68353861 0 0 Z " fill="#241E1B" transform="translate(37.234375,2.57421875)"/>
<path d="M0 0 C2.31 0 4.62 0 7 0 C7 10.56 7 21.12 7 32 C12.87883003 31.96042231 12.87883003 31.96042231 18.75756836 31.90991211 C19.48596924 31.90741455 20.21437012 31.90491699 20.96484375 31.90234375 C21.7137085 31.89710693 22.46257324 31.89187012 23.23413086 31.88647461 C25 32 25 32 26 33 C26 34.65 26 36.3 26 38 C17.42 38 8.84 38 0 38 C0 25.46 0 12.92 0 0 Z " fill="#EA3687" transform="translate(194,21)"/>
<path d="M0 0 C1.98 0 3.96 0 6 0 C6 10.89 6 21.78 6 33 C12.27 33 18.54 33 25 33 C25 34.65 25 36.3 25 38 C16.75 38 8.5 38 0 38 C0 25.46 0 12.92 0 0 Z " fill="#E8227A" transform="translate(227,21)"/>
<path d="M0 0 C-0.10699219 0.59167969 -0.21398438 1.18335938 -0.32421875 1.79296875 C-1.13840681 6.91647455 -1.13840681 6.91647455 0.25 11.8125 C1.39645678 13.24557097 2.56264997 14.66312318 3.75 16.0625 C5 18 5 18 5.0625 20.0625 C3.44599707 23.01024064 1.00929725 23.71944798 -2 25 C-2 25.66 -2 26.32 -2 27 C-1.01 27.66 -0.02 28.32 1 29 C0.66666667 30.66666667 0.33333333 32.33333333 0 34 C-0.165 34.86625 -0.33 35.7325 -0.5 36.625 C-1 39 -1 39 -2 42 C-5.43050738 38.42655481 -5 35.7759364 -5 31 C-6.45833358 29.37485532 -6.45833358 29.37485532 -8 28 C-8.4375 25.5625 -8.4375 25.5625 -8 23 C-6.68799596 21.64567325 -5.35368596 20.31266518 -4 19 C-3.20318682 16.35815459 -3.20318682 16.35815459 -3 14 C-3.928125 13.566875 -3.928125 13.566875 -4.875 13.125 C-7 12 -7 12 -9 10 C-9.5625 7.6875 -9.5625 7.6875 -9 5 C-6.46516399 2.56443955 -3.61995801 0 0 0 Z " fill="#282621" transform="translate(40,46)"/>
<path d="M0 0 C1.98365342 5.0831119 3.2976972 9.97203987 1.0625 15.1875 C-2.17166055 18.02964109 -6.02385164 19.43288073 -10 21 C-9.55296014 25.47883696 -9.55296014 25.47883696 -7 29 C-6.48329617 32.87527869 -6.62264752 34.47657559 -8.9375 37.6875 C-9.618125 38.450625 -10.29875 39.21375 -11 40 C-11.33 40.99 -11.66 41.98 -12 43 C-12.99 42.67 -13.98 42.34 -15 42 C-13.94124926 38.59687262 -12.99097846 35.98646769 -11 33 C-11.19134575 30.03414084 -11.8745168 29.11787816 -14.0625 27.0625 C-16 25 -16 25 -16.25 22.25 C-16.1675 21.5075 -16.085 20.765 -16 20 C-14.906875 19.5875 -13.81375 19.175 -12.6875 18.75 C-9.85177066 17.17839097 -9.1096644 16.30913271 -8.0078125 13.203125 C-7.55227777 11.10459421 -7.14779696 8.99417991 -6.80078125 6.875 C-5.80459284 3.29844064 -4.06824005 0 0 0 Z " fill="#272520" transform="translate(38,29)"/>
<path d="M0 0 C0.70253906 -0.02900391 1.40507813 -0.05800781 2.12890625 -0.08789062 C5.74835932 -0.13236406 7.51175231 0.01814411 10.3671875 2.33203125 C10.86476562 2.98558594 11.36234375 3.63914063 11.875 4.3125 C11.18535156 4.15652344 10.49570312 4.00054687 9.78515625 3.83984375 C0.68304384 1.56039063 0.68304384 1.56039063 -8.125 3.3125 C-9.93361173 6.28002798 -11.23701742 9.30539861 -12.58203125 12.5078125 C-14.125 15.3125 -14.125 15.3125 -16.19921875 16.4921875 C-16.91722656 16.68039063 -17.63523437 16.86859375 -18.375 17.0625 C-19.6125 17.475 -20.85 17.8875 -22.125 18.3125 C-23.01193697 20.31813636 -23.30846302 22.16121158 -23.640625 24.32421875 C-24.42425175 27.54088017 -26.72893813 29.15020026 -29.125 31.3125 C-30.14156081 32.96911761 -31.14565076 34.63361559 -32.125 36.3125 C-33.115 36.8075 -33.115 36.8075 -34.125 37.3125 C-34.77713292 39.33713255 -34.77713292 39.33713255 -35.125 41.3125 C-36.775 41.3125 -38.425 41.3125 -40.125 41.3125 C-38.64 40.8175 -38.64 40.8175 -37.125 40.3125 C-36.9703125 39.136875 -36.9703125 39.136875 -36.8125 37.9375 C-36.125 35.3125 -36.125 35.3125 -33.125 33.3125 C-32.96 32.3225 -32.795 31.3325 -32.625 30.3125 C-32.3775 28.8275 -32.3775 28.8275 -32.125 27.3125 C-31.135 26.6525 -30.145 25.9925 -29.125 25.3125 C-30.445 24.6525 -31.765 23.9925 -33.125 23.3125 C-33.125 22.6525 -33.125 21.9925 -33.125 21.3125 C-30.815 21.6425 -28.505 21.9725 -26.125 22.3125 C-26.125 20.3325 -26.125 18.3525 -26.125 16.3125 C-25.51011719 16.06757813 -24.89523438 15.82265625 -24.26171875 15.5703125 C-19.11631635 13.20855706 -19.11631635 13.20855706 -15.859375 8.75390625 C-15.14330508 6.27925286 -14.55397336 3.85182507 -14.125 1.3125 C-9.41223671 0.40392651 -4.78887951 0.06663561 0 0 Z " fill="#2A2723" transform="translate(42.125,-0.3125)"/>
<path d="M0 0 C1.98 0 3.96 0 6 0 C6 11.88 6 23.76 6 36 C4.02 36 2.04 36 0 36 C0 24.12 0 12.24 0 0 Z " fill="#E71C78" transform="translate(143,22)"/>
<path d="M0 0 C1.65 0.33 3.3 0.66 5 1 C5.061875 1.86625 5.061875 1.86625 5.125 2.75 C5.87888819 5.34780111 5.87888819 5.34780111 9.0625 6.9375 C12 9 12 9 12.5625 11.5625 C12 14 12 14 10.46875 15.30859375 C8.37810624 17.71617021 8.7651499 19.37247621 8.9375 22.5 C9.20934579 27.68598131 9.20934579 27.68598131 7 31 C6.34 31 5.68 31 5 31 C5.226875 29.9275 5.45375 28.855 5.6875 27.75 C6.0453562 23.45572554 5.52301999 23.15377498 3 20 C3.2565444 16.49389321 4.0185934 14.9721099 6 12 C4.72125 11.7525 3.4425 11.505 2.125 11.25 C-1.79173989 10.29503515 -1.79173989 10.29503515 -3.5 7.875 C-3.665 7.25625 -3.83 6.6375 -4 6 C-2.68 4.02 -1.36 2.04 0 0 Z " fill="#281F1D" transform="translate(56,21)"/>
<path d="M0 0 C1.32 0.66 2.64 1.32 4 2 C4 2.99 4 3.98 4 5 C3.34 4.67 2.68 4.34 2 4 C3.98 6.97 3.98 6.97 6 10 C5.67 10.33 5.34 10.66 5 11 C6.98 11 8.96 11 11 11 C11.33 12.65 11.66 14.3 12 16 C9 18 9 18 6.5625 17.625 C5.2940625 17.315625 5.2940625 17.315625 4 17 C2.68 17 1.36 17 0 17 C-1.66666667 17 -3.33333333 17 -5 17 C-5 15 -5 15 -4 14 C-5.32 14 -6.64 14 -8 14 C-6.65365543 9.5937814 -4.80625626 7.56922298 -1 5 C-0.34 5 0.32 5 1 5 C0.67 3.35 0.34 1.7 0 0 Z " fill="#C8C4C4" transform="translate(52,4)"/>
<path d="M0 0 C3 1 3 1 5 4 C4.90625 5.97265625 4.90625 5.97265625 4.5 8.0625 C4.335 9.361875 4.17 10.66125 4 12 C4.66 12.66 5.32 13.32 6 14 C6.38286803 17.73296326 6.14915785 18.77626323 4 22 C3.83300768 25.12521833 3.83300768 25.12521833 4 28 C2.02 28.99 2.02 28.99 0 30 C0 29.34 0 28.68 0 28 C0.66 28 1.32 28 2 28 C1.649375 27.2575 1.29875 26.515 0.9375 25.75 C-0.0583663 22.82879218 -0.06781058 21.81513699 1 19 C1.33 18.34 1.66 17.68 2 17 C-0.475 16.01 -0.475 16.01 -3 15 C-2 10 -1 5 0 0 Z " fill="#312F2B" transform="translate(61,53)"/>
<path d="M0 0 C0.515625 0.61875 1.03125 1.2375 1.5625 1.875 C4.54788358 4.47764209 7.2048405 5.01606976 11 6 C11.66 6.66 12.32 7.32 13 8 C12.95875 8.94875 12.9175 9.8975 12.875 10.875 C12.65085061 14.11716818 12.65085061 14.11716818 15.0625 16.0625 C15.701875 16.701875 16.34125 17.34125 17 18 C16.75 20.75 16.75 20.75 16 23 C15.34 22.01 14.68 21.02 14 20 C12.08092727 17.91405138 10.40201436 16.60134291 8 15 C8.33 13.35 8.66 11.7 9 10 C6.03 10 3.06 10 0 10 C-1.125 2.25 -1.125 2.25 0 0 Z " fill="#281E1D" transform="translate(69,21)"/>
<path d="M0 0 C4.875 1.875 4.875 1.875 6 3 C5.9175 3.9075 5.835 4.815 5.75 5.75 C5.8325 6.8225 5.915 7.895 6 9 C6.825 9.70125 7.65 10.4025 8.5 11.125 C11.9830518 15.13050957 11.43832885 18.21212699 11.2734375 23.35546875 C11 26 11 26 10 28 C9.34 27.67 8.68 27.34 8 27 C8.04125 26.21625 8.0825 25.4325 8.125 24.625 C8.28728734 21.83883881 8.28728734 21.83883881 6 20 C6.375 17.375 6.375 17.375 7 15 C5.35 14.67 3.7 14.34 2 14 C1.01569664 9.93974866 1 6.16370811 1 2 C0.67 1.34 0.34 0.68 0 0 Z " fill="#2A2824" transform="translate(66,40)"/>
<path d="M0 0 C-0.30750371 2.14655501 -0.6211366 4.29223285 -0.9375 6.4375 C-1.11152344 7.63246094 -1.28554688 8.82742187 -1.46484375 10.05859375 C-2 13 -2 13 -3 14 C-4.99958364 14.04080783 -7.00045254 14.04254356 -9 14 C-8.773125 14.763125 -8.54625 15.52625 -8.3125 16.3125 C-8.209375 17.199375 -8.10625 18.08625 -8 19 C-9.4375 20.5625 -9.4375 20.5625 -11 22 C-11 23.32 -11 24.64 -11 26 C-11.99 25.67 -12.98 25.34 -14 25 C-13.67 23.02 -13.34 21.04 -13 19 C-12.34 19 -11.68 19 -11 19 C-11.33 18.34 -11.66 17.68 -12 17 C-12.039992 15.00039988 -12.04346799 12.99952758 -12 11 C-10.02 10.67 -8.04 10.34 -6 10 C-6.33 8.02 -6.66 6.04 -7 4 C-2.25 0 -2.25 0 0 0 Z " fill="#33312C" transform="translate(19,31)"/>
<path d="M0 0 C0.66 0.33 1.32 0.66 2 1 C0.54127894 7.77178637 -0.55409524 12.37098095 -6 17 C-7.01656081 18.65661761 -8.02065076 20.32111559 -9 22 C-9.66 22.33 -10.32 22.66 -11 23 C-11.65213292 25.02463255 -11.65213292 25.02463255 -12 27 C-13.65 27 -15.3 27 -17 27 C-16.01 26.67 -15.02 26.34 -14 26 C-13.896875 25.21625 -13.79375 24.4325 -13.6875 23.625 C-13 21 -13 21 -10 19 C-9.7525 17.515 -9.7525 17.515 -9.5 16 C-9.335 15.01 -9.17 14.02 -9 13 C-8.01 12.34 -7.02 11.68 -6 11 C-7.32 10.34 -8.64 9.68 -10 9 C-10 8.34 -10 7.68 -10 7 C-7.69 7.33 -5.38 7.66 -3 8 C-3.061875 7.05125 -3.12375 6.1025 -3.1875 5.125 C-3.125625 4.09375 -3.06375 3.0625 -3 2 C-2.01 1.34 -1.02 0.68 0 0 Z " fill="#494744" transform="translate(19,14)"/>
<path d="M0 0 C0.33 1.98 0.66 3.96 1 6 C0.34 6 -0.32 6 -1 6 C-1 6.66 -1 7.32 -1 8 C-1.61875 8.28875 -2.2375 8.5775 -2.875 8.875 C-5.13325765 9.93720042 -5.13325765 9.93720042 -7 12 C-8.32 12 -9.64 12 -11 12 C-11 11.34 -11 10.68 -11 10 C-11.66 10 -12.32 10 -13 10 C-13 9.34 -13 8.68 -13 8 C-12.34 7.67 -11.68 7.34 -11 7 C-11 5.35 -11 3.7 -11 2 C-7.12315913 0.80712589 -4.08378077 0 0 0 Z " fill="#CFB6A4" transform="translate(74,13)"/>
<path d="M0 0 C3.63 0 7.26 0 11 0 C12.4783226 2.95664519 12.06032783 5.74229737 12 9 C9.525 8.01 9.525 8.01 7 7 C7 7.66 7 8.32 7 9 C3.64564078 7.61198929 1.88709697 6.11371 0 3 C0 2.01 0 1.02 0 0 Z " fill="#2C2020" transform="translate(54,1)"/>
<path d="M0 0 C2 1.125 2 1.125 4 3 C4.25 6.1875 4.25 6.1875 4 9 C2.33333333 9 0.66666667 9 -1 9 C-1 11.31 -1 13.62 -1 16 C-3.68205541 14.13422232 -4.39820523 12.22161385 -5 9.125 C-5.37657368 5.41403759 -5.10932371 5.13455226 -2.5625 2 C-1.716875 1.34 -0.87125 0.68 0 0 Z " fill="#E9E7E7" transform="translate(69,33)"/>
<path d="M0 0 C1.32 0.33 2.64 0.66 4 1 C2.68 3.64 1.36 6.28 0 9 C-1.65 9 -3.3 9 -5 9 C-5.103125 9.639375 -5.20625 10.27875 -5.3125 10.9375 C-5.539375 11.618125 -5.76625 12.29875 -6 13 C-6.99 13.33 -7.98 13.66 -9 14 C-9.33 14.99 -9.66 15.98 -10 17 C-10.33 15.68 -10.66 14.36 -11 13 C-10.01 12.67 -9.02 12.34 -8 12 C-8.020625 11.195625 -8.04125 10.39125 -8.0625 9.5625 C-8 7 -8 7 -7 6 C-5.33382885 5.95936168 -3.66611905 5.957279 -2 6 C-1.855625 5.195625 -1.71125 4.39125 -1.5625 3.5625 C-1 1 -1 1 0 0 Z " fill="#353430" transform="translate(29,29)"/>
<path d="M0 0 C2.5 0.25 2.5 0.25 4.5 2.25 C4.125 5.375 4.125 5.375 3.5 8.25 C1.1875 8.875 1.1875 8.875 -1.5 9.25 C-2.49 8.59 -3.48 7.93 -4.5 7.25 C-4.8125 4.75 -4.8125 4.75 -4.5 2.25 C-2.5 0.25 -2.5 0.25 0 0 Z " fill="#E6A2C3" transform="translate(295.5,20.75)"/>
<path d="M0 0 C1.29312675 2.5862535 0.84290464 3.76416975 0.25 6.5625 C0.01023437 7.77099609 0.01023437 7.77099609 -0.234375 9.00390625 C-0.48703125 9.66261719 -0.7396875 10.32132813 -1 11 C-1.99 11.33 -2.98 11.66 -4 12 C-5.12516085 13.83284443 -5.12516085 13.83284443 -6 16 C-6.66666667 17.33333333 -7.33333333 18.66666667 -8 20 C-8.79953138 16.71303767 -9.09658936 15.28976808 -8 12 C-8 11.01 -8 10.02 -8 9 C-7.360625 8.525625 -6.72125 8.05125 -6.0625 7.5625 C-3.62442805 5.71547579 -3.64729535 4.8665937 -3 2 C-2.01 1.34 -1.02 0.68 0 0 Z " fill="#3F3E3A" transform="translate(20,47)"/>
<path d="M0 0 C2.7479865 2.23273903 3.89632752 3.39092417 4.5 6.9375 C3.89191779 10.66200351 2.48069541 12.21861424 0 15 C-0.33 15.99 -0.66 16.98 -1 18 C-1.99 17.67 -2.98 17.34 -4 17 C-2.94124926 13.59687262 -1.99097846 10.98646769 0 8 C-0.37931547 4.96547627 -1.25040681 3.62438979 -3 1 C-2.01 0.67 -1.02 0.34 0 0 Z " fill="#2A2722" transform="translate(27,54)"/>
<path d="M0 0 C1.875 0.25 1.875 0.25 4 1 C4.6837045 2.32467746 5.34964186 3.65863633 6 5 C6.65484375 5.26683594 7.3096875 5.53367187 7.984375 5.80859375 C10 7 10 7 10.828125 9.3828125 C10.96734375 10.28773437 11.1065625 11.19265625 11.25 12.125 C11.39953125 13.03507812 11.5490625 13.94515625 11.703125 14.8828125 C11.85007812 15.93082031 11.85007812 15.93082031 12 17 C11.34 17 10.68 17 10 17 C10 16.01 10 15.02 10 14 C9.01 13.67 8.02 13.34 7 13 C7 12.01 7 11.02 7 10 C5.68 10 4.36 10 3 10 C2.87625 8.906875 2.7525 7.81375 2.625 6.6875 C2.24535199 2.92618198 2.24535199 2.92618198 0 0 Z " fill="#3C3935" transform="translate(70,33)"/>
<path d="M0 0 C2.475 0.99 2.475 0.99 5 2 C5 3.65 5 5.3 5 7 C6.98 7 8.96 7 11 7 C10.01 8.485 10.01 8.485 9 10 C5.375 10.1875 5.375 10.1875 2 10 C1.01 7.03 0.02 4.06 -1 1 C-0.67 0.67 -0.34 0.34 0 0 Z " fill="#3F272D" transform="translate(74,14)"/>
<path d="M0 0 C0.515625 0.2475 1.03125 0.495 1.5625 0.75 C-3.1875 4.75 -3.1875 4.75 -5.4375 4.75 C-5.1075 6.73 -4.7775 8.71 -4.4375 10.75 C-5.7575 10.42 -7.0775 10.09 -8.4375 9.75 C-8.7675 7.77 -9.0975 5.79 -9.4375 3.75 C-3.0375 -0.31153846 -3.0375 -0.31153846 0 0 Z " fill="#E9E9E8" transform="translate(36.4375,46.25)"/>
<path d="M0 0 C1.32 0 2.64 0 4 0 C2.88697283 4.91586999 2.15873236 7.18279421 -2 10 C-2.79623822 12.09415804 -2.79623822 12.09415804 -3 14 C-4.65 14 -6.3 14 -8 14 C-7.01 13.67 -6.02 13.34 -5 13 C-4.8453125 11.824375 -4.8453125 11.824375 -4.6875 10.625 C-4 8 -4 8 -1 6 C-0.26656572 2.93443402 -0.26656572 2.93443402 0 0 Z " fill="#2E2B27" transform="translate(10,27)"/>
<path d="M0 0 C4.75 0.875 4.75 0.875 7 2 C7 1.34 7 0.68 7 0 C7.99 0.33 8.98 0.66 10 1 C9.01 1.495 9.01 1.495 8 2 C8.33 3.65 8.66 5.3 9 7 C6.69 7.33 4.38 7.66 2 8 C2 6.68 2 5.36 2 4 C1.06716704 1.79932579 1.06716704 1.79932579 0 0 Z " fill="#906A65" transform="translate(54,8)"/>
<path d="M0 0 C0.66 0.33 1.32 0.66 2 1 C2 2.98 2 4.96 2 7 C0.02 7.33 -1.96 7.66 -4 8 C-4.33 9.32 -4.66 10.64 -5 12 C-4.64989059 3.64989059 -4.64989059 3.64989059 -1.9375 0.9375 C-1.298125 0.628125 -0.65875 0.31875 0 0 Z " fill="#E5E5E4" transform="translate(11,34)"/>
<path d="M0 0 C-0.33 0.99 -0.66 1.98 -1 3 C-2.65 3 -4.3 3 -6 3 C-6 3.66 -6 4.32 -6 5 C-6.99 5 -7.98 5 -9 5 C-9.103125 5.639375 -9.20625 6.27875 -9.3125 6.9375 C-9.539375 7.618125 -9.76625 8.29875 -10 9 C-10.99 9.33 -11.98 9.66 -13 10 C-13 9.34 -13 8.68 -13 8 C-12.34 7.67 -11.68 7.34 -11 7 C-11 5.35 -11 3.7 -11 2 C-7.12315913 0.80712589 -4.08378077 0 0 0 Z " fill="#BE7F77" transform="translate(74,13)"/>
<path d="M0 0 C0.99 0.33 1.98 0.66 3 1 C2.67 3.31 2.34 5.62 2 8 C0.35 7.67 -1.3 7.34 -3 7 C-3.1875 4.625 -3.1875 4.625 -3 2 C-2.01 1.34 -1.02 0.68 0 0 Z " fill="#2E2B27" transform="translate(25,47)"/>
<path d="M0 0 C1.98 0 3.96 0 6 0 C5.57847656 0.4846875 5.15695313 0.969375 4.72265625 1.46875 C0.70062863 6.38981909 -0.77284549 9.6396736 -1 16 C-1.33 16 -1.66 16 -2 16 C-3.34009446 10.03048833 -2.59238363 7.2884626 0 2 C0 1.34 0 0.68 0 0 Z " fill="#D2CECE" transform="translate(32,27)"/>
<path d="M0 0 C0 0.99 0 1.98 0 3 C-2.375 4.5625 -2.375 4.5625 -5 6 C-5.66 6.66 -6.32 7.32 -7 8 C-7.66 8 -8.32 8 -9 8 C-9 5.6875 -9 5.6875 -8 3 C-5.44481903 1.61706907 -2.79133871 0.78208351 0 0 Z " fill="#EBEBEA" transform="translate(28,14)"/>
<path d="M0 0 C1.27351308 2.54702616 0.80191925 3.4282945 0.0625 6.125 C-0.13214844 6.84945312 -0.32679687 7.57390625 -0.52734375 8.3203125 C-0.76130859 9.15175781 -0.76130859 9.15175781 -1 10 C-2.32 9.67 -3.64 9.34 -5 9 C-3.375 2.25 -3.375 2.25 0 0 Z " fill="#292723" transform="translate(20,47)"/>
<path d="M0 0 C0.99 0 1.98 0 3 0 C3 0.66 3 1.32 3 2 C4.32 1.34 5.64 0.68 7 0 C7.33 1.98 7.66 3.96 8 6 C2.33846154 4.52307692 2.33846154 4.52307692 0.625 1.875 C0.41875 1.25625 0.2125 0.6375 0 0 Z " fill="#F9F7F7" transform="translate(60,23)"/>
<path d="M0 0 C1.32 0 2.64 0 4 0 C4 0.66 4 1.32 4 2 C3.360625 2.2475 2.72125 2.495 2.0625 2.75 C-0.18741541 3.81562433 -0.18741541 3.81562433 -0.75 6.125 C-0.8325 6.74375 -0.915 7.3625 -1 8 C-2.32 8 -3.64 8 -5 8 C-3.62901008 5.04709864 -2.22467373 2.39580248 0 0 Z " fill="#F0EDEE" transform="translate(28,27)"/>
<path d="M0 0 C1.98 0 3.96 0 6 0 C6.33 1.65 6.66 3.3 7 5 C5.35 5.66 3.7 6.32 2 7 C2.226875 6.401875 2.45375 5.80375 2.6875 5.1875 C2.790625 4.465625 2.89375 3.74375 3 3 C1.64555699 1.22809091 1.64555699 1.22809091 0 0 Z " fill="#F1D1E2" transform="translate(57,15)"/>
<path d="M0 0 C0.66 0.33 1.32 0.66 2 1 C-0.46153846 7.64615385 -0.46153846 7.64615385 -3.1875 9.4375 C-4.0846875 9.7159375 -4.0846875 9.7159375 -5 10 C-5 9.34 -5 8.68 -5 8 C-4.34 8 -3.68 8 -3 8 C-2.690625 6.865625 -2.38125 5.73125 -2.0625 4.5625 C-1 1 -1 1 0 0 Z " fill="#312525" transform="translate(26,24)"/>
<path d="M0 0 C-0.93972656 0.36351563 -0.93972656 0.36351563 -1.8984375 0.734375 C-2.71570312 1.06953125 -3.53296875 1.4046875 -4.375 1.75 C-5.59316406 2.23726562 -5.59316406 2.23726562 -6.8359375 2.734375 C-9.33315139 4.19483944 -9.98244259 5.33869601 -11 8 C-12 5 -12 5 -11.5625 2.9375 C-9.38655033 0.2393224 -7.1729245 -0.0429861 -3.875 -0.80078125 C-2 -1 -2 -1 0 0 Z " fill="#E1DCDD" transform="translate(34,22)"/>
<path d="M0 0 C1.32 0 2.64 0 4 0 C4.33 1.32 4.66 2.64 5 4 C3.35 4.33 1.7 4.66 0 5 C-0.33 4.34 -0.66 3.68 -1 3 C-0.67 2.01 -0.34 1.02 0 0 Z " fill="#767573" transform="translate(42,26)"/>
<path d="M0 0 C0.99 0.33 1.98 0.66 3 1 C1.02 5.455 1.02 5.455 -1 10 C-1.33 10 -1.66 10 -2 10 C-2.25 3.375 -2.25 3.375 0 0 Z " fill="#403D39" transform="translate(23,19)"/>
<path d="M0 0 C1.32 0.99 2.64 1.98 4 3 C3.67 4.65 3.34 6.3 3 8 C2.34 7.01 1.68 6.02 1 5 C0.00612666 3.66209359 -0.9926892 2.32781878 -2 1 C-1.34 0.67 -0.68 0.34 0 0 Z " fill="#463A3B" transform="translate(82,36)"/>
<path d="M0 0 C1.32 0.66 2.64 1.32 4 2 C3.34 3.32 2.68 4.64 2 6 C0.68 5.34 -0.64 4.68 -2 4 C-1.34 2.68 -0.68 1.36 0 0 Z " fill="#A58560" transform="translate(57,16)"/>
<path d="M0 0 C1.32 1.32 2.64 2.64 4 4 C3.67 4.66 3.34 5.32 3 6 C-1.875 3.25 -1.875 3.25 -3 1 C-2.01 0.67 -1.02 0.34 0 0 Z " fill="#3F3C38" transform="translate(27,54)"/>
<path d="M0 0 C1.32 0.33 2.64 0.66 4 1 C2.6875 3.9375 2.6875 3.9375 1 7 C0.01 7.33 -0.98 7.66 -2 8 C-2 7.34 -2 6.68 -2 6 C-1.34 5.67 -0.68 5.34 0 5 C0 3.35 0 1.7 0 0 Z " fill="#D84B83" transform="translate(63,15)"/>
<path d="M0 0 C0.66 0.33 1.32 0.66 2 1 C1.67 2.98 1.34 4.96 1 7 C0.01 6.67 -0.98 6.34 -2 6 C-1.34 4.02 -0.68 2.04 0 0 Z " fill="#3D3B37" transform="translate(25,65)"/>
<path d="M0 0 C-0.8125 1.9375 -0.8125 1.9375 -2 4 C-2.99 4.33 -3.98 4.66 -5 5 C-5.66 5.66 -6.32 6.32 -7 7 C-6.61402985 4.20171644 -6.19863427 3.1794116 -4.0625 1.25 C-2 0 -2 0 0 0 Z " fill="#393733" transform="translate(19,31)"/>
</svg>
