<svg width="322" height="117" viewBox="0 0 322 117" fill="none" xmlns="http://www.w3.org/2000/svg">
<rect width="322" height="117" fill="white"/>
<g clip-path="url(#clip0_28_10)">
<path d="M139.768 104.7C141.174 104.7 142.3 103.999 142.3 102.597C142.3 101.475 141.596 100.914 140.19 100.633C139.065 100.353 138.783 100.213 138.783 99.7918C138.783 99.5113 139.065 99.2308 139.627 99.2308C140.19 99.2308 140.752 99.5113 141.315 99.932L142.018 98.8101C141.315 98.2491 140.471 97.9687 139.487 97.9687C138.08 97.9687 137.095 98.8101 137.095 99.932C137.095 101.334 137.939 101.615 139.346 102.036C140.471 102.316 140.752 102.456 140.752 102.877C140.752 103.298 140.331 103.578 139.768 103.578C139.065 103.578 138.361 103.298 137.799 102.737L136.955 103.719C137.658 104.42 138.783 104.7 139.768 104.7ZM143.284 98.9503H144.832V97.6882H143.284V98.9503ZM143.284 104.56H144.691V99.3711H143.284V104.56ZM146.098 104.56H147.504V101.615C147.504 100.914 147.926 100.633 148.489 100.633C149.051 100.633 149.333 101.054 149.333 101.615V104.56H150.739V101.194C150.739 100.072 150.036 99.2308 149.051 99.2308C148.348 99.2308 147.926 99.6515 147.504 100.072V99.3711H146.098V104.56ZM154.397 104.7C155.381 104.7 155.944 104.279 156.507 103.719L155.663 102.877C155.241 103.158 154.959 103.438 154.537 103.438C153.693 103.438 153.271 102.737 153.271 102.036C153.271 101.334 153.834 100.633 154.537 100.633C155.1 100.633 155.381 100.914 155.663 101.194L156.507 100.213C156.085 99.6515 155.381 99.3711 154.397 99.3711C152.849 99.3711 151.724 100.633 151.724 102.036C151.724 103.578 152.849 104.7 154.397 104.7ZM159.742 104.7C160.726 104.7 161.43 104.279 161.852 103.719L161.008 103.017C160.586 103.438 160.304 103.578 159.742 103.578C159.038 103.578 158.616 103.298 158.476 102.597H162.133V102.176C162.133 100.773 161.289 99.3711 159.601 99.3711C158.054 99.3711 157.069 100.633 157.069 102.036C157.069 103.719 158.194 104.7 159.742 104.7ZM158.476 101.615C158.616 100.914 159.038 100.493 159.601 100.493C160.164 100.493 160.586 100.914 160.726 101.615H158.476ZM165.931 104.56H167.337V97.8284H166.353L164.524 98.3894L164.806 99.6515L165.931 99.3711V104.56ZM171.276 104.7C172.823 104.7 173.948 103.999 173.948 102.737C173.948 101.895 173.527 101.475 172.823 101.194C173.386 100.914 173.667 100.493 173.667 99.7918C173.667 98.8101 172.683 97.9687 171.276 97.9687C169.869 97.9687 168.885 98.8101 168.885 99.7918C168.885 100.493 169.166 100.914 169.729 101.194C169.025 101.475 168.603 102.036 168.603 102.877C168.603 103.999 169.729 104.7 171.276 104.7ZM171.276 100.633C170.713 100.633 170.291 100.213 170.291 99.7918C170.291 99.3711 170.713 98.9503 171.276 98.9503C171.839 98.9503 172.261 99.3711 172.261 99.7918C172.261 100.353 171.839 100.633 171.276 100.633ZM171.276 103.438C170.573 103.438 170.151 103.017 170.151 102.597C170.151 102.036 170.573 101.755 171.276 101.755C171.979 101.755 172.401 102.036 172.401 102.597C172.401 103.158 171.979 103.438 171.276 103.438ZM177.043 104.7C179.012 104.7 179.997 103.158 179.997 101.054C179.997 99.7918 179.716 98.9503 179.153 98.5296C178.59 97.9686 178.168 97.8284 177.184 97.8284C175.636 97.8284 174.652 98.8101 174.652 100.213C174.652 101.615 175.636 102.456 177.043 102.456C177.606 102.456 178.028 102.316 178.45 102.036C178.309 102.877 177.887 103.578 177.043 103.578C176.48 103.578 176.058 103.438 175.636 103.017L174.792 104.139C175.496 104.42 176.058 104.7 177.043 104.7ZM177.324 101.054C176.621 101.054 176.199 100.633 176.199 100.072C176.199 99.5113 176.621 99.0906 177.324 99.0906C178.028 99.0906 178.45 99.5113 178.45 100.072C178.59 100.633 178.028 101.054 177.324 101.054ZM183.373 104.7C185.342 104.7 186.327 103.158 186.327 101.054C186.327 99.7918 186.045 98.9503 185.483 98.5296C184.92 97.9686 184.498 97.8284 183.513 97.8284C181.966 97.8284 180.982 98.8101 180.982 100.213C180.982 101.615 181.966 102.456 183.373 102.456C183.935 102.456 184.357 102.316 184.779 102.036C184.639 102.877 184.217 103.578 183.373 103.578C182.81 103.578 182.388 103.438 181.966 103.017L181.122 104.139C181.685 104.42 182.388 104.7 183.373 104.7ZM183.654 101.054C182.951 101.054 182.529 100.633 182.529 100.072C182.529 99.5113 182.951 99.0906 183.654 99.0906C184.357 99.0906 184.779 99.5113 184.779 100.072C184.779 100.633 184.357 101.054 183.654 101.054ZM165.368 63.4694C165.368 65.573 163.68 67.2559 161.57 67.2559C159.46 67.2559 157.772 65.573 157.772 63.4694C157.772 61.3658 159.46 59.6829 161.57 59.6829C163.68 59.5426 165.368 61.3658 165.368 63.4694ZM246.248 78.7556C245.967 78.6154 245.826 78.6154 245.545 78.4752C243.435 77.774 242.169 77.3532 242.169 76.3715V76.2313C242.169 75.3899 243.154 74.8289 244.279 74.8289C245.686 74.8289 247.092 75.2496 249.202 76.3715H249.343C249.483 76.3715 249.483 76.3716 249.624 76.2313L251.875 72.3046V72.1643C251.875 72.0241 251.875 72.0241 251.734 71.8838C249.343 70.6217 247.092 69.9205 244.42 69.9205C239.356 69.9205 235.98 72.4448 235.98 76.5118V76.652C235.98 80.719 239.215 82.2617 242.732 83.2434C243.013 83.3836 243.294 83.3836 243.576 83.5238C245.826 84.225 246.67 84.6458 246.67 85.6275V85.7677C246.53 86.6091 245.826 87.0299 244.42 87.0299C242.31 87.0299 240.481 86.3287 238.09 84.786H237.949C237.809 84.786 237.809 84.786 237.668 84.9262L235.277 88.7127V88.853C235.277 88.9932 235.277 88.9932 235.417 89.1335C238.231 91.0968 240.903 92.2188 243.998 92.2188C249.624 92.2188 252.859 89.8347 252.859 85.4872V85.347C253 81.5605 249.624 79.8776 246.248 78.7556ZM185.061 85.347C185.061 89.6944 181.685 92.2188 176.199 92.2188C172.964 92.2188 170.432 91.0968 167.619 89.1335C167.478 89.1335 167.478 88.9932 167.478 88.853V88.7127L169.869 84.9262C169.869 84.786 170.01 84.786 170.151 84.786H170.291C172.683 86.3287 174.37 87.0299 176.621 87.0299C178.028 87.0299 178.872 86.6091 178.872 85.7677V85.6275C178.872 84.6458 177.887 84.0848 175.777 83.5238C175.496 83.3836 175.214 83.3836 174.933 83.2434C171.276 82.2617 168.181 80.719 168.181 76.652C168.181 72.585 171.417 70.0607 176.621 70.0607C179.153 70.0607 181.544 70.7619 183.935 72.0241C184.076 72.0241 184.076 72.1643 184.076 72.3046V72.4448L181.826 76.3715C181.826 76.5118 181.685 76.5118 181.544 76.5118H181.404C179.294 75.5301 178.028 74.9691 176.48 74.9691C175.214 74.9691 174.37 75.5301 174.37 76.3715V76.5118C174.37 77.4935 175.636 77.9142 177.746 78.6154C178.028 78.7556 178.168 78.7556 178.45 78.8959C181.685 79.7373 185.061 81.4202 185.061 85.347ZM148.77 91.9383H143.144C143.003 91.9383 142.862 91.7981 142.862 91.6578V71.1826C142.862 71.0424 143.003 70.9022 143.144 70.9022H148.489C148.63 70.9022 148.77 71.0424 148.77 71.1826V73.707C150.177 71.7436 152.287 70.6217 154.397 70.6217H155.241C155.381 70.6217 155.522 70.7619 155.522 70.9022V76.3715C155.522 76.5118 155.522 76.5118 155.381 76.652C155.381 76.652 155.241 76.7923 155.1 76.652H154.115C152.287 76.652 150.177 77.6337 149.333 80.4385C149.192 81.28 149.051 82.2617 149.051 83.3836V91.5176C149.051 91.798 148.911 91.9383 148.77 91.9383ZM133.438 91.6578V83.5238C133.438 82.2617 133.579 81.28 133.86 80.4385C134.704 77.6337 136.955 76.652 138.643 76.652H139.909C139.909 76.652 140.049 76.5118 140.049 76.3715V70.9022C140.049 70.7619 139.909 70.6217 139.768 70.6217H138.924C136.673 70.6217 134.563 71.7436 133.297 73.707V71.1826C133.297 71.0424 133.157 70.9022 133.016 70.9022H127.671C127.53 70.9022 127.39 71.0424 127.39 71.1826V91.6578C127.39 91.7981 127.53 91.9383 127.671 91.9383H133.297C133.438 91.9383 133.438 91.7981 133.438 91.6578ZM98.2729 91.9383H92.6464C92.5058 91.9383 92.3651 91.7981 92.3651 91.6578C92.3651 85.2067 91.8025 77.9142 91.6618 75.6703C89.6925 78.3349 87.7233 81.9812 86.176 85.4872C86.176 85.6274 86.0354 85.6275 85.8947 85.6275H82.6595C82.5188 85.6275 82.3782 85.6274 82.3782 85.4872C80.8309 81.9812 79.0023 78.3349 76.8924 75.6703C76.7517 77.9142 76.1891 85.2067 76.1891 91.6578C76.1891 91.7981 76.0484 91.9383 75.9078 91.9383H70.2813C70.1407 91.9383 70 91.7981 70 91.6578C70 82.9629 70.7033 71.4631 72.1099 65.573C72.1099 65.4328 72.2506 65.2925 72.3912 65.2925H76.8924C77.0331 65.2925 77.0331 65.2925 77.1737 65.4328C80.1276 68.6583 82.5188 72.3046 84.3474 75.8106C86.176 72.1643 88.5673 68.6583 91.5211 65.4328C91.5211 65.4328 91.6618 65.2925 91.8025 65.2925H96.3036C96.4443 65.2925 96.5849 65.4328 96.5849 65.573C97.9915 71.4631 98.6948 82.9629 98.6948 91.6578C98.5542 91.7981 98.4135 91.9383 98.2729 91.9383ZM232.745 91.6578V78.6154C232.745 73.2863 230.213 70.4814 225.29 70.4814C222.055 70.4814 219.945 72.0241 218.819 73.2862V71.1826C218.819 71.0424 218.679 70.9022 218.538 70.9022H213.193C213.052 70.9022 212.912 71.0424 212.912 71.1826V91.6578C212.912 91.7981 213.052 91.9383 213.193 91.9383H218.819C218.96 91.9383 219.101 91.7981 219.101 91.6578V82.2617C219.101 81.28 219.241 80.4385 219.382 79.7373C220.085 77.4935 221.914 76.0911 224.164 76.0911C225.993 76.0911 226.696 76.9325 226.696 79.4569V91.5176C226.696 91.6578 226.837 91.798 226.978 91.798H232.463C232.745 91.9383 232.745 91.7981 232.745 91.6578ZM198.705 75.8106C195.61 75.8106 193.36 78.1947 193.36 81.4202C193.36 84.6458 195.61 87.0299 198.705 87.0299C201.659 87.0299 203.909 84.6458 203.909 81.4202C203.909 78.1947 201.659 75.8106 198.705 75.8106ZM198.705 92.359C192.094 92.359 187.171 87.5908 187.171 81.4202C187.171 75.1094 192.094 70.4814 198.705 70.4814C205.316 70.4814 210.239 75.2496 210.239 81.4202C210.239 87.5908 205.316 92.359 198.705 92.359ZM164.665 91.6578V71.1826C164.665 71.0424 164.524 70.9022 164.384 70.9022H158.757C158.616 70.9022 158.476 71.0424 158.476 71.1826V91.6578C158.476 91.7981 158.616 91.9383 158.757 91.9383H164.384C164.524 91.9383 164.665 91.7981 164.665 91.6578ZM112.902 75.8106C109.807 75.8106 107.556 78.1947 107.556 81.4202C107.556 84.6458 109.807 87.0299 112.902 87.0299C115.855 87.0299 118.106 84.6458 118.106 81.4202C118.106 78.1947 115.855 75.8106 112.902 75.8106ZM112.902 92.359C106.291 92.359 101.367 87.5908 101.367 81.4202C101.367 75.1094 106.291 70.4814 112.902 70.4814C119.513 70.4814 124.436 75.2496 124.436 81.4202C124.295 87.5908 119.372 92.359 112.902 92.359Z" fill="#00563F"/>
<path d="M179.434 62.2073C174.371 64.0304 169.869 60.6646 169.869 60.6646C169.869 60.6646 171.135 55.1952 176.199 53.3721C181.263 51.5489 185.764 54.9147 185.764 54.9147C185.764 54.9147 184.498 60.2439 179.434 62.2073ZM192.797 36.6834C192.797 36.6834 187.874 34.1591 183.092 36.8237C178.45 39.4882 178.168 45.0979 178.168 45.0979C178.168 45.0979 183.092 47.6222 187.874 44.9576C192.516 42.293 192.797 36.6834 192.797 36.6834ZM171.557 49.0246C169.307 53.933 163.821 54.6342 163.821 54.6342C163.821 54.6342 160.867 50.0063 163.118 45.0979C165.368 40.1894 170.854 39.4882 170.854 39.4882C170.854 39.4882 173.808 44.1162 171.557 49.0246ZM137.658 54.9147C137.658 54.9147 138.924 60.3841 143.988 62.2073C149.052 64.0304 153.553 60.6646 153.553 60.6646C153.553 60.6646 152.287 55.1952 147.223 53.3721C142.019 51.5489 137.658 54.9147 137.658 54.9147ZM140.049 36.8237C144.691 39.4882 144.972 45.0979 144.972 45.0979C144.972 45.0979 140.049 47.6222 135.267 44.9576C130.625 42.293 130.344 36.6834 130.344 36.6834C130.344 36.6834 135.408 34.1591 140.049 36.8237ZM146.238 27.8482C146.238 27.8482 145.113 33.3176 148.911 37.1041C152.709 40.8906 158.195 39.7687 158.195 39.7687C158.195 39.7687 159.32 34.2993 155.522 30.5128C151.724 26.7263 146.238 27.8482 146.238 27.8482ZM166.212 19.7143C166.212 25.1837 161.57 28.1287 161.57 28.1287C161.57 28.1287 156.929 25.1837 156.929 19.7143C156.929 14.2449 161.57 11.2998 161.57 11.2998C161.43 11.2998 166.212 14.2449 166.212 19.7143ZM175.496 31.775C175.496 34.0188 173.667 35.7017 171.557 35.7017C169.307 35.7017 167.619 33.8786 167.619 31.775C167.619 29.6714 169.448 27.8482 171.557 27.8482C173.667 27.8482 175.496 29.5311 175.496 31.775ZM157.773 47.9027C157.773 50.1465 155.944 51.8294 153.834 51.8294C151.724 51.8294 149.896 50.0063 149.896 47.9027C149.896 45.6588 151.724 43.9759 153.834 43.9759C155.944 43.9759 157.773 45.7991 157.773 47.9027Z" fill="#FFC20E"/>
</g>
<defs>
<clipPath id="clip0_28_10">
<rect width="183" height="94" fill="white" transform="translate(70 11)"/>
</clipPath>
</defs>
</svg>
