<svg width="322" height="117" viewBox="0 0 322 117" fill="none" xmlns="http://www.w3.org/2000/svg">
<rect width="322" height="117" fill="white"/>
<path d="M74.6094 41.7812C75.6094 41.9375 76.5156 42.0781 77.3281 42.2031C78.1406 42.2969 78.8438 42.375 79.4375 42.4375C80.125 42.5312 80.7344 42.6094 81.2656 42.6719C81.9219 42.7656 82.9062 42.6562 84.2188 42.3438C85.5312 42 86.9688 41.6875 88.5312 41.4062C90.125 41.0938 91.75 40.9219 93.4062 40.8906C95.0625 40.8281 96.5781 41.125 97.9531 41.7812C99.3281 42.4375 100.453 43.0938 101.328 43.75C102.203 44.4062 102.891 45.1094 103.391 45.8594C103.922 46.5781 104.297 47.3438 104.516 48.1562C104.734 48.9688 104.859 49.8594 104.891 50.8281C104.859 52.2656 104.516 53.6562 103.859 55C103.578 55.5625 103.203 56.1562 102.734 56.7812C102.297 57.375 101.75 57.9531 101.094 58.5156C100.438 59.0781 99.6562 59.6094 98.75 60.1094C97.875 60.6094 96.8438 61.0469 95.6562 61.4219C96.8125 61.7656 97.7656 62.1719 98.5156 62.6406C99.2969 63.1094 99.9219 63.5469 100.391 63.9531C100.953 64.4531 101.375 64.9375 101.656 65.4062C102 66.0625 102.234 66.625 102.359 67.0938C102.484 67.5625 102.562 68.0156 102.594 68.4531C102.656 68.8594 102.734 69.2812 102.828 69.7188C102.922 70.1562 103.125 70.6562 103.438 71.2188C103.688 71.6562 103.984 72.1094 104.328 72.5781C104.641 72.9844 105 73.4219 105.406 73.8906C105.844 74.3594 106.375 74.8125 107 75.25C106.125 75.2812 105.312 75.2969 104.562 75.2969C103.844 75.2969 103.219 75.2969 102.688 75.2969C102.062 75.2969 101.469 75.2812 100.906 75.25C100.344 75.2188 99.6406 75.2031 98.7969 75.2031C98.0781 75.2031 97.1562 75.2031 96.0312 75.2031C94.9375 75.2031 93.6094 75.2188 92.0469 75.25C92.7344 74.7188 93.2969 74.1875 93.7344 73.6562C94.1719 73.125 94.5156 72.6406 94.7656 72.2031C95.0469 71.7031 95.25 71.2188 95.375 70.75C95.5312 69.9062 95.5469 69.0312 95.4219 68.125C95.3281 67.3438 95.0781 66.4844 94.6719 65.5469C94.2656 64.5781 93.6094 63.6094 92.7031 62.6406C91.7969 62.7969 91.0312 62.9219 90.4062 63.0156C89.8125 63.0781 89.2969 63.1406 88.8594 63.2031C88.3594 63.2656 87.9531 63.3125 87.6406 63.3438C87.3594 63.375 87.0469 63.4062 86.7031 63.4375C86.4219 63.4688 86.1094 63.5156 85.7656 63.5781C85.4531 63.6094 85.1562 63.6562 84.875 63.7188C84.8125 65.0625 84.8125 66.2344 84.875 67.2344C84.9375 68.2031 85.0156 69.0156 85.1094 69.6719C85.2344 70.4531 85.375 71.125 85.5312 71.6875C85.6875 72.25 85.9062 72.7969 86.1875 73.3281C86.4062 73.7656 86.6875 74.2344 87.0312 74.7344C87.375 75.2031 87.7656 75.5938 88.2031 75.9062C87.3906 75.9062 86.6094 75.9062 85.8594 75.9062C85.1406 75.9062 84.4844 75.8906 83.8906 75.8594C83.2031 75.8594 82.5469 75.8438 81.9219 75.8125C81.2969 75.7812 80.5938 75.7656 79.8125 75.7656C79.1562 75.7656 78.375 75.7656 77.4688 75.7656C76.5938 75.7656 75.6406 75.7812 74.6094 75.8125C75.4219 74.9688 76.0625 74.25 76.5312 73.6562C77 73.0625 77.3594 72.5625 77.6094 72.1562C77.8906 71.7188 78.0625 71.3438 78.125 71.0312C78.1875 70.5312 78.2344 69.6406 78.2656 68.3594C78.3281 67.0469 78.375 65.5469 78.4062 63.8594C78.4375 62.1719 78.4531 60.4062 78.4531 58.5625C78.4531 56.7188 78.4375 55 78.4062 53.4062C78.375 51.7812 78.3438 50.3906 78.3125 49.2344C78.2812 48.0781 78.25 47.3438 78.2188 47.0312C78.125 46.4688 77.9219 45.9062 77.6094 45.3438C77.3594 44.8438 77 44.2812 76.5312 43.6562C76.0625 43.0312 75.4219 42.4062 74.6094 41.7812ZM92.3281 58.2812C92.6406 58.0938 92.9062 57.9062 93.125 57.7188C93.3438 57.5312 93.5312 57.2344 93.6875 56.8281C93.8438 56.3906 93.9688 55.7812 94.0625 55C94.1875 54.2188 94.3281 53.1562 94.4844 51.8125C94.6094 50.4688 94.5156 49.3594 94.2031 48.4844C93.9219 47.6094 93.5312 46.9219 93.0312 46.4219C92.5625 45.8906 92.0312 45.5312 91.4375 45.3438C90.875 45.125 90.375 45.0156 89.9375 45.0156C89.0625 45.0156 88.2031 45.2812 87.3594 45.8125C86.5156 46.3438 85.875 47.0625 85.4375 47.9688C85.2812 48.375 85.1406 49.0469 85.0156 49.9844C84.9219 50.7969 84.8594 51.9219 84.8281 53.3594C84.7969 54.7969 84.8438 56.6875 84.9688 59.0312C86.1562 59.2188 87.2031 59.2969 88.1094 59.2656C89.0156 59.2031 89.7812 59.0938 90.4062 58.9375C91.1562 58.7812 91.7969 58.5625 92.3281 58.2812ZM118.016 68.4531C118.891 68.4531 119.703 68.3594 120.453 68.1719C121.078 68.0156 121.672 67.7656 122.234 67.4219C122.828 67.0469 123.219 66.5 123.406 65.7812C124.031 65.9062 124.562 66.0156 125 66.1094C125.438 66.1719 125.812 66.2344 126.125 66.2969C126.469 66.3906 126.766 66.4531 127.016 66.4844C127.266 66.5469 127.562 66.6094 127.906 66.6719C128.219 66.7344 128.594 66.8125 129.031 66.9062C129.5 66.9688 130.047 67.0625 130.672 67.1875C130.203 67.125 129.719 67.1719 129.219 67.3281C128.75 67.4844 128.297 67.6562 127.859 67.8438C127.359 68.0625 126.891 68.3281 126.453 68.6406C126.172 68.8281 125.844 69.1094 125.469 69.4844C125.125 69.8594 124.625 70.2188 123.969 70.5625C123.312 70.9062 122.438 71.2031 121.344 71.4531C120.281 71.6719 118.906 71.75 117.219 71.6875C115.188 71.625 113.484 71.2656 112.109 70.6094C110.734 69.9219 109.625 69.0938 108.781 68.125C107.938 67.125 107.328 66.0469 106.953 64.8906C106.578 63.7344 106.375 62.6562 106.344 61.6562C106.312 60.6562 106.609 59.6094 107.234 58.5156C107.859 57.4219 108.734 56.4219 109.859 55.5156C111.016 54.6094 112.406 53.875 114.031 53.3125C115.656 52.7188 117.438 52.4219 119.375 52.4219C120.5 52.4219 121.531 52.5625 122.469 52.8438C123.438 53.0938 124.312 53.4375 125.094 53.875C125.906 54.3125 126.609 54.8125 127.203 55.375C127.797 55.9062 128.297 56.4531 128.703 57.0156C129.109 57.6094 129.453 58.2344 129.734 58.8906C129.984 59.4531 130.188 60.0938 130.344 60.8125C130.5 61.5312 130.547 62.2656 130.484 63.0156C128.109 63.0781 126.188 63.125 124.719 63.1562C123.281 63.1875 122.156 63.2031 121.344 63.2031H119.234H117.641C117.078 63.2031 116.344 63.2188 115.438 63.25C114.531 63.2812 113.422 63.3281 112.109 63.3906C112.266 64.6406 112.656 65.6094 113.281 66.2969C113.938 66.9531 114.625 67.4531 115.344 67.7969C116.156 68.1719 117.047 68.3906 118.016 68.4531ZM113.797 60.0156C114.797 60.0781 115.625 60.125 116.281 60.1562C116.969 60.1875 117.531 60.2188 117.969 60.25C118.438 60.2812 118.812 60.2969 119.094 60.2969H120.266C121.047 60.2969 122.5 60.25 124.625 60.1562C124.531 58.7812 124.234 57.7344 123.734 57.0156C123.266 56.2969 122.766 55.7656 122.234 55.4219C121.609 55.0469 120.922 54.8281 120.172 54.7656C118.141 54.7969 116.625 55.2188 115.625 56.0312C114.656 56.8438 114.047 58.1719 113.797 60.0156ZM133.438 77.3125C133.75 76.8438 134 76.4062 134.188 76C134.375 75.5938 134.531 75.25 134.656 74.9688C134.781 74.625 134.875 74.3125 134.938 74.0312C134.969 73.8438 134.984 73.2969 134.984 72.3906C134.984 71.4844 134.953 70.3438 134.891 68.9688C134.859 67.5938 134.812 66.0469 134.75 64.3281C134.719 62.6094 134.656 60.8594 134.562 59.0781C134.5 57.2969 134.422 55.5625 134.328 53.875C134.266 52.1875 134.203 50.6719 134.141 49.3281C134.078 47.9531 134.016 46.8281 133.953 45.9531C133.891 45.0781 133.844 44.5781 133.812 44.4531C133.75 44.2656 133.641 44.0781 133.484 43.8906C133.172 43.5156 132.641 43.1562 131.891 42.8125C133.484 42.4062 134.703 42.0781 135.547 41.8281C136.047 41.7031 136.484 41.5781 136.859 41.4531C137.203 41.3281 137.547 41.2031 137.891 41.0781C138.172 40.9531 138.484 40.8125 138.828 40.6562C139.172 40.4688 139.484 40.2656 139.766 40.0469C139.609 40.9531 139.484 41.8281 139.391 42.6719C139.297 43.5156 139.219 44.2969 139.156 45.0156C139.094 45.8281 139.062 46.6094 139.062 47.3594C138.906 48.8906 138.812 50.5625 138.781 52.375C138.781 54.1562 138.797 55.9688 138.828 57.8125C138.859 59.6562 138.922 61.4531 139.016 63.2031C139.109 64.9531 139.203 66.5469 139.297 67.9844C139.422 69.3906 139.531 70.5938 139.625 71.5938C139.75 72.5625 139.844 73.1875 139.906 73.4688C140.031 73.9375 140.156 74.3906 140.281 74.8281C140.406 75.2031 140.547 75.5938 140.703 76C140.859 76.4375 141.047 76.7812 141.266 77.0312H136.719C136.312 77.0312 135.922 77.0469 135.547 77.0781C135.203 77.1094 134.844 77.1406 134.469 77.1719C134.094 77.2031 133.75 77.25 133.438 77.3125ZM146.469 57.0156C146.625 56.8281 146.719 56.4844 146.75 55.9844C146.812 55.4531 146.938 54.8594 147.125 54.2031C147.344 53.5469 147.703 52.8594 148.203 52.1406C148.703 51.4219 149.516 50.75 150.641 50.125C151.734 49.5 152.797 49.125 153.828 49C154.859 48.875 155.844 48.9219 156.781 49.1406C157.719 49.3594 158.594 49.7031 159.406 50.1719C160.25 50.6406 161.016 51.1562 161.703 51.7188C162.172 52.0938 162.547 52.6406 162.828 53.3594C163.109 54.0469 163.328 54.8281 163.484 55.7031C163.641 56.5781 163.75 57.5 163.812 58.4688C163.906 59.4062 163.969 60.3281 164 61.2344C164.031 62.1094 164.047 62.9219 164.047 63.6719C164.078 64.3906 164.141 64.9844 164.234 65.4531C164.359 66.1406 164.578 66.7344 164.891 67.2344C165.203 67.7031 165.547 68.1094 165.922 68.4531C166.297 68.7656 166.672 69.0156 167.047 69.2031C167.422 69.3906 167.75 69.5312 168.031 69.625C168.219 69.7188 168.391 69.7812 168.547 69.8125C168.859 69.9375 169.078 69.9375 169.203 69.8125C169.016 70.25 168.844 70.625 168.688 70.9375C168.531 71.25 168.406 71.5156 168.312 71.7344C168.188 71.9844 168.078 72.1875 167.984 72.3438C167.891 72.5312 167.781 72.7031 167.656 72.8594C167.562 73.0156 167.438 73.1875 167.281 73.375C167.125 73.5625 166.969 73.7656 166.812 73.9844C166.406 73.8281 166.016 73.6406 165.641 73.4219C165.297 73.2031 164.984 73 164.703 72.8125C164.359 72.5938 164.047 72.375 163.766 72.1562C163.484 71.9375 163.219 71.6875 162.969 71.4062C162.75 71.1562 162.516 70.8906 162.266 70.6094C162.047 70.3281 161.859 70.0156 161.703 69.6719C161.516 70.0781 161.062 70.6562 160.344 71.4062C159.656 72.1562 158.75 72.8438 157.625 73.4688C156.5 74.0625 155.188 74.4844 153.688 74.7344C152.219 74.9844 150.594 74.8125 148.812 74.2188C148.031 73.9688 147.297 73.6094 146.609 73.1406C145.922 72.6406 145.328 72.0469 144.828 71.3594C144.359 70.6719 144.016 69.8906 143.797 69.0156C143.609 68.1094 143.625 67.1094 143.844 66.0156C144.062 64.9219 144.453 64 145.016 63.25C145.578 62.5 146.25 61.8906 147.031 61.4219C147.812 60.9531 148.688 60.5938 149.656 60.3438C150.625 60.0938 151.625 59.9219 152.656 59.8281C153.469 59.7969 154.281 59.8438 155.094 59.9688C155.781 60.0938 156.5 60.3281 157.25 60.6719C158 60.9844 158.641 61.4688 159.172 62.125C159.141 60.4688 159.078 59.1562 158.984 58.1875C158.922 57.1875 158.859 56.4219 158.797 55.8906C158.672 55.2656 158.562 54.8281 158.469 54.5781C158.312 54.3594 158.141 54.1094 157.953 53.8281C157.797 53.5469 157.594 53.2969 157.344 53.0781C157.094 52.8281 156.781 52.625 156.406 52.4688C156.031 52.3125 155.594 52.25 155.094 52.2812C154.562 52.3125 154.141 52.4531 153.828 52.7031C153.516 52.9531 153.266 53.25 153.078 53.5938C152.922 53.9062 152.828 54.25 152.797 54.625C152.766 55 152.781 55.3281 152.844 55.6094C152.906 55.7969 153 56 153.125 56.2188C153.25 56.4062 153.422 56.6094 153.641 56.8281C153.859 57.0469 154.156 57.2344 154.531 57.3906C153.812 57.4844 153.172 57.5625 152.609 57.625C152.047 57.6562 151.562 57.7031 151.156 57.7656C150.688 57.8281 150.281 57.875 149.938 57.9062C149.594 57.9375 149.188 58 148.719 58.0938C148.312 58.1562 147.812 58.2344 147.219 58.3281C146.625 58.4219 145.938 58.5469 145.156 58.7031C145.344 58.4844 145.516 58.2812 145.672 58.0938C145.828 57.875 145.969 57.6875 146.094 57.5312C146.219 57.3438 146.344 57.1719 146.469 57.0156ZM153.5 62.5938C152.938 62.625 152.375 62.7656 151.812 63.0156C151.25 63.2344 150.75 63.5625 150.312 64C149.875 64.4062 149.5 64.8906 149.188 65.4531C148.906 65.9844 148.766 66.5781 148.766 67.2344C148.766 67.8906 148.922 68.4688 149.234 68.9688C149.578 69.4375 150.016 69.8281 150.547 70.1406C151.109 70.4531 151.703 70.6406 152.328 70.7031C152.984 70.7656 153.625 70.7031 154.25 70.5156C154.844 70.2969 155.406 69.9531 155.938 69.4844C156.469 68.9844 156.922 68.4531 157.297 67.8906C157.672 67.2969 157.938 66.7188 158.094 66.1562C158.25 65.5625 158.266 65.0781 158.141 64.7031C157.891 63.8906 157.328 63.3281 156.453 63.0156C155.578 62.6719 154.594 62.5312 153.5 62.5938ZM166.953 49.9844C167.859 49.9844 168.609 50 169.203 50.0312C169.797 50.0312 170.266 50.0312 170.609 50.0312H171.547H172.625C173.062 50.0312 173.641 50.0312 174.359 50.0312C175.109 50 176.078 49.9531 177.266 49.8906C176.703 50.0156 176.266 50.1562 175.953 50.3125C175.641 50.4375 175.406 50.5781 175.25 50.7344C175.062 50.8906 174.953 51.0625 174.922 51.25C174.953 51.5 175.062 51.8906 175.25 52.4219C175.406 52.8906 175.672 53.5312 176.047 54.3438C176.453 55.1562 177.047 56.25 177.828 57.625C179.141 56.125 180.141 54.9375 180.828 54.0625C181.516 53.1875 182.031 52.5156 182.375 52.0469C182.719 51.5156 182.922 51.1562 182.984 50.9688C182.953 50.8125 182.906 50.6562 182.844 50.5C182.75 50.25 182.516 49.8594 182.141 49.3281C182.984 49.3906 183.719 49.4375 184.344 49.4688C184.969 49.4688 185.5 49.4844 185.938 49.5156C186.438 49.5469 186.844 49.5625 187.156 49.5625C187.5 49.5625 188 49.5469 188.656 49.5156C189.188 49.4844 189.906 49.4531 190.812 49.4219C191.75 49.3594 192.922 49.2656 194.328 49.1406C193.172 49.7031 192.188 50.25 191.375 50.7812C190.562 51.2812 189.891 51.7344 189.359 52.1406C188.734 52.6094 188.219 53.0469 187.812 53.4531C187.406 53.9219 186.906 54.5 186.312 55.1875C185.781 55.8125 185.125 56.5938 184.344 57.5312C183.594 58.4375 182.672 59.5781 181.578 60.9531C182.391 62.3594 183.156 63.5625 183.875 64.5625C184.625 65.5625 185.266 66.3906 185.797 67.0469C186.422 67.8281 187 68.4531 187.531 68.9219C188.062 69.3906 188.641 69.8594 189.266 70.3281C189.797 70.7344 190.406 71.1719 191.094 71.6406C191.812 72.0781 192.578 72.4688 193.391 72.8125C192.578 72.875 191.781 72.9219 191 72.9531C190.25 72.9531 189.578 72.9844 188.984 73.0469C188.297 73.1094 187.641 73.1562 187.016 73.1875C186.391 73.25 185.75 73.2969 185.094 73.3281C184.531 73.3594 183.906 73.3906 183.219 73.4219C182.531 73.4531 181.828 73.4688 181.109 73.4688C181.391 73.1875 181.609 72.9219 181.766 72.6719C181.922 72.4219 182.047 72.2031 182.141 72.0156C182.266 71.7969 182.344 71.5938 182.375 71.4062C182.344 71.1562 182.188 70.75 181.906 70.1875C181.656 69.6875 181.266 69 180.734 68.125C180.203 67.2188 179.422 66 178.391 64.4688C177.672 65.2188 177.094 65.875 176.656 66.4375C176.25 67 175.938 67.4688 175.719 67.8438C175.469 68.2812 175.297 68.6406 175.203 68.9219C175.141 69.2031 175.141 69.5156 175.203 69.8594C175.266 70.1406 175.359 70.4844 175.484 70.8906C175.609 71.2656 175.828 71.6562 176.141 72.0625C174.578 72.1562 173.266 72.2031 172.203 72.2031H170.609C170.109 72.2031 169.516 72.1875 168.828 72.1562C168.234 72.125 167.5 72.1094 166.625 72.1094C165.719 72.0781 164.672 72.0312 163.484 71.9688C163.828 71.8438 164.188 71.6875 164.562 71.5C164.938 71.3125 165.266 71.1406 165.547 70.9844C165.891 70.7969 166.219 70.5938 166.531 70.375C166.875 70.0938 167.422 69.5625 168.172 68.7812C168.797 68.125 169.656 67.2031 170.75 66.0156C171.844 64.7969 173.266 63.1719 175.016 61.1406C173.984 59.2656 173.141 57.7812 172.484 56.6875C171.859 55.5625 171.375 54.6875 171.031 54.0625C170.625 53.3438 170.328 52.8594 170.141 52.6094C169.953 52.3594 169.703 52.0781 169.391 51.7656C168.891 51.2656 168.078 50.6719 166.953 49.9844ZM201.734 68.4531C202.609 68.4531 203.422 68.3594 204.172 68.1719C204.797 68.0156 205.391 67.7656 205.953 67.4219C206.547 67.0469 206.938 66.5 207.125 65.7812C207.75 65.9062 208.281 66.0156 208.719 66.1094C209.156 66.1719 209.531 66.2344 209.844 66.2969C210.188 66.3906 210.484 66.4531 210.734 66.4844C210.984 66.5469 211.281 66.6094 211.625 66.6719C211.938 66.7344 212.312 66.8125 212.75 66.9062C213.219 66.9688 213.766 67.0625 214.391 67.1875C213.922 67.125 213.438 67.1719 212.938 67.3281C212.469 67.4844 212.016 67.6562 211.578 67.8438C211.078 68.0625 210.609 68.3281 210.172 68.6406C209.891 68.8281 209.562 69.1094 209.188 69.4844C208.844 69.8594 208.344 70.2188 207.688 70.5625C207.031 70.9062 206.156 71.2031 205.062 71.4531C204 71.6719 202.625 71.75 200.938 71.6875C198.906 71.625 197.203 71.2656 195.828 70.6094C194.453 69.9219 193.344 69.0938 192.5 68.125C191.656 67.125 191.047 66.0469 190.672 64.8906C190.297 63.7344 190.094 62.6562 190.062 61.6562C190.031 60.6562 190.328 59.6094 190.953 58.5156C191.578 57.4219 192.453 56.4219 193.578 55.5156C194.734 54.6094 196.125 53.875 197.75 53.3125C199.375 52.7188 201.156 52.4219 203.094 52.4219C204.219 52.4219 205.25 52.5625 206.188 52.8438C207.156 53.0938 208.031 53.4375 208.812 53.875C209.625 54.3125 210.328 54.8125 210.922 55.375C211.516 55.9062 212.016 56.4531 212.422 57.0156C212.828 57.6094 213.172 58.2344 213.453 58.8906C213.703 59.4531 213.906 60.0938 214.062 60.8125C214.219 61.5312 214.266 62.2656 214.203 63.0156C211.828 63.0781 209.906 63.125 208.438 63.1562C207 63.1875 205.875 63.2031 205.062 63.2031H202.953H201.359C200.797 63.2031 200.062 63.2188 199.156 63.25C198.25 63.2812 197.141 63.3281 195.828 63.3906C195.984 64.6406 196.375 65.6094 197 66.2969C197.656 66.9531 198.344 67.4531 199.062 67.7969C199.875 68.1719 200.766 68.3906 201.734 68.4531ZM197.516 60.0156C198.516 60.0781 199.344 60.125 200 60.1562C200.688 60.1875 201.25 60.2188 201.688 60.25C202.156 60.2812 202.531 60.2969 202.812 60.2969H203.984C204.766 60.2969 206.219 60.25 208.344 60.1562C208.25 58.7812 207.953 57.7344 207.453 57.0156C206.984 56.2969 206.484 55.7656 205.953 55.4219C205.328 55.0469 204.641 54.8281 203.891 54.7656C201.859 54.7969 200.344 55.2188 199.344 56.0312C198.375 56.8438 197.766 58.1719 197.516 60.0156ZM215.609 53.5469C216.203 53.5781 216.734 53.5938 217.203 53.5938C217.703 53.5625 218.125 53.5312 218.469 53.5C218.875 53.4688 219.234 53.4375 219.547 53.4062C220.016 53.3438 220.5 53.2656 221 53.1719C221.438 53.1094 221.891 53.0312 222.359 52.9375C222.859 52.8125 223.344 52.6719 223.812 52.5156C223.625 52.9844 223.469 53.3906 223.344 53.7344C223.219 54.0781 223.125 54.375 223.062 54.625C222.969 54.9062 222.922 55.1406 222.922 55.3281C222.891 55.5469 222.875 55.8125 222.875 56.125C222.844 56.6562 222.844 57.5156 222.875 58.7031C224.5 57.2969 225.859 56.2031 226.953 55.4219C228.078 54.6406 228.969 54.0312 229.625 53.5938C230.406 53.0938 231.016 52.7656 231.453 52.6094C232.609 52.4219 233.625 52.6875 234.5 53.4062C234.875 53.7188 235.234 54.1406 235.578 54.6719C235.922 55.1719 236.219 55.8438 236.469 56.6875C236.719 57.5312 236.906 58.5469 237.031 59.7344C237.156 60.8906 237.172 62.2812 237.078 63.9062C236.422 63.9688 235.828 64.0312 235.297 64.0938C234.797 64.1562 234.375 64.2031 234.031 64.2344C233.625 64.2969 233.25 64.3281 232.906 64.3281L231.641 64.4688C231.203 64.5312 230.656 64.5938 230 64.6562C229.375 64.6875 228.609 64.75 227.703 64.8438C229.016 63.7812 229.859 62.8594 230.234 62.0781C230.641 61.2656 230.812 60.5938 230.75 60.0625C230.688 59.4688 230.406 58.9531 229.906 58.5156C229.312 58.1719 228.672 58.0469 227.984 58.1406C227.391 58.2031 226.703 58.4688 225.922 58.9375C225.141 59.4062 224.312 60.2812 223.438 61.5625C223.5 63.5625 223.562 65.2188 223.625 66.5312C223.719 67.8438 223.797 68.9062 223.859 69.7188C223.953 70.6562 224.031 71.3906 224.094 71.9219C224.188 72.3906 224.375 72.8906 224.656 73.4219C224.875 73.8594 225.188 74.3438 225.594 74.875C226 75.4062 226.531 75.9375 227.188 76.4688C225.812 76.4062 224.688 76.4062 223.812 76.4688C223.281 76.5 222.812 76.5312 222.406 76.5625C221.969 76.625 221.5 76.6875 221 76.75C220.562 76.8125 220.047 76.875 219.453 76.9375C218.891 77.0312 218.266 77.125 217.578 77.2188C217.828 76.875 218.031 76.4688 218.188 76C218.344 75.5625 218.469 75.1406 218.562 74.7344C218.688 74.2656 218.781 73.7812 218.844 73.2812C218.875 72.8438 218.891 72.1875 218.891 71.3125C218.922 70.4375 218.906 69.4531 218.844 68.3594C218.812 67.2344 218.766 66.0781 218.703 64.8906C218.641 63.6719 218.562 62.5312 218.469 61.4688C218.375 60.4062 218.266 59.4844 218.141 58.7031C218.047 57.8906 217.938 57.3281 217.812 57.0156C217.656 56.6406 217.469 56.2656 217.25 55.8906C217.062 55.5469 216.828 55.1875 216.547 54.8125C216.266 54.4062 215.953 53.9844 215.609 53.5469ZM259.719 49.2344C259.438 49.9219 259.188 50.5469 258.969 51.1094C258.781 51.6719 258.609 52.1719 258.453 52.6094C258.297 53.1094 258.156 53.5469 258.031 53.9219C257.906 54.3594 257.766 54.8594 257.609 55.4219C257.453 55.9219 257.25 56.5469 257 57.2969C256.781 58.0156 256.516 58.875 256.203 59.875C255.953 58.375 255.5 57.1875 254.844 56.3125C254.188 55.4062 253.516 54.7031 252.828 54.2031C252.016 53.6406 251.141 53.2344 250.203 52.9844C248.516 52.7031 247.297 52.7344 246.547 53.0781C245.797 53.4219 245.297 53.8594 245.047 54.3906C244.922 54.6094 244.781 54.8906 244.625 55.2344C244.5 55.5469 244.391 55.875 244.297 56.2188C244.234 56.5625 244.219 56.9062 244.25 57.25C244.281 57.5938 244.422 57.875 244.672 58.0938C244.828 58.25 245.234 58.4688 245.891 58.75C246.547 59 247.328 59.2969 248.234 59.6406C249.172 59.9531 250.156 60.2969 251.188 60.6719C252.25 61.0469 253.25 61.4219 254.188 61.7969C255.125 62.1719 255.938 62.5469 256.625 62.9219C257.312 63.2969 257.766 63.6406 257.984 63.9531C258.172 64.2656 258.375 64.6875 258.594 65.2188C258.844 65.7188 259.016 66.2812 259.109 66.9062C259.234 67.5 259.266 68.125 259.203 68.7812C259.172 69.4062 259 70.0312 258.688 70.6562C258.375 71.2812 257.875 71.8594 257.188 72.3906C256.531 72.9219 255.641 73.3594 254.516 73.7031C253.203 74.1094 251.938 74.2188 250.719 74.0312C249.5 73.8438 248.375 73.5625 247.344 73.1875C246.344 72.8125 245.469 72.4531 244.719 72.1094C243.969 71.7344 243.438 71.5781 243.125 71.6406C242.781 71.7031 242.391 71.875 241.953 72.1562C241.516 72.4375 241.094 72.7344 240.688 73.0469C240.312 73.3281 239.984 73.5938 239.703 73.8438C239.422 74.0625 239.281 74.1406 239.281 74.0781C239.281 74.0156 239.328 73.8281 239.422 73.5156C239.547 73.2031 239.672 72.8281 239.797 72.3906C239.953 71.9219 240.094 71.4219 240.219 70.8906C240.375 70.3281 240.484 69.7969 240.547 69.2969C240.609 68.8906 240.688 68.3906 240.781 67.7969C240.844 67.2656 240.922 66.625 241.016 65.875C241.141 65.0938 241.281 64.1562 241.438 63.0625C241.594 63.875 241.812 64.5781 242.094 65.1719C242.406 65.7656 242.703 66.2812 242.984 66.7188C243.328 67.2188 243.656 67.6406 243.969 67.9844C244.438 68.4219 244.984 68.8281 245.609 69.2031C246.266 69.5781 246.922 69.9062 247.578 70.1875C248.234 70.4375 248.859 70.5938 249.453 70.6562C250.047 70.7188 250.547 70.6562 250.953 70.4688C251.359 70.2812 251.703 69.9375 251.984 69.4375C252.297 68.9375 252.516 68.3906 252.641 67.7969C252.766 67.2031 252.812 66.6406 252.781 66.1094C252.75 65.5469 252.609 65.0938 252.359 64.75C252.172 64.5312 251.734 64.25 251.047 63.9062C250.391 63.5625 249.594 63.1875 248.656 62.7812C247.75 62.375 246.781 61.9531 245.75 61.5156C244.75 61.0781 243.797 60.6406 242.891 60.2031C242.016 59.7344 241.281 59.2969 240.688 58.8906C240.125 58.4531 239.812 58.0625 239.75 57.7188C239.688 57.2188 239.641 56.6719 239.609 56.0781C239.578 55.4531 239.609 54.8438 239.703 54.25C239.828 53.625 240.047 53.0312 240.359 52.4688C240.703 51.9062 241.203 51.4375 241.859 51.0625C242.297 50.8125 242.875 50.625 243.594 50.5C244.312 50.375 245.109 50.3125 245.984 50.3125C246.859 50.2812 247.766 50.3125 248.703 50.4062C249.641 50.4688 250.531 50.5625 251.375 50.6875C252.25 50.7812 253.031 50.9062 253.719 51.0625C254.438 51.2188 254.984 51.3594 255.359 51.4844C255.797 51.6406 256.266 51.6562 256.766 51.5312C257.203 51.4375 257.672 51.2344 258.172 50.9219C258.672 50.6094 259.188 50.0469 259.719 49.2344Z" fill="#0F637B"/>
</svg>
