<svg width="322" height="117" viewBox="0 0 322 117" fill="none" xmlns="http://www.w3.org/2000/svg">
<rect width="322" height="117" fill="white"/>
<g clip-path="url(#clip0_28_18)">
<path fill-rule="evenodd" clip-rule="evenodd" d="M277.951 32.2911C283.79 32.2911 280.228 44.2621 277.071 44.2621H275.665C275.179 44.2621 274.847 43.9931 274.847 43.6577C274.847 42.7761 275.929 41.7462 275.929 38.899C275.929 36.0962 273.909 34.0654 273.909 33.2407C273.909 32.8345 274.044 32.2911 274.775 32.2911H277.951ZM284.064 50.0812C284.064 55.4276 301.131 52.9977 301.131 63.6794C301.131 76.1203 287.473 76.0468 280.056 72.6618C279.253 72.2653 279.062 71.6568 279.062 70.9083V68.2774C279.062 67.3306 279.456 67.0534 280.118 67.0534C280.591 67.0534 280.996 67.2668 281.394 67.6078C287.128 72.0699 295.098 71.5792 295.098 66.9314C295.099 61.1026 278.249 63.3329 278.249 52.5846C278.249 43.0616 289.889 41.0919 298.576 44.7472C299.393 45.0688 299.596 45.7536 299.596 46.5021V48.7241C299.596 49.682 299.19 49.9495 298.516 49.9495C298.174 49.9495 297.65 49.682 297.24 49.4089C292.43 46.0946 284.064 45.6856 284.064 50.0812Z" fill="#F06C00"/>
<path fill-rule="evenodd" clip-rule="evenodd" d="M298.709 44.7971C298.669 44.7858 298.63 44.7715 298.592 44.7541C298.613 44.7638 298.661 44.7776 298.709 44.7971ZM298.928 44.8885C298.892 44.8674 298.852 44.8507 298.812 44.8386L298.927 44.8885H298.928ZM117.165 42.7843C123.615 42.7843 126.505 46.5824 126.505 52.0758V73.0443C126.509 73.1527 126.491 73.2609 126.453 73.362C126.414 73.4631 126.354 73.555 126.279 73.632C126.203 73.709 126.113 73.7694 126.013 73.8095C125.913 73.8496 125.806 73.8684 125.699 73.8649H119.247C118.921 73.8649 118.589 73.5253 118.589 73.0443V52.7606C118.589 50.4526 118.319 47.7302 113.874 47.7302C111.594 47.7302 108.914 49.0803 107.636 49.8427V73.0443C107.64 73.1537 107.622 73.2628 107.582 73.3647C107.543 73.4666 107.483 73.5591 107.406 73.6362C107.329 73.7134 107.237 73.7736 107.136 73.8129C107.035 73.8523 106.927 73.87 106.818 73.8649H100.381C100.045 73.8649 99.7085 73.5253 99.7085 73.0443V44.2772C99.7085 43.799 100.045 43.4511 100.381 43.4511H106.625C107.105 43.4511 107.433 43.799 107.433 44.2772L107.573 45.8325C109.579 44.6044 113.476 42.783 117.165 42.783V42.7843ZM240.306 43.2806C241.171 43.4871 241.639 44.0374 241.639 44.7042V48.9736C241.639 49.4296 241.238 49.9162 240.757 49.9162C240.037 49.9162 239.352 49.6348 238.495 49.4296C234.866 48.6908 229.401 48.8932 229.401 54.7151V72.9598C229.404 73.0672 229.386 73.1744 229.348 73.2746C229.309 73.3748 229.251 73.466 229.176 73.5425C229.101 73.6191 229.012 73.6794 228.913 73.7199C228.815 73.7603 228.709 73.7799 228.602 73.7776H222.167C221.833 73.7776 221.501 73.438 221.501 72.9598V44.2994C221.501 43.8198 221.833 43.4871 222.167 43.4871H228.399C228.856 43.4871 229.198 43.8198 229.198 44.2994L229.333 47.9423C230.612 46.0557 233.625 42.9438 237.34 42.9438C238.211 42.9438 239.026 42.9438 240.307 43.2806H240.306Z" fill="#F06C00"/>
<path fill-rule="evenodd" clip-rule="evenodd" d="M240.305 43.2806L240.617 43.3582C240.513 43.3308 240.41 43.3049 240.305 43.2806ZM214.945 43.4885C215.397 43.4885 215.743 43.8212 215.743 44.3022V63.2261C215.743 71.6083 209.062 74.4541 202.366 74.4541C195.737 74.4541 189.049 71.6083 189.049 64.0398V44.3008C189.048 43.8226 189.382 43.4899 189.72 43.4899H196.145C196.606 43.4899 196.942 43.8226 196.942 44.3036V65.5951C196.942 68.7846 198.954 70.735 202.365 70.735C206.526 70.735 207.851 68.373 207.851 63.9747V44.3022C207.851 43.8212 208.194 43.4885 208.53 43.4885H214.945ZM84.6888 35.7925C84.6888 33.7646 86.096 32.0042 89.0242 32H89.0516C91.8522 32.0042 93.2567 33.7646 93.2567 35.7925C93.2567 38.228 91.6465 39.8498 89.0379 39.8498C86.421 39.8498 84.6888 38.228 84.6888 35.7925ZM92.3186 43.5731C92.4238 43.5694 92.5287 43.5877 92.6267 43.6267C92.7247 43.6657 92.8137 43.7247 92.8882 43.8C92.9626 43.8753 93.021 43.9652 93.0596 44.0642C93.0982 44.1633 93.1163 44.2693 93.1127 44.3757V73.0429C93.1127 73.5239 92.7794 73.8608 92.3186 73.8608H85.8957C85.5597 73.8608 85.2237 73.5239 85.2237 73.0429V44.3757C85.2237 43.9113 85.5597 43.5717 85.8957 43.5717L92.3186 43.5731ZM173.807 43.1226C180.701 43.1226 185.046 49.2106 185.046 57.3128C185.046 67.7367 177.886 74.6287 169.05 74.6287C164.225 74.6287 160.693 72.9293 158.357 71.1148C157.356 70.3732 157.149 69.0938 157.149 68.0098V33.1089C157.149 32.6376 157.479 32.305 157.813 32.305H164.225C164.694 32.305 165.034 32.6376 165.034 33.1089V46.5644C166.302 45.4902 169.247 43.1226 173.807 43.1226ZM169.578 70.9789C173.859 70.9789 176.889 66.5238 176.889 58.9387C176.889 56.1068 176.269 48.1266 170.191 48.1266C167.775 48.1266 166.029 49.4754 165.034 50.217V68.4866C165.034 69.0924 165.157 69.6884 165.972 70.236C166.636 70.6324 167.641 70.9789 169.578 70.9789ZM29.0271 41.5119C29.0271 49.2106 50.239 48.408 50.239 60.9112C50.239 74.4901 34.243 77.6145 23.0006 72.2639C22.3368 71.8508 22.2052 71.5182 22.2052 70.9083V67.4706C22.2052 66.8496 22.4109 66.2466 23.5451 66.2466C24.15 66.2466 24.5381 66.5945 25.4145 67.2003C34.7175 73.7541 42.7341 69.8312 42.7341 64.2131C42.7341 54.9618 21.8691 57.7951 21.8691 44.1317C21.8691 37.8524 26.6859 32.305 35.5884 32.305C39.9992 32.305 44.0041 33.1782 46.2904 34.0529C46.8939 34.3343 47.02 34.6753 47.02 35.27V39.2011C47.02 39.8124 46.8184 40.2851 46.0956 40.2851C45.4894 40.2851 45.0149 39.9427 44.2811 39.4049C41.6149 37.4462 39.0584 36.2971 35.7146 36.2971C31.9759 36.2971 29.0271 38.3861 29.0271 41.5091V41.5119ZM67.1553 42.7261C76.5968 42.7261 79.4743 46.5131 79.4743 51.9913V73.0249C79.4772 73.1318 79.4583 73.2381 79.4189 73.3372C79.3795 73.4364 79.3203 73.5264 79.2451 73.6015C79.1699 73.6766 79.0802 73.7353 78.9816 73.7739C78.883 73.8126 78.7776 73.8303 78.6719 73.8261H72.5824C72.2491 73.8261 71.9241 73.4948 71.9241 73.0249L71.7732 71.2645C69.6282 73.1497 67.0922 74.5067 64.0145 74.5067C58.3913 74.5067 53.5759 71.2645 53.5759 65.1778C53.5759 57.7965 61.6679 56.1913 65.2201 55.7117C71.0422 54.9632 71.5812 54.5654 71.5812 53.0032C71.5812 49.6902 70.9791 46.9789 66.8892 46.9789C63.614 46.9789 61.1426 48.1363 58.6546 49.8233C58.2555 50.1005 57.6575 50.8449 56.8566 50.8449C56.4616 50.8449 55.7278 50.4304 55.7278 49.4948V46.4535C55.7278 45.8325 55.9884 45.2254 56.7263 44.8206C59.4062 43.4747 63.5468 42.7261 67.1553 42.7261ZM71.5812 67.21V58.2664C64.1476 58.2664 61.3401 61.6556 61.3401 65.3123C61.3401 67.885 62.6759 70.4383 66.2172 70.4383C69.3045 70.4383 71.5812 68.0846 71.5812 67.21ZM136.475 50.0811C136.475 55.4276 153.527 52.9976 153.527 63.6794C153.527 76.1202 139.87 76.0468 132.466 72.6618C131.644 72.2653 131.448 71.6568 131.448 70.9083V68.2773C131.448 67.3306 131.861 67.0533 132.525 67.0533C132.987 67.0533 133.394 67.2668 133.795 67.6078C139.551 72.0699 147.504 71.5792 147.504 66.9313C147.504 61.1025 130.658 63.3329 130.658 52.5845C130.658 43.0616 142.284 41.0919 150.991 44.7472C151.789 45.0688 151.988 45.7535 151.988 46.5021V48.7241C151.988 49.6819 151.593 49.9494 150.929 49.9494C150.592 49.9494 150.043 49.6819 149.654 49.4088C144.829 46.0945 136.475 45.6856 136.475 50.0811ZM258.964 76.963C257.29 81.3378 252.478 85 247.318 85C246.443 85 245.658 85 244.504 84.6493C243.642 84.4497 243.177 83.9202 243.177 83.2396V79.3874C243.177 78.912 243.586 78.4448 244.048 78.4448C244.782 78.4448 245.316 78.6458 246.119 78.8537C251.402 80.3453 256.087 78.6458 256.226 73.6362L244.048 45.1713C243.777 44.4963 243.705 44.2994 243.705 44.0984C243.705 43.6937 243.907 43.4885 244.306 43.4885H251.619C252.209 43.4885 252.478 43.6937 252.681 44.2343L259.492 62.4901L259.896 63.7681L260.297 62.4887L266.921 44.2329C267.058 43.7616 267.392 43.4885 267.867 43.4885H270.934C271.266 43.4885 271.544 43.7616 271.544 44.0984C271.544 44.3632 271.405 44.5587 271.266 44.9717L258.965 76.963H258.964Z" fill="#F06C00"/>
</g>
<defs>
<clipPath id="clip0_28_18">
<rect width="285" height="53" fill="white" transform="translate(19 32)"/>
</clipPath>
</defs>
</svg>
