<svg width="322" height="117" viewBox="0 0 322 117" fill="none" xmlns="http://www.w3.org/2000/svg">
<rect width="322" height="117" fill="white"/>
<g clip-path="url(#clip0_28_18)">
<path fill-rule="evenodd" clip-rule="evenodd" d="M273.773 33.2747C279.427 33.2747 275.978 44.568 272.92 44.568H271.559C271.089 44.568 270.767 44.3143 270.767 43.9978C270.767 43.1661 271.815 42.1945 271.815 39.5085C271.815 36.8643 269.859 34.9485 269.859 34.1704C269.859 33.7873 269.989 33.2747 270.697 33.2747H273.773ZM279.693 50.0577C279.693 55.1015 296.221 52.8091 296.221 62.8863C296.221 74.6229 282.995 74.5536 275.812 71.3602C275.034 70.9862 274.849 70.4121 274.849 69.7059V67.2239C274.849 66.3308 275.23 66.0692 275.872 66.0692C276.33 66.0692 276.722 66.2706 277.107 66.5923C282.66 70.8018 290.378 70.3389 290.378 65.9541C290.38 60.4553 274.061 62.5593 274.061 52.4194C274.061 43.4355 285.334 41.5773 293.747 45.0257C294.538 45.3291 294.735 45.9751 294.735 46.6812V48.7775C294.735 49.6811 294.342 49.9335 293.688 49.9335C293.358 49.9335 292.85 49.6811 292.453 49.4235C287.795 46.2968 279.693 45.911 279.693 50.0577Z" fill="#F06C00"/>
<path fill-rule="evenodd" clip-rule="evenodd" d="M293.875 45.0727C293.837 45.0621 293.799 45.0486 293.762 45.0322C293.782 45.0413 293.829 45.0544 293.875 45.0727ZM294.088 45.159C294.052 45.1391 294.014 45.1233 293.975 45.1119L294.087 45.159H294.088ZM118.065 43.1739C124.311 43.1739 127.11 46.757 127.11 51.9394V71.7211C127.114 71.8234 127.096 71.9254 127.059 72.0208C127.021 72.1162 126.964 72.2029 126.89 72.2755C126.817 72.3481 126.729 72.4051 126.633 72.4429C126.536 72.4807 126.433 72.4985 126.329 72.4952H120.081C119.765 72.4952 119.443 72.1748 119.443 71.7211V52.5855C119.443 50.4081 119.182 47.8398 114.877 47.8398C112.669 47.8398 110.074 49.1135 108.836 49.8327V71.7211C108.84 71.8243 108.823 71.9272 108.784 72.0233C108.746 72.1195 108.688 72.2067 108.613 72.2795C108.539 72.3523 108.45 72.409 108.352 72.4462C108.254 72.4833 108.149 72.5 108.045 72.4952H101.81C101.485 72.4952 101.159 72.1748 101.159 71.7211V44.5823C101.159 44.1312 101.485 43.8029 101.81 43.8029H107.857C108.322 43.8029 108.64 44.1312 108.64 44.5823L108.775 46.0496C110.718 44.8909 114.492 43.1726 118.065 43.1726V43.1739ZM237.316 43.6421C238.154 43.8369 238.607 44.3561 238.607 44.9851V49.0128C238.607 49.443 238.22 49.902 237.753 49.902C237.056 49.902 236.393 49.6366 235.563 49.443C232.049 48.746 226.756 48.937 226.756 54.4293V71.6413C226.759 71.7427 226.742 71.8438 226.705 71.9383C226.667 72.0328 226.611 72.1189 226.538 72.1911C226.466 72.2633 226.379 72.3202 226.284 72.3584C226.188 72.3965 226.086 72.415 225.983 72.4128H219.751C219.427 72.4128 219.105 72.0924 219.105 71.6413V44.6032C219.105 44.1508 219.427 43.8369 219.751 43.8369H225.786C226.228 43.8369 226.559 44.1508 226.559 44.6032L226.691 48.0399C227.929 46.2601 230.847 43.3243 234.445 43.3243C235.288 43.3243 236.077 43.3243 237.318 43.6421H237.316Z" fill="#F06C00"/>
<path fill-rule="evenodd" clip-rule="evenodd" d="M237.317 43.6421L237.618 43.7153C237.518 43.6894 237.417 43.665 237.317 43.6421ZM212.757 43.8382C213.195 43.8382 213.53 44.1521 213.53 44.6059V62.4586C213.53 70.3663 207.06 73.051 200.576 73.051C194.155 73.051 187.679 70.3663 187.679 63.2262V44.6046C187.677 44.1534 188.002 43.8395 188.328 43.8395H194.551C194.997 43.8395 195.323 44.1534 195.323 44.6072V64.6935C195.323 67.7025 197.271 69.5424 200.574 69.5424C204.604 69.5424 205.887 67.3141 205.887 63.1648V44.6059C205.887 44.1521 206.219 43.8382 206.545 43.8382H212.757ZM86.6142 36.5779C86.6142 34.6647 87.9769 33.0039 90.8127 33H90.8392C93.5514 33.0039 94.9115 34.6647 94.9115 36.5779C94.9115 38.8755 93.3522 40.4055 90.8259 40.4055C88.2917 40.4055 86.6142 38.8755 86.6142 36.5779ZM94.003 43.918C94.1049 43.9145 94.2065 43.9318 94.3014 43.9686C94.3963 44.0054 94.4825 44.061 94.5546 44.1321C94.6268 44.2031 94.6833 44.2879 94.7207 44.3814C94.7581 44.4748 94.7756 44.5748 94.772 44.6752V71.7198C94.772 72.1735 94.4493 72.4913 94.003 72.4913H87.783C87.4576 72.4913 87.1322 72.1735 87.1322 71.7198V44.6752C87.1322 44.2371 87.4576 43.9167 87.783 43.9167L94.003 43.918ZM172.918 43.493C179.594 43.493 183.802 49.2364 183.802 56.88C183.802 66.7139 176.869 73.2158 168.311 73.2158C163.638 73.2158 160.218 71.6125 157.956 69.9007C156.987 69.2011 156.786 67.9941 156.786 66.9715V34.0462C156.786 33.6015 157.106 33.2877 157.429 33.2877H163.638C164.092 33.2877 164.422 33.6015 164.422 34.0462V46.74C165.65 45.7266 168.502 43.493 172.918 43.493ZM168.822 69.7726C172.969 69.7726 175.903 65.5696 175.903 58.4139C175.903 55.7423 175.303 48.2138 169.416 48.2138C167.077 48.2138 165.386 49.4862 164.422 50.1858V67.4213C164.422 67.9928 164.541 68.5551 165.33 69.0717C165.973 69.4457 166.947 69.7726 168.822 69.7726ZM32.7102 41.9735C32.7102 49.2364 53.2523 48.4793 53.2523 60.2747C53.2523 73.085 37.7614 76.0326 26.8741 70.9848C26.2312 70.5951 26.1037 70.2813 26.1037 69.7059V66.4628C26.1037 65.8769 26.303 65.3081 27.4014 65.3081C27.9871 65.3081 28.363 65.6363 29.2117 66.2078C38.221 72.3906 45.9843 68.6898 45.9843 63.3897C45.9843 54.6621 25.7783 57.335 25.7783 44.445C25.7783 38.5211 30.443 33.2877 39.0644 33.2877C43.3359 33.2877 47.2143 34.1115 49.4284 34.9367C50.0128 35.2022 50.135 35.5239 50.135 36.0849V39.7935C50.135 40.3702 49.9397 40.8161 49.2398 40.8161C48.6527 40.8161 48.1931 40.4931 47.4826 39.9857C44.9005 38.138 42.4247 37.0539 39.1866 37.0539C35.5659 37.0539 32.7102 39.0246 32.7102 41.9708V41.9735ZM69.6344 43.119C78.7778 43.119 81.5643 46.6916 81.5643 51.8597V71.7028C81.5672 71.8035 81.5489 71.9038 81.5107 71.9974C81.4726 72.091 81.4153 72.1758 81.3424 72.2467C81.2696 72.3175 81.1827 72.3729 81.0872 72.4094C80.9917 72.4458 80.8897 72.4626 80.7873 72.4586H74.8901C74.5674 72.4586 74.2526 72.1461 74.2526 71.7028L74.1065 70.042C72.0292 71.8205 69.5733 73.1007 66.5928 73.1007C61.1471 73.1007 56.4838 70.042 56.4838 64.2999C56.4838 57.3363 64.3202 55.822 67.7603 55.3696C73.3985 54.6634 73.9205 54.2881 73.9205 52.8143C73.9205 49.6889 73.3374 47.131 69.3767 47.131C66.205 47.131 63.8115 48.223 61.4022 49.8144C61.0157 50.076 60.4366 50.7782 59.6609 50.7782C59.2784 50.7782 58.5678 50.3872 58.5678 49.5045V46.6354C58.5678 46.0496 58.8201 45.4768 59.5347 45.0949C62.13 43.8252 66.1399 43.119 69.6344 43.119ZM73.9205 66.2169V57.7797C66.7216 57.7797 64.0028 60.977 64.0028 64.4267C64.0028 66.8538 65.2965 69.2626 68.7259 69.2626C71.7157 69.2626 73.9205 67.0421 73.9205 66.2169ZM136.765 50.0577C136.765 55.1015 153.278 52.8091 153.278 62.8862C153.278 74.6229 140.053 74.5535 132.882 71.3601C132.087 70.9861 131.897 70.4121 131.897 69.7059V67.2239C131.897 66.3307 132.297 66.0692 132.939 66.0692C133.387 66.0692 133.781 66.2706 134.169 66.5923C139.744 70.8018 147.446 70.3388 147.446 65.9541C147.446 60.4552 131.132 62.5593 131.132 52.4194C131.132 43.4355 142.391 41.5772 150.822 45.0256C151.595 45.329 151.788 45.975 151.788 46.6812V48.7774C151.788 49.6811 151.405 49.9334 150.763 49.9334C150.436 49.9334 149.905 49.6811 149.527 49.4234C144.855 46.2967 136.765 45.9109 136.765 50.0577ZM255.385 75.4179C253.765 79.545 249.104 83 244.108 83C243.26 83 242.501 83 241.382 82.6691C240.548 82.4808 240.098 81.9813 240.098 81.3392V77.7051C240.098 77.2566 240.494 76.8159 240.941 76.8159C241.652 76.8159 242.168 77.0055 242.947 77.2016C248.063 78.6087 252.6 77.0055 252.734 72.2795L240.941 45.4258C240.678 44.7889 240.609 44.6032 240.609 44.4136C240.609 44.0318 240.804 43.8382 241.191 43.8382H248.273C248.844 43.8382 249.104 44.0318 249.301 44.5418L255.897 61.7642L256.289 62.9699L256.676 61.7629L263.092 44.5405C263.225 44.0959 263.547 43.8382 264.008 43.8382H266.978C267.299 43.8382 267.569 44.0959 267.569 44.4136C267.569 44.6634 267.434 44.8478 267.3 45.2375L255.387 75.4179H255.385Z" fill="#F06C00"/>
</g>
<defs>
<clipPath id="clip0_28_18">
<rect width="276" height="50" fill="white" transform="translate(23 33)"/>
</clipPath>
</defs>
</svg>
