<svg width="322" height="117" viewBox="0 0 322 117" fill="none" xmlns="http://www.w3.org/2000/svg">
<rect width="322" height="117" fill="white"/>
<g clip-path="url(#clip0_28_6)">
<path d="M286.384 46.6198C286.339 46.5965 293.541 51.9104 296.097 50.6763C298.699 49.4238 295.107 40.671 295.06 39.5075C296.996 37.7085 301 34.515 301 32.2595C301 30.0248 297.686 29.5698 291.289 29.684C290.253 27.4981 287.33 21.0247 285.048 21.0247C282.608 21.0247 280.77 28.0654 280.377 29.843C274.482 30.1833 269.974 30.6617 269.974 33.2859C269.974 35.5648 274.642 39.1199 277.384 40.5567C276.924 43.1322 275.452 49.5823 277.132 50.9028C279.272 52.5686 284.242 48.2598 286.383 46.6198M285.21 25.9257C285.924 27.9044 287.766 31.8699 289.101 32.7608C290.298 33.5586 294.462 33.3982 296.836 33.3067C295.315 34.7207 291.999 36.5445 291.381 38.9148C290.875 40.8533 292.46 44.796 293.219 46.6193C291.634 45.4116 287.927 42.9971 286.501 42.9971C284.636 42.9971 281.414 46.0038 280.081 47.1891C280.425 45.7752 281.877 41.285 281.228 39.3932C280.585 37.5034 277.775 35.9751 274.81 33.9462C277.775 33.6054 281.76 33.7872 282.862 32.7608C283.899 31.8044 284.659 27.8369 285.211 25.9257M58.0532 51.401C58.0532 46.4339 50.7871 45.954 47.2463 45.954C43.0845 45.954 38.6295 46.7981 34.9482 48.2039C31.9674 49.3207 28 51.3792 28 55.0852C28 59.9136 35.6405 61.647 42.1887 63.2783C47.133 64.5125 51.1265 65.5155 51.1265 67.4983C51.1265 70.0758 44.3065 69.8325 42.7405 69.8325C36.3071 69.8325 32.2838 68.5267 31.7136 68.5267C30.4932 68.5267 29.7799 71.8127 31.047 72.1728C34.7667 73.2582 38.4669 73.7092 42.0267 73.7092C50.6737 73.7092 55.4723 71.9214 55.4723 67.4048C55.4723 63.164 50.3789 61.1452 43.5927 59.4992C38.5377 58.2676 32.374 56.9791 32.374 55.0384C32.374 53.3523 34.7457 52.3132 36.5378 51.6275C39.6427 50.4167 43.4994 49.7991 46.9714 49.8225C48.0073 49.8225 53.8212 49.7992 53.8212 51.7184C53.8212 52.1989 53.4325 52.7022 52.5546 53.1933C51.3814 53.8302 52.8792 56.8399 54.3278 56.2259C56.4405 55.335 58.0532 53.4874 58.0532 51.401ZM254.326 69.0285C251.954 68.4572 249.47 67.5663 249.47 63.7131C249.47 58.7018 253.521 57.0238 261.447 57.0238C264.949 57.0238 268.075 57.6266 270.5 59.4062C273.399 61.5099 273.744 65.5622 273.654 68.8233C275.077 68.7512 277.446 68.8233 278.619 68.8233C279.865 68.8233 280.027 69.6933 280.027 70.4384C280.027 71.2886 279.956 72.4461 278.803 72.4461C277.055 72.4461 273.513 72.3805 273.145 72.4019C271.857 77.8636 267.959 81.9754 262.844 81.9754C259.648 81.9754 256.631 80.1745 256.631 76.7483C256.631 71.9214 262.804 69.1895 269.344 68.9376C269.453 67.2469 269.387 65.3103 268.724 63.804C267.387 60.8517 264.109 60.6444 260.658 60.6444C254.606 60.6444 253.591 61.5774 253.591 63.9182C253.591 67.2911 259.509 66.2692 259.509 68.8233C259.509 71.124 254.397 72.5837 250.476 72.5837C244.613 72.5837 240.534 70.0128 239.248 64.3987C237.381 69.3505 234.456 72.5161 231.295 72.5161C225.616 72.5161 223.399 64.5358 222.497 58.7693C222.36 57.811 222.73 57.2056 225.129 57.07C225.954 57.0238 226.58 57.1614 226.672 57.811C227.225 62.0939 228.843 68.8889 231.554 68.8889C234.387 68.8889 237.013 61.7176 238.092 57.7429C238.438 56.6789 242.098 56.8394 242.164 58.4032C242.164 67.2702 245.803 70.3048 254.326 69.1682V69.0285ZM217.8 56.8394C212.669 56.8394 209.838 60.9385 207.808 65.0589C206.575 67.543 206.203 68.8233 205.834 68.8233C204.776 68.8233 205.439 58.0375 201.227 58.0375C196.762 58.0375 193.879 68.8233 190.358 68.8233C189.275 68.8233 188.79 67.6806 188.79 64.4683V50.1653C188.79 49.2532 188.399 48.7748 186.6 48.7748C185.011 48.7748 184.685 49.5264 184.685 50.0511V58.6551C183.306 57.6058 179.398 57.0238 176.146 57.0238C168.646 57.0238 166.384 60.2336 166.384 64.7415C166.384 66.9508 167.025 69.2083 168.477 70.4867C170.484 72.2663 173.548 72.4461 175.984 72.474C178.288 72.474 181.786 72.2876 182.75 71.7203C183.329 71.3775 183.352 70.9016 183.352 70.5121C183.352 69.5131 182.936 68.2941 181.972 68.3409C181.35 68.3683 179.419 68.8233 175.731 68.8233C171.913 68.8233 170.736 67.4988 170.736 64.2357C170.736 61.7851 171.501 60.6444 176.838 60.6444C179.073 60.6444 183.053 60.7587 184.09 62.388C184.528 63.1204 184.549 63.8761 184.707 65.7888C185.104 70.4145 186.946 72.4461 189.662 72.4461C195.285 72.4461 197.405 65.7192 200.42 62.2529C201.112 65.2387 201.02 72.474 205.485 72.474C210.943 72.474 210.547 60.8054 217.66 60.8054C218.686 60.8054 219.16 60.8963 219.527 60.8963C220.724 60.8963 221.006 59.8146 221.006 58.6109C221.006 57.1126 220.634 56.8394 217.801 56.8394M262.941 78.3695C266.002 78.3695 268.583 75.4873 268.951 72.4461C265.453 72.5837 260.821 73.8219 260.821 76.5853C260.821 77.4741 261.56 78.3695 262.941 78.3695ZM146.825 58.0629C143.193 58.0629 142.507 64.3987 136.573 67.5663C134.34 68.7385 131.33 69.1682 127.471 69.1682C121.284 69.1682 119.841 68.6161 119.841 64.5592C119.841 63.7131 119.887 62.7755 120.385 62.0706C121.42 60.6444 124.916 60.5743 126.732 60.5743C131.007 60.5743 131.514 60.9852 131.514 62.388C131.514 63.7593 131.099 63.8481 128.416 63.8928H126.85C126.251 63.8928 125.538 63.8294 125.538 64.9929C125.538 66.0427 125.493 66.5633 126.159 66.7009C126.503 66.7923 127.611 66.8619 128.298 66.8619C133.971 66.8619 135.836 64.9929 135.836 62.2062C135.836 58.6104 134.041 57.0024 126.365 57.0024C122.365 57.0024 116.895 57.5611 115.885 61.9543C115.632 62.9936 115.505 64.0593 115.508 65.1285C115.508 71.9448 121.444 72.5842 127.91 72.5842C137.539 72.5842 142.782 68.0468 146.019 62.2742C146.709 65.2641 146.617 72.4948 151.079 72.4948C156.527 72.4948 155.995 60.8242 163.114 60.8242C163.437 60.8242 163.873 60.8517 164.078 60.8517C165.208 60.8517 165.413 59.8425 165.413 58.6322C165.413 57.138 165.069 56.8648 163.251 56.8648C158.104 56.8648 155.42 60.9619 153.395 65.0843C152.185 67.5663 151.818 68.8447 151.446 68.8447C150.365 68.8447 151.032 58.0629 146.825 58.0629ZM59.09 58.7465C59.9813 64.5135 62.1626 72.4953 67.8458 72.4953C71.0122 72.4953 73.6423 69.8056 75.7724 65.2392C76.557 69.412 78.6655 72.4953 82.1909 72.5167C87.569 72.5421 88.6884 64.0538 93.7029 61.6922C95.9807 60.6195 98.301 60.6683 100.741 60.6683C107.01 60.6683 108.046 61.3961 108.046 64.6552C108.046 65.7451 108.003 67.2916 107.036 68.0473C105.933 68.8894 103.079 68.866 101.523 68.866C100.049 68.866 96.4186 68.5699 96.0725 66.8624C95.9802 66.384 96.0022 66.225 96.0022 65.5374C96.0022 64.6064 95.0361 64.3057 93.9767 64.3057C92.5255 64.3057 91.9615 64.9934 91.9615 65.7893V78.8438C91.9615 79.371 92.2158 80.1288 93.7926 80.1288C95.613 80.1288 95.9807 79.532 95.9807 78.6219V71.1723C97.2606 72.0824 99.0358 72.4461 103.057 72.474C110.693 72.5161 112.39 69.7797 112.39 64.7877C112.39 61.4865 111.443 59.8679 110.533 59.0893C108.924 57.7434 107.198 57.0238 100.534 57.0238C95.6792 57.0238 93.1732 57.9019 91.1087 59.1802C86.3962 62.0939 84.7143 69.0077 82.2827 69.0077C79.1932 69.0077 78.7768 61.7618 78.6871 58.3803C78.6183 56.8186 74.9904 56.6596 74.6463 57.7201C73.5741 61.6917 70.944 68.8655 68.0981 68.8655C65.3824 68.8655 63.782 62.0706 63.2246 57.7876C63.1303 57.1375 62.5088 57.0024 61.6816 57.0491C59.2736 57.1822 58.9511 57.7881 59.09 58.7465Z" fill="#ED018C"/>
</g>
<defs>
<clipPath id="clip0_28_6">
<rect width="273" height="61" fill="white" transform="translate(28 21)"/>
</clipPath>
</defs>
</svg>
