<svg width="273" height="96" viewBox="0 0 273 96" fill="none" xmlns="http://www.w3.org/2000/svg">
<path d="M226.204 38.2138C226.164 38.1789 232.47 46.1127 234.707 44.2701C236.986 42.4002 233.841 29.3322 233.8 27.595C235.495 24.9092 239 20.1412 239 16.7737C239 13.4373 236.099 12.7579 230.499 12.9285C229.591 9.66491 227.032 0 225.035 0C222.898 0 221.29 10.5119 220.945 13.1658C215.785 13.6739 211.838 14.3882 211.838 18.3062C211.838 21.7085 215.925 27.0164 218.325 29.1616C217.923 33.0067 216.634 42.6368 218.104 44.6083C219.978 47.0954 224.329 40.6622 226.204 38.2138M225.177 7.31731C225.802 10.2715 227.414 16.1921 228.583 17.5221C229.631 18.7133 233.276 18.4737 235.354 18.3372C234.023 20.4483 231.12 23.1712 230.579 26.7101C230.136 29.6044 231.524 35.4908 232.188 38.213C230.8 36.4099 227.555 32.805 226.307 32.805C224.674 32.805 221.854 37.294 220.686 39.0638C220.987 36.9528 222.259 30.2489 221.691 27.4244C221.128 24.6028 218.668 22.3212 216.071 19.2919C218.668 18.7831 222.156 19.0546 223.121 17.5221C224.029 16.0943 224.694 10.1707 225.177 7.31731M26.3103 45.3521C26.3103 37.9363 19.9491 37.2197 16.8493 37.2197C13.2059 37.2197 9.30566 38.4799 6.08286 40.5788C3.47329 42.2463 0 45.3195 0 50.8526C0 58.0615 6.68891 60.6495 12.4216 63.085C16.7501 64.9276 20.2463 66.4252 20.2463 69.3855C20.2463 73.2337 14.2757 72.8705 12.9047 72.8705C7.2725 72.8705 3.75028 70.921 3.25108 70.921C2.18265 70.921 1.5582 75.827 2.66748 76.3646C5.92395 77.9851 9.16335 78.6584 12.2798 78.6584C19.8499 78.6584 24.0509 75.9893 24.0509 69.246C24.0509 62.9144 19.5918 59.9003 13.6508 57.4428C9.2253 55.6039 3.82929 53.6802 3.82929 50.7829C3.82929 48.2654 5.90554 46.714 7.47452 45.6903C10.1927 43.8826 13.5691 42.9606 16.6087 42.9954C17.5155 42.9954 22.6054 42.9606 22.6054 45.8261C22.6054 46.5434 22.2651 47.2948 21.4965 48.0281C20.4694 48.9789 21.7807 53.4725 23.0489 52.5557C24.8984 51.2257 26.3103 48.4671 26.3103 45.3521ZM198.139 71.6702C196.063 70.8171 193.888 69.4871 193.888 63.7341C193.888 56.2523 197.434 53.7469 204.373 53.7469C207.439 53.7469 210.175 54.647 212.299 57.304C214.837 60.4447 215.138 66.495 215.06 71.3638C216.305 71.2562 218.379 71.3638 219.406 71.3638C220.497 71.3638 220.639 72.6628 220.639 73.7751C220.639 75.0445 220.577 76.7726 219.567 76.7726C218.037 76.7726 214.936 76.6748 214.614 76.7066C213.486 84.861 210.074 91 205.596 91C202.798 91 200.157 88.3112 200.157 83.1959C200.157 75.9893 205.561 71.9105 211.286 71.5344C211.382 69.0102 211.324 66.1189 210.744 63.8699C209.573 59.462 206.704 59.1527 203.683 59.1527C198.384 59.1527 197.496 60.5456 197.496 64.0405C197.496 69.0761 202.677 67.5505 202.677 71.3638C202.677 74.7988 198.201 76.9781 194.768 76.9781C189.635 76.9781 186.065 73.1397 184.939 64.7578C183.304 72.1509 180.743 76.8772 177.977 76.8772C173.005 76.8772 171.063 64.9625 170.274 56.3531C170.154 54.9223 170.478 54.0184 172.578 53.8159C173.301 53.7469 173.849 53.9524 173.929 54.9223C174.413 61.3168 175.829 71.4617 178.203 71.4617C180.684 71.4617 182.982 60.7549 183.927 54.8207C184.23 53.2321 187.434 53.4717 187.492 55.8064C187.492 69.045 190.677 73.5757 198.139 71.8787V71.6702ZM166.162 53.4717C161.67 53.4717 159.191 59.5917 157.414 65.7435C156.335 69.4522 156.01 71.3638 155.686 71.3638C154.76 71.3638 155.34 55.2605 151.653 55.2605C147.744 55.2605 145.22 71.3638 142.138 71.3638C141.19 71.3638 140.765 69.6577 140.765 64.8617V43.5073C140.765 42.1454 140.423 41.4311 138.848 41.4311C137.456 41.4311 137.172 42.5534 137.172 43.3367V56.1825C135.963 54.6159 132.542 53.7469 129.695 53.7469C123.13 53.7469 121.149 58.5392 121.149 65.2696C121.149 68.5681 121.71 71.9386 122.982 73.8472C124.739 76.5041 127.421 76.7726 129.553 76.8143C131.571 76.8143 134.633 76.536 135.477 75.689C135.984 75.1772 136.004 74.4667 136.004 73.8851C136.004 72.3936 135.64 70.5737 134.796 70.6435C134.252 70.6844 132.561 71.3638 129.332 71.3638C125.99 71.3638 124.959 69.3863 124.959 64.5144C124.959 60.8557 125.629 59.1527 130.301 59.1527C132.258 59.1527 135.743 59.3233 136.65 61.7558C137.033 62.8492 137.052 63.9775 137.19 66.8332C137.538 73.7395 139.151 76.7726 141.528 76.7726C146.451 76.7726 148.307 66.7293 150.946 61.5541C151.552 66.012 151.471 76.8143 155.381 76.8143C160.158 76.8143 159.812 59.393 166.039 59.393C166.937 59.393 167.352 59.5288 167.674 59.5288C168.722 59.5288 168.969 57.9136 168.969 56.1165C168.969 53.8796 168.643 53.4717 166.163 53.4717M205.681 85.6163C208.361 85.6163 210.621 81.3131 210.942 76.7726C207.88 76.9781 203.825 78.8267 203.825 82.9525C203.825 84.2795 204.472 85.6163 205.681 85.6163ZM104.026 55.2984C100.846 55.2984 100.246 64.7578 95.0512 69.4871C93.0966 71.2372 90.461 71.8787 87.0828 71.8787C81.6662 71.8787 80.4034 71.0545 80.4034 64.9974C80.4034 63.7341 80.4429 62.3344 80.8788 61.2819C81.7856 59.1527 84.8459 59.048 86.4359 59.048C90.1786 59.048 90.6221 59.6615 90.6221 61.7558C90.6221 63.8031 90.2589 63.9358 87.9097 64.0025H86.5387C86.0148 64.0025 85.3904 63.9078 85.3904 65.645C85.3904 67.2123 85.3509 67.9895 85.9345 68.195C86.2353 68.3315 87.2049 68.4354 87.8065 68.4354C92.7729 68.4354 94.4056 65.645 94.4056 61.4843C94.4056 56.1158 92.8344 53.7151 86.1141 53.7151C82.6125 53.7151 77.8239 54.5492 76.9395 61.1082C76.7177 62.66 76.6071 64.2511 76.61 65.8474C76.61 76.0242 81.8062 76.9788 87.4667 76.9788C95.8969 76.9788 100.487 70.2044 103.321 61.5859C103.925 66.0499 103.845 76.8454 107.75 76.8454C112.52 76.8454 112.054 59.4211 118.286 59.4211C118.569 59.4211 118.951 59.462 119.13 59.462C120.12 59.462 120.299 57.9553 120.299 56.1484C120.299 53.9176 119.999 53.5096 118.406 53.5096C113.9 53.5096 111.551 59.6266 109.778 65.7815C108.719 69.4871 108.398 71.3957 108.072 71.3957C107.125 71.3957 107.709 55.2984 104.026 55.2984ZM27.218 56.319C27.9982 64.9292 29.9079 76.8461 34.8833 76.8461C37.6554 76.8461 39.9579 72.8303 41.8227 66.0127C42.5096 72.2427 44.3555 76.8461 47.4419 76.878C52.1501 76.9159 53.1301 64.2429 57.5201 60.717C59.5142 59.1155 61.5456 59.1883 63.6815 59.1883C69.1696 59.1883 70.0768 60.2749 70.0768 65.1407C70.0768 66.768 70.0396 69.0769 69.1925 70.2052C68.2273 71.4624 65.7282 71.4275 64.3666 71.4275C63.0755 71.4275 59.8976 70.9855 59.5946 68.4362C59.5138 67.7219 59.5331 67.4845 59.5331 66.4578C59.5331 65.0679 58.6873 64.619 57.7598 64.619C56.4894 64.619 55.9956 65.6457 55.9956 66.8339V86.3245C55.9956 87.1116 56.2182 88.2429 57.5987 88.2429C59.1923 88.2429 59.5142 87.352 59.5142 85.9931V74.8708C60.6347 76.2297 62.1889 76.7726 65.7093 76.8143C72.3946 76.8772 73.8796 72.7917 73.8796 65.3386C73.8796 60.4099 73.0509 57.9933 72.2541 56.8308C70.8458 54.8214 69.3343 53.7469 63.5002 53.7469C59.2502 53.7469 57.0564 55.058 55.249 56.9666C51.1234 61.3168 49.651 71.6391 47.5222 71.6391C44.8175 71.6391 44.4529 60.8208 44.3744 55.7723C44.3142 53.4406 41.1381 53.2033 40.8369 54.7865C39.8982 60.7162 37.5957 71.4268 35.1042 71.4268C32.7267 71.4268 31.3256 61.2819 30.8377 54.8874C30.7551 53.9168 30.211 53.7151 29.4869 53.7849C27.3787 53.9835 27.0964 54.8881 27.218 56.319Z" fill="#ED018C"/>
</svg>
