<svg width="208" height="45" viewBox="0 0 208 45" fill="none" xmlns="http://www.w3.org/2000/svg">
<path d="M32.9141 1.6875C32.4766 2.6875 32.0859 3.5625 31.7422 4.3125C31.3984 5.0625 31.1016 5.70312 30.8516 6.23438C30.5703 6.82812 30.3359 7.35938 30.1484 7.82812C29.9922 8.17188 29.7891 8.64062 29.5391 9.23438C29.2891 9.76562 28.9766 10.4688 28.6016 11.3438C28.2578 12.1875 27.8047 13.2812 27.2422 14.625C26.9609 13.4688 26.6172 12.4531 26.2109 11.5781C25.8047 10.7031 25.3672 9.9375 24.8984 9.28125C24.4297 8.625 23.9297 8.09375 23.3984 7.6875C22.8984 7.25 22.3984 6.89062 21.8984 6.60938C20.7422 5.98438 19.5234 5.64062 18.2422 5.57812C16.5547 5.67188 15.2266 5.95312 14.2578 6.42188C13.3203 6.85938 12.6328 7.375 12.1953 7.96875C11.7578 8.53125 11.5234 9.125 11.4922 9.75C11.4609 10.3438 11.5391 10.8438 11.7266 11.25C11.8828 11.625 12.4297 12.0625 13.3672 12.5625C14.3359 13.0625 15.4922 13.6406 16.8359 14.2969C18.2109 14.9219 19.6797 15.6406 21.2422 16.4531C22.8047 17.2344 24.2422 18.1094 25.5547 19.0781C26.8984 20.0156 28.0234 21.0469 28.9297 22.1719C29.8672 23.2656 30.3828 24.4375 30.4766 25.6875C30.5703 27.2812 30.5547 28.7188 30.4297 30C30.3047 31.2812 29.8672 32.375 29.1172 33.2812C28.3672 34.1875 27.1953 34.9062 25.6016 35.4375C24.0391 35.9688 21.8672 36.2969 19.0859 36.4219C16.2109 36.5469 13.8516 36.3906 12.0078 35.9531C10.1641 35.5156 8.66406 34.9219 7.50781 34.1719C6.38281 33.4219 5.53906 32.5938 4.97656 31.6875C4.44531 30.7812 4.05469 29.9219 3.80469 29.1094C3.55469 28.2656 3.38281 27.5469 3.28906 26.9531C3.19531 26.3281 3.03906 25.9531 2.82031 25.8281C2.57031 25.6719 2.32031 25.5312 2.07031 25.4062C1.85156 25.2812 1.61719 25.1719 1.36719 25.0781C1.11719 24.9531 0.867188 24.8438 0.617188 24.75L14.2578 22.5469C13.4766 23.1719 12.8672 23.75 12.4297 24.2812C12.0234 24.8125 11.7109 25.2812 11.4922 25.6875C11.2422 26.1562 11.0703 26.5938 10.9766 27C10.9141 27.4375 11.0547 27.9844 11.3984 28.6406C11.7422 29.2969 12.2109 29.9375 12.8047 30.5625C13.4297 31.1562 14.1484 31.6562 14.9609 32.0625C15.7734 32.4688 16.6172 32.6406 17.4922 32.5781C18.5859 32.4844 19.4766 32.2188 20.1641 31.7812C20.8516 31.3125 21.3672 30.7344 21.7109 30.0469C22.0859 29.3594 22.3047 28.6094 22.3672 27.7969C22.4297 26.9844 22.3516 26.1875 22.1328 25.4062C21.9453 24.5938 21.6328 23.8438 21.1953 23.1562C20.7578 22.4375 20.2422 21.8438 19.6484 21.375C19.1172 21 18.2891 20.6406 17.1641 20.2969C16.0703 19.9531 14.8359 19.5781 13.4609 19.1719C12.1172 18.7656 10.7266 18.2969 9.28906 17.7656C7.88281 17.2344 6.60156 16.5781 5.44531 15.7969C4.32031 15.0156 3.41406 14.0938 2.72656 13.0312C2.07031 11.9688 1.82031 10.6875 1.97656 9.1875C2.10156 7.90625 2.50781 6.84375 3.19531 6C3.91406 5.125 4.80469 4.4375 5.86719 3.9375C6.96094 3.40625 8.16406 3.01562 9.47656 2.76562C10.8203 2.51562 12.1797 2.375 13.5547 2.34375C14.9609 2.28125 16.3359 2.29688 17.6797 2.39062C19.0547 2.48438 20.2891 2.59375 21.3828 2.71875C22.4766 2.84375 23.3984 2.96875 24.1484 3.09375C24.9297 3.1875 25.4141 3.25 25.6016 3.28125C26.4141 3.34375 27.2266 3.32812 28.0391 3.23438C28.7578 3.17188 29.5391 3.03125 30.3828 2.8125C31.2578 2.5625 32.1016 2.1875 32.9141 1.6875ZM33.1484 0.46875C33.8672 0.59375 34.5234 0.6875 35.1172 0.75C35.7109 0.78125 36.2109 0.8125 36.6172 0.84375C37.0859 0.875 37.4922 0.890625 37.8359 0.890625C38.3047 0.859375 38.8516 0.8125 39.4766 0.75C40.0078 0.6875 40.6484 0.609375 41.3984 0.515625C42.1797 0.421875 43.0703 0.296875 44.0703 0.140625C43.6016 0.390625 43.2109 0.640625 42.8984 0.890625C42.5859 1.10938 42.3359 1.34375 42.1484 1.59375C41.9297 1.875 41.7578 2.14062 41.6328 2.39062C41.4766 2.79688 41.3047 3.64062 41.1172 4.92188C40.9297 6.01562 40.6953 7.64062 40.4141 9.79688C40.1641 11.9531 39.8359 14.875 39.4297 18.5625C40.5547 17.4375 41.6172 16.5938 42.6172 16.0312C43.6484 15.4375 44.5547 15.0156 45.3359 14.7656C46.2422 14.4844 47.0859 14.3438 47.8672 14.3438C48.8359 14.4375 49.8203 14.75 50.8203 15.2812C51.8516 15.7812 52.8047 16.375 53.6797 17.0625C54.5859 17.75 55.3672 18.4844 56.0234 19.2656C56.7109 20.0469 57.1953 20.7344 57.4766 21.3281C57.6641 21.7344 57.7578 22.2656 57.7578 22.9219C57.7578 23.5469 57.6953 24.2344 57.5703 24.9844C57.4453 25.7344 57.2734 26.5 57.0547 27.2812C56.8359 28.0625 56.6172 28.7969 56.3984 29.4844C56.2109 30.1719 56.0391 30.7812 55.8828 31.3125C55.7266 31.8125 55.6328 32.1719 55.6016 32.3906C55.5391 32.8594 55.5703 33.3125 55.6953 33.75C55.7891 34.125 55.9766 34.5312 56.2578 34.9688C56.5391 35.375 56.9609 35.7188 57.5234 36C57.0859 35.9375 56.6172 35.8906 56.1172 35.8594C55.6484 35.7969 55.1953 35.75 54.7578 35.7188C54.2578 35.6875 53.7578 35.6719 53.2578 35.6719H51.5703C51.0391 35.6719 50.4297 35.6875 49.7422 35.7188C49.0547 35.7188 48.3047 35.7344 47.4922 35.7656C47.9297 35.6094 48.3047 35.4062 48.6172 35.1562C48.9297 34.875 49.1953 34.6094 49.4141 34.3594C49.6641 34.0781 49.8828 33.7812 50.0703 33.4688C50.1953 33.2188 50.3516 32.75 50.5391 32.0625C50.7266 31.3438 50.8984 30.5312 51.0547 29.625C51.2109 28.6875 51.3203 27.7031 51.3828 26.6719C51.4766 25.6406 51.4922 24.6562 51.4297 23.7188C51.3984 22.75 51.2578 21.8906 51.0078 21.1406C50.7891 20.3906 50.4453 19.8438 49.9766 19.5C48.5703 18.4375 47.2891 17.9219 46.1328 17.9531C45.0078 17.9531 43.9297 18.4062 42.8984 19.3125C42.5234 19.6562 42.1641 20 41.8203 20.3438C41.5078 20.6562 41.1641 21.0312 40.7891 21.4688C40.4141 21.875 40.0703 22.2969 39.7578 22.7344C39.7578 23.2031 39.7734 23.7188 39.8047 24.2812C39.8359 24.8438 39.8672 25.3906 39.8984 25.9219C39.9297 26.5156 39.9766 27.1094 40.0391 27.7031C40.1016 28.6094 40.1953 29.5 40.3203 30.375C40.4141 31.125 40.5391 31.9531 40.6953 32.8594C40.8516 33.7344 41.0547 34.5312 41.3047 35.25C40.8984 35.1875 40.4766 35.1719 40.0391 35.2031C39.6016 35.2031 39.1797 35.2031 38.7734 35.2031C38.3047 35.2344 37.8516 35.25 37.4141 35.25C37.0078 35.2812 36.5859 35.3281 36.1484 35.3906C35.7734 35.4531 35.3672 35.5156 34.9297 35.5781C34.4922 35.6094 34.0703 35.6719 33.6641 35.7656C34.0391 35.0469 34.3516 34.3438 34.6016 33.6562C34.8516 32.9375 35.0547 32.3125 35.2109 31.7812C35.3984 31.1562 35.5547 30.5469 35.6797 29.9531C35.7734 29.4844 35.8359 28.5938 35.8672 27.2812C35.9297 25.9375 35.9766 24.4062 36.0078 22.6875C36.0391 20.9375 36.0547 19.0938 36.0547 17.1562C36.0547 15.2188 36.0391 13.375 36.0078 11.625C35.9766 9.875 35.9141 8.34375 35.8203 7.03125C35.7578 5.71875 35.6797 4.8125 35.5859 4.3125C35.4609 3.8125 35.2891 3.3125 35.0703 2.8125C34.8828 2.375 34.6328 1.95312 34.3203 1.54688C34.0078 1.10938 33.6172 0.75 33.1484 0.46875ZM63.1484 17.0156C63.3047 16.8281 63.3984 16.4844 63.4297 15.9844C63.4922 15.4531 63.6172 14.8594 63.8047 14.2031C64.0234 13.5469 64.3828 12.8594 64.8828 12.1406C65.3828 11.4219 66.1953 10.75 67.3203 10.125C68.4141 9.5 69.4766 9.125 70.5078 9C71.5391 8.875 72.5234 8.92188 73.4609 9.14062C74.3984 9.35938 75.2734 9.70312 76.0859 10.1719C76.9297 10.6406 77.6953 11.1562 78.3828 11.7188C78.8516 12.0938 79.2266 12.6406 79.5078 13.3594C79.7891 14.0469 80.0078 14.8281 80.1641 15.7031C80.3203 16.5781 80.4297 17.5 80.4922 18.4688C80.5859 19.4062 80.6484 20.3281 80.6797 21.2344C80.7109 22.1094 80.7266 22.9219 80.7266 23.6719C80.7578 24.3906 80.8203 24.9844 80.9141 25.4531C81.0391 26.1406 81.2578 26.7344 81.5703 27.2344C81.8828 27.7031 82.2266 28.1094 82.6016 28.4531C82.9766 28.7656 83.3516 29.0156 83.7266 29.2031C84.1016 29.3906 84.4297 29.5312 84.7109 29.625C84.8984 29.7188 85.0703 29.7812 85.2266 29.8125C85.5391 29.9375 85.7578 29.9375 85.8828 29.8125C85.6953 30.25 85.5234 30.625 85.3672 30.9375C85.2109 31.25 85.0859 31.5156 84.9922 31.7344C84.8672 31.9844 84.7578 32.1875 84.6641 32.3438C84.5703 32.5312 84.4609 32.7031 84.3359 32.8594C84.2422 33.0156 84.1172 33.1875 83.9609 33.375C83.8047 33.5625 83.6484 33.7656 83.4922 33.9844C83.0859 33.8281 82.6953 33.6406 82.3203 33.4219C81.9766 33.2031 81.6641 33 81.3828 32.8125C81.0391 32.5938 80.7266 32.375 80.4453 32.1562C80.1641 31.9375 79.8984 31.6875 79.6484 31.4062C79.4297 31.1562 79.1953 30.8906 78.9453 30.6094C78.7266 30.3281 78.5391 30.0156 78.3828 29.6719C78.1953 30.0781 77.7422 30.6562 77.0234 31.4062C76.3359 32.1562 75.4297 32.8438 74.3047 33.4688C73.1797 34.0625 71.8672 34.4844 70.3672 34.7344C68.8984 34.9844 67.2734 34.8125 65.4922 34.2188C64.7109 33.9688 63.9766 33.6094 63.2891 33.1406C62.6016 32.6406 62.0078 32.0469 61.5078 31.3594C61.0391 30.6719 60.6953 29.8906 60.4766 29.0156C60.2891 28.1094 60.3047 27.1094 60.5234 26.0156C60.7422 24.9219 61.1328 24 61.6953 23.25C62.2578 22.5 62.9297 21.8906 63.7109 21.4219C64.4922 20.9531 65.3672 20.5938 66.3359 20.3438C67.3047 20.0938 68.3047 19.9219 69.3359 19.8281C70.1484 19.7969 70.9609 19.8438 71.7734 19.9688C72.4609 20.0938 73.1797 20.3281 73.9297 20.6719C74.6797 20.9844 75.3203 21.4688 75.8516 22.125C75.8203 20.4688 75.7578 19.1562 75.6641 18.1875C75.6016 17.1875 75.5391 16.4219 75.4766 15.8906C75.3516 15.2656 75.2422 14.8281 75.1484 14.5781C74.9922 14.3594 74.8203 14.1094 74.6328 13.8281C74.4766 13.5469 74.2734 13.2969 74.0234 13.0781C73.7734 12.8281 73.4609 12.625 73.0859 12.4688C72.7109 12.3125 72.2734 12.25 71.7734 12.2812C71.2422 12.3125 70.8203 12.4531 70.5078 12.7031C70.1953 12.9531 69.9453 13.25 69.7578 13.5938C69.6016 13.9062 69.5078 14.25 69.4766 14.625C69.4453 15 69.4609 15.3281 69.5234 15.6094C69.5859 15.7969 69.6797 16 69.8047 16.2188C69.9297 16.4062 70.1016 16.6094 70.3203 16.8281C70.5391 17.0469 70.8359 17.2344 71.2109 17.3906C70.4922 17.4844 69.8516 17.5625 69.2891 17.625C68.7266 17.6562 68.2422 17.7031 67.8359 17.7656C67.3672 17.8281 66.9609 17.875 66.6172 17.9062C66.2734 17.9375 65.8672 18 65.3984 18.0938C64.9922 18.1562 64.4922 18.2344 63.8984 18.3281C63.3047 18.4219 62.6172 18.5469 61.8359 18.7031C62.0234 18.4844 62.1953 18.2812 62.3516 18.0938C62.5078 17.875 62.6484 17.6875 62.7734 17.5312C62.8984 17.3438 63.0234 17.1719 63.1484 17.0156ZM70.1797 22.5938C69.6172 22.625 69.0547 22.7656 68.4922 23.0156C67.9297 23.2344 67.4297 23.5625 66.9922 24C66.5547 24.4062 66.1797 24.8906 65.8672 25.4531C65.5859 25.9844 65.4453 26.5781 65.4453 27.2344C65.4453 27.8906 65.6016 28.4688 65.9141 28.9688C66.2578 29.4375 66.6953 29.8281 67.2266 30.1406C67.7891 30.4531 68.3828 30.6406 69.0078 30.7031C69.6641 30.7656 70.3047 30.7031 70.9297 30.5156C71.5234 30.2969 72.0859 29.9531 72.6172 29.4844C73.1484 28.9844 73.6016 28.4531 73.9766 27.8906C74.3516 27.2969 74.6172 26.7188 74.7734 26.1562C74.9297 25.5625 74.9453 25.0781 74.8203 24.7031C74.5703 23.8906 74.0078 23.3281 73.1328 23.0156C72.2578 22.6719 71.2734 22.5312 70.1797 22.5938ZM85.1797 13.7812C85.8984 13.7188 86.5078 13.6562 87.0078 13.5938C87.5391 13.5312 87.9766 13.4688 88.3203 13.4062C88.7266 13.3438 89.0703 13.2812 89.3516 13.2188C89.6328 13.1875 89.9453 13.125 90.2891 13.0312C90.6016 12.9688 90.9453 12.8906 91.3203 12.7969C91.7266 12.6719 92.1641 12.5312 92.6328 12.375L92.3516 18.3281C93.0391 17.2344 93.8359 16.4062 94.7422 15.8438C95.6484 15.25 96.5078 14.8125 97.3203 14.5312C98.2891 14.1875 99.2578 13.9844 100.227 13.9219C101.227 13.9531 102.148 14.1094 102.992 14.3906C103.711 14.6406 104.43 15.0312 105.148 15.5625C105.898 16.0938 106.477 16.875 106.883 17.9062C107.945 16.8125 108.992 15.9688 110.023 15.375C111.086 14.75 112.023 14.2812 112.836 13.9688C113.805 13.625 114.711 13.4219 115.555 13.3594C116.68 13.3281 117.711 13.5156 118.648 13.9219C119.617 14.3281 120.461 14.8438 121.18 15.4688C121.898 16.0625 122.477 16.7031 122.914 17.3906C123.352 18.0469 123.602 18.625 123.664 19.125C123.758 19.8125 123.711 20.7031 123.523 21.7969C123.336 22.8594 123.117 23.9531 122.867 25.0781C122.617 26.1719 122.383 27.1875 122.164 28.125C121.977 29.0312 121.898 29.6719 121.93 30.0469C122.023 30.3594 122.242 30.7344 122.586 31.1719C122.898 31.5469 123.352 32.0156 123.945 32.5781C124.57 33.1094 125.461 33.7344 126.617 34.4531C125.617 34.4219 124.727 34.3906 123.945 34.3594C123.195 34.3281 122.555 34.2812 122.023 34.2188C121.398 34.1562 120.852 34.1094 120.383 34.0781C120.008 34.0781 119.555 34.0469 119.023 33.9844C118.586 33.9531 118.008 33.9062 117.289 33.8438C116.602 33.7812 115.805 33.7188 114.898 33.6562C115.242 33.5625 115.523 33.3906 115.742 33.1406C115.961 32.8594 116.148 32.5938 116.305 32.3438C116.461 32.0312 116.586 31.6875 116.68 31.3125C116.742 31 116.805 30.5 116.867 29.8125C116.93 29.125 116.977 28.3438 117.008 27.4688C117.07 26.5938 117.102 25.6719 117.102 24.7031C117.133 23.7344 117.133 22.8125 117.102 21.9375C117.07 21.0625 117.008 20.2656 116.914 19.5469C116.82 18.8281 116.695 18.2812 116.539 17.9062C116.414 17.625 116.195 17.4062 115.883 17.25C115.57 17.0625 115.211 16.9531 114.805 16.9219C114.398 16.8594 113.992 16.875 113.586 16.9688C113.18 17.0312 112.82 17.1562 112.508 17.3438C112.227 17.5625 111.852 17.8594 111.383 18.2344C110.977 18.5781 110.445 19.0469 109.789 19.6406C109.133 20.2344 108.305 20.9844 107.305 21.8906C107.211 23.8594 107.133 25.4531 107.07 26.6719C107.039 27.8594 107.008 28.7656 106.977 29.3906C106.945 30.1406 106.93 30.6562 106.93 30.9375C106.898 31.1875 106.914 31.4219 106.977 31.6406C107.039 32.1094 107.227 32.5469 107.539 32.9531C107.164 32.8594 106.758 32.7969 106.32 32.7656C105.914 32.7344 105.539 32.7031 105.195 32.6719C104.789 32.6406 104.383 32.625 103.977 32.625C103.633 32.625 103.258 32.6406 102.852 32.6719C102.508 32.7031 102.086 32.75 101.586 32.8125C101.086 32.8438 100.539 32.8906 99.9453 32.9531C100.195 32.7969 100.398 32.6094 100.555 32.3906C100.711 32.1719 100.836 31.9688 100.93 31.7812C101.055 31.5625 101.148 31.3594 101.211 31.1719C101.242 30.9844 101.305 30.5312 101.398 29.8125C101.492 29.0625 101.555 28.1875 101.586 27.1875C101.617 26.1875 101.617 25.1406 101.586 24.0469C101.555 22.9219 101.445 21.9062 101.258 21C101.07 20.0625 100.773 19.2969 100.367 18.7031C99.9922 18.1094 99.4922 17.8438 98.8672 17.9062C98.1172 17.9688 97.3516 18.1562 96.5703 18.4688C95.9141 18.7188 95.2109 19.0938 94.4609 19.5938C93.7109 20.0938 93.0078 20.7656 92.3516 21.6094C92.2266 23.9531 92.1484 25.8125 92.1172 27.1875C92.1172 28.5625 92.1328 29.6094 92.1641 30.3281C92.1953 31.1719 92.2266 31.75 92.2578 32.0625C92.2891 32.2812 92.3672 32.5 92.4922 32.7188C92.5859 32.9062 92.6953 33.125 92.8203 33.375C92.9766 33.625 93.1484 33.8594 93.3359 34.0781L85.8828 33.7031C86.1328 33.5781 86.3516 33.4219 86.5391 33.2344C86.7266 33.0156 86.8828 32.7969 87.0078 32.5781C87.1328 32.3281 87.2578 32.0781 87.3828 31.8281C87.4766 31.6094 87.5547 31.0938 87.6172 30.2812C87.7109 29.4688 87.7891 28.5156 87.8516 27.4219C87.9141 26.2969 87.9609 25.125 87.9922 23.9062C88.0547 22.6562 88.0859 21.5 88.0859 20.4375C88.1172 19.3438 88.1328 18.4219 88.1328 17.6719C88.1328 16.8906 88.1172 16.4219 88.0859 16.2656C87.9922 15.9531 87.8203 15.625 87.5703 15.2812C87.3516 15.0312 87.0547 14.7656 86.6797 14.4844C86.3047 14.1719 85.8047 13.9375 85.1797 13.7812ZM125.445 14.1562C126.445 14 127.258 13.875 127.883 13.7812C128.539 13.6562 129.07 13.5625 129.477 13.5C129.945 13.4062 130.305 13.3281 130.555 13.2656C130.805 13.2031 131.164 13.1094 131.633 12.9844C132.039 12.8594 132.57 12.7188 133.227 12.5625C133.883 12.375 134.711 12.125 135.711 11.8125C135.461 12.125 135.258 12.4062 135.102 12.6562C134.977 12.875 134.852 13.0625 134.727 13.2188C134.602 13.4062 134.492 13.5781 134.398 13.7344C134.305 13.8906 134.211 14.125 134.117 14.4375C134.055 14.6875 133.977 15.0469 133.883 15.5156C133.789 15.9531 133.711 16.5312 133.648 17.25C135.336 16.1875 136.883 15.3906 138.289 14.8594C139.727 14.3281 140.977 13.9531 142.039 13.7344C143.289 13.4844 144.414 13.3906 145.414 13.4531C146.664 13.5469 147.82 13.8281 148.883 14.2969C149.977 14.7344 150.961 15.2656 151.836 15.8906C152.711 16.5156 153.477 17.2031 154.133 17.9531C154.789 18.7031 155.305 19.4531 155.68 20.2031C155.93 20.7031 156.086 21.4219 156.148 22.3594C156.242 23.2969 156.148 24.2969 155.867 25.3594C155.586 26.4219 155.086 27.4688 154.367 28.5C153.68 29.5 152.695 30.2969 151.414 30.8906C149.195 31.8906 146.992 32.4531 144.805 32.5781C143.867 32.6406 142.898 32.6094 141.898 32.4844C140.93 32.3594 139.945 32.0938 138.945 31.6875C137.977 31.2812 137.039 30.7031 136.133 29.9531C135.227 29.1719 134.398 28.1719 133.648 26.9531C133.398 28.5469 133.211 29.9375 133.086 31.125C132.992 32.2812 132.93 33.25 132.898 34.0312C132.867 34.9375 132.867 35.7031 132.898 36.3281C132.961 36.9531 133.086 37.625 133.273 38.3438C133.43 38.9688 133.648 39.6875 133.93 40.5C134.242 41.3438 134.633 42.2188 135.102 43.125C134.914 43.0625 134.648 43.0156 134.305 42.9844C133.992 42.9844 133.664 43.0156 133.32 43.0781C132.945 43.1406 132.523 43.2031 132.055 43.2656C131.617 43.3594 131.133 43.4688 130.602 43.5938C130.164 43.6875 129.648 43.7969 129.055 43.9219C128.492 44.0781 127.914 44.25 127.32 44.4375C127.664 44.0312 127.93 43.5625 128.117 43.0312C128.336 42.5312 128.508 42.0625 128.633 41.625C128.758 41.0938 128.867 40.5625 128.961 40.0312C128.992 39.5625 129.039 38.6719 129.102 37.3594C129.195 36.0781 129.273 34.5938 129.336 32.9062C129.398 31.1875 129.445 29.3906 129.477 27.5156C129.539 25.6406 129.57 23.9062 129.57 22.3125C129.602 20.6875 129.602 19.3125 129.57 18.1875C129.539 17.0625 129.477 16.4062 129.383 16.2188C129.258 16 129.023 15.7656 128.68 15.5156C128.398 15.2969 127.992 15.0781 127.461 14.8594C126.961 14.6406 126.289 14.4062 125.445 14.1562ZM136.602 22.6875C136.383 23.4062 136.336 24.1094 136.461 24.7969C136.586 25.4844 136.898 26.125 137.398 26.7188C137.93 27.3125 138.664 27.8438 139.602 28.3125C140.57 28.75 141.773 29.0781 143.211 29.2969C144.648 29.5156 145.742 29.4844 146.492 29.2031C147.242 28.9219 147.789 28.4844 148.133 27.8906C148.508 27.2656 148.758 26.5469 148.883 25.7344C149.008 24.8906 149.164 24.0156 149.352 23.1094C149.539 22.2344 149.508 21.3438 149.258 20.4375C149.008 19.5 148.648 18.6562 148.18 17.9062C147.742 17.1562 147.242 16.5469 146.68 16.0781C146.148 15.5781 145.68 15.3281 145.273 15.3281C144.305 15.3281 143.352 15.5781 142.414 16.0781C141.477 16.5781 140.617 17.2031 139.836 17.9531C139.055 18.7031 138.367 19.5156 137.773 20.3906C137.211 21.2344 136.82 22 136.602 22.6875ZM170.633 15C171.445 15 172.289 15.1562 173.164 15.4688C174.039 15.75 174.883 16.125 175.695 16.5938C176.508 17.0312 177.242 17.5156 177.898 18.0469C178.586 18.5469 179.148 19.0312 179.586 19.5C180.367 20.3438 180.898 21.4844 181.18 22.9219C181.492 24.3281 181.555 25.7812 181.367 27.2812C181.18 28.75 180.742 30.1406 180.055 31.4531C179.367 32.7656 178.414 33.7344 177.195 34.3594C176.32 34.7969 175.461 35.1406 174.617 35.3906C173.773 35.6406 172.961 35.8281 172.18 35.9531C171.398 36.0781 170.664 36.1406 169.977 36.1406C169.289 36.1406 168.695 36.125 168.195 36.0938C167.258 36.0312 166.273 35.7031 165.242 35.1094C164.242 34.5156 163.289 33.7812 162.383 32.9062C161.508 32.0312 160.758 31.0781 160.133 30.0469C159.508 28.9844 159.133 27.9844 159.008 27.0469C158.82 25.7656 158.789 24.4219 158.914 23.0156C159.039 21.6094 159.492 20.3125 160.273 19.125C161.086 17.9375 162.305 16.9531 163.93 16.1719C165.586 15.3906 167.82 15 170.633 15ZM169.086 33.1875C169.43 33.25 169.898 33.1719 170.492 32.9531C171.086 32.7031 171.664 32.3125 172.227 31.7812C172.82 31.25 173.336 30.5781 173.773 29.7656C174.242 28.9219 174.523 27.9062 174.617 26.7188C174.711 25.5625 174.711 24.5 174.617 23.5312C174.555 22.5625 174.414 21.7188 174.195 21C173.977 20.25 173.727 19.6406 173.445 19.1719C173.164 18.7031 172.867 18.375 172.555 18.1875C172.023 17.9062 171.383 17.6875 170.633 17.5312C169.883 17.3438 169.242 17.375 168.711 17.625C168.461 17.75 168.148 18.0156 167.773 18.4219C167.398 18.8281 167.023 19.3438 166.648 19.9688C166.273 20.5625 165.93 21.25 165.617 22.0312C165.336 22.8125 165.133 23.625 165.008 24.4688C164.883 25.3125 164.852 26.2188 164.914 27.1875C165.008 28.1562 165.211 29.0781 165.523 29.9531C165.836 30.7969 166.273 31.5312 166.836 32.1562C167.43 32.75 168.18 33.0938 169.086 33.1875ZM196.18 15C196.992 15 197.836 15.1562 198.711 15.4688C199.586 15.75 200.43 16.125 201.242 16.5938C202.055 17.0312 202.789 17.5156 203.445 18.0469C204.133 18.5469 204.695 19.0312 205.133 19.5C205.914 20.3438 206.445 21.4844 206.727 22.9219C207.039 24.3281 207.102 25.7812 206.914 27.2812C206.727 28.75 206.289 30.1406 205.602 31.4531C204.914 32.7656 203.961 33.7344 202.742 34.3594C201.867 34.7969 201.008 35.1406 200.164 35.3906C199.32 35.6406 198.508 35.8281 197.727 35.9531C196.945 36.0781 196.211 36.1406 195.523 36.1406C194.836 36.1406 194.242 36.125 193.742 36.0938C192.805 36.0312 191.82 35.7031 190.789 35.1094C189.789 34.5156 188.836 33.7812 187.93 32.9062C187.055 32.0312 186.305 31.0781 185.68 30.0469C185.055 28.9844 184.68 27.9844 184.555 27.0469C184.367 25.7656 184.336 24.4219 184.461 23.0156C184.586 21.6094 185.039 20.3125 185.82 19.125C186.633 17.9375 187.852 16.9531 189.477 16.1719C191.133 15.3906 193.367 15 196.18 15ZM194.633 33.1875C194.977 33.25 195.445 33.1719 196.039 32.9531C196.633 32.7031 197.211 32.3125 197.773 31.7812C198.367 31.25 198.883 30.5781 199.32 29.7656C199.789 28.9219 200.07 27.9062 200.164 26.7188C200.258 25.5625 200.258 24.5 200.164 23.5312C200.102 22.5625 199.961 21.7188 199.742 21C199.523 20.25 199.273 19.6406 198.992 19.1719C198.711 18.7031 198.414 18.375 198.102 18.1875C197.57 17.9062 196.93 17.6875 196.18 17.5312C195.43 17.3438 194.789 17.375 194.258 17.625C194.008 17.75 193.695 18.0156 193.32 18.4219C192.945 18.8281 192.57 19.3438 192.195 19.9688C191.82 20.5625 191.477 21.25 191.164 22.0312C190.883 22.8125 190.68 23.625 190.555 24.4688C190.43 25.3125 190.398 26.2188 190.461 27.1875C190.555 28.1562 190.758 29.0781 191.07 29.9531C191.383 30.7969 191.82 31.5312 192.383 32.1562C192.977 32.75 193.727 33.0938 194.633 33.1875Z" fill="black"/>
</svg>
