<svg width="322" height="117" viewBox="0 0 322 117" fill="none" xmlns="http://www.w3.org/2000/svg">
<rect width="322" height="117" fill="white"/>
<path d="M95.9141 41.6875C95.4766 42.6875 95.0859 43.5625 94.7422 44.3125C94.3984 45.0625 94.1016 45.7031 93.8516 46.2344C93.5703 46.8281 93.3359 47.3594 93.1484 47.8281C92.9922 48.1719 92.7891 48.6406 92.5391 49.2344C92.2891 49.7656 91.9766 50.4688 91.6016 51.3438C91.2578 52.1875 90.8047 53.2812 90.2422 54.625C89.9609 53.4688 89.6172 52.4531 89.2109 51.5781C88.8047 50.7031 88.3672 49.9375 87.8984 49.2812C87.4297 48.625 86.9297 48.0938 86.3984 47.6875C85.8984 47.25 85.3984 46.8906 84.8984 46.6094C83.7422 45.9844 82.5234 45.6406 81.2422 45.5781C79.5547 45.6719 78.2266 45.9531 77.2578 46.4219C76.3203 46.8594 75.6328 47.375 75.1953 47.9688C74.7578 48.5312 74.5234 49.125 74.4922 49.75C74.4609 50.3438 74.5391 50.8438 74.7266 51.25C74.8828 51.625 75.4297 52.0625 76.3672 52.5625C77.3359 53.0625 78.4922 53.6406 79.8359 54.2969C81.2109 54.9219 82.6797 55.6406 84.2422 56.4531C85.8047 57.2344 87.2422 58.1094 88.5547 59.0781C89.8984 60.0156 91.0234 61.0469 91.9297 62.1719C92.8672 63.2656 93.3828 64.4375 93.4766 65.6875C93.5703 67.2812 93.5547 68.7188 93.4297 70C93.3047 71.2812 92.8672 72.375 92.1172 73.2812C91.3672 74.1875 90.1953 74.9062 88.6016 75.4375C87.0391 75.9688 84.8672 76.2969 82.0859 76.4219C79.2109 76.5469 76.8516 76.3906 75.0078 75.9531C73.1641 75.5156 71.6641 74.9219 70.5078 74.1719C69.3828 73.4219 68.5391 72.5938 67.9766 71.6875C67.4453 70.7812 67.0547 69.9219 66.8047 69.1094C66.5547 68.2656 66.3828 67.5469 66.2891 66.9531C66.1953 66.3281 66.0391 65.9531 65.8203 65.8281C65.5703 65.6719 65.3203 65.5312 65.0703 65.4062C64.8516 65.2812 64.6172 65.1719 64.3672 65.0781C64.1172 64.9531 63.8672 64.8438 63.6172 64.75L77.2578 62.5469C76.4766 63.1719 75.8672 63.75 75.4297 64.2812C75.0234 64.8125 74.7109 65.2812 74.4922 65.6875C74.2422 66.1562 74.0703 66.5938 73.9766 67C73.9141 67.4375 74.0547 67.9844 74.3984 68.6406C74.7422 69.2969 75.2109 69.9375 75.8047 70.5625C76.4297 71.1562 77.1484 71.6562 77.9609 72.0625C78.7734 72.4688 79.6172 72.6406 80.4922 72.5781C81.5859 72.4844 82.4766 72.2188 83.1641 71.7812C83.8516 71.3125 84.3672 70.7344 84.7109 70.0469C85.0859 69.3594 85.3047 68.6094 85.3672 67.7969C85.4297 66.9844 85.3516 66.1875 85.1328 65.4062C84.9453 64.5938 84.6328 63.8438 84.1953 63.1562C83.7578 62.4375 83.2422 61.8438 82.6484 61.375C82.1172 61 81.2891 60.6406 80.1641 60.2969C79.0703 59.9531 77.8359 59.5781 76.4609 59.1719C75.1172 58.7656 73.7266 58.2969 72.2891 57.7656C70.8828 57.2344 69.6016 56.5781 68.4453 55.7969C67.3203 55.0156 66.4141 54.0938 65.7266 53.0312C65.0703 51.9688 64.8203 50.6875 64.9766 49.1875C65.1016 47.9062 65.5078 46.8438 66.1953 46C66.9141 45.125 67.8047 44.4375 68.8672 43.9375C69.9609 43.4062 71.1641 43.0156 72.4766 42.7656C73.8203 42.5156 75.1797 42.375 76.5547 42.3438C77.9609 42.2812 79.3359 42.2969 80.6797 42.3906C82.0547 42.4844 83.2891 42.5938 84.3828 42.7188C85.4766 42.8438 86.3984 42.9688 87.1484 43.0938C87.9297 43.1875 88.4141 43.25 88.6016 43.2812C89.4141 43.3438 90.2266 43.3281 91.0391 43.2344C91.7578 43.1719 92.5391 43.0312 93.3828 42.8125C94.2578 42.5625 95.1016 42.1875 95.9141 41.6875ZM96.1484 40.4688C96.8672 40.5938 97.5234 40.6875 98.1172 40.75C98.7109 40.7812 99.2109 40.8125 99.6172 40.8438C100.086 40.875 100.492 40.8906 100.836 40.8906C101.305 40.8594 101.852 40.8125 102.477 40.75C103.008 40.6875 103.648 40.6094 104.398 40.5156C105.18 40.4219 106.07 40.2969 107.07 40.1406C106.602 40.3906 106.211 40.6406 105.898 40.8906C105.586 41.1094 105.336 41.3438 105.148 41.5938C104.93 41.875 104.758 42.1406 104.633 42.3906C104.477 42.7969 104.305 43.6406 104.117 44.9219C103.93 46.0156 103.695 47.6406 103.414 49.7969C103.164 51.9531 102.836 54.875 102.43 58.5625C103.555 57.4375 104.617 56.5938 105.617 56.0312C106.648 55.4375 107.555 55.0156 108.336 54.7656C109.242 54.4844 110.086 54.3438 110.867 54.3438C111.836 54.4375 112.82 54.75 113.82 55.2812C114.852 55.7812 115.805 56.375 116.68 57.0625C117.586 57.75 118.367 58.4844 119.023 59.2656C119.711 60.0469 120.195 60.7344 120.477 61.3281C120.664 61.7344 120.758 62.2656 120.758 62.9219C120.758 63.5469 120.695 64.2344 120.57 64.9844C120.445 65.7344 120.273 66.5 120.055 67.2812C119.836 68.0625 119.617 68.7969 119.398 69.4844C119.211 70.1719 119.039 70.7812 118.883 71.3125C118.727 71.8125 118.633 72.1719 118.602 72.3906C118.539 72.8594 118.57 73.3125 118.695 73.75C118.789 74.125 118.977 74.5312 119.258 74.9688C119.539 75.375 119.961 75.7188 120.523 76C120.086 75.9375 119.617 75.8906 119.117 75.8594C118.648 75.7969 118.195 75.75 117.758 75.7188C117.258 75.6875 116.758 75.6719 116.258 75.6719H114.57C114.039 75.6719 113.43 75.6875 112.742 75.7188C112.055 75.7188 111.305 75.7344 110.492 75.7656C110.93 75.6094 111.305 75.4062 111.617 75.1562C111.93 74.875 112.195 74.6094 112.414 74.3594C112.664 74.0781 112.883 73.7812 113.07 73.4688C113.195 73.2188 113.352 72.75 113.539 72.0625C113.727 71.3438 113.898 70.5312 114.055 69.625C114.211 68.6875 114.32 67.7031 114.383 66.6719C114.477 65.6406 114.492 64.6562 114.43 63.7188C114.398 62.75 114.258 61.8906 114.008 61.1406C113.789 60.3906 113.445 59.8438 112.977 59.5C111.57 58.4375 110.289 57.9219 109.133 57.9531C108.008 57.9531 106.93 58.4062 105.898 59.3125C105.523 59.6562 105.164 60 104.82 60.3438C104.508 60.6562 104.164 61.0312 103.789 61.4688C103.414 61.875 103.07 62.2969 102.758 62.7344C102.758 63.2031 102.773 63.7188 102.805 64.2812C102.836 64.8438 102.867 65.3906 102.898 65.9219C102.93 66.5156 102.977 67.1094 103.039 67.7031C103.102 68.6094 103.195 69.5 103.32 70.375C103.414 71.125 103.539 71.9531 103.695 72.8594C103.852 73.7344 104.055 74.5312 104.305 75.25C103.898 75.1875 103.477 75.1719 103.039 75.2031C102.602 75.2031 102.18 75.2031 101.773 75.2031C101.305 75.2344 100.852 75.25 100.414 75.25C100.008 75.2812 99.5859 75.3281 99.1484 75.3906C98.7734 75.4531 98.3672 75.5156 97.9297 75.5781C97.4922 75.6094 97.0703 75.6719 96.6641 75.7656C97.0391 75.0469 97.3516 74.3438 97.6016 73.6562C97.8516 72.9375 98.0547 72.3125 98.2109 71.7812C98.3984 71.1562 98.5547 70.5469 98.6797 69.9531C98.7734 69.4844 98.8359 68.5938 98.8672 67.2812C98.9297 65.9375 98.9766 64.4062 99.0078 62.6875C99.0391 60.9375 99.0547 59.0938 99.0547 57.1562C99.0547 55.2188 99.0391 53.375 99.0078 51.625C98.9766 49.875 98.9141 48.3438 98.8203 47.0312C98.7578 45.7188 98.6797 44.8125 98.5859 44.3125C98.4609 43.8125 98.2891 43.3125 98.0703 42.8125C97.8828 42.375 97.6328 41.9531 97.3203 41.5469C97.0078 41.1094 96.6172 40.75 96.1484 40.4688ZM126.148 57.0156C126.305 56.8281 126.398 56.4844 126.43 55.9844C126.492 55.4531 126.617 54.8594 126.805 54.2031C127.023 53.5469 127.383 52.8594 127.883 52.1406C128.383 51.4219 129.195 50.75 130.32 50.125C131.414 49.5 132.477 49.125 133.508 49C134.539 48.875 135.523 48.9219 136.461 49.1406C137.398 49.3594 138.273 49.7031 139.086 50.1719C139.93 50.6406 140.695 51.1562 141.383 51.7188C141.852 52.0938 142.227 52.6406 142.508 53.3594C142.789 54.0469 143.008 54.8281 143.164 55.7031C143.32 56.5781 143.43 57.5 143.492 58.4688C143.586 59.4062 143.648 60.3281 143.68 61.2344C143.711 62.1094 143.727 62.9219 143.727 63.6719C143.758 64.3906 143.82 64.9844 143.914 65.4531C144.039 66.1406 144.258 66.7344 144.57 67.2344C144.883 67.7031 145.227 68.1094 145.602 68.4531C145.977 68.7656 146.352 69.0156 146.727 69.2031C147.102 69.3906 147.43 69.5312 147.711 69.625C147.898 69.7188 148.07 69.7812 148.227 69.8125C148.539 69.9375 148.758 69.9375 148.883 69.8125C148.695 70.25 148.523 70.625 148.367 70.9375C148.211 71.25 148.086 71.5156 147.992 71.7344C147.867 71.9844 147.758 72.1875 147.664 72.3438C147.57 72.5312 147.461 72.7031 147.336 72.8594C147.242 73.0156 147.117 73.1875 146.961 73.375C146.805 73.5625 146.648 73.7656 146.492 73.9844C146.086 73.8281 145.695 73.6406 145.32 73.4219C144.977 73.2031 144.664 73 144.383 72.8125C144.039 72.5938 143.727 72.375 143.445 72.1562C143.164 71.9375 142.898 71.6875 142.648 71.4062C142.43 71.1562 142.195 70.8906 141.945 70.6094C141.727 70.3281 141.539 70.0156 141.383 69.6719C141.195 70.0781 140.742 70.6562 140.023 71.4062C139.336 72.1562 138.43 72.8438 137.305 73.4688C136.18 74.0625 134.867 74.4844 133.367 74.7344C131.898 74.9844 130.273 74.8125 128.492 74.2188C127.711 73.9688 126.977 73.6094 126.289 73.1406C125.602 72.6406 125.008 72.0469 124.508 71.3594C124.039 70.6719 123.695 69.8906 123.477 69.0156C123.289 68.1094 123.305 67.1094 123.523 66.0156C123.742 64.9219 124.133 64 124.695 63.25C125.258 62.5 125.93 61.8906 126.711 61.4219C127.492 60.9531 128.367 60.5938 129.336 60.3438C130.305 60.0938 131.305 59.9219 132.336 59.8281C133.148 59.7969 133.961 59.8438 134.773 59.9688C135.461 60.0938 136.18 60.3281 136.93 60.6719C137.68 60.9844 138.32 61.4688 138.852 62.125C138.82 60.4688 138.758 59.1562 138.664 58.1875C138.602 57.1875 138.539 56.4219 138.477 55.8906C138.352 55.2656 138.242 54.8281 138.148 54.5781C137.992 54.3594 137.82 54.1094 137.633 53.8281C137.477 53.5469 137.273 53.2969 137.023 53.0781C136.773 52.8281 136.461 52.625 136.086 52.4688C135.711 52.3125 135.273 52.25 134.773 52.2812C134.242 52.3125 133.82 52.4531 133.508 52.7031C133.195 52.9531 132.945 53.25 132.758 53.5938C132.602 53.9062 132.508 54.25 132.477 54.625C132.445 55 132.461 55.3281 132.523 55.6094C132.586 55.7969 132.68 56 132.805 56.2188C132.93 56.4062 133.102 56.6094 133.32 56.8281C133.539 57.0469 133.836 57.2344 134.211 57.3906C133.492 57.4844 132.852 57.5625 132.289 57.625C131.727 57.6562 131.242 57.7031 130.836 57.7656C130.367 57.8281 129.961 57.875 129.617 57.9062C129.273 57.9375 128.867 58 128.398 58.0938C127.992 58.1562 127.492 58.2344 126.898 58.3281C126.305 58.4219 125.617 58.5469 124.836 58.7031C125.023 58.4844 125.195 58.2812 125.352 58.0938C125.508 57.875 125.648 57.6875 125.773 57.5312C125.898 57.3438 126.023 57.1719 126.148 57.0156ZM133.18 62.5938C132.617 62.625 132.055 62.7656 131.492 63.0156C130.93 63.2344 130.43 63.5625 129.992 64C129.555 64.4062 129.18 64.8906 128.867 65.4531C128.586 65.9844 128.445 66.5781 128.445 67.2344C128.445 67.8906 128.602 68.4688 128.914 68.9688C129.258 69.4375 129.695 69.8281 130.227 70.1406C130.789 70.4531 131.383 70.6406 132.008 70.7031C132.664 70.7656 133.305 70.7031 133.93 70.5156C134.523 70.2969 135.086 69.9531 135.617 69.4844C136.148 68.9844 136.602 68.4531 136.977 67.8906C137.352 67.2969 137.617 66.7188 137.773 66.1562C137.93 65.5625 137.945 65.0781 137.82 64.7031C137.57 63.8906 137.008 63.3281 136.133 63.0156C135.258 62.6719 134.273 62.5312 133.18 62.5938ZM148.18 53.7812C148.898 53.7188 149.508 53.6562 150.008 53.5938C150.539 53.5312 150.977 53.4688 151.32 53.4062C151.727 53.3438 152.07 53.2812 152.352 53.2188C152.633 53.1875 152.945 53.125 153.289 53.0312C153.602 52.9688 153.945 52.8906 154.32 52.7969C154.727 52.6719 155.164 52.5312 155.633 52.375L155.352 58.3281C156.039 57.2344 156.836 56.4062 157.742 55.8438C158.648 55.25 159.508 54.8125 160.32 54.5312C161.289 54.1875 162.258 53.9844 163.227 53.9219C164.227 53.9531 165.148 54.1094 165.992 54.3906C166.711 54.6406 167.43 55.0312 168.148 55.5625C168.898 56.0938 169.477 56.875 169.883 57.9062C170.945 56.8125 171.992 55.9688 173.023 55.375C174.086 54.75 175.023 54.2812 175.836 53.9688C176.805 53.625 177.711 53.4219 178.555 53.3594C179.68 53.3281 180.711 53.5156 181.648 53.9219C182.617 54.3281 183.461 54.8438 184.18 55.4688C184.898 56.0625 185.477 56.7031 185.914 57.3906C186.352 58.0469 186.602 58.625 186.664 59.125C186.758 59.8125 186.711 60.7031 186.523 61.7969C186.336 62.8594 186.117 63.9531 185.867 65.0781C185.617 66.1719 185.383 67.1875 185.164 68.125C184.977 69.0312 184.898 69.6719 184.93 70.0469C185.023 70.3594 185.242 70.7344 185.586 71.1719C185.898 71.5469 186.352 72.0156 186.945 72.5781C187.57 73.1094 188.461 73.7344 189.617 74.4531C188.617 74.4219 187.727 74.3906 186.945 74.3594C186.195 74.3281 185.555 74.2812 185.023 74.2188C184.398 74.1562 183.852 74.1094 183.383 74.0781C183.008 74.0781 182.555 74.0469 182.023 73.9844C181.586 73.9531 181.008 73.9062 180.289 73.8438C179.602 73.7812 178.805 73.7188 177.898 73.6562C178.242 73.5625 178.523 73.3906 178.742 73.1406C178.961 72.8594 179.148 72.5938 179.305 72.3438C179.461 72.0312 179.586 71.6875 179.68 71.3125C179.742 71 179.805 70.5 179.867 69.8125C179.93 69.125 179.977 68.3438 180.008 67.4688C180.07 66.5938 180.102 65.6719 180.102 64.7031C180.133 63.7344 180.133 62.8125 180.102 61.9375C180.07 61.0625 180.008 60.2656 179.914 59.5469C179.82 58.8281 179.695 58.2812 179.539 57.9062C179.414 57.625 179.195 57.4062 178.883 57.25C178.57 57.0625 178.211 56.9531 177.805 56.9219C177.398 56.8594 176.992 56.875 176.586 56.9688C176.18 57.0312 175.82 57.1562 175.508 57.3438C175.227 57.5625 174.852 57.8594 174.383 58.2344C173.977 58.5781 173.445 59.0469 172.789 59.6406C172.133 60.2344 171.305 60.9844 170.305 61.8906C170.211 63.8594 170.133 65.4531 170.07 66.6719C170.039 67.8594 170.008 68.7656 169.977 69.3906C169.945 70.1406 169.93 70.6562 169.93 70.9375C169.898 71.1875 169.914 71.4219 169.977 71.6406C170.039 72.1094 170.227 72.5469 170.539 72.9531C170.164 72.8594 169.758 72.7969 169.32 72.7656C168.914 72.7344 168.539 72.7031 168.195 72.6719C167.789 72.6406 167.383 72.625 166.977 72.625C166.633 72.625 166.258 72.6406 165.852 72.6719C165.508 72.7031 165.086 72.75 164.586 72.8125C164.086 72.8438 163.539 72.8906 162.945 72.9531C163.195 72.7969 163.398 72.6094 163.555 72.3906C163.711 72.1719 163.836 71.9688 163.93 71.7812C164.055 71.5625 164.148 71.3594 164.211 71.1719C164.242 70.9844 164.305 70.5312 164.398 69.8125C164.492 69.0625 164.555 68.1875 164.586 67.1875C164.617 66.1875 164.617 65.1406 164.586 64.0469C164.555 62.9219 164.445 61.9062 164.258 61C164.07 60.0625 163.773 59.2969 163.367 58.7031C162.992 58.1094 162.492 57.8438 161.867 57.9062C161.117 57.9688 160.352 58.1562 159.57 58.4688C158.914 58.7188 158.211 59.0938 157.461 59.5938C156.711 60.0938 156.008 60.7656 155.352 61.6094C155.227 63.9531 155.148 65.8125 155.117 67.1875C155.117 68.5625 155.133 69.6094 155.164 70.3281C155.195 71.1719 155.227 71.75 155.258 72.0625C155.289 72.2812 155.367 72.5 155.492 72.7188C155.586 72.9062 155.695 73.125 155.82 73.375C155.977 73.625 156.148 73.8594 156.336 74.0781L148.883 73.7031C149.133 73.5781 149.352 73.4219 149.539 73.2344C149.727 73.0156 149.883 72.7969 150.008 72.5781C150.133 72.3281 150.258 72.0781 150.383 71.8281C150.477 71.6094 150.555 71.0938 150.617 70.2812C150.711 69.4688 150.789 68.5156 150.852 67.4219C150.914 66.2969 150.961 65.125 150.992 63.9062C151.055 62.6562 151.086 61.5 151.086 60.4375C151.117 59.3438 151.133 58.4219 151.133 57.6719C151.133 56.8906 151.117 56.4219 151.086 56.2656C150.992 55.9531 150.82 55.625 150.57 55.2812C150.352 55.0312 150.055 54.7656 149.68 54.4844C149.305 54.1719 148.805 53.9375 148.18 53.7812ZM188.445 54.1562C189.445 54 190.258 53.875 190.883 53.7812C191.539 53.6562 192.07 53.5625 192.477 53.5C192.945 53.4062 193.305 53.3281 193.555 53.2656C193.805 53.2031 194.164 53.1094 194.633 52.9844C195.039 52.8594 195.57 52.7188 196.227 52.5625C196.883 52.375 197.711 52.125 198.711 51.8125C198.461 52.125 198.258 52.4062 198.102 52.6562C197.977 52.875 197.852 53.0625 197.727 53.2188C197.602 53.4062 197.492 53.5781 197.398 53.7344C197.305 53.8906 197.211 54.125 197.117 54.4375C197.055 54.6875 196.977 55.0469 196.883 55.5156C196.789 55.9531 196.711 56.5312 196.648 57.25C198.336 56.1875 199.883 55.3906 201.289 54.8594C202.727 54.3281 203.977 53.9531 205.039 53.7344C206.289 53.4844 207.414 53.3906 208.414 53.4531C209.664 53.5469 210.82 53.8281 211.883 54.2969C212.977 54.7344 213.961 55.2656 214.836 55.8906C215.711 56.5156 216.477 57.2031 217.133 57.9531C217.789 58.7031 218.305 59.4531 218.68 60.2031C218.93 60.7031 219.086 61.4219 219.148 62.3594C219.242 63.2969 219.148 64.2969 218.867 65.3594C218.586 66.4219 218.086 67.4688 217.367 68.5C216.68 69.5 215.695 70.2969 214.414 70.8906C212.195 71.8906 209.992 72.4531 207.805 72.5781C206.867 72.6406 205.898 72.6094 204.898 72.4844C203.93 72.3594 202.945 72.0938 201.945 71.6875C200.977 71.2812 200.039 70.7031 199.133 69.9531C198.227 69.1719 197.398 68.1719 196.648 66.9531C196.398 68.5469 196.211 69.9375 196.086 71.125C195.992 72.2812 195.93 73.25 195.898 74.0312C195.867 74.9375 195.867 75.7031 195.898 76.3281C195.961 76.9531 196.086 77.625 196.273 78.3438C196.43 78.9688 196.648 79.6875 196.93 80.5C197.242 81.3438 197.633 82.2188 198.102 83.125C197.914 83.0625 197.648 83.0156 197.305 82.9844C196.992 82.9844 196.664 83.0156 196.32 83.0781C195.945 83.1406 195.523 83.2031 195.055 83.2656C194.617 83.3594 194.133 83.4688 193.602 83.5938C193.164 83.6875 192.648 83.7969 192.055 83.9219C191.492 84.0781 190.914 84.25 190.32 84.4375C190.664 84.0312 190.93 83.5625 191.117 83.0312C191.336 82.5312 191.508 82.0625 191.633 81.625C191.758 81.0938 191.867 80.5625 191.961 80.0312C191.992 79.5625 192.039 78.6719 192.102 77.3594C192.195 76.0781 192.273 74.5938 192.336 72.9062C192.398 71.1875 192.445 69.3906 192.477 67.5156C192.539 65.6406 192.57 63.9062 192.57 62.3125C192.602 60.6875 192.602 59.3125 192.57 58.1875C192.539 57.0625 192.477 56.4062 192.383 56.2188C192.258 56 192.023 55.7656 191.68 55.5156C191.398 55.2969 190.992 55.0781 190.461 54.8594C189.961 54.6406 189.289 54.4062 188.445 54.1562ZM199.602 62.6875C199.383 63.4062 199.336 64.1094 199.461 64.7969C199.586 65.4844 199.898 66.125 200.398 66.7188C200.93 67.3125 201.664 67.8438 202.602 68.3125C203.57 68.75 204.773 69.0781 206.211 69.2969C207.648 69.5156 208.742 69.4844 209.492 69.2031C210.242 68.9219 210.789 68.4844 211.133 67.8906C211.508 67.2656 211.758 66.5469 211.883 65.7344C212.008 64.8906 212.164 64.0156 212.352 63.1094C212.539 62.2344 212.508 61.3438 212.258 60.4375C212.008 59.5 211.648 58.6562 211.18 57.9062C210.742 57.1562 210.242 56.5469 209.68 56.0781C209.148 55.5781 208.68 55.3281 208.273 55.3281C207.305 55.3281 206.352 55.5781 205.414 56.0781C204.477 56.5781 203.617 57.2031 202.836 57.9531C202.055 58.7031 201.367 59.5156 200.773 60.3906C200.211 61.2344 199.82 62 199.602 62.6875ZM233.633 55C234.445 55 235.289 55.1562 236.164 55.4688C237.039 55.75 237.883 56.125 238.695 56.5938C239.508 57.0312 240.242 57.5156 240.898 58.0469C241.586 58.5469 242.148 59.0312 242.586 59.5C243.367 60.3438 243.898 61.4844 244.18 62.9219C244.492 64.3281 244.555 65.7812 244.367 67.2812C244.18 68.75 243.742 70.1406 243.055 71.4531C242.367 72.7656 241.414 73.7344 240.195 74.3594C239.32 74.7969 238.461 75.1406 237.617 75.3906C236.773 75.6406 235.961 75.8281 235.18 75.9531C234.398 76.0781 233.664 76.1406 232.977 76.1406C232.289 76.1406 231.695 76.125 231.195 76.0938C230.258 76.0312 229.273 75.7031 228.242 75.1094C227.242 74.5156 226.289 73.7812 225.383 72.9062C224.508 72.0312 223.758 71.0781 223.133 70.0469C222.508 68.9844 222.133 67.9844 222.008 67.0469C221.82 65.7656 221.789 64.4219 221.914 63.0156C222.039 61.6094 222.492 60.3125 223.273 59.125C224.086 57.9375 225.305 56.9531 226.93 56.1719C228.586 55.3906 230.82 55 233.633 55ZM232.086 73.1875C232.43 73.25 232.898 73.1719 233.492 72.9531C234.086 72.7031 234.664 72.3125 235.227 71.7812C235.82 71.25 236.336 70.5781 236.773 69.7656C237.242 68.9219 237.523 67.9062 237.617 66.7188C237.711 65.5625 237.711 64.5 237.617 63.5312C237.555 62.5625 237.414 61.7188 237.195 61C236.977 60.25 236.727 59.6406 236.445 59.1719C236.164 58.7031 235.867 58.375 235.555 58.1875C235.023 57.9062 234.383 57.6875 233.633 57.5312C232.883 57.3438 232.242 57.375 231.711 57.625C231.461 57.75 231.148 58.0156 230.773 58.4219C230.398 58.8281 230.023 59.3438 229.648 59.9688C229.273 60.5625 228.93 61.25 228.617 62.0312C228.336 62.8125 228.133 63.625 228.008 64.4688C227.883 65.3125 227.852 66.2188 227.914 67.1875C228.008 68.1562 228.211 69.0781 228.523 69.9531C228.836 70.7969 229.273 71.5312 229.836 72.1562C230.43 72.75 231.18 73.0938 232.086 73.1875ZM259.18 55C259.992 55 260.836 55.1562 261.711 55.4688C262.586 55.75 263.43 56.125 264.242 56.5938C265.055 57.0312 265.789 57.5156 266.445 58.0469C267.133 58.5469 267.695 59.0312 268.133 59.5C268.914 60.3438 269.445 61.4844 269.727 62.9219C270.039 64.3281 270.102 65.7812 269.914 67.2812C269.727 68.75 269.289 70.1406 268.602 71.4531C267.914 72.7656 266.961 73.7344 265.742 74.3594C264.867 74.7969 264.008 75.1406 263.164 75.3906C262.32 75.6406 261.508 75.8281 260.727 75.9531C259.945 76.0781 259.211 76.1406 258.523 76.1406C257.836 76.1406 257.242 76.125 256.742 76.0938C255.805 76.0312 254.82 75.7031 253.789 75.1094C252.789 74.5156 251.836 73.7812 250.93 72.9062C250.055 72.0312 249.305 71.0781 248.68 70.0469C248.055 68.9844 247.68 67.9844 247.555 67.0469C247.367 65.7656 247.336 64.4219 247.461 63.0156C247.586 61.6094 248.039 60.3125 248.82 59.125C249.633 57.9375 250.852 56.9531 252.477 56.1719C254.133 55.3906 256.367 55 259.18 55ZM257.633 73.1875C257.977 73.25 258.445 73.1719 259.039 72.9531C259.633 72.7031 260.211 72.3125 260.773 71.7812C261.367 71.25 261.883 70.5781 262.32 69.7656C262.789 68.9219 263.07 67.9062 263.164 66.7188C263.258 65.5625 263.258 64.5 263.164 63.5312C263.102 62.5625 262.961 61.7188 262.742 61C262.523 60.25 262.273 59.6406 261.992 59.1719C261.711 58.7031 261.414 58.375 261.102 58.1875C260.57 57.9062 259.93 57.6875 259.18 57.5312C258.43 57.3438 257.789 57.375 257.258 57.625C257.008 57.75 256.695 58.0156 256.32 58.4219C255.945 58.8281 255.57 59.3438 255.195 59.9688C254.82 60.5625 254.477 61.25 254.164 62.0312C253.883 62.8125 253.68 63.625 253.555 64.4688C253.43 65.3125 253.398 66.2188 253.461 67.1875C253.555 68.1562 253.758 69.0781 254.07 69.9531C254.383 70.7969 254.82 71.5312 255.383 72.1562C255.977 72.75 256.727 73.0938 257.633 73.1875Z" fill="#28C820"/>
</svg>
