<svg width="322" height="117" viewBox="0 0 322 117" fill="none" xmlns="http://www.w3.org/2000/svg">
<rect width="322" height="117" fill="white"/>
<path d="M121.672 41.6875C121.234 42.6875 120.844 43.5625 120.5 44.3125C120.156 45.0625 119.859 45.7031 119.609 46.2344C119.328 46.8281 119.094 47.3594 118.906 47.8281C118.75 48.1719 118.547 48.6406 118.297 49.2344C118.047 49.7656 117.734 50.4688 117.359 51.3438C117.016 52.1875 116.562 53.2812 116 54.625C115.719 53.4688 115.375 52.4531 114.969 51.5781C114.562 50.7031 114.125 49.9375 113.656 49.2812C113.188 48.625 112.688 48.0938 112.156 47.6875C111.656 47.25 111.156 46.8906 110.656 46.6094C109.5 45.9844 108.281 45.6406 107 45.5781C105.312 45.6719 103.984 45.9531 103.016 46.4219C102.078 46.8594 101.391 47.375 100.953 47.9688C100.516 48.5312 100.281 49.125 100.25 49.75C100.219 50.3438 100.297 50.8438 100.484 51.25C100.641 51.625 101.188 52.0625 102.125 52.5625C103.094 53.0625 104.25 53.6406 105.594 54.2969C106.969 54.9219 108.438 55.6406 110 56.4531C111.562 57.2344 113 58.1094 114.312 59.0781C115.656 60.0156 116.781 61.0469 117.688 62.1719C118.625 63.2656 119.141 64.4375 119.234 65.6875C119.328 67.2812 119.312 68.7188 119.188 70C119.062 71.2812 118.625 72.375 117.875 73.2812C117.125 74.1875 115.953 74.9062 114.359 75.4375C112.797 75.9688 110.625 76.2969 107.844 76.4219C104.969 76.5469 102.609 76.3906 100.766 75.9531C98.9219 75.5156 97.4219 74.9219 96.2656 74.1719C95.1406 73.4219 94.2969 72.5938 93.7344 71.6875C93.2031 70.7812 92.8125 69.9219 92.5625 69.1094C92.3125 68.2656 92.1406 67.5469 92.0469 66.9531C91.9531 66.3281 91.7969 65.9531 91.5781 65.8281C91.3281 65.6719 91.0781 65.5312 90.8281 65.4062C90.6094 65.2812 90.375 65.1719 90.125 65.0781C89.875 64.9531 89.625 64.8438 89.375 64.75L103.016 62.5469C102.234 63.1719 101.625 63.75 101.188 64.2812C100.781 64.8125 100.469 65.2812 100.25 65.6875C100 66.1562 99.8281 66.5938 99.7344 67C99.6719 67.4375 99.8125 67.9844 100.156 68.6406C100.5 69.2969 100.969 69.9375 101.562 70.5625C102.188 71.1562 102.906 71.6562 103.719 72.0625C104.531 72.4688 105.375 72.6406 106.25 72.5781C107.344 72.4844 108.234 72.2188 108.922 71.7812C109.609 71.3125 110.125 70.7344 110.469 70.0469C110.844 69.3594 111.062 68.6094 111.125 67.7969C111.188 66.9844 111.109 66.1875 110.891 65.4062C110.703 64.5938 110.391 63.8438 109.953 63.1562C109.516 62.4375 109 61.8438 108.406 61.375C107.875 61 107.047 60.6406 105.922 60.2969C104.828 59.9531 103.594 59.5781 102.219 59.1719C100.875 58.7656 99.4844 58.2969 98.0469 57.7656C96.6406 57.2344 95.3594 56.5781 94.2031 55.7969C93.0781 55.0156 92.1719 54.0938 91.4844 53.0312C90.8281 51.9688 90.5781 50.6875 90.7344 49.1875C90.8594 47.9062 91.2656 46.8438 91.9531 46C92.6719 45.125 93.5625 44.4375 94.625 43.9375C95.7188 43.4062 96.9219 43.0156 98.2344 42.7656C99.5781 42.5156 100.938 42.375 102.312 42.3438C103.719 42.2812 105.094 42.2969 106.438 42.3906C107.812 42.4844 109.047 42.5938 110.141 42.7188C111.234 42.8438 112.156 42.9688 112.906 43.0938C113.688 43.1875 114.172 43.25 114.359 43.2812C115.172 43.3438 115.984 43.3281 116.797 43.2344C117.516 43.1719 118.297 43.0312 119.141 42.8125C120.016 42.5625 120.859 42.1875 121.672 41.6875ZM121.578 46.4688C122.516 46.5625 123.297 46.6406 123.922 46.7031C124.578 46.7656 125.109 46.8125 125.516 46.8438C125.984 46.875 126.359 46.8906 126.641 46.8906C126.922 46.9219 127.297 46.9219 127.766 46.8906C128.172 46.8594 128.703 46.8281 129.359 46.7969C130.016 46.7344 130.844 46.6406 131.844 46.5156C131.625 46.8281 131.453 47.1094 131.328 47.3594C131.203 47.5781 131.094 47.7812 131 47.9688L130.719 48.5312C130.656 48.7188 130.594 48.9062 130.531 49.0938C130.469 49.25 130.406 49.4375 130.344 49.6562C130.312 49.875 130.281 50.1094 130.25 50.3594H137.469L136.812 54.1562L130.203 53.7812C130.047 55.375 129.938 56.6094 129.875 57.4844C129.812 58.3594 129.75 59 129.688 59.4062L129.594 60.25C129.5 61.4375 129.406 62.7344 129.312 64.1406C129.219 65.5156 129.188 66.7969 129.219 67.9844C129.25 69.1719 129.359 70.1719 129.547 70.9844C129.734 71.7656 130.062 72.1562 130.531 72.1562C131 72.1562 131.438 72.0312 131.844 71.7812C132.25 71.5312 132.594 71.2344 132.875 70.8906C133.188 70.5469 133.422 70.2031 133.578 69.8594C133.734 69.4844 133.812 69.2031 133.812 69.0156C133.812 68.8281 133.766 68.6094 133.672 68.3594C133.516 67.8906 133.234 67.2969 132.828 66.5781C133.734 66.7969 134.531 67.0156 135.219 67.2344C135.562 67.3594 135.875 67.4844 136.156 67.6094C136.469 67.7344 136.828 67.875 137.234 68.0312C137.578 68.1875 138.016 68.375 138.547 68.5938C139.078 68.8125 139.703 69.0781 140.422 69.3906C139.734 69.5156 139.234 69.7188 138.922 70C138.734 70.125 138.594 70.2656 138.5 70.4219C138.281 70.7656 138.031 71.2344 137.75 71.8281C137.469 72.3906 137.047 72.9531 136.484 73.5156C135.922 74.0781 135.156 74.5781 134.188 75.0156C133.25 75.4531 131.984 75.7031 130.391 75.7656C128.734 75.8281 127.469 75.5469 126.594 74.9219C125.75 74.2969 125.125 73.5781 124.719 72.7656C124.344 71.9219 124.125 71.0938 124.062 70.2812C124 69.4688 123.953 68.9219 123.922 68.6406C123.891 68.3594 123.891 67.6562 123.922 66.5312C123.953 65.4062 124 64.1719 124.062 62.8281C124.125 61.4531 124.188 60.1406 124.25 58.8906C124.312 57.6094 124.344 56.6719 124.344 56.0781C124.344 55.7656 124.359 55.4375 124.391 55.0938C124.391 54.8125 124.391 54.5156 124.391 54.2031C124.422 53.8594 124.438 53.5312 124.438 53.2188L117.641 53.1719L117.359 50.5L124.203 50.6875C124.141 50.3438 124.062 50.0312 123.969 49.75C123.906 49.4375 123.844 49.1875 123.781 49C123.688 48.7812 123.594 48.5938 123.5 48.4375C123.375 48.2812 123.234 48.1094 123.078 47.9219C122.922 47.7656 122.719 47.5625 122.469 47.3125C122.219 47.0625 121.922 46.7812 121.578 46.4688ZM136.109 52.0469C136.734 52.1406 137.297 52.2188 137.797 52.2812C138.266 52.3125 138.688 52.3438 139.062 52.375C139.469 52.4062 139.859 52.4219 140.234 52.4219C140.578 52.4219 141.016 52.4062 141.547 52.375C141.984 52.3438 142.547 52.3125 143.234 52.2812C143.953 52.2188 144.797 52.1406 145.766 52.0469C145.703 52.1719 145.578 52.5625 145.391 53.2188C145.203 53.8438 145.016 54.625 144.828 55.5625C144.641 56.4688 144.469 57.4844 144.312 58.6094C144.188 59.7031 144.125 60.7969 144.125 61.8906C144.156 62.9531 144.297 63.9688 144.547 64.9375C144.797 65.875 145.203 66.6406 145.766 67.2344C146.953 68.4531 148 69.1875 148.906 69.4375C149.844 69.6875 150.656 69.6562 151.344 69.3438C152.031 69.0312 152.594 68.5625 153.031 67.9375C153.469 67.3125 153.781 66.7344 153.969 66.2031C154.438 64.7656 154.719 63.25 154.812 61.6562C154.875 60.2812 154.766 58.75 154.484 57.0625C154.203 55.375 153.531 53.6562 152.469 51.9062C153.281 51.9688 153.984 52.0156 154.578 52.0469C155.172 52.0781 155.688 52.1094 156.125 52.1406C156.625 52.1719 157.062 52.2031 157.438 52.2344C157.781 52.2656 158.188 52.2656 158.656 52.2344C159.062 52.2344 159.547 52.2188 160.109 52.1875C160.703 52.125 161.359 52.0625 162.078 52C162.203 55.0625 162.312 57.7969 162.406 60.2031C162.5 62.5781 162.562 64.6875 162.594 66.5312C162.656 68.3438 162.688 69.9219 162.688 71.2656C162.688 72.5781 162.688 73.6875 162.688 74.5938C162.656 76.75 162.562 78.1719 162.406 78.8594C162.156 79.8281 161.703 80.7969 161.047 81.7656C160.422 82.7344 159.625 83.5938 158.656 84.3438C157.688 85.125 156.562 85.7188 155.281 86.125C154.031 86.5625 152.656 86.7188 151.156 86.5938C149.688 86.4688 148.516 86.2656 147.641 85.9844C146.797 85.7344 146.125 85.4375 145.625 85.0938C145.156 84.75 144.812 84.3906 144.594 84.0156C144.406 83.6406 144.266 83.25 144.172 82.8438C144.078 82.4688 143.984 82.1094 143.891 81.7656C143.797 81.4219 143.609 81.125 143.328 80.875C142.984 80.5938 142.625 80.3125 142.25 80.0312C141.906 79.7812 141.531 79.5312 141.125 79.2812C140.75 79.0312 140.375 78.8281 140 78.6719L149.984 78.1094C149.703 78.4844 149.5 78.8281 149.375 79.1406C149.25 79.4531 149.172 79.7188 149.141 79.9375C149.109 80.2188 149.125 80.4531 149.188 80.6406C149.312 81.0156 149.531 81.4219 149.844 81.8594C150.188 82.3281 150.625 82.6875 151.156 82.9375C151.688 83.2188 152.312 83.3125 153.031 83.2188C153.781 83.125 154.625 82.7344 155.562 82.0469C156.344 81.4531 157 80.5 157.531 79.1875C157.969 78.0625 158.312 76.4844 158.562 74.4531C158.812 72.4219 158.766 69.75 158.422 66.4375C157.859 68.375 157.094 69.8594 156.125 70.8906C155.156 71.9219 154.188 72.6719 153.219 73.1406C152.094 73.7031 150.922 74 149.703 74.0312C148.078 73.9688 146.688 73.7656 145.531 73.4219C144.375 73.0469 143.422 72.5469 142.672 71.9219C141.922 71.2969 141.328 70.5625 140.891 69.7188C140.484 68.8438 140.188 67.875 140 66.8125C139.812 65.75 139.719 64.6875 139.719 63.625C139.719 62.5312 139.719 61.5156 139.719 60.5781C139.75 59.6406 139.766 58.7969 139.766 58.0469C139.766 57.2656 139.688 56.6406 139.531 56.1719C139.344 55.7031 139.094 55.2344 138.781 54.7656C138.531 54.3594 138.188 53.9219 137.75 53.4531C137.281 52.9531 136.734 52.4844 136.109 52.0469ZM166.906 77.3125C167.219 76.8438 167.469 76.4062 167.656 76C167.844 75.5938 168 75.25 168.125 74.9688C168.25 74.625 168.344 74.3125 168.406 74.0312C168.438 73.8438 168.453 73.2969 168.453 72.3906C168.453 71.4844 168.422 70.3438 168.359 68.9688C168.328 67.5938 168.281 66.0469 168.219 64.3281C168.188 62.6094 168.125 60.8594 168.031 59.0781C167.969 57.2969 167.891 55.5625 167.797 53.875C167.734 52.1875 167.672 50.6719 167.609 49.3281C167.547 47.9531 167.484 46.8281 167.422 45.9531C167.359 45.0781 167.312 44.5781 167.281 44.4531C167.219 44.2656 167.109 44.0781 166.953 43.8906C166.641 43.5156 166.109 43.1562 165.359 42.8125C166.953 42.4062 168.172 42.0781 169.016 41.8281C169.516 41.7031 169.953 41.5781 170.328 41.4531C170.672 41.3281 171.016 41.2031 171.359 41.0781C171.641 40.9531 171.953 40.8125 172.297 40.6562C172.641 40.4688 172.953 40.2656 173.234 40.0469C173.078 40.9531 172.953 41.8281 172.859 42.6719C172.766 43.5156 172.688 44.2969 172.625 45.0156C172.562 45.8281 172.531 46.6094 172.531 47.3594C172.375 48.8906 172.281 50.5625 172.25 52.375C172.25 54.1562 172.266 55.9688 172.297 57.8125C172.328 59.6562 172.391 61.4531 172.484 63.2031C172.578 64.9531 172.672 66.5469 172.766 67.9844C172.891 69.3906 173 70.5938 173.094 71.5938C173.219 72.5625 173.312 73.1875 173.375 73.4688C173.5 73.9375 173.625 74.3906 173.75 74.8281C173.875 75.2031 174.016 75.5938 174.172 76C174.328 76.4375 174.516 76.7812 174.734 77.0312H170.188C169.781 77.0312 169.391 77.0469 169.016 77.0781C168.672 77.1094 168.312 77.1406 167.938 77.1719C167.562 77.2031 167.219 77.25 166.906 77.3125ZM176.422 55.0469L185.047 55.1406C184.547 57.0469 184.172 58.6719 183.922 60.0156C183.703 61.3594 183.562 62.4844 183.5 63.3906C183.375 64.4219 183.344 65.2969 183.406 66.0156C183.5 66.6719 183.656 67.375 183.875 68.125C184.062 68.75 184.344 69.4688 184.719 70.2812C185.094 71.0938 185.594 71.9062 186.219 72.7188C185.844 72.5938 185.438 72.5 185 72.4375C184.562 72.375 184.156 72.3281 183.781 72.2969C183.344 72.2656 182.906 72.2656 182.469 72.2969C182.031 72.3281 181.547 72.375 181.016 72.4375C180.578 72.5 180.047 72.5781 179.422 72.6719C178.797 72.7656 178.141 72.8906 177.453 73.0469C177.922 71.6406 178.281 70.4219 178.531 69.3906C178.812 68.3594 179.016 67.5 179.141 66.8125C179.266 66 179.344 65.3438 179.375 64.8438C179.375 64.2188 179.375 63.5156 179.375 62.7344C179.375 61.9219 179.375 61.1406 179.375 60.3906C179.375 59.6406 179.359 58.9844 179.328 58.4219C179.297 57.8281 179.234 57.4531 179.141 57.2969L178.672 56.8281C178.484 56.6719 178.203 56.4531 177.828 56.1719C177.484 55.8594 177.016 55.4844 176.422 55.0469ZM179.75 47.8281C180.406 47.4844 181.062 47.3906 181.719 47.5469C182.406 47.7031 182.938 48 183.312 48.4375C183.688 48.875 183.812 49.3906 183.688 49.9844C183.594 50.5781 183.094 51.1562 182.188 51.7188C181.281 52.25 180.484 52.4375 179.797 52.2812C179.109 52.125 178.625 51.7969 178.344 51.2969C178.062 50.7969 178.016 50.2188 178.203 49.5625C178.391 48.875 178.906 48.2969 179.75 47.8281ZM189.359 70.8438C189.578 69.8125 189.734 68.9062 189.828 68.125C189.953 67.3125 190.047 66.6406 190.109 66.1094C190.172 65.4844 190.203 64.9531 190.203 64.5156C190.172 63.9844 190.141 63.3594 190.109 62.6406C190.109 61.8906 190.078 61.1562 190.016 60.4375C189.984 59.6875 189.938 59.0312 189.875 58.4688C189.812 57.875 189.734 57.4531 189.641 57.2031C189.516 56.9531 189.344 56.6875 189.125 56.4062C188.688 55.875 188.047 55.3594 187.203 54.8594C187.922 54.7031 188.531 54.5781 189.031 54.4844C189.562 54.3594 190 54.25 190.344 54.1562C190.719 54.0312 191.047 53.9219 191.328 53.8281C191.578 53.7344 191.875 53.6406 192.219 53.5469C192.5 53.4844 192.844 53.4062 193.25 53.3125C193.656 53.2188 194.125 53.1094 194.656 52.9844L194.516 57.25C195.516 56.0625 196.531 55.1719 197.562 54.5781C198.594 53.9844 199.562 53.5625 200.469 53.3125C201.5 53 202.516 52.8438 203.516 52.8438C204.766 52.9062 205.922 53.1094 206.984 53.4531C208.078 53.7969 209.016 54.2031 209.797 54.6719C210.609 55.1094 211.266 55.5781 211.766 56.0781C212.266 56.5781 212.562 57.0156 212.656 57.3906C213.031 58.6094 213.125 59.7344 212.938 60.7656C212.75 61.7656 212.5 62.75 212.188 63.7188C211.906 64.6562 211.656 65.5938 211.438 66.5312C211.25 67.4688 211.328 68.4844 211.672 69.5781C211.797 69.8594 211.922 70.1406 212.047 70.4219C212.172 70.6719 212.328 70.9219 212.516 71.1719C212.703 71.4219 212.922 71.625 213.172 71.7812C212.828 71.75 212.484 71.7344 212.141 71.7344C211.797 71.7031 211.484 71.6719 211.203 71.6406C210.859 71.6094 210.547 71.5781 210.266 71.5469C209.953 71.5156 209.531 71.5 209 71.5C208.094 71.5 206.688 71.5469 204.781 71.6406C205.062 70.9844 205.281 70.4375 205.438 70C205.625 69.5312 205.781 69.1562 205.906 68.875C206.031 68.5312 206.125 68.2656 206.188 68.0781C206.562 67.1719 206.781 66.1406 206.844 64.9844C206.938 63.8281 206.859 62.6562 206.609 61.4688C206.516 61.0625 206.359 60.5781 206.141 60.0156C205.922 59.4531 205.625 58.9062 205.25 58.375C204.906 57.8438 204.484 57.3906 203.984 57.0156C203.516 56.6406 202.969 56.4219 202.344 56.3594C201.719 56.2969 201.016 56.4531 200.234 56.8281C199.484 57.2031 198.672 57.8906 197.797 58.8906C197.141 59.7344 196.625 60.7656 196.25 61.9844C195.906 63.0156 195.672 64.3125 195.547 65.875C195.422 67.4062 195.609 69.2031 196.109 71.2656C195.672 71.2031 195.266 71.1719 194.891 71.1719C194.516 71.1406 194.203 71.1094 193.953 71.0781C193.641 71.0469 193.359 71.0156 193.109 70.9844C192.828 70.9844 192.516 70.9688 192.172 70.9375C191.859 70.9375 191.469 70.9375 191 70.9375C190.531 70.9062 189.984 70.875 189.359 70.8438ZM238.156 56.125C238.062 55.5 237.984 54.9844 237.922 54.5781C237.859 54.1406 237.797 53.7969 237.734 53.5469C237.672 53.2344 237.625 53 237.594 52.8438C237.531 52.6875 237.453 52.5156 237.359 52.3281C237.297 52.1719 237.188 51.9844 237.031 51.7656C236.906 51.5469 236.75 51.2969 236.562 51.0156C236.969 51.1406 237.375 51.2188 237.781 51.25C238.219 51.2812 238.625 51.3125 239 51.3438C239.406 51.375 239.828 51.375 240.266 51.3438C240.703 51.3438 241.203 51.3281 241.766 51.2969C242.266 51.2656 242.859 51.25 243.547 51.25C244.266 51.2188 245.078 51.1719 245.984 51.1094C245.453 51.2344 245 51.4531 244.625 51.7656C244.281 52.0469 243.984 52.3594 243.734 52.7031C243.453 53.0781 243.219 53.4844 243.031 53.9219C242.875 54.3281 242.781 55.1094 242.75 56.2656C242.719 57.3906 242.719 58.7344 242.75 60.2969C242.781 61.8281 242.812 63.4844 242.844 65.2656C242.906 67.0469 242.938 68.75 242.938 70.375C242.969 72 242.969 73.4844 242.938 74.8281C242.906 76.1406 242.828 77.1094 242.703 77.7344C242.266 79.7031 241.453 81.2969 240.266 82.5156C239.078 83.7656 237.516 84.4375 235.578 84.5312C233.234 84.625 231.375 84.4062 230 83.875C228.656 83.3438 227.609 82.6875 226.859 81.9062C226.109 81.1562 225.547 80.3906 225.172 79.6094C224.797 78.8281 224.406 78.2344 224 77.8281C223.625 77.4844 223.25 77.1562 222.875 76.8438C222.531 76.5938 222.172 76.3438 221.797 76.0938C221.453 75.8438 221.109 75.6875 220.766 75.625C221.672 75.6562 222.484 75.6719 223.203 75.6719C223.922 75.6719 224.531 75.6719 225.031 75.6719C225.594 75.6719 226.094 75.6562 226.531 75.625H228.031H232.297C231.672 75.8125 231.203 76.0156 230.891 76.2344C230.578 76.4844 230.359 76.7344 230.234 76.9844C230.109 77.2656 230.047 77.5469 230.047 77.8281C230.172 78.5781 230.578 79.125 231.266 79.4688C231.953 79.8125 232.891 80.0156 234.078 80.0781C235.234 80.1406 236.031 80.1094 236.469 79.9844C236.906 79.8906 237.25 79.7031 237.5 79.4219C238 78.6719 238.422 77.7031 238.766 76.5156C239.016 75.5156 239.188 74.2188 239.281 72.625C239.406 71 239.266 69.0156 238.859 66.6719C237.859 68.0469 236.703 69.0781 235.391 69.7656C234.078 70.4531 232.828 70.9531 231.641 71.2656C230.234 71.6094 228.812 71.7812 227.375 71.7812C223.594 71.625 220.766 70.75 218.891 69.1562C217.016 67.5625 216.156 65.4219 216.312 62.7344C216.406 61.3906 216.812 60.0469 217.531 58.7031C218.281 57.3594 219.25 56.1562 220.438 55.0938C221.656 54.0312 223.047 53.1875 224.609 52.5625C226.172 51.9375 227.797 51.6719 229.484 51.7656C230.766 51.8906 231.969 52.125 233.094 52.4688C234.062 52.7812 235.016 53.2188 235.953 53.7812C236.922 54.3438 237.656 55.125 238.156 56.125ZM223.25 60.8125C223.062 62.0312 223.141 63.1719 223.484 64.2344C223.859 65.2969 224.375 66.2188 225.031 67C225.688 67.75 226.422 68.3438 227.234 68.7812C228.047 69.1875 228.812 69.375 229.531 69.3438C231.031 69.3125 232.328 68.6406 233.422 67.3281C234.516 65.9844 235.172 63.9844 235.391 61.3281C235.484 60.0156 235.312 58.8906 234.875 57.9531C234.469 56.9844 233.953 56.2031 233.328 55.6094C232.703 55.0156 232.047 54.5938 231.359 54.3438C230.672 54.0938 230.125 53.9844 229.719 54.0156C229.156 54.0781 228.531 54.25 227.844 54.5312C227.188 54.7812 226.547 55.1719 225.922 55.7031C225.297 56.2031 224.734 56.875 224.234 57.7188C223.766 58.5625 223.438 59.5938 223.25 60.8125Z" fill="black"/>
</svg>
