<svg width="322" height="117" viewBox="0 0 322 117" fill="none" xmlns="http://www.w3.org/2000/svg">
<rect width="322" height="117" fill="white"/>
<g clip-path="url(#clip0_28_14)">
<path d="M54.237 80.5021C49.1963 80.5021 45.1131 83.3721 43.1429 85.4034C43.1429 85.4034 38.3468 90.1306 35.0991 91.7652C34.9576 91.8423 34.9596 91.9997 35.1577 91.9997H64.5085C70.3099 91.9997 73.0381 90.0461 76.4826 86.9818C76.4826 86.9818 81.495 82.3471 84.9347 80.8531C85.2804 80.7238 85.1995 80.5034 84.9347 80.5034L54.237 80.5021ZM104.66 80.5021C99.6196 80.5021 95.541 83.3721 93.5655 85.4034C93.5655 85.4034 88.7714 90.1306 85.5243 91.7652C85.3808 91.8423 85.3828 91.9997 85.5823 91.9997H114.991C120.793 91.9997 123.523 90.0461 126.965 86.9818C126.965 86.9818 131.924 82.3471 135.359 80.8531C135.706 80.7238 135.681 80.5034 135.417 80.5034L104.66 80.5021ZM155.14 80.5021C150.101 80.5021 146.019 83.3721 144.046 85.4034C144.046 85.4034 139.251 90.1306 136.002 91.7652C135.862 91.8423 135.865 91.9997 136.063 91.9997H165.471C171.272 91.9997 173.943 90.0461 177.389 86.9818C177.389 86.9818 182.401 82.3471 185.84 80.8531C186.187 80.7238 186.163 80.5034 185.898 80.5034L155.14 80.5021ZM205.563 80.5021C200.523 80.5021 196.502 83.3721 194.526 85.4034C194.526 85.4034 189.674 90.1306 186.426 91.7652C186.285 91.8423 186.288 91.9997 186.486 91.9997H215.894C221.697 91.9997 224.426 90.0461 227.869 86.9818C227.869 86.9818 232.886 82.3471 236.322 80.8531C236.673 80.7238 236.584 80.5034 236.322 80.5034L205.563 80.5021ZM256.044 80.5021C251.004 80.5021 246.92 83.3721 244.949 85.4034C244.949 85.4034 240.15 90.1306 236.905 91.7652C236.762 91.8423 236.767 91.9997 236.963 91.9997H266.375C272.175 91.9997 274.901 90.0461 278.349 86.9818C278.349 86.9818 283.309 82.3471 286.742 80.8531C287.087 80.7238 287.065 80.5034 286.801 80.5034L256.044 80.5021Z" fill="#0054A4" stroke="white" stroke-width="0.0770058" stroke-miterlimit="11.474"/>
<path d="M156.962 24.9996C146.232 24.9996 135.771 28.1665 135.771 38.7731C135.771 57.1403 167.996 47.4375 167.996 58.6752C167.996 62.3391 162.283 63.8123 157.666 63.8123C149.375 63.8123 143.662 62.585 136.418 58.2672V67.4883C141.818 69.259 149.165 70.1165 157.139 70.1165C168.269 70.1165 178.681 67.2578 178.681 56.4C178.681 37.2221 146.455 45.8376 146.455 36.4403C146.455 32.6558 151.627 31.3628 156.142 31.3628C163.742 31.3628 171.946 33.5743 176.454 37.7233V27.9186C170.619 26.0876 162.874 24.9996 156.962 24.9996ZM213.899 25.1169C194.546 25.1169 181.733 34.3662 181.733 48.4612C181.733 61.3972 193.493 70.0555 211.082 70.0555C216.781 70.0555 221.866 69.3132 227.811 67.893V56.9802C223.609 61.3938 218.614 63.1658 213.254 63.1658C202.866 63.1658 195.761 56.7316 195.761 47.4663C195.761 38.3269 203.128 31.6495 213.428 31.6495C219.04 31.6495 223.541 33.6795 227.164 37.1953V26.2819C223.395 25.5095 218.672 25.1169 213.899 25.1169ZM259.037 25.1169C242.36 25.1169 230.568 34.6616 230.568 48.1101C230.568 61.304 241.157 70.0569 256.925 70.0569C273.676 70.0569 285.216 60.7513 285.216 47.2372C285.22 33.9776 274.726 25.1169 259.037 25.1169ZM36.7456 26.4581V36.7887C40.3713 33.995 47.9523 32.9412 56.2333 32.8789V61.0669C56.2333 65.1649 55.8688 66.3333 54.1196 68.4792H70.4976C68.6588 66.3333 68.3819 65.1649 68.3819 61.0669V32.6431C75.5592 32.7054 84.1273 33.9923 87.7523 36.79V26.4594H36.7456V26.4581ZM92.1563 26.4581C93.8705 28.6026 94.2101 29.8259 94.2101 33.9287V61.0669C94.2101 65.1649 93.9001 66.3976 92.2729 68.4792H131.836V58.2665C126.409 62.1086 116.078 62.1227 111.88 62.0584H106.128V50.3283H110.354C113.217 50.3283 118.385 50.6646 121.388 51.5543V42.8014C118.428 43.7474 113.209 44.0281 110.354 44.0281H106.128V32.8836H111.88C117.02 32.8836 125.958 33.9414 129.314 36.7358V26.4641H92.1563V26.4581ZM257.925 31.478C266.659 31.478 272.423 38.6632 272.423 47.5279C272.423 56.3927 266.659 63.5785 257.925 63.5785C249.048 63.5785 243.364 56.3927 243.364 47.5279C243.365 38.6639 249.049 31.478 257.925 31.478Z" fill="#F02E25" stroke="white" stroke-width="0.0288772" stroke-miterlimit="3.864"/>
</g>
<defs>
<clipPath id="clip0_28_14">
<rect width="252" height="67" fill="white" transform="translate(35 25)"/>
</clipPath>
</defs>
</svg>
