<svg width="322" height="117" viewBox="0 0 322 117" fill="none" xmlns="http://www.w3.org/2000/svg">
<rect width="322" height="117" fill="white"/>
<path d="M42.1719 41.7812C44.2656 42.0312 46.0781 42.2188 47.6094 42.3438C49.1406 42.4375 50.4062 42.5156 51.4062 42.5781C52.5625 42.6406 53.5312 42.6562 54.3125 42.625C55.125 42.5938 56.2344 42.5156 57.6406 42.3906C58.8281 42.2969 60.3906 42.1719 62.3281 42.0156C64.2656 41.8281 66.6875 41.5781 69.5938 41.2656C69.625 41.9844 69.6406 42.6875 69.6406 43.375C69.6719 44.0312 69.7031 44.6094 69.7344 45.1094C69.7656 45.7031 69.7812 46.25 69.7812 46.75C69.7812 47.2812 69.75 47.9531 69.6875 48.7656C69.625 49.4531 69.5156 50.3281 69.3594 51.3906C69.2344 52.4219 69.0312 53.6562 68.75 55.0938C68.3125 53.4062 67.8906 52.0469 67.4844 51.0156C67.0781 49.9531 66.7031 49.1094 66.3594 48.4844C65.9844 47.7656 65.6094 47.2188 65.2344 46.8438C64.8281 46.5625 64.3438 46.3281 63.7812 46.1406C63.2812 45.9844 62.6406 45.8594 61.8594 45.7656C61.1094 45.6719 60.2188 45.6875 59.1875 45.8125C59.0312 49.9375 58.9219 53.2812 58.8594 55.8438C58.7969 58.4062 58.75 60.4062 58.7188 61.8438C58.6875 63.5625 58.6719 64.7969 58.6719 65.5469C58.7031 66.6094 58.875 67.6562 59.1875 68.6875C59.4375 69.5625 59.8438 70.4688 60.4062 71.4062C60.9688 72.3438 61.7812 73.1719 62.8438 73.8906H57.125C56.5938 73.8906 55.9375 73.9219 55.1562 73.9844C54.5 74.0469 53.6562 74.1094 52.625 74.1719C51.625 74.2344 50.4531 74.3438 49.1094 74.5C49.5781 73.6875 49.9531 72.9531 50.2344 72.2969C50.5156 71.6406 50.7344 71.0781 50.8906 70.6094C51.0781 70.0469 51.2188 69.5469 51.3125 69.1094C51.3438 68.4844 51.4219 67.2188 51.5469 65.3125C51.5781 64.5312 51.6094 63.5625 51.6406 62.4062C51.7031 61.25 51.7656 59.875 51.8281 58.2812C51.9219 56.6875 52 54.8594 52.0625 52.7969C52.1562 50.7031 52.25 48.3438 52.3438 45.7188C51.7812 45.5625 51.25 45.5781 50.75 45.7656C50.25 45.9219 49.8125 46.125 49.4375 46.375C49 46.6875 48.5781 47.0625 48.1719 47.5C47.7656 48.0312 47.3125 48.7188 46.8125 49.5625C46.375 50.2812 45.875 51.2344 45.3125 52.4219C44.75 53.5781 44.1094 55.0156 43.3906 56.7344C43.2344 54.9219 43.125 53.4375 43.0625 52.2812C43 51.0938 42.9531 50.1719 42.9219 49.5156C42.8906 48.7344 42.875 48.1562 42.875 47.7812C42.875 47.4375 42.8438 46.9844 42.7812 46.4219C42.7188 45.9531 42.6406 45.3438 42.5469 44.5938C42.4531 43.8125 42.3281 42.875 42.1719 41.7812ZM67.6719 53.5469C68.2656 53.5781 68.7969 53.5938 69.2656 53.5938C69.7656 53.5625 70.1875 53.5312 70.5312 53.5C70.9375 53.4688 71.2969 53.4375 71.6094 53.4062C72.0781 53.3438 72.5625 53.2656 73.0625 53.1719C73.5 53.1094 73.9531 53.0312 74.4219 52.9375C74.9219 52.8125 75.4062 52.6719 75.875 52.5156C75.6875 52.9844 75.5312 53.3906 75.4062 53.7344C75.2812 54.0781 75.1875 54.375 75.125 54.625C75.0312 54.9062 74.9844 55.1406 74.9844 55.3281C74.9531 55.5469 74.9375 55.8125 74.9375 56.125C74.9062 56.6562 74.9062 57.5156 74.9375 58.7031C76.5625 57.2969 77.9219 56.2031 79.0156 55.4219C80.1406 54.6406 81.0312 54.0312 81.6875 53.5938C82.4688 53.0938 83.0781 52.7656 83.5156 52.6094C84.6719 52.4219 85.6875 52.6875 86.5625 53.4062C86.9375 53.7188 87.2969 54.1406 87.6406 54.6719C87.9844 55.1719 88.2812 55.8438 88.5312 56.6875C88.7812 57.5312 88.9688 58.5469 89.0938 59.7344C89.2188 60.8906 89.2344 62.2812 89.1406 63.9062C88.4844 63.9688 87.8906 64.0312 87.3594 64.0938C86.8594 64.1562 86.4375 64.2031 86.0938 64.2344C85.6875 64.2969 85.3125 64.3281 84.9688 64.3281L83.7031 64.4688C83.2656 64.5312 82.7188 64.5938 82.0625 64.6562C81.4375 64.6875 80.6719 64.75 79.7656 64.8438C81.0781 63.7812 81.9219 62.8594 82.2969 62.0781C82.7031 61.2656 82.875 60.5938 82.8125 60.0625C82.75 59.4688 82.4688 58.9531 81.9688 58.5156C81.375 58.1719 80.7344 58.0469 80.0469 58.1406C79.4531 58.2031 78.7656 58.4688 77.9844 58.9375C77.2031 59.4062 76.375 60.2812 75.5 61.5625C75.5625 63.5625 75.625 65.2188 75.6875 66.5312C75.7812 67.8438 75.8594 68.9062 75.9219 69.7188C76.0156 70.6562 76.0938 71.3906 76.1562 71.9219C76.25 72.3906 76.4375 72.8906 76.7188 73.4219C76.9375 73.8594 77.25 74.3438 77.6562 74.875C78.0625 75.4062 78.5938 75.9375 79.25 76.4688C77.875 76.4062 76.75 76.4062 75.875 76.4688C75.3438 76.5 74.875 76.5312 74.4688 76.5625C74.0312 76.625 73.5625 76.6875 73.0625 76.75C72.625 76.8125 72.1094 76.875 71.5156 76.9375C70.9531 77.0312 70.3281 77.125 69.6406 77.2188C69.8906 76.875 70.0938 76.4688 70.25 76C70.4062 75.5625 70.5312 75.1406 70.625 74.7344C70.75 74.2656 70.8438 73.7812 70.9062 73.2812C70.9375 72.8438 70.9531 72.1875 70.9531 71.3125C70.9844 70.4375 70.9688 69.4531 70.9062 68.3594C70.875 67.2344 70.8281 66.0781 70.7656 64.8906C70.7031 63.6719 70.625 62.5312 70.5312 61.4688C70.4375 60.4062 70.3281 59.4844 70.2031 58.7031C70.1094 57.8906 70 57.3281 69.875 57.0156C69.7188 56.6406 69.5312 56.2656 69.3125 55.8906C69.125 55.5469 68.8906 55.1875 68.6094 54.8125C68.3281 54.4062 68.0156 53.9844 67.6719 53.5469ZM103.297 68.4531C104.172 68.4531 104.984 68.3594 105.734 68.1719C106.359 68.0156 106.953 67.7656 107.516 67.4219C108.109 67.0469 108.5 66.5 108.688 65.7812C109.312 65.9062 109.844 66.0156 110.281 66.1094C110.719 66.1719 111.094 66.2344 111.406 66.2969C111.75 66.3906 112.047 66.4531 112.297 66.4844C112.547 66.5469 112.844 66.6094 113.188 66.6719C113.5 66.7344 113.875 66.8125 114.312 66.9062C114.781 66.9688 115.328 67.0625 115.953 67.1875C115.484 67.125 115 67.1719 114.5 67.3281C114.031 67.4844 113.578 67.6562 113.141 67.8438C112.641 68.0625 112.172 68.3281 111.734 68.6406C111.453 68.8281 111.125 69.1094 110.75 69.4844C110.406 69.8594 109.906 70.2188 109.25 70.5625C108.594 70.9062 107.719 71.2031 106.625 71.4531C105.562 71.6719 104.188 71.75 102.5 71.6875C100.469 71.625 98.7656 71.2656 97.3906 70.6094C96.0156 69.9219 94.9062 69.0938 94.0625 68.125C93.2188 67.125 92.6094 66.0469 92.2344 64.8906C91.8594 63.7344 91.6562 62.6562 91.625 61.6562C91.5938 60.6562 91.8906 59.6094 92.5156 58.5156C93.1406 57.4219 94.0156 56.4219 95.1406 55.5156C96.2969 54.6094 97.6875 53.875 99.3125 53.3125C100.938 52.7188 102.719 52.4219 104.656 52.4219C105.781 52.4219 106.812 52.5625 107.75 52.8438C108.719 53.0938 109.594 53.4375 110.375 53.875C111.188 54.3125 111.891 54.8125 112.484 55.375C113.078 55.9062 113.578 56.4531 113.984 57.0156C114.391 57.6094 114.734 58.2344 115.016 58.8906C115.266 59.4531 115.469 60.0938 115.625 60.8125C115.781 61.5312 115.828 62.2656 115.766 63.0156C113.391 63.0781 111.469 63.125 110 63.1562C108.562 63.1875 107.438 63.2031 106.625 63.2031H104.516H102.922C102.359 63.2031 101.625 63.2188 100.719 63.25C99.8125 63.2812 98.7031 63.3281 97.3906 63.3906C97.5469 64.6406 97.9375 65.6094 98.5625 66.2969C99.2188 66.9531 99.9062 67.4531 100.625 67.7969C101.438 68.1719 102.328 68.3906 103.297 68.4531ZM99.0781 60.0156C100.078 60.0781 100.906 60.125 101.562 60.1562C102.25 60.1875 102.812 60.2188 103.25 60.25C103.719 60.2812 104.094 60.2969 104.375 60.2969H105.547C106.328 60.2969 107.781 60.25 109.906 60.1562C109.812 58.7812 109.516 57.7344 109.016 57.0156C108.547 56.2969 108.047 55.7656 107.516 55.4219C106.891 55.0469 106.203 54.8281 105.453 54.7656C103.422 54.7969 101.906 55.2188 100.906 56.0312C99.9375 56.8438 99.3281 58.1719 99.0781 60.0156ZM121.156 57.0156C121.312 56.8281 121.406 56.4844 121.438 55.9844C121.5 55.4531 121.625 54.8594 121.812 54.2031C122.031 53.5469 122.391 52.8594 122.891 52.1406C123.391 51.4219 124.203 50.75 125.328 50.125C126.422 49.5 127.484 49.125 128.516 49C129.547 48.875 130.531 48.9219 131.469 49.1406C132.406 49.3594 133.281 49.7031 134.094 50.1719C134.938 50.6406 135.703 51.1562 136.391 51.7188C136.859 52.0938 137.234 52.6406 137.516 53.3594C137.797 54.0469 138.016 54.8281 138.172 55.7031C138.328 56.5781 138.438 57.5 138.5 58.4688C138.594 59.4062 138.656 60.3281 138.688 61.2344C138.719 62.1094 138.734 62.9219 138.734 63.6719C138.766 64.3906 138.828 64.9844 138.922 65.4531C139.047 66.1406 139.266 66.7344 139.578 67.2344C139.891 67.7031 140.234 68.1094 140.609 68.4531C140.984 68.7656 141.359 69.0156 141.734 69.2031C142.109 69.3906 142.438 69.5312 142.719 69.625C142.906 69.7188 143.078 69.7812 143.234 69.8125C143.547 69.9375 143.766 69.9375 143.891 69.8125C143.703 70.25 143.531 70.625 143.375 70.9375C143.219 71.25 143.094 71.5156 143 71.7344C142.875 71.9844 142.766 72.1875 142.672 72.3438C142.578 72.5312 142.469 72.7031 142.344 72.8594C142.25 73.0156 142.125 73.1875 141.969 73.375C141.812 73.5625 141.656 73.7656 141.5 73.9844C141.094 73.8281 140.703 73.6406 140.328 73.4219C139.984 73.2031 139.672 73 139.391 72.8125C139.047 72.5938 138.734 72.375 138.453 72.1562C138.172 71.9375 137.906 71.6875 137.656 71.4062C137.438 71.1562 137.203 70.8906 136.953 70.6094C136.734 70.3281 136.547 70.0156 136.391 69.6719C136.203 70.0781 135.75 70.6562 135.031 71.4062C134.344 72.1562 133.438 72.8438 132.312 73.4688C131.188 74.0625 129.875 74.4844 128.375 74.7344C126.906 74.9844 125.281 74.8125 123.5 74.2188C122.719 73.9688 121.984 73.6094 121.297 73.1406C120.609 72.6406 120.016 72.0469 119.516 71.3594C119.047 70.6719 118.703 69.8906 118.484 69.0156C118.297 68.1094 118.312 67.1094 118.531 66.0156C118.75 64.9219 119.141 64 119.703 63.25C120.266 62.5 120.938 61.8906 121.719 61.4219C122.5 60.9531 123.375 60.5938 124.344 60.3438C125.312 60.0938 126.312 59.9219 127.344 59.8281C128.156 59.7969 128.969 59.8438 129.781 59.9688C130.469 60.0938 131.188 60.3281 131.938 60.6719C132.688 60.9844 133.328 61.4688 133.859 62.125C133.828 60.4688 133.766 59.1562 133.672 58.1875C133.609 57.1875 133.547 56.4219 133.484 55.8906C133.359 55.2656 133.25 54.8281 133.156 54.5781C133 54.3594 132.828 54.1094 132.641 53.8281C132.484 53.5469 132.281 53.2969 132.031 53.0781C131.781 52.8281 131.469 52.625 131.094 52.4688C130.719 52.3125 130.281 52.25 129.781 52.2812C129.25 52.3125 128.828 52.4531 128.516 52.7031C128.203 52.9531 127.953 53.25 127.766 53.5938C127.609 53.9062 127.516 54.25 127.484 54.625C127.453 55 127.469 55.3281 127.531 55.6094C127.594 55.7969 127.688 56 127.812 56.2188C127.938 56.4062 128.109 56.6094 128.328 56.8281C128.547 57.0469 128.844 57.2344 129.219 57.3906C128.5 57.4844 127.859 57.5625 127.297 57.625C126.734 57.6562 126.25 57.7031 125.844 57.7656C125.375 57.8281 124.969 57.875 124.625 57.9062C124.281 57.9375 123.875 58 123.406 58.0938C123 58.1562 122.5 58.2344 121.906 58.3281C121.312 58.4219 120.625 58.5469 119.844 58.7031C120.031 58.4844 120.203 58.2812 120.359 58.0938C120.516 57.875 120.656 57.6875 120.781 57.5312C120.906 57.3438 121.031 57.1719 121.156 57.0156ZM128.188 62.5938C127.625 62.625 127.062 62.7656 126.5 63.0156C125.938 63.2344 125.438 63.5625 125 64C124.562 64.4062 124.188 64.8906 123.875 65.4531C123.594 65.9844 123.453 66.5781 123.453 67.2344C123.453 67.8906 123.609 68.4688 123.922 68.9688C124.266 69.4375 124.703 69.8281 125.234 70.1406C125.797 70.4531 126.391 70.6406 127.016 70.7031C127.672 70.7656 128.312 70.7031 128.938 70.5156C129.531 70.2969 130.094 69.9531 130.625 69.4844C131.156 68.9844 131.609 68.4531 131.984 67.8906C132.359 67.2969 132.625 66.7188 132.781 66.1562C132.938 65.5625 132.953 65.0781 132.828 64.7031C132.578 63.8906 132.016 63.3281 131.141 63.0156C130.266 62.6719 129.281 62.5312 128.188 62.5938ZM142.859 46.4688C143.797 46.5625 144.578 46.6406 145.203 46.7031C145.859 46.7656 146.391 46.8125 146.797 46.8438C147.266 46.875 147.641 46.8906 147.922 46.8906C148.203 46.9219 148.578 46.9219 149.047 46.8906C149.453 46.8594 149.984 46.8281 150.641 46.7969C151.297 46.7344 152.125 46.6406 153.125 46.5156C152.906 46.8281 152.734 47.1094 152.609 47.3594C152.484 47.5781 152.375 47.7812 152.281 47.9688L152 48.5312C151.938 48.7188 151.875 48.9062 151.812 49.0938C151.75 49.25 151.688 49.4375 151.625 49.6562C151.594 49.875 151.562 50.1094 151.531 50.3594H158.75L158.094 54.1562L151.484 53.7812C151.328 55.375 151.219 56.6094 151.156 57.4844C151.094 58.3594 151.031 59 150.969 59.4062L150.875 60.25C150.781 61.4375 150.688 62.7344 150.594 64.1406C150.5 65.5156 150.469 66.7969 150.5 67.9844C150.531 69.1719 150.641 70.1719 150.828 70.9844C151.016 71.7656 151.344 72.1562 151.812 72.1562C152.281 72.1562 152.719 72.0312 153.125 71.7812C153.531 71.5312 153.875 71.2344 154.156 70.8906C154.469 70.5469 154.703 70.2031 154.859 69.8594C155.016 69.4844 155.094 69.2031 155.094 69.0156C155.094 68.8281 155.047 68.6094 154.953 68.3594C154.797 67.8906 154.516 67.2969 154.109 66.5781C155.016 66.7969 155.812 67.0156 156.5 67.2344C156.844 67.3594 157.156 67.4844 157.438 67.6094C157.75 67.7344 158.109 67.875 158.516 68.0312C158.859 68.1875 159.297 68.375 159.828 68.5938C160.359 68.8125 160.984 69.0781 161.703 69.3906C161.016 69.5156 160.516 69.7188 160.203 70C160.016 70.125 159.875 70.2656 159.781 70.4219C159.562 70.7656 159.312 71.2344 159.031 71.8281C158.75 72.3906 158.328 72.9531 157.766 73.5156C157.203 74.0781 156.438 74.5781 155.469 75.0156C154.531 75.4531 153.266 75.7031 151.672 75.7656C150.016 75.8281 148.75 75.5469 147.875 74.9219C147.031 74.2969 146.406 73.5781 146 72.7656C145.625 71.9219 145.406 71.0938 145.344 70.2812C145.281 69.4688 145.234 68.9219 145.203 68.6406C145.172 68.3594 145.172 67.6562 145.203 66.5312C145.234 65.4062 145.281 64.1719 145.344 62.8281C145.406 61.4531 145.469 60.1406 145.531 58.8906C145.594 57.6094 145.625 56.6719 145.625 56.0781C145.625 55.7656 145.641 55.4375 145.672 55.0938C145.672 54.8125 145.672 54.5156 145.672 54.2031C145.703 53.8594 145.719 53.5312 145.719 53.2188L138.922 53.1719L138.641 50.5L145.484 50.6875C145.422 50.3438 145.344 50.0312 145.25 49.75C145.188 49.4375 145.125 49.1875 145.062 49C144.969 48.7812 144.875 48.5938 144.781 48.4375C144.656 48.2812 144.516 48.1094 144.359 47.9219C144.203 47.7656 144 47.5625 143.75 47.3125C143.5 47.0625 143.203 46.7812 142.859 46.4688ZM159.547 53.7812C160.266 53.7188 160.875 53.6562 161.375 53.5938C161.906 53.5312 162.344 53.4688 162.688 53.4062C163.094 53.3438 163.438 53.2812 163.719 53.2188C164 53.1875 164.312 53.125 164.656 53.0312C164.969 52.9688 165.312 52.8906 165.688 52.7969C166.094 52.6719 166.531 52.5312 167 52.375L166.719 58.3281C167.406 57.2344 168.203 56.4062 169.109 55.8438C170.016 55.25 170.875 54.8125 171.688 54.5312C172.656 54.1875 173.625 53.9844 174.594 53.9219C175.594 53.9531 176.516 54.1094 177.359 54.3906C178.078 54.6406 178.797 55.0312 179.516 55.5625C180.266 56.0938 180.844 56.875 181.25 57.9062C182.312 56.8125 183.359 55.9688 184.391 55.375C185.453 54.75 186.391 54.2812 187.203 53.9688C188.172 53.625 189.078 53.4219 189.922 53.3594C191.047 53.3281 192.078 53.5156 193.016 53.9219C193.984 54.3281 194.828 54.8438 195.547 55.4688C196.266 56.0625 196.844 56.7031 197.281 57.3906C197.719 58.0469 197.969 58.625 198.031 59.125C198.125 59.8125 198.078 60.7031 197.891 61.7969C197.703 62.8594 197.484 63.9531 197.234 65.0781C196.984 66.1719 196.75 67.1875 196.531 68.125C196.344 69.0312 196.266 69.6719 196.297 70.0469C196.391 70.3594 196.609 70.7344 196.953 71.1719C197.266 71.5469 197.719 72.0156 198.312 72.5781C198.938 73.1094 199.828 73.7344 200.984 74.4531C199.984 74.4219 199.094 74.3906 198.312 74.3594C197.562 74.3281 196.922 74.2812 196.391 74.2188C195.766 74.1562 195.219 74.1094 194.75 74.0781C194.375 74.0781 193.922 74.0469 193.391 73.9844C192.953 73.9531 192.375 73.9062 191.656 73.8438C190.969 73.7812 190.172 73.7188 189.266 73.6562C189.609 73.5625 189.891 73.3906 190.109 73.1406C190.328 72.8594 190.516 72.5938 190.672 72.3438C190.828 72.0312 190.953 71.6875 191.047 71.3125C191.109 71 191.172 70.5 191.234 69.8125C191.297 69.125 191.344 68.3438 191.375 67.4688C191.438 66.5938 191.469 65.6719 191.469 64.7031C191.5 63.7344 191.5 62.8125 191.469 61.9375C191.438 61.0625 191.375 60.2656 191.281 59.5469C191.188 58.8281 191.062 58.2812 190.906 57.9062C190.781 57.625 190.562 57.4062 190.25 57.25C189.938 57.0625 189.578 56.9531 189.172 56.9219C188.766 56.8594 188.359 56.875 187.953 56.9688C187.547 57.0312 187.188 57.1562 186.875 57.3438C186.594 57.5625 186.219 57.8594 185.75 58.2344C185.344 58.5781 184.812 59.0469 184.156 59.6406C183.5 60.2344 182.672 60.9844 181.672 61.8906C181.578 63.8594 181.5 65.4531 181.438 66.6719C181.406 67.8594 181.375 68.7656 181.344 69.3906C181.312 70.1406 181.297 70.6562 181.297 70.9375C181.266 71.1875 181.281 71.4219 181.344 71.6406C181.406 72.1094 181.594 72.5469 181.906 72.9531C181.531 72.8594 181.125 72.7969 180.688 72.7656C180.281 72.7344 179.906 72.7031 179.562 72.6719C179.156 72.6406 178.75 72.625 178.344 72.625C178 72.625 177.625 72.6406 177.219 72.6719C176.875 72.7031 176.453 72.75 175.953 72.8125C175.453 72.8438 174.906 72.8906 174.312 72.9531C174.562 72.7969 174.766 72.6094 174.922 72.3906C175.078 72.1719 175.203 71.9688 175.297 71.7812C175.422 71.5625 175.516 71.3594 175.578 71.1719C175.609 70.9844 175.672 70.5312 175.766 69.8125C175.859 69.0625 175.922 68.1875 175.953 67.1875C175.984 66.1875 175.984 65.1406 175.953 64.0469C175.922 62.9219 175.812 61.9062 175.625 61C175.438 60.0625 175.141 59.2969 174.734 58.7031C174.359 58.1094 173.859 57.8438 173.234 57.9062C172.484 57.9688 171.719 58.1562 170.938 58.4688C170.281 58.7188 169.578 59.0938 168.828 59.5938C168.078 60.0938 167.375 60.7656 166.719 61.6094C166.594 63.9531 166.516 65.8125 166.484 67.1875C166.484 68.5625 166.5 69.6094 166.531 70.3281C166.562 71.1719 166.594 71.75 166.625 72.0625C166.656 72.2812 166.734 72.5 166.859 72.7188C166.953 72.9062 167.062 73.125 167.188 73.375C167.344 73.625 167.516 73.8594 167.703 74.0781L160.25 73.7031C160.5 73.5781 160.719 73.4219 160.906 73.2344C161.094 73.0156 161.25 72.7969 161.375 72.5781C161.5 72.3281 161.625 72.0781 161.75 71.8281C161.844 71.6094 161.922 71.0938 161.984 70.2812C162.078 69.4688 162.156 68.5156 162.219 67.4219C162.281 66.2969 162.328 65.125 162.359 63.9062C162.422 62.6562 162.453 61.5 162.453 60.4375C162.484 59.3438 162.5 58.4219 162.5 57.6719C162.5 56.8906 162.484 56.4219 162.453 56.2656C162.359 55.9531 162.188 55.625 161.938 55.2812C161.719 55.0312 161.422 54.7656 161.047 54.4844C160.672 54.1719 160.172 53.9375 159.547 53.7812ZM213.406 68.4531C214.281 68.4531 215.094 68.3594 215.844 68.1719C216.469 68.0156 217.062 67.7656 217.625 67.4219C218.219 67.0469 218.609 66.5 218.797 65.7812C219.422 65.9062 219.953 66.0156 220.391 66.1094C220.828 66.1719 221.203 66.2344 221.516 66.2969C221.859 66.3906 222.156 66.4531 222.406 66.4844C222.656 66.5469 222.953 66.6094 223.297 66.6719C223.609 66.7344 223.984 66.8125 224.422 66.9062C224.891 66.9688 225.438 67.0625 226.062 67.1875C225.594 67.125 225.109 67.1719 224.609 67.3281C224.141 67.4844 223.688 67.6562 223.25 67.8438C222.75 68.0625 222.281 68.3281 221.844 68.6406C221.562 68.8281 221.234 69.1094 220.859 69.4844C220.516 69.8594 220.016 70.2188 219.359 70.5625C218.703 70.9062 217.828 71.2031 216.734 71.4531C215.672 71.6719 214.297 71.75 212.609 71.6875C210.578 71.625 208.875 71.2656 207.5 70.6094C206.125 69.9219 205.016 69.0938 204.172 68.125C203.328 67.125 202.719 66.0469 202.344 64.8906C201.969 63.7344 201.766 62.6562 201.734 61.6562C201.703 60.6562 202 59.6094 202.625 58.5156C203.25 57.4219 204.125 56.4219 205.25 55.5156C206.406 54.6094 207.797 53.875 209.422 53.3125C211.047 52.7188 212.828 52.4219 214.766 52.4219C215.891 52.4219 216.922 52.5625 217.859 52.8438C218.828 53.0938 219.703 53.4375 220.484 53.875C221.297 54.3125 222 54.8125 222.594 55.375C223.188 55.9062 223.688 56.4531 224.094 57.0156C224.5 57.6094 224.844 58.2344 225.125 58.8906C225.375 59.4531 225.578 60.0938 225.734 60.8125C225.891 61.5312 225.938 62.2656 225.875 63.0156C223.5 63.0781 221.578 63.125 220.109 63.1562C218.672 63.1875 217.547 63.2031 216.734 63.2031H214.625H213.031C212.469 63.2031 211.734 63.2188 210.828 63.25C209.922 63.2812 208.812 63.3281 207.5 63.3906C207.656 64.6406 208.047 65.6094 208.672 66.2969C209.328 66.9531 210.016 67.4531 210.734 67.7969C211.547 68.1719 212.438 68.3906 213.406 68.4531ZM209.188 60.0156C210.188 60.0781 211.016 60.125 211.672 60.1562C212.359 60.1875 212.922 60.2188 213.359 60.25C213.828 60.2812 214.203 60.2969 214.484 60.2969H215.656C216.438 60.2969 217.891 60.25 220.016 60.1562C219.922 58.7812 219.625 57.7344 219.125 57.0156C218.656 56.2969 218.156 55.7656 217.625 55.4219C217 55.0469 216.312 54.8281 215.562 54.7656C213.531 54.7969 212.016 55.2188 211.016 56.0312C210.047 56.8438 209.438 58.1719 209.188 60.0156ZM229.203 70.8438C229.422 69.8125 229.578 68.9062 229.672 68.125C229.797 67.3125 229.891 66.6406 229.953 66.1094C230.016 65.4844 230.047 64.9531 230.047 64.5156C230.016 63.9844 229.984 63.3594 229.953 62.6406C229.953 61.8906 229.922 61.1562 229.859 60.4375C229.828 59.6875 229.781 59.0312 229.719 58.4688C229.656 57.875 229.578 57.4531 229.484 57.2031C229.359 56.9531 229.188 56.6875 228.969 56.4062C228.531 55.875 227.891 55.3594 227.047 54.8594C227.766 54.7031 228.375 54.5781 228.875 54.4844C229.406 54.3594 229.844 54.25 230.188 54.1562C230.562 54.0312 230.891 53.9219 231.172 53.8281C231.422 53.7344 231.719 53.6406 232.062 53.5469C232.344 53.4844 232.688 53.4062 233.094 53.3125C233.5 53.2188 233.969 53.1094 234.5 52.9844L234.359 57.25C235.359 56.0625 236.375 55.1719 237.406 54.5781C238.438 53.9844 239.406 53.5625 240.312 53.3125C241.344 53 242.359 52.8438 243.359 52.8438C244.609 52.9062 245.766 53.1094 246.828 53.4531C247.922 53.7969 248.859 54.2031 249.641 54.6719C250.453 55.1094 251.109 55.5781 251.609 56.0781C252.109 56.5781 252.406 57.0156 252.5 57.3906C252.875 58.6094 252.969 59.7344 252.781 60.7656C252.594 61.7656 252.344 62.75 252.031 63.7188C251.75 64.6562 251.5 65.5938 251.281 66.5312C251.094 67.4688 251.172 68.4844 251.516 69.5781C251.641 69.8594 251.766 70.1406 251.891 70.4219C252.016 70.6719 252.172 70.9219 252.359 71.1719C252.547 71.4219 252.766 71.625 253.016 71.7812C252.672 71.75 252.328 71.7344 251.984 71.7344C251.641 71.7031 251.328 71.6719 251.047 71.6406C250.703 71.6094 250.391 71.5781 250.109 71.5469C249.797 71.5156 249.375 71.5 248.844 71.5C247.938 71.5 246.531 71.5469 244.625 71.6406C244.906 70.9844 245.125 70.4375 245.281 70C245.469 69.5312 245.625 69.1562 245.75 68.875C245.875 68.5312 245.969 68.2656 246.031 68.0781C246.406 67.1719 246.625 66.1406 246.688 64.9844C246.781 63.8281 246.703 62.6562 246.453 61.4688C246.359 61.0625 246.203 60.5781 245.984 60.0156C245.766 59.4531 245.469 58.9062 245.094 58.375C244.75 57.8438 244.328 57.3906 243.828 57.0156C243.359 56.6406 242.812 56.4219 242.188 56.3594C241.562 56.2969 240.859 56.4531 240.078 56.8281C239.328 57.2031 238.516 57.8906 237.641 58.8906C236.984 59.7344 236.469 60.7656 236.094 61.9844C235.75 63.0156 235.516 64.3125 235.391 65.875C235.266 67.4062 235.453 69.2031 235.953 71.2656C235.516 71.2031 235.109 71.1719 234.734 71.1719C234.359 71.1406 234.047 71.1094 233.797 71.0781C233.484 71.0469 233.203 71.0156 232.953 70.9844C232.672 70.9844 232.359 70.9688 232.016 70.9375C231.703 70.9375 231.312 70.9375 230.844 70.9375C230.375 70.9062 229.828 70.875 229.203 70.8438ZM255.312 46.4688C256.25 46.5625 257.031 46.6406 257.656 46.7031C258.312 46.7656 258.844 46.8125 259.25 46.8438C259.719 46.875 260.094 46.8906 260.375 46.8906C260.656 46.9219 261.031 46.9219 261.5 46.8906C261.906 46.8594 262.438 46.8281 263.094 46.7969C263.75 46.7344 264.578 46.6406 265.578 46.5156C265.359 46.8281 265.188 47.1094 265.062 47.3594C264.938 47.5781 264.828 47.7812 264.734 47.9688L264.453 48.5312C264.391 48.7188 264.328 48.9062 264.266 49.0938C264.203 49.25 264.141 49.4375 264.078 49.6562C264.047 49.875 264.016 50.1094 263.984 50.3594H271.203L270.547 54.1562L263.938 53.7812C263.781 55.375 263.672 56.6094 263.609 57.4844C263.547 58.3594 263.484 59 263.422 59.4062L263.328 60.25C263.234 61.4375 263.141 62.7344 263.047 64.1406C262.953 65.5156 262.922 66.7969 262.953 67.9844C262.984 69.1719 263.094 70.1719 263.281 70.9844C263.469 71.7656 263.797 72.1562 264.266 72.1562C264.734 72.1562 265.172 72.0312 265.578 71.7812C265.984 71.5312 266.328 71.2344 266.609 70.8906C266.922 70.5469 267.156 70.2031 267.312 69.8594C267.469 69.4844 267.547 69.2031 267.547 69.0156C267.547 68.8281 267.5 68.6094 267.406 68.3594C267.25 67.8906 266.969 67.2969 266.562 66.5781C267.469 66.7969 268.266 67.0156 268.953 67.2344C269.297 67.3594 269.609 67.4844 269.891 67.6094C270.203 67.7344 270.562 67.875 270.969 68.0312C271.312 68.1875 271.75 68.375 272.281 68.5938C272.812 68.8125 273.438 69.0781 274.156 69.3906C273.469 69.5156 272.969 69.7188 272.656 70C272.469 70.125 272.328 70.2656 272.234 70.4219C272.016 70.7656 271.766 71.2344 271.484 71.8281C271.203 72.3906 270.781 72.9531 270.219 73.5156C269.656 74.0781 268.891 74.5781 267.922 75.0156C266.984 75.4531 265.719 75.7031 264.125 75.7656C262.469 75.8281 261.203 75.5469 260.328 74.9219C259.484 74.2969 258.859 73.5781 258.453 72.7656C258.078 71.9219 257.859 71.0938 257.797 70.2812C257.734 69.4688 257.688 68.9219 257.656 68.6406C257.625 68.3594 257.625 67.6562 257.656 66.5312C257.688 65.4062 257.734 64.1719 257.797 62.8281C257.859 61.4531 257.922 60.1406 257.984 58.8906C258.047 57.6094 258.078 56.6719 258.078 56.0781C258.078 55.7656 258.094 55.4375 258.125 55.0938C258.125 54.8125 258.125 54.5156 258.125 54.2031C258.156 53.8594 258.172 53.5312 258.172 53.2188L251.375 53.1719L251.094 50.5L257.938 50.6875C257.875 50.3438 257.797 50.0312 257.703 49.75C257.641 49.4375 257.578 49.1875 257.516 49C257.422 48.7812 257.328 48.5938 257.234 48.4375C257.109 48.2812 256.969 48.1094 256.812 47.9219C256.656 47.7656 256.453 47.5625 256.203 47.3125C255.953 47.0625 255.656 46.7812 255.312 46.4688ZM292.906 49.2344C292.625 49.9219 292.375 50.5469 292.156 51.1094C291.969 51.6719 291.797 52.1719 291.641 52.6094C291.484 53.1094 291.344 53.5469 291.219 53.9219C291.094 54.3594 290.953 54.8594 290.797 55.4219C290.641 55.9219 290.438 56.5469 290.188 57.2969C289.969 58.0156 289.703 58.875 289.391 59.875C289.141 58.375 288.688 57.1875 288.031 56.3125C287.375 55.4062 286.703 54.7031 286.016 54.2031C285.203 53.6406 284.328 53.2344 283.391 52.9844C281.703 52.7031 280.484 52.7344 279.734 53.0781C278.984 53.4219 278.484 53.8594 278.234 54.3906C278.109 54.6094 277.969 54.8906 277.812 55.2344C277.688 55.5469 277.578 55.875 277.484 56.2188C277.422 56.5625 277.406 56.9062 277.438 57.25C277.469 57.5938 277.609 57.875 277.859 58.0938C278.016 58.25 278.422 58.4688 279.078 58.75C279.734 59 280.516 59.2969 281.422 59.6406C282.359 59.9531 283.344 60.2969 284.375 60.6719C285.438 61.0469 286.438 61.4219 287.375 61.7969C288.312 62.1719 289.125 62.5469 289.812 62.9219C290.5 63.2969 290.953 63.6406 291.172 63.9531C291.359 64.2656 291.562 64.6875 291.781 65.2188C292.031 65.7188 292.203 66.2812 292.297 66.9062C292.422 67.5 292.453 68.125 292.391 68.7812C292.359 69.4062 292.188 70.0312 291.875 70.6562C291.562 71.2812 291.062 71.8594 290.375 72.3906C289.719 72.9219 288.828 73.3594 287.703 73.7031C286.391 74.1094 285.125 74.2188 283.906 74.0312C282.688 73.8438 281.562 73.5625 280.531 73.1875C279.531 72.8125 278.656 72.4531 277.906 72.1094C277.156 71.7344 276.625 71.5781 276.312 71.6406C275.969 71.7031 275.578 71.875 275.141 72.1562C274.703 72.4375 274.281 72.7344 273.875 73.0469C273.5 73.3281 273.172 73.5938 272.891 73.8438C272.609 74.0625 272.469 74.1406 272.469 74.0781C272.469 74.0156 272.516 73.8281 272.609 73.5156C272.734 73.2031 272.859 72.8281 272.984 72.3906C273.141 71.9219 273.281 71.4219 273.406 70.8906C273.562 70.3281 273.672 69.7969 273.734 69.2969C273.797 68.8906 273.875 68.3906 273.969 67.7969C274.031 67.2656 274.109 66.625 274.203 65.875C274.328 65.0938 274.469 64.1562 274.625 63.0625C274.781 63.875 275 64.5781 275.281 65.1719C275.594 65.7656 275.891 66.2812 276.172 66.7188C276.516 67.2188 276.844 67.6406 277.156 67.9844C277.625 68.4219 278.172 68.8281 278.797 69.2031C279.453 69.5781 280.109 69.9062 280.766 70.1875C281.422 70.4375 282.047 70.5938 282.641 70.6562C283.234 70.7188 283.734 70.6562 284.141 70.4688C284.547 70.2812 284.891 69.9375 285.172 69.4375C285.484 68.9375 285.703 68.3906 285.828 67.7969C285.953 67.2031 286 66.6406 285.969 66.1094C285.938 65.5469 285.797 65.0938 285.547 64.75C285.359 64.5312 284.922 64.25 284.234 63.9062C283.578 63.5625 282.781 63.1875 281.844 62.7812C280.938 62.375 279.969 61.9531 278.938 61.5156C277.938 61.0781 276.984 60.6406 276.078 60.2031C275.203 59.7344 274.469 59.2969 273.875 58.8906C273.312 58.4531 273 58.0625 272.938 57.7188C272.875 57.2188 272.828 56.6719 272.797 56.0781C272.766 55.4531 272.797 54.8438 272.891 54.25C273.016 53.625 273.234 53.0312 273.547 52.4688C273.891 51.9062 274.391 51.4375 275.047 51.0625C275.484 50.8125 276.062 50.625 276.781 50.5C277.5 50.375 278.297 50.3125 279.172 50.3125C280.047 50.2812 280.953 50.3125 281.891 50.4062C282.828 50.4688 283.719 50.5625 284.562 50.6875C285.438 50.7812 286.219 50.9062 286.906 51.0625C287.625 51.2188 288.172 51.3594 288.547 51.4844C288.984 51.6406 289.453 51.6562 289.953 51.5312C290.391 51.4375 290.859 51.2344 291.359 50.9219C291.859 50.6094 292.375 50.0469 292.906 49.2344Z" fill="black"/>
</svg>
